G04 #@! TF.GenerationSoftware,KiCad,Pcbnew,(5.1.5)-3*
G04 #@! TF.CreationDate,2020-04-12T16:42:19+08:00*
G04 #@! TF.ProjectId,Misaka,4d697361-6b61-42e6-9b69-6361645f7063,rev?*
G04 #@! TF.SameCoordinates,Original*
G04 #@! TF.FileFunction,Soldermask,Bot*
G04 #@! TF.FilePolarity,Negative*
%FSLAX46Y46*%
G04 Gerber Fmt 4.6, Leading zero omitted, Abs format (unit mm)*
G04 Created by KiCad (PCBNEW (5.1.5)-3) date 2020-04-12 16:42:19*
%MOMM*%
%LPD*%
G04 APERTURE LIST*
%ADD10C,0.050000*%
%ADD11C,0.100000*%
G04 APERTURE END LIST*
D10*
X45000000Y-23038475D02*
X105000000Y-23038475D01*
X14999999Y-74999999D02*
X45000000Y-23038475D01*
X44999999Y-126961524D02*
X14999999Y-74999999D01*
X104999999Y-126961524D02*
X44999999Y-126961524D01*
X135000000Y-75000000D02*
X104999999Y-126961524D01*
X105000000Y-23038475D02*
X135000000Y-75000000D01*
X111141016Y-95000000D02*
G75*
G03X111141016Y-95000000I-1500000J0D01*
G01*
X41858983Y-95000000D02*
G75*
G03X41858983Y-95000000I-1500000J0D01*
G01*
X76500000Y-35000000D02*
G75*
G03X76500000Y-35000000I-1500000J0D01*
G01*
D11*
G36*
X69013512Y-99453927D02*
G01*
X69162812Y-99483624D01*
X69326784Y-99551544D01*
X69474354Y-99650147D01*
X69599853Y-99775646D01*
X69698456Y-99923216D01*
X69766376Y-100087188D01*
X69801000Y-100261259D01*
X69801000Y-100438741D01*
X69766376Y-100612812D01*
X69698456Y-100776784D01*
X69599853Y-100924354D01*
X69474354Y-101049853D01*
X69326784Y-101148456D01*
X69162812Y-101216376D01*
X69107362Y-101227405D01*
X69083922Y-101234516D01*
X69062311Y-101246067D01*
X69043369Y-101261613D01*
X69027824Y-101280555D01*
X69016273Y-101302165D01*
X69009160Y-101325614D01*
X69006758Y-101350000D01*
X69009160Y-101374387D01*
X69016273Y-101397835D01*
X69027824Y-101419446D01*
X69043370Y-101438388D01*
X69062312Y-101453933D01*
X69083922Y-101465484D01*
X69107362Y-101472595D01*
X69162812Y-101483624D01*
X69326784Y-101551544D01*
X69474354Y-101650147D01*
X69599853Y-101775646D01*
X69698456Y-101923216D01*
X69766376Y-102087188D01*
X69801000Y-102261259D01*
X69801000Y-102438741D01*
X69766376Y-102612812D01*
X69698456Y-102776784D01*
X69599853Y-102924354D01*
X69474354Y-103049853D01*
X69326784Y-103148456D01*
X69162812Y-103216376D01*
X69107362Y-103227405D01*
X69083922Y-103234516D01*
X69062311Y-103246067D01*
X69043369Y-103261613D01*
X69027824Y-103280555D01*
X69016273Y-103302165D01*
X69009160Y-103325614D01*
X69006758Y-103350000D01*
X69009160Y-103374387D01*
X69016273Y-103397835D01*
X69027824Y-103419446D01*
X69043370Y-103438388D01*
X69062312Y-103453933D01*
X69083922Y-103465484D01*
X69107362Y-103472595D01*
X69162812Y-103483624D01*
X69326784Y-103551544D01*
X69474354Y-103650147D01*
X69599853Y-103775646D01*
X69698456Y-103923216D01*
X69766376Y-104087188D01*
X69801000Y-104261259D01*
X69801000Y-104438741D01*
X69766376Y-104612812D01*
X69698456Y-104776784D01*
X69599853Y-104924354D01*
X69474354Y-105049853D01*
X69326784Y-105148456D01*
X69162812Y-105216376D01*
X69107362Y-105227405D01*
X69083922Y-105234516D01*
X69062311Y-105246067D01*
X69043369Y-105261613D01*
X69027824Y-105280555D01*
X69016273Y-105302165D01*
X69009160Y-105325614D01*
X69006758Y-105350000D01*
X69009160Y-105374387D01*
X69016273Y-105397835D01*
X69027824Y-105419446D01*
X69043370Y-105438388D01*
X69062312Y-105453933D01*
X69083922Y-105465484D01*
X69107362Y-105472595D01*
X69162812Y-105483624D01*
X69326784Y-105551544D01*
X69474354Y-105650147D01*
X69599853Y-105775646D01*
X69698456Y-105923216D01*
X69766376Y-106087188D01*
X69801000Y-106261259D01*
X69801000Y-106438741D01*
X69766376Y-106612812D01*
X69698456Y-106776784D01*
X69599853Y-106924354D01*
X69474354Y-107049853D01*
X69326784Y-107148456D01*
X69162812Y-107216376D01*
X69107362Y-107227405D01*
X69083922Y-107234516D01*
X69062311Y-107246067D01*
X69043369Y-107261613D01*
X69027824Y-107280555D01*
X69016273Y-107302165D01*
X69009160Y-107325614D01*
X69006758Y-107350000D01*
X69009160Y-107374387D01*
X69016273Y-107397835D01*
X69027824Y-107419446D01*
X69043370Y-107438388D01*
X69062312Y-107453933D01*
X69083922Y-107465484D01*
X69107362Y-107472595D01*
X69162812Y-107483624D01*
X69326784Y-107551544D01*
X69474354Y-107650147D01*
X69599853Y-107775646D01*
X69698456Y-107923216D01*
X69766376Y-108087188D01*
X69801000Y-108261259D01*
X69801000Y-108438741D01*
X69766376Y-108612812D01*
X69698456Y-108776784D01*
X69599853Y-108924354D01*
X69474354Y-109049853D01*
X69326784Y-109148456D01*
X69162812Y-109216376D01*
X69107362Y-109227405D01*
X69083922Y-109234516D01*
X69062311Y-109246067D01*
X69043369Y-109261613D01*
X69027824Y-109280555D01*
X69016273Y-109302165D01*
X69009160Y-109325614D01*
X69006758Y-109350000D01*
X69009160Y-109374387D01*
X69016273Y-109397835D01*
X69027824Y-109419446D01*
X69043370Y-109438388D01*
X69062312Y-109453933D01*
X69083922Y-109465484D01*
X69107362Y-109472595D01*
X69162812Y-109483624D01*
X69326784Y-109551544D01*
X69474354Y-109650147D01*
X69599853Y-109775646D01*
X69698456Y-109923216D01*
X69766376Y-110087188D01*
X69801000Y-110261259D01*
X69801000Y-110438741D01*
X69766376Y-110612812D01*
X69698456Y-110776784D01*
X69599853Y-110924354D01*
X69474354Y-111049853D01*
X69326784Y-111148456D01*
X69162812Y-111216376D01*
X69107362Y-111227405D01*
X69083922Y-111234516D01*
X69062311Y-111246067D01*
X69043369Y-111261613D01*
X69027824Y-111280555D01*
X69016273Y-111302165D01*
X69009160Y-111325614D01*
X69006758Y-111350000D01*
X69009160Y-111374387D01*
X69016273Y-111397835D01*
X69027824Y-111419446D01*
X69043370Y-111438388D01*
X69062312Y-111453933D01*
X69083922Y-111465484D01*
X69107362Y-111472595D01*
X69162812Y-111483624D01*
X69326784Y-111551544D01*
X69474354Y-111650147D01*
X69599853Y-111775646D01*
X69698456Y-111923216D01*
X69766376Y-112087188D01*
X69801000Y-112261259D01*
X69801000Y-112438741D01*
X69766376Y-112612812D01*
X69698456Y-112776784D01*
X69599853Y-112924354D01*
X69474354Y-113049853D01*
X69326784Y-113148456D01*
X69162812Y-113216376D01*
X69107362Y-113227405D01*
X69083922Y-113234516D01*
X69062311Y-113246067D01*
X69043369Y-113261613D01*
X69027824Y-113280555D01*
X69016273Y-113302165D01*
X69009160Y-113325614D01*
X69006758Y-113350000D01*
X69009160Y-113374387D01*
X69016273Y-113397835D01*
X69027824Y-113419446D01*
X69043370Y-113438388D01*
X69062312Y-113453933D01*
X69083922Y-113465484D01*
X69107362Y-113472595D01*
X69162812Y-113483624D01*
X69326784Y-113551544D01*
X69474354Y-113650147D01*
X69599853Y-113775646D01*
X69698456Y-113923216D01*
X69766376Y-114087188D01*
X69801000Y-114261259D01*
X69801000Y-114438741D01*
X69766376Y-114612812D01*
X69698456Y-114776784D01*
X69599853Y-114924354D01*
X69474354Y-115049853D01*
X69326784Y-115148456D01*
X69162812Y-115216376D01*
X69107362Y-115227405D01*
X69083922Y-115234516D01*
X69062311Y-115246067D01*
X69043369Y-115261613D01*
X69027824Y-115280555D01*
X69016273Y-115302165D01*
X69009160Y-115325614D01*
X69006758Y-115350000D01*
X69009160Y-115374387D01*
X69016273Y-115397835D01*
X69027824Y-115419446D01*
X69043370Y-115438388D01*
X69062312Y-115453933D01*
X69083922Y-115465484D01*
X69107362Y-115472595D01*
X69162812Y-115483624D01*
X69326784Y-115551544D01*
X69474354Y-115650147D01*
X69599853Y-115775646D01*
X69698456Y-115923216D01*
X69766376Y-116087188D01*
X69801000Y-116261259D01*
X69801000Y-116438741D01*
X69766376Y-116612812D01*
X69698456Y-116776784D01*
X69599853Y-116924354D01*
X69474354Y-117049853D01*
X69326784Y-117148456D01*
X69162812Y-117216376D01*
X69107362Y-117227405D01*
X69083922Y-117234516D01*
X69062311Y-117246067D01*
X69043369Y-117261613D01*
X69027824Y-117280555D01*
X69016273Y-117302165D01*
X69009160Y-117325614D01*
X69006758Y-117350000D01*
X69009160Y-117374387D01*
X69016273Y-117397835D01*
X69027824Y-117419446D01*
X69043370Y-117438388D01*
X69062312Y-117453933D01*
X69083922Y-117465484D01*
X69107362Y-117472595D01*
X69162812Y-117483624D01*
X69326784Y-117551544D01*
X69474354Y-117650147D01*
X69599853Y-117775646D01*
X69698456Y-117923216D01*
X69766376Y-118087188D01*
X69801000Y-118261259D01*
X69801000Y-118438741D01*
X69766376Y-118612812D01*
X69698456Y-118776784D01*
X69599853Y-118924354D01*
X69474354Y-119049853D01*
X69326784Y-119148456D01*
X69162812Y-119216376D01*
X69013512Y-119246073D01*
X68988742Y-119251000D01*
X68811258Y-119251000D01*
X68786488Y-119246073D01*
X68637188Y-119216376D01*
X68473216Y-119148456D01*
X68325646Y-119049853D01*
X68200147Y-118924354D01*
X68101544Y-118776784D01*
X68033624Y-118612812D01*
X67999000Y-118438741D01*
X67999000Y-118261259D01*
X68033624Y-118087188D01*
X68101544Y-117923216D01*
X68200147Y-117775646D01*
X68325646Y-117650147D01*
X68473216Y-117551544D01*
X68637188Y-117483624D01*
X68692638Y-117472595D01*
X68716078Y-117465484D01*
X68737689Y-117453933D01*
X68756631Y-117438387D01*
X68772176Y-117419445D01*
X68783727Y-117397835D01*
X68790840Y-117374386D01*
X68793242Y-117350000D01*
X68790840Y-117325613D01*
X68783727Y-117302165D01*
X68772176Y-117280554D01*
X68756630Y-117261612D01*
X68737688Y-117246067D01*
X68716078Y-117234516D01*
X68692638Y-117227405D01*
X68637188Y-117216376D01*
X68473216Y-117148456D01*
X68325646Y-117049853D01*
X68200147Y-116924354D01*
X68101544Y-116776784D01*
X68033624Y-116612812D01*
X67999000Y-116438741D01*
X67999000Y-116261259D01*
X68033624Y-116087188D01*
X68101544Y-115923216D01*
X68200147Y-115775646D01*
X68325646Y-115650147D01*
X68473216Y-115551544D01*
X68637188Y-115483624D01*
X68692638Y-115472595D01*
X68716078Y-115465484D01*
X68737689Y-115453933D01*
X68756631Y-115438387D01*
X68772176Y-115419445D01*
X68783727Y-115397835D01*
X68790840Y-115374386D01*
X68793242Y-115350000D01*
X68790840Y-115325613D01*
X68783727Y-115302165D01*
X68772176Y-115280554D01*
X68756630Y-115261612D01*
X68737688Y-115246067D01*
X68716078Y-115234516D01*
X68692638Y-115227405D01*
X68637188Y-115216376D01*
X68473216Y-115148456D01*
X68325646Y-115049853D01*
X68200147Y-114924354D01*
X68101544Y-114776784D01*
X68033624Y-114612812D01*
X67999000Y-114438741D01*
X67999000Y-114261259D01*
X68033624Y-114087188D01*
X68101544Y-113923216D01*
X68200147Y-113775646D01*
X68325646Y-113650147D01*
X68473216Y-113551544D01*
X68637188Y-113483624D01*
X68692638Y-113472595D01*
X68716078Y-113465484D01*
X68737689Y-113453933D01*
X68756631Y-113438387D01*
X68772176Y-113419445D01*
X68783727Y-113397835D01*
X68790840Y-113374386D01*
X68793242Y-113350000D01*
X68790840Y-113325613D01*
X68783727Y-113302165D01*
X68772176Y-113280554D01*
X68756630Y-113261612D01*
X68737688Y-113246067D01*
X68716078Y-113234516D01*
X68692638Y-113227405D01*
X68637188Y-113216376D01*
X68473216Y-113148456D01*
X68325646Y-113049853D01*
X68200147Y-112924354D01*
X68101544Y-112776784D01*
X68033624Y-112612812D01*
X67999000Y-112438741D01*
X67999000Y-112261259D01*
X68033624Y-112087188D01*
X68101544Y-111923216D01*
X68200147Y-111775646D01*
X68325646Y-111650147D01*
X68473216Y-111551544D01*
X68637188Y-111483624D01*
X68692638Y-111472595D01*
X68716078Y-111465484D01*
X68737689Y-111453933D01*
X68756631Y-111438387D01*
X68772176Y-111419445D01*
X68783727Y-111397835D01*
X68790840Y-111374386D01*
X68793242Y-111350000D01*
X68790840Y-111325613D01*
X68783727Y-111302165D01*
X68772176Y-111280554D01*
X68756630Y-111261612D01*
X68737688Y-111246067D01*
X68716078Y-111234516D01*
X68692638Y-111227405D01*
X68637188Y-111216376D01*
X68473216Y-111148456D01*
X68325646Y-111049853D01*
X68200147Y-110924354D01*
X68101544Y-110776784D01*
X68033624Y-110612812D01*
X67999000Y-110438741D01*
X67999000Y-110261259D01*
X68033624Y-110087188D01*
X68101544Y-109923216D01*
X68200147Y-109775646D01*
X68325646Y-109650147D01*
X68473216Y-109551544D01*
X68637188Y-109483624D01*
X68692638Y-109472595D01*
X68716078Y-109465484D01*
X68737689Y-109453933D01*
X68756631Y-109438387D01*
X68772176Y-109419445D01*
X68783727Y-109397835D01*
X68790840Y-109374386D01*
X68793242Y-109350000D01*
X68790840Y-109325613D01*
X68783727Y-109302165D01*
X68772176Y-109280554D01*
X68756630Y-109261612D01*
X68737688Y-109246067D01*
X68716078Y-109234516D01*
X68692638Y-109227405D01*
X68637188Y-109216376D01*
X68473216Y-109148456D01*
X68325646Y-109049853D01*
X68200147Y-108924354D01*
X68101544Y-108776784D01*
X68033624Y-108612812D01*
X67999000Y-108438741D01*
X67999000Y-108261259D01*
X68033624Y-108087188D01*
X68101544Y-107923216D01*
X68200147Y-107775646D01*
X68325646Y-107650147D01*
X68473216Y-107551544D01*
X68637188Y-107483624D01*
X68692638Y-107472595D01*
X68716078Y-107465484D01*
X68737689Y-107453933D01*
X68756631Y-107438387D01*
X68772176Y-107419445D01*
X68783727Y-107397835D01*
X68790840Y-107374386D01*
X68793242Y-107350000D01*
X68790840Y-107325613D01*
X68783727Y-107302165D01*
X68772176Y-107280554D01*
X68756630Y-107261612D01*
X68737688Y-107246067D01*
X68716078Y-107234516D01*
X68692638Y-107227405D01*
X68637188Y-107216376D01*
X68473216Y-107148456D01*
X68325646Y-107049853D01*
X68200147Y-106924354D01*
X68101544Y-106776784D01*
X68033624Y-106612812D01*
X67999000Y-106438741D01*
X67999000Y-106261259D01*
X68033624Y-106087188D01*
X68101544Y-105923216D01*
X68200147Y-105775646D01*
X68325646Y-105650147D01*
X68473216Y-105551544D01*
X68637188Y-105483624D01*
X68692638Y-105472595D01*
X68716078Y-105465484D01*
X68737689Y-105453933D01*
X68756631Y-105438387D01*
X68772176Y-105419445D01*
X68783727Y-105397835D01*
X68790840Y-105374386D01*
X68793242Y-105350000D01*
X68790840Y-105325613D01*
X68783727Y-105302165D01*
X68772176Y-105280554D01*
X68756630Y-105261612D01*
X68737688Y-105246067D01*
X68716078Y-105234516D01*
X68692638Y-105227405D01*
X68637188Y-105216376D01*
X68473216Y-105148456D01*
X68325646Y-105049853D01*
X68200147Y-104924354D01*
X68101544Y-104776784D01*
X68033624Y-104612812D01*
X67999000Y-104438741D01*
X67999000Y-104261259D01*
X68033624Y-104087188D01*
X68101544Y-103923216D01*
X68200147Y-103775646D01*
X68325646Y-103650147D01*
X68473216Y-103551544D01*
X68637188Y-103483624D01*
X68692638Y-103472595D01*
X68716078Y-103465484D01*
X68737689Y-103453933D01*
X68756631Y-103438387D01*
X68772176Y-103419445D01*
X68783727Y-103397835D01*
X68790840Y-103374386D01*
X68793242Y-103350000D01*
X68790840Y-103325613D01*
X68783727Y-103302165D01*
X68772176Y-103280554D01*
X68756630Y-103261612D01*
X68737688Y-103246067D01*
X68716078Y-103234516D01*
X68692638Y-103227405D01*
X68637188Y-103216376D01*
X68473216Y-103148456D01*
X68325646Y-103049853D01*
X68200147Y-102924354D01*
X68101544Y-102776784D01*
X68033624Y-102612812D01*
X67999000Y-102438741D01*
X67999000Y-102261259D01*
X68033624Y-102087188D01*
X68101544Y-101923216D01*
X68200147Y-101775646D01*
X68325646Y-101650147D01*
X68473216Y-101551544D01*
X68637188Y-101483624D01*
X68692638Y-101472595D01*
X68716078Y-101465484D01*
X68737689Y-101453933D01*
X68756631Y-101438387D01*
X68772176Y-101419445D01*
X68783727Y-101397835D01*
X68790840Y-101374386D01*
X68793242Y-101350000D01*
X68790840Y-101325613D01*
X68783727Y-101302165D01*
X68772176Y-101280554D01*
X68756630Y-101261612D01*
X68737688Y-101246067D01*
X68716078Y-101234516D01*
X68692638Y-101227405D01*
X68637188Y-101216376D01*
X68473216Y-101148456D01*
X68325646Y-101049853D01*
X68200147Y-100924354D01*
X68101544Y-100776784D01*
X68033624Y-100612812D01*
X67999000Y-100438741D01*
X67999000Y-100261259D01*
X68033624Y-100087188D01*
X68101544Y-99923216D01*
X68200147Y-99775646D01*
X68325646Y-99650147D01*
X68473216Y-99551544D01*
X68637188Y-99483624D01*
X68786488Y-99453927D01*
X68811258Y-99449000D01*
X68988742Y-99449000D01*
X69013512Y-99453927D01*
G37*
G36*
X47013512Y-99453927D02*
G01*
X47162812Y-99483624D01*
X47326784Y-99551544D01*
X47474354Y-99650147D01*
X47599853Y-99775646D01*
X47698456Y-99923216D01*
X47766376Y-100087188D01*
X47801000Y-100261259D01*
X47801000Y-100438741D01*
X47766376Y-100612812D01*
X47698456Y-100776784D01*
X47599853Y-100924354D01*
X47474354Y-101049853D01*
X47326784Y-101148456D01*
X47162812Y-101216376D01*
X47107362Y-101227405D01*
X47083922Y-101234516D01*
X47062311Y-101246067D01*
X47043369Y-101261613D01*
X47027824Y-101280555D01*
X47016273Y-101302165D01*
X47009160Y-101325614D01*
X47006758Y-101350000D01*
X47009160Y-101374387D01*
X47016273Y-101397835D01*
X47027824Y-101419446D01*
X47043370Y-101438388D01*
X47062312Y-101453933D01*
X47083922Y-101465484D01*
X47107362Y-101472595D01*
X47162812Y-101483624D01*
X47326784Y-101551544D01*
X47474354Y-101650147D01*
X47599853Y-101775646D01*
X47698456Y-101923216D01*
X47766376Y-102087188D01*
X47801000Y-102261259D01*
X47801000Y-102438741D01*
X47766376Y-102612812D01*
X47698456Y-102776784D01*
X47599853Y-102924354D01*
X47474354Y-103049853D01*
X47326784Y-103148456D01*
X47162812Y-103216376D01*
X47107362Y-103227405D01*
X47083922Y-103234516D01*
X47062311Y-103246067D01*
X47043369Y-103261613D01*
X47027824Y-103280555D01*
X47016273Y-103302165D01*
X47009160Y-103325614D01*
X47006758Y-103350000D01*
X47009160Y-103374387D01*
X47016273Y-103397835D01*
X47027824Y-103419446D01*
X47043370Y-103438388D01*
X47062312Y-103453933D01*
X47083922Y-103465484D01*
X47107362Y-103472595D01*
X47162812Y-103483624D01*
X47326784Y-103551544D01*
X47474354Y-103650147D01*
X47599853Y-103775646D01*
X47698456Y-103923216D01*
X47766376Y-104087188D01*
X47801000Y-104261259D01*
X47801000Y-104438741D01*
X47766376Y-104612812D01*
X47698456Y-104776784D01*
X47599853Y-104924354D01*
X47474354Y-105049853D01*
X47326784Y-105148456D01*
X47162812Y-105216376D01*
X47107362Y-105227405D01*
X47083922Y-105234516D01*
X47062311Y-105246067D01*
X47043369Y-105261613D01*
X47027824Y-105280555D01*
X47016273Y-105302165D01*
X47009160Y-105325614D01*
X47006758Y-105350000D01*
X47009160Y-105374387D01*
X47016273Y-105397835D01*
X47027824Y-105419446D01*
X47043370Y-105438388D01*
X47062312Y-105453933D01*
X47083922Y-105465484D01*
X47107362Y-105472595D01*
X47162812Y-105483624D01*
X47326784Y-105551544D01*
X47474354Y-105650147D01*
X47599853Y-105775646D01*
X47698456Y-105923216D01*
X47766376Y-106087188D01*
X47801000Y-106261259D01*
X47801000Y-106438741D01*
X47766376Y-106612812D01*
X47698456Y-106776784D01*
X47599853Y-106924354D01*
X47474354Y-107049853D01*
X47326784Y-107148456D01*
X47162812Y-107216376D01*
X47107362Y-107227405D01*
X47083922Y-107234516D01*
X47062311Y-107246067D01*
X47043369Y-107261613D01*
X47027824Y-107280555D01*
X47016273Y-107302165D01*
X47009160Y-107325614D01*
X47006758Y-107350000D01*
X47009160Y-107374387D01*
X47016273Y-107397835D01*
X47027824Y-107419446D01*
X47043370Y-107438388D01*
X47062312Y-107453933D01*
X47083922Y-107465484D01*
X47107362Y-107472595D01*
X47162812Y-107483624D01*
X47326784Y-107551544D01*
X47474354Y-107650147D01*
X47599853Y-107775646D01*
X47698456Y-107923216D01*
X47766376Y-108087188D01*
X47801000Y-108261259D01*
X47801000Y-108438741D01*
X47766376Y-108612812D01*
X47698456Y-108776784D01*
X47599853Y-108924354D01*
X47474354Y-109049853D01*
X47326784Y-109148456D01*
X47162812Y-109216376D01*
X47107362Y-109227405D01*
X47083922Y-109234516D01*
X47062311Y-109246067D01*
X47043369Y-109261613D01*
X47027824Y-109280555D01*
X47016273Y-109302165D01*
X47009160Y-109325614D01*
X47006758Y-109350000D01*
X47009160Y-109374387D01*
X47016273Y-109397835D01*
X47027824Y-109419446D01*
X47043370Y-109438388D01*
X47062312Y-109453933D01*
X47083922Y-109465484D01*
X47107362Y-109472595D01*
X47162812Y-109483624D01*
X47326784Y-109551544D01*
X47474354Y-109650147D01*
X47599853Y-109775646D01*
X47698456Y-109923216D01*
X47766376Y-110087188D01*
X47801000Y-110261259D01*
X47801000Y-110438741D01*
X47766376Y-110612812D01*
X47698456Y-110776784D01*
X47599853Y-110924354D01*
X47474354Y-111049853D01*
X47326784Y-111148456D01*
X47162812Y-111216376D01*
X47107362Y-111227405D01*
X47083922Y-111234516D01*
X47062311Y-111246067D01*
X47043369Y-111261613D01*
X47027824Y-111280555D01*
X47016273Y-111302165D01*
X47009160Y-111325614D01*
X47006758Y-111350000D01*
X47009160Y-111374387D01*
X47016273Y-111397835D01*
X47027824Y-111419446D01*
X47043370Y-111438388D01*
X47062312Y-111453933D01*
X47083922Y-111465484D01*
X47107362Y-111472595D01*
X47162812Y-111483624D01*
X47326784Y-111551544D01*
X47474354Y-111650147D01*
X47599853Y-111775646D01*
X47698456Y-111923216D01*
X47766376Y-112087188D01*
X47801000Y-112261259D01*
X47801000Y-112438741D01*
X47766376Y-112612812D01*
X47698456Y-112776784D01*
X47599853Y-112924354D01*
X47474354Y-113049853D01*
X47326784Y-113148456D01*
X47162812Y-113216376D01*
X47107362Y-113227405D01*
X47083922Y-113234516D01*
X47062311Y-113246067D01*
X47043369Y-113261613D01*
X47027824Y-113280555D01*
X47016273Y-113302165D01*
X47009160Y-113325614D01*
X47006758Y-113350000D01*
X47009160Y-113374387D01*
X47016273Y-113397835D01*
X47027824Y-113419446D01*
X47043370Y-113438388D01*
X47062312Y-113453933D01*
X47083922Y-113465484D01*
X47107362Y-113472595D01*
X47162812Y-113483624D01*
X47326784Y-113551544D01*
X47474354Y-113650147D01*
X47599853Y-113775646D01*
X47698456Y-113923216D01*
X47766376Y-114087188D01*
X47801000Y-114261259D01*
X47801000Y-114438741D01*
X47766376Y-114612812D01*
X47698456Y-114776784D01*
X47599853Y-114924354D01*
X47474354Y-115049853D01*
X47326784Y-115148456D01*
X47162812Y-115216376D01*
X47107362Y-115227405D01*
X47083922Y-115234516D01*
X47062311Y-115246067D01*
X47043369Y-115261613D01*
X47027824Y-115280555D01*
X47016273Y-115302165D01*
X47009160Y-115325614D01*
X47006758Y-115350000D01*
X47009160Y-115374387D01*
X47016273Y-115397835D01*
X47027824Y-115419446D01*
X47043370Y-115438388D01*
X47062312Y-115453933D01*
X47083922Y-115465484D01*
X47107362Y-115472595D01*
X47162812Y-115483624D01*
X47326784Y-115551544D01*
X47474354Y-115650147D01*
X47599853Y-115775646D01*
X47698456Y-115923216D01*
X47766376Y-116087188D01*
X47801000Y-116261259D01*
X47801000Y-116438741D01*
X47766376Y-116612812D01*
X47698456Y-116776784D01*
X47599853Y-116924354D01*
X47474354Y-117049853D01*
X47326784Y-117148456D01*
X47162812Y-117216376D01*
X47107362Y-117227405D01*
X47083922Y-117234516D01*
X47062311Y-117246067D01*
X47043369Y-117261613D01*
X47027824Y-117280555D01*
X47016273Y-117302165D01*
X47009160Y-117325614D01*
X47006758Y-117350000D01*
X47009160Y-117374387D01*
X47016273Y-117397835D01*
X47027824Y-117419446D01*
X47043370Y-117438388D01*
X47062312Y-117453933D01*
X47083922Y-117465484D01*
X47107362Y-117472595D01*
X47162812Y-117483624D01*
X47326784Y-117551544D01*
X47474354Y-117650147D01*
X47599853Y-117775646D01*
X47698456Y-117923216D01*
X47766376Y-118087188D01*
X47801000Y-118261259D01*
X47801000Y-118438741D01*
X47766376Y-118612812D01*
X47698456Y-118776784D01*
X47599853Y-118924354D01*
X47474354Y-119049853D01*
X47326784Y-119148456D01*
X47162812Y-119216376D01*
X47013512Y-119246073D01*
X46988742Y-119251000D01*
X46811258Y-119251000D01*
X46786488Y-119246073D01*
X46637188Y-119216376D01*
X46473216Y-119148456D01*
X46325646Y-119049853D01*
X46200147Y-118924354D01*
X46101544Y-118776784D01*
X46033624Y-118612812D01*
X45999000Y-118438741D01*
X45999000Y-118261259D01*
X46033624Y-118087188D01*
X46101544Y-117923216D01*
X46200147Y-117775646D01*
X46325646Y-117650147D01*
X46473216Y-117551544D01*
X46637188Y-117483624D01*
X46692638Y-117472595D01*
X46716078Y-117465484D01*
X46737689Y-117453933D01*
X46756631Y-117438387D01*
X46772176Y-117419445D01*
X46783727Y-117397835D01*
X46790840Y-117374386D01*
X46793242Y-117350000D01*
X46790840Y-117325613D01*
X46783727Y-117302165D01*
X46772176Y-117280554D01*
X46756630Y-117261612D01*
X46737688Y-117246067D01*
X46716078Y-117234516D01*
X46692638Y-117227405D01*
X46637188Y-117216376D01*
X46473216Y-117148456D01*
X46325646Y-117049853D01*
X46200147Y-116924354D01*
X46101544Y-116776784D01*
X46033624Y-116612812D01*
X45999000Y-116438741D01*
X45999000Y-116261259D01*
X46033624Y-116087188D01*
X46101544Y-115923216D01*
X46200147Y-115775646D01*
X46325646Y-115650147D01*
X46473216Y-115551544D01*
X46637188Y-115483624D01*
X46692638Y-115472595D01*
X46716078Y-115465484D01*
X46737689Y-115453933D01*
X46756631Y-115438387D01*
X46772176Y-115419445D01*
X46783727Y-115397835D01*
X46790840Y-115374386D01*
X46793242Y-115350000D01*
X46790840Y-115325613D01*
X46783727Y-115302165D01*
X46772176Y-115280554D01*
X46756630Y-115261612D01*
X46737688Y-115246067D01*
X46716078Y-115234516D01*
X46692638Y-115227405D01*
X46637188Y-115216376D01*
X46473216Y-115148456D01*
X46325646Y-115049853D01*
X46200147Y-114924354D01*
X46101544Y-114776784D01*
X46033624Y-114612812D01*
X45999000Y-114438741D01*
X45999000Y-114261259D01*
X46033624Y-114087188D01*
X46101544Y-113923216D01*
X46200147Y-113775646D01*
X46325646Y-113650147D01*
X46473216Y-113551544D01*
X46637188Y-113483624D01*
X46692638Y-113472595D01*
X46716078Y-113465484D01*
X46737689Y-113453933D01*
X46756631Y-113438387D01*
X46772176Y-113419445D01*
X46783727Y-113397835D01*
X46790840Y-113374386D01*
X46793242Y-113350000D01*
X46790840Y-113325613D01*
X46783727Y-113302165D01*
X46772176Y-113280554D01*
X46756630Y-113261612D01*
X46737688Y-113246067D01*
X46716078Y-113234516D01*
X46692638Y-113227405D01*
X46637188Y-113216376D01*
X46473216Y-113148456D01*
X46325646Y-113049853D01*
X46200147Y-112924354D01*
X46101544Y-112776784D01*
X46033624Y-112612812D01*
X45999000Y-112438741D01*
X45999000Y-112261259D01*
X46033624Y-112087188D01*
X46101544Y-111923216D01*
X46200147Y-111775646D01*
X46325646Y-111650147D01*
X46473216Y-111551544D01*
X46637188Y-111483624D01*
X46692638Y-111472595D01*
X46716078Y-111465484D01*
X46737689Y-111453933D01*
X46756631Y-111438387D01*
X46772176Y-111419445D01*
X46783727Y-111397835D01*
X46790840Y-111374386D01*
X46793242Y-111350000D01*
X46790840Y-111325613D01*
X46783727Y-111302165D01*
X46772176Y-111280554D01*
X46756630Y-111261612D01*
X46737688Y-111246067D01*
X46716078Y-111234516D01*
X46692638Y-111227405D01*
X46637188Y-111216376D01*
X46473216Y-111148456D01*
X46325646Y-111049853D01*
X46200147Y-110924354D01*
X46101544Y-110776784D01*
X46033624Y-110612812D01*
X45999000Y-110438741D01*
X45999000Y-110261259D01*
X46033624Y-110087188D01*
X46101544Y-109923216D01*
X46200147Y-109775646D01*
X46325646Y-109650147D01*
X46473216Y-109551544D01*
X46637188Y-109483624D01*
X46692638Y-109472595D01*
X46716078Y-109465484D01*
X46737689Y-109453933D01*
X46756631Y-109438387D01*
X46772176Y-109419445D01*
X46783727Y-109397835D01*
X46790840Y-109374386D01*
X46793242Y-109350000D01*
X46790840Y-109325613D01*
X46783727Y-109302165D01*
X46772176Y-109280554D01*
X46756630Y-109261612D01*
X46737688Y-109246067D01*
X46716078Y-109234516D01*
X46692638Y-109227405D01*
X46637188Y-109216376D01*
X46473216Y-109148456D01*
X46325646Y-109049853D01*
X46200147Y-108924354D01*
X46101544Y-108776784D01*
X46033624Y-108612812D01*
X45999000Y-108438741D01*
X45999000Y-108261259D01*
X46033624Y-108087188D01*
X46101544Y-107923216D01*
X46200147Y-107775646D01*
X46325646Y-107650147D01*
X46473216Y-107551544D01*
X46637188Y-107483624D01*
X46692638Y-107472595D01*
X46716078Y-107465484D01*
X46737689Y-107453933D01*
X46756631Y-107438387D01*
X46772176Y-107419445D01*
X46783727Y-107397835D01*
X46790840Y-107374386D01*
X46793242Y-107350000D01*
X46790840Y-107325613D01*
X46783727Y-107302165D01*
X46772176Y-107280554D01*
X46756630Y-107261612D01*
X46737688Y-107246067D01*
X46716078Y-107234516D01*
X46692638Y-107227405D01*
X46637188Y-107216376D01*
X46473216Y-107148456D01*
X46325646Y-107049853D01*
X46200147Y-106924354D01*
X46101544Y-106776784D01*
X46033624Y-106612812D01*
X45999000Y-106438741D01*
X45999000Y-106261259D01*
X46033624Y-106087188D01*
X46101544Y-105923216D01*
X46200147Y-105775646D01*
X46325646Y-105650147D01*
X46473216Y-105551544D01*
X46637188Y-105483624D01*
X46692638Y-105472595D01*
X46716078Y-105465484D01*
X46737689Y-105453933D01*
X46756631Y-105438387D01*
X46772176Y-105419445D01*
X46783727Y-105397835D01*
X46790840Y-105374386D01*
X46793242Y-105350000D01*
X46790840Y-105325613D01*
X46783727Y-105302165D01*
X46772176Y-105280554D01*
X46756630Y-105261612D01*
X46737688Y-105246067D01*
X46716078Y-105234516D01*
X46692638Y-105227405D01*
X46637188Y-105216376D01*
X46473216Y-105148456D01*
X46325646Y-105049853D01*
X46200147Y-104924354D01*
X46101544Y-104776784D01*
X46033624Y-104612812D01*
X45999000Y-104438741D01*
X45999000Y-104261259D01*
X46033624Y-104087188D01*
X46101544Y-103923216D01*
X46200147Y-103775646D01*
X46325646Y-103650147D01*
X46473216Y-103551544D01*
X46637188Y-103483624D01*
X46692638Y-103472595D01*
X46716078Y-103465484D01*
X46737689Y-103453933D01*
X46756631Y-103438387D01*
X46772176Y-103419445D01*
X46783727Y-103397835D01*
X46790840Y-103374386D01*
X46793242Y-103350000D01*
X46790840Y-103325613D01*
X46783727Y-103302165D01*
X46772176Y-103280554D01*
X46756630Y-103261612D01*
X46737688Y-103246067D01*
X46716078Y-103234516D01*
X46692638Y-103227405D01*
X46637188Y-103216376D01*
X46473216Y-103148456D01*
X46325646Y-103049853D01*
X46200147Y-102924354D01*
X46101544Y-102776784D01*
X46033624Y-102612812D01*
X45999000Y-102438741D01*
X45999000Y-102261259D01*
X46033624Y-102087188D01*
X46101544Y-101923216D01*
X46200147Y-101775646D01*
X46325646Y-101650147D01*
X46473216Y-101551544D01*
X46637188Y-101483624D01*
X46692638Y-101472595D01*
X46716078Y-101465484D01*
X46737689Y-101453933D01*
X46756631Y-101438387D01*
X46772176Y-101419445D01*
X46783727Y-101397835D01*
X46790840Y-101374386D01*
X46793242Y-101350000D01*
X46790840Y-101325613D01*
X46783727Y-101302165D01*
X46772176Y-101280554D01*
X46756630Y-101261612D01*
X46737688Y-101246067D01*
X46716078Y-101234516D01*
X46692638Y-101227405D01*
X46637188Y-101216376D01*
X46473216Y-101148456D01*
X46325646Y-101049853D01*
X46200147Y-100924354D01*
X46101544Y-100776784D01*
X46033624Y-100612812D01*
X45999000Y-100438741D01*
X45999000Y-100261259D01*
X46033624Y-100087188D01*
X46101544Y-99923216D01*
X46200147Y-99775646D01*
X46325646Y-99650147D01*
X46473216Y-99551544D01*
X46637188Y-99483624D01*
X46786488Y-99453927D01*
X46811258Y-99449000D01*
X46988742Y-99449000D01*
X47013512Y-99453927D01*
G37*
G36*
X107018410Y-112779525D02*
G01*
X107103426Y-112805314D01*
X107181775Y-112847193D01*
X107250449Y-112903551D01*
X107306807Y-112972225D01*
X107348686Y-113050574D01*
X107374475Y-113135590D01*
X107383182Y-113224000D01*
X107374475Y-113312410D01*
X107348686Y-113397426D01*
X107306807Y-113475775D01*
X107250449Y-113544449D01*
X107181775Y-113600807D01*
X107103426Y-113642686D01*
X107018410Y-113668475D01*
X106952158Y-113675000D01*
X106407842Y-113675000D01*
X106341590Y-113668475D01*
X106256574Y-113642686D01*
X106178225Y-113600807D01*
X106109551Y-113544449D01*
X106053193Y-113475775D01*
X106011314Y-113397426D01*
X105985525Y-113312410D01*
X105976818Y-113224000D01*
X105985525Y-113135590D01*
X106011314Y-113050574D01*
X106053193Y-112972225D01*
X106109551Y-112903551D01*
X106178225Y-112847193D01*
X106256574Y-112805314D01*
X106341590Y-112779525D01*
X106407842Y-112773000D01*
X106952158Y-112773000D01*
X107018410Y-112779525D01*
G37*
G36*
X107018410Y-111529525D02*
G01*
X107103426Y-111555314D01*
X107181775Y-111597193D01*
X107250449Y-111653551D01*
X107306807Y-111722225D01*
X107348686Y-111800574D01*
X107374475Y-111885590D01*
X107383182Y-111974000D01*
X107374475Y-112062410D01*
X107348686Y-112147426D01*
X107306807Y-112225775D01*
X107250449Y-112294449D01*
X107181775Y-112350807D01*
X107103426Y-112392686D01*
X107018410Y-112418475D01*
X106952158Y-112425000D01*
X106407842Y-112425000D01*
X106341590Y-112418475D01*
X106256574Y-112392686D01*
X106178225Y-112350807D01*
X106109551Y-112294449D01*
X106053193Y-112225775D01*
X106011314Y-112147426D01*
X105985525Y-112062410D01*
X105976818Y-111974000D01*
X105985525Y-111885590D01*
X106011314Y-111800574D01*
X106053193Y-111722225D01*
X106109551Y-111653551D01*
X106178225Y-111597193D01*
X106256574Y-111555314D01*
X106341590Y-111529525D01*
X106407842Y-111523000D01*
X106952158Y-111523000D01*
X107018410Y-111529525D01*
G37*
G36*
X107018410Y-110279525D02*
G01*
X107103426Y-110305314D01*
X107181775Y-110347193D01*
X107250449Y-110403551D01*
X107306807Y-110472225D01*
X107348686Y-110550574D01*
X107374475Y-110635590D01*
X107383182Y-110724000D01*
X107374475Y-110812410D01*
X107348686Y-110897426D01*
X107306807Y-110975775D01*
X107250449Y-111044449D01*
X107181775Y-111100807D01*
X107103426Y-111142686D01*
X107018410Y-111168475D01*
X106952158Y-111175000D01*
X106407842Y-111175000D01*
X106341590Y-111168475D01*
X106256574Y-111142686D01*
X106178225Y-111100807D01*
X106109551Y-111044449D01*
X106053193Y-110975775D01*
X106011314Y-110897426D01*
X105985525Y-110812410D01*
X105976818Y-110724000D01*
X105985525Y-110635590D01*
X106011314Y-110550574D01*
X106053193Y-110472225D01*
X106109551Y-110403551D01*
X106178225Y-110347193D01*
X106256574Y-110305314D01*
X106341590Y-110279525D01*
X106407842Y-110273000D01*
X106952158Y-110273000D01*
X107018410Y-110279525D01*
G37*
G36*
X107249683Y-109026725D02*
G01*
X107280143Y-109035966D01*
X107308223Y-109050974D01*
X107332831Y-109071169D01*
X107353026Y-109095777D01*
X107368034Y-109123857D01*
X107377275Y-109154317D01*
X107381000Y-109192140D01*
X107381000Y-109755860D01*
X107377275Y-109793683D01*
X107368034Y-109824143D01*
X107353026Y-109852223D01*
X107332831Y-109876831D01*
X107308223Y-109897026D01*
X107280143Y-109912034D01*
X107249683Y-109921275D01*
X107211860Y-109925000D01*
X106148140Y-109925000D01*
X106110317Y-109921275D01*
X106079857Y-109912034D01*
X106051777Y-109897026D01*
X106027169Y-109876831D01*
X106006974Y-109852223D01*
X105991966Y-109824143D01*
X105982725Y-109793683D01*
X105979000Y-109755860D01*
X105979000Y-109192140D01*
X105982725Y-109154317D01*
X105991966Y-109123857D01*
X106006974Y-109095777D01*
X106027169Y-109071169D01*
X106051777Y-109050974D01*
X106079857Y-109035966D01*
X106110317Y-109026725D01*
X106148140Y-109023000D01*
X107211860Y-109023000D01*
X107249683Y-109026725D01*
G37*
G36*
X107018410Y-89157525D02*
G01*
X107103426Y-89183314D01*
X107181775Y-89225193D01*
X107250449Y-89281551D01*
X107306807Y-89350225D01*
X107348686Y-89428574D01*
X107374475Y-89513590D01*
X107383182Y-89602000D01*
X107374475Y-89690410D01*
X107348686Y-89775426D01*
X107306807Y-89853775D01*
X107250449Y-89922449D01*
X107181775Y-89978807D01*
X107103426Y-90020686D01*
X107018410Y-90046475D01*
X106952158Y-90053000D01*
X106407842Y-90053000D01*
X106341590Y-90046475D01*
X106256574Y-90020686D01*
X106178225Y-89978807D01*
X106109551Y-89922449D01*
X106053193Y-89853775D01*
X106011314Y-89775426D01*
X105985525Y-89690410D01*
X105976818Y-89602000D01*
X105985525Y-89513590D01*
X106011314Y-89428574D01*
X106053193Y-89350225D01*
X106109551Y-89281551D01*
X106178225Y-89225193D01*
X106256574Y-89183314D01*
X106341590Y-89157525D01*
X106407842Y-89151000D01*
X106952158Y-89151000D01*
X107018410Y-89157525D01*
G37*
G36*
X107018410Y-87907525D02*
G01*
X107103426Y-87933314D01*
X107181775Y-87975193D01*
X107250449Y-88031551D01*
X107306807Y-88100225D01*
X107348686Y-88178574D01*
X107374475Y-88263590D01*
X107383182Y-88352000D01*
X107374475Y-88440410D01*
X107348686Y-88525426D01*
X107306807Y-88603775D01*
X107250449Y-88672449D01*
X107181775Y-88728807D01*
X107103426Y-88770686D01*
X107018410Y-88796475D01*
X106952158Y-88803000D01*
X106407842Y-88803000D01*
X106341590Y-88796475D01*
X106256574Y-88770686D01*
X106178225Y-88728807D01*
X106109551Y-88672449D01*
X106053193Y-88603775D01*
X106011314Y-88525426D01*
X105985525Y-88440410D01*
X105976818Y-88352000D01*
X105985525Y-88263590D01*
X106011314Y-88178574D01*
X106053193Y-88100225D01*
X106109551Y-88031551D01*
X106178225Y-87975193D01*
X106256574Y-87933314D01*
X106341590Y-87907525D01*
X106407842Y-87901000D01*
X106952158Y-87901000D01*
X107018410Y-87907525D01*
G37*
G36*
X107018410Y-86657525D02*
G01*
X107103426Y-86683314D01*
X107181775Y-86725193D01*
X107250449Y-86781551D01*
X107306807Y-86850225D01*
X107348686Y-86928574D01*
X107374475Y-87013590D01*
X107383182Y-87102000D01*
X107374475Y-87190410D01*
X107348686Y-87275426D01*
X107306807Y-87353775D01*
X107250449Y-87422449D01*
X107181775Y-87478807D01*
X107103426Y-87520686D01*
X107018410Y-87546475D01*
X106952158Y-87553000D01*
X106407842Y-87553000D01*
X106341590Y-87546475D01*
X106256574Y-87520686D01*
X106178225Y-87478807D01*
X106109551Y-87422449D01*
X106053193Y-87353775D01*
X106011314Y-87275426D01*
X105985525Y-87190410D01*
X105976818Y-87102000D01*
X105985525Y-87013590D01*
X106011314Y-86928574D01*
X106053193Y-86850225D01*
X106109551Y-86781551D01*
X106178225Y-86725193D01*
X106256574Y-86683314D01*
X106341590Y-86657525D01*
X106407842Y-86651000D01*
X106952158Y-86651000D01*
X107018410Y-86657525D01*
G37*
G36*
X107249683Y-85404725D02*
G01*
X107280143Y-85413966D01*
X107308223Y-85428974D01*
X107332831Y-85449169D01*
X107353026Y-85473777D01*
X107368034Y-85501857D01*
X107377275Y-85532317D01*
X107381000Y-85570140D01*
X107381000Y-86133860D01*
X107377275Y-86171683D01*
X107368034Y-86202143D01*
X107353026Y-86230223D01*
X107332831Y-86254831D01*
X107308223Y-86275026D01*
X107280143Y-86290034D01*
X107249683Y-86299275D01*
X107211860Y-86303000D01*
X106148140Y-86303000D01*
X106110317Y-86299275D01*
X106079857Y-86290034D01*
X106051777Y-86275026D01*
X106027169Y-86254831D01*
X106006974Y-86230223D01*
X105991966Y-86202143D01*
X105982725Y-86171683D01*
X105979000Y-86133860D01*
X105979000Y-85570140D01*
X105982725Y-85532317D01*
X105991966Y-85501857D01*
X106006974Y-85473777D01*
X106027169Y-85449169D01*
X106051777Y-85428974D01*
X106079857Y-85413966D01*
X106110317Y-85404725D01*
X106148140Y-85401000D01*
X107211860Y-85401000D01*
X107249683Y-85404725D01*
G37*
G36*
X21895312Y-78005887D02*
G01*
X21985039Y-78033106D01*
X22067731Y-78077306D01*
X22140211Y-78136789D01*
X22199694Y-78209269D01*
X22243894Y-78291961D01*
X22271113Y-78381688D01*
X22280303Y-78475000D01*
X22271113Y-78568312D01*
X22243894Y-78658039D01*
X22199694Y-78740731D01*
X22140211Y-78813211D01*
X22067731Y-78872694D01*
X21985039Y-78916894D01*
X21895312Y-78944113D01*
X21825384Y-78951000D01*
X20778616Y-78951000D01*
X20708688Y-78944113D01*
X20618961Y-78916894D01*
X20536269Y-78872694D01*
X20463789Y-78813211D01*
X20404306Y-78740731D01*
X20360106Y-78658039D01*
X20332887Y-78568312D01*
X20323697Y-78475000D01*
X20332887Y-78381688D01*
X20360106Y-78291961D01*
X20404306Y-78209269D01*
X20463789Y-78136789D01*
X20536269Y-78077306D01*
X20618961Y-78033106D01*
X20708688Y-78005887D01*
X20778616Y-77999000D01*
X21825384Y-77999000D01*
X21895312Y-78005887D01*
G37*
G36*
X22189054Y-75091067D02*
G01*
X22219386Y-75097100D01*
X22305102Y-75132605D01*
X22382245Y-75184150D01*
X22447850Y-75249755D01*
X22458604Y-75265850D01*
X22499396Y-75326900D01*
X22534900Y-75412615D01*
X22553000Y-75503609D01*
X22553000Y-75596391D01*
X22541971Y-75651836D01*
X22534900Y-75687386D01*
X22499395Y-75773102D01*
X22447850Y-75850245D01*
X22382245Y-75915850D01*
X22305102Y-75967395D01*
X22219386Y-76002900D01*
X22189054Y-76008933D01*
X22128391Y-76021000D01*
X22035609Y-76021000D01*
X21974946Y-76008933D01*
X21944614Y-76002900D01*
X21858898Y-75967395D01*
X21781755Y-75915850D01*
X21766381Y-75900476D01*
X21747445Y-75884936D01*
X21725834Y-75873385D01*
X21702385Y-75866272D01*
X21677999Y-75863870D01*
X21653613Y-75866272D01*
X21630164Y-75873385D01*
X21608553Y-75884936D01*
X21589611Y-75900481D01*
X21574066Y-75919423D01*
X21562515Y-75941034D01*
X21555402Y-75964483D01*
X21553000Y-75988869D01*
X21553000Y-76671000D01*
X20611000Y-76671000D01*
X20611000Y-75729000D01*
X21486001Y-75729000D01*
X21510387Y-75726598D01*
X21533836Y-75719485D01*
X21555447Y-75707934D01*
X21574389Y-75692389D01*
X21589934Y-75673447D01*
X21601485Y-75651836D01*
X21608598Y-75628387D01*
X21611000Y-75604001D01*
X21611000Y-75503609D01*
X21629100Y-75412615D01*
X21664604Y-75326900D01*
X21705396Y-75265850D01*
X21716150Y-75249755D01*
X21781755Y-75184150D01*
X21858898Y-75132605D01*
X21944614Y-75097100D01*
X21974946Y-75091067D01*
X22035609Y-75079000D01*
X22128391Y-75079000D01*
X22189054Y-75091067D01*
G37*
G36*
X21189054Y-74441067D02*
G01*
X21219386Y-74447100D01*
X21305102Y-74482605D01*
X21382245Y-74534150D01*
X21447850Y-74599755D01*
X21499395Y-74676898D01*
X21534900Y-74762614D01*
X21553000Y-74853611D01*
X21553000Y-74946389D01*
X21534900Y-75037386D01*
X21499395Y-75123102D01*
X21447850Y-75200245D01*
X21382245Y-75265850D01*
X21305102Y-75317395D01*
X21219386Y-75352900D01*
X21189054Y-75358933D01*
X21128391Y-75371000D01*
X21035609Y-75371000D01*
X20974946Y-75358933D01*
X20944614Y-75352900D01*
X20858898Y-75317395D01*
X20781755Y-75265850D01*
X20716150Y-75200245D01*
X20664605Y-75123102D01*
X20629100Y-75037386D01*
X20611000Y-74946389D01*
X20611000Y-74853611D01*
X20629100Y-74762614D01*
X20664605Y-74676898D01*
X20716150Y-74599755D01*
X20781755Y-74534150D01*
X20858898Y-74482605D01*
X20944614Y-74447100D01*
X20974946Y-74441067D01*
X21035609Y-74429000D01*
X21128391Y-74429000D01*
X21189054Y-74441067D01*
G37*
G36*
X22189054Y-73791067D02*
G01*
X22219386Y-73797100D01*
X22305102Y-73832605D01*
X22382245Y-73884150D01*
X22447850Y-73949755D01*
X22499395Y-74026898D01*
X22534900Y-74112614D01*
X22553000Y-74203611D01*
X22553000Y-74296389D01*
X22534900Y-74387386D01*
X22499395Y-74473102D01*
X22447850Y-74550245D01*
X22382245Y-74615850D01*
X22305102Y-74667395D01*
X22219386Y-74702900D01*
X22189054Y-74708933D01*
X22128391Y-74721000D01*
X22035609Y-74721000D01*
X21974946Y-74708933D01*
X21944614Y-74702900D01*
X21858898Y-74667395D01*
X21781755Y-74615850D01*
X21716150Y-74550245D01*
X21664605Y-74473102D01*
X21629100Y-74387386D01*
X21611000Y-74296389D01*
X21611000Y-74203611D01*
X21629100Y-74112614D01*
X21664605Y-74026898D01*
X21716150Y-73949755D01*
X21781755Y-73884150D01*
X21858898Y-73832605D01*
X21944614Y-73797100D01*
X21974946Y-73791067D01*
X22035609Y-73779000D01*
X22128391Y-73779000D01*
X22189054Y-73791067D01*
G37*
G36*
X21189054Y-73141067D02*
G01*
X21219386Y-73147100D01*
X21305102Y-73182605D01*
X21382245Y-73234150D01*
X21447850Y-73299755D01*
X21499395Y-73376898D01*
X21534900Y-73462614D01*
X21553000Y-73553611D01*
X21553000Y-73646389D01*
X21534900Y-73737386D01*
X21499395Y-73823102D01*
X21447850Y-73900245D01*
X21382245Y-73965850D01*
X21305102Y-74017395D01*
X21219386Y-74052900D01*
X21189054Y-74058933D01*
X21128391Y-74071000D01*
X21035609Y-74071000D01*
X20974946Y-74058933D01*
X20944614Y-74052900D01*
X20858898Y-74017395D01*
X20781755Y-73965850D01*
X20716150Y-73900245D01*
X20664605Y-73823102D01*
X20629100Y-73737386D01*
X20611000Y-73646389D01*
X20611000Y-73553611D01*
X20629100Y-73462614D01*
X20664605Y-73376898D01*
X20716150Y-73299755D01*
X20781755Y-73234150D01*
X20858898Y-73182605D01*
X20944614Y-73147100D01*
X20974946Y-73141067D01*
X21035609Y-73129000D01*
X21128391Y-73129000D01*
X21189054Y-73141067D01*
G37*
G36*
X21895312Y-70855887D02*
G01*
X21985039Y-70883106D01*
X22067731Y-70927306D01*
X22140211Y-70986789D01*
X22199694Y-71059269D01*
X22243894Y-71141961D01*
X22271113Y-71231688D01*
X22280303Y-71325000D01*
X22271113Y-71418312D01*
X22243894Y-71508039D01*
X22199694Y-71590731D01*
X22140211Y-71663211D01*
X22067731Y-71722694D01*
X21985039Y-71766894D01*
X21895312Y-71794113D01*
X21825384Y-71801000D01*
X20778616Y-71801000D01*
X20708688Y-71794113D01*
X20618961Y-71766894D01*
X20536269Y-71722694D01*
X20463789Y-71663211D01*
X20404306Y-71590731D01*
X20360106Y-71508039D01*
X20332887Y-71418312D01*
X20323697Y-71325000D01*
X20332887Y-71231688D01*
X20360106Y-71141961D01*
X20404306Y-71059269D01*
X20463789Y-70986789D01*
X20536269Y-70927306D01*
X20618961Y-70883106D01*
X20708688Y-70855887D01*
X20778616Y-70849000D01*
X21825384Y-70849000D01*
X21895312Y-70855887D01*
G37*
G36*
X107018410Y-65535525D02*
G01*
X107103426Y-65561314D01*
X107181775Y-65603193D01*
X107250449Y-65659551D01*
X107306807Y-65728225D01*
X107348686Y-65806574D01*
X107374475Y-65891590D01*
X107383182Y-65980000D01*
X107374475Y-66068410D01*
X107348686Y-66153426D01*
X107306807Y-66231775D01*
X107250449Y-66300449D01*
X107181775Y-66356807D01*
X107103426Y-66398686D01*
X107018410Y-66424475D01*
X106952158Y-66431000D01*
X106407842Y-66431000D01*
X106341590Y-66424475D01*
X106256574Y-66398686D01*
X106178225Y-66356807D01*
X106109551Y-66300449D01*
X106053193Y-66231775D01*
X106011314Y-66153426D01*
X105985525Y-66068410D01*
X105976818Y-65980000D01*
X105985525Y-65891590D01*
X106011314Y-65806574D01*
X106053193Y-65728225D01*
X106109551Y-65659551D01*
X106178225Y-65603193D01*
X106256574Y-65561314D01*
X106341590Y-65535525D01*
X106407842Y-65529000D01*
X106952158Y-65529000D01*
X107018410Y-65535525D01*
G37*
G36*
X107018410Y-64285525D02*
G01*
X107103426Y-64311314D01*
X107181775Y-64353193D01*
X107250449Y-64409551D01*
X107306807Y-64478225D01*
X107348686Y-64556574D01*
X107374475Y-64641590D01*
X107383182Y-64730000D01*
X107374475Y-64818410D01*
X107348686Y-64903426D01*
X107306807Y-64981775D01*
X107250449Y-65050449D01*
X107181775Y-65106807D01*
X107103426Y-65148686D01*
X107018410Y-65174475D01*
X106952158Y-65181000D01*
X106407842Y-65181000D01*
X106341590Y-65174475D01*
X106256574Y-65148686D01*
X106178225Y-65106807D01*
X106109551Y-65050449D01*
X106053193Y-64981775D01*
X106011314Y-64903426D01*
X105985525Y-64818410D01*
X105976818Y-64730000D01*
X105985525Y-64641590D01*
X106011314Y-64556574D01*
X106053193Y-64478225D01*
X106109551Y-64409551D01*
X106178225Y-64353193D01*
X106256574Y-64311314D01*
X106341590Y-64285525D01*
X106407842Y-64279000D01*
X106952158Y-64279000D01*
X107018410Y-64285525D01*
G37*
G36*
X107018410Y-63035525D02*
G01*
X107103426Y-63061314D01*
X107181775Y-63103193D01*
X107250449Y-63159551D01*
X107306807Y-63228225D01*
X107348686Y-63306574D01*
X107374475Y-63391590D01*
X107383182Y-63480000D01*
X107374475Y-63568410D01*
X107348686Y-63653426D01*
X107306807Y-63731775D01*
X107250449Y-63800449D01*
X107181775Y-63856807D01*
X107103426Y-63898686D01*
X107018410Y-63924475D01*
X106952158Y-63931000D01*
X106407842Y-63931000D01*
X106341590Y-63924475D01*
X106256574Y-63898686D01*
X106178225Y-63856807D01*
X106109551Y-63800449D01*
X106053193Y-63731775D01*
X106011314Y-63653426D01*
X105985525Y-63568410D01*
X105976818Y-63480000D01*
X105985525Y-63391590D01*
X106011314Y-63306574D01*
X106053193Y-63228225D01*
X106109551Y-63159551D01*
X106178225Y-63103193D01*
X106256574Y-63061314D01*
X106341590Y-63035525D01*
X106407842Y-63029000D01*
X106952158Y-63029000D01*
X107018410Y-63035525D01*
G37*
G36*
X107249683Y-61782725D02*
G01*
X107280143Y-61791966D01*
X107308223Y-61806974D01*
X107332831Y-61827169D01*
X107353026Y-61851777D01*
X107368034Y-61879857D01*
X107377275Y-61910317D01*
X107381000Y-61948140D01*
X107381000Y-62511860D01*
X107377275Y-62549683D01*
X107368034Y-62580143D01*
X107353026Y-62608223D01*
X107332831Y-62632831D01*
X107308223Y-62653026D01*
X107280143Y-62668034D01*
X107249683Y-62677275D01*
X107211860Y-62681000D01*
X106148140Y-62681000D01*
X106110317Y-62677275D01*
X106079857Y-62668034D01*
X106051777Y-62653026D01*
X106027169Y-62632831D01*
X106006974Y-62608223D01*
X105991966Y-62580143D01*
X105982725Y-62549683D01*
X105979000Y-62511860D01*
X105979000Y-61948140D01*
X105982725Y-61910317D01*
X105991966Y-61879857D01*
X106006974Y-61851777D01*
X106027169Y-61827169D01*
X106051777Y-61806974D01*
X106079857Y-61791966D01*
X106110317Y-61782725D01*
X106148140Y-61779000D01*
X107211860Y-61779000D01*
X107249683Y-61782725D01*
G37*
G36*
X62871978Y-58519461D02*
G01*
X63021278Y-58549158D01*
X63185250Y-58617078D01*
X63332820Y-58715681D01*
X63458319Y-58841180D01*
X63556922Y-58988750D01*
X63624842Y-59152722D01*
X63659466Y-59326793D01*
X63659466Y-59504275D01*
X63624842Y-59678346D01*
X63556922Y-59842318D01*
X63458319Y-59989888D01*
X63332820Y-60115387D01*
X63185250Y-60213990D01*
X63021278Y-60281910D01*
X62871978Y-60311607D01*
X62847208Y-60316534D01*
X62669724Y-60316534D01*
X62644954Y-60311607D01*
X62495654Y-60281910D01*
X62331682Y-60213990D01*
X62184112Y-60115387D01*
X62058613Y-59989888D01*
X61960010Y-59842318D01*
X61892090Y-59678346D01*
X61857466Y-59504275D01*
X61857466Y-59326793D01*
X61892090Y-59152722D01*
X61960010Y-58988750D01*
X62058613Y-58841180D01*
X62184112Y-58715681D01*
X62331682Y-58617078D01*
X62495654Y-58549158D01*
X62644954Y-58519461D01*
X62669724Y-58514534D01*
X62847208Y-58514534D01*
X62871978Y-58519461D01*
G37*
G36*
X64639745Y-56751694D02*
G01*
X64789045Y-56781391D01*
X64953017Y-56849311D01*
X65100587Y-56947914D01*
X65226086Y-57073413D01*
X65324689Y-57220983D01*
X65392609Y-57384955D01*
X65427233Y-57559026D01*
X65427233Y-57736508D01*
X65392609Y-57910579D01*
X65324689Y-58074551D01*
X65226086Y-58222121D01*
X65100587Y-58347620D01*
X64953017Y-58446223D01*
X64789045Y-58514143D01*
X64639745Y-58543840D01*
X64614975Y-58548767D01*
X64437491Y-58548767D01*
X64412721Y-58543840D01*
X64263421Y-58514143D01*
X64099449Y-58446223D01*
X63951879Y-58347620D01*
X63826380Y-58222121D01*
X63727777Y-58074551D01*
X63659857Y-57910579D01*
X63625233Y-57736508D01*
X63625233Y-57559026D01*
X63659857Y-57384955D01*
X63727777Y-57220983D01*
X63826380Y-57073413D01*
X63951879Y-56947914D01*
X64099449Y-56849311D01*
X64263421Y-56781391D01*
X64412721Y-56751694D01*
X64437491Y-56746767D01*
X64614975Y-56746767D01*
X64639745Y-56751694D01*
G37*
G36*
X66407512Y-54983927D02*
G01*
X66556812Y-55013624D01*
X66720784Y-55081544D01*
X66868354Y-55180147D01*
X66993853Y-55305646D01*
X67092456Y-55453216D01*
X67160376Y-55617188D01*
X67195000Y-55791259D01*
X67195000Y-55968741D01*
X67160376Y-56142812D01*
X67092456Y-56306784D01*
X66993853Y-56454354D01*
X66868354Y-56579853D01*
X66720784Y-56678456D01*
X66556812Y-56746376D01*
X66407512Y-56776073D01*
X66382742Y-56781000D01*
X66205258Y-56781000D01*
X66180488Y-56776073D01*
X66031188Y-56746376D01*
X65867216Y-56678456D01*
X65719646Y-56579853D01*
X65594147Y-56454354D01*
X65495544Y-56306784D01*
X65427624Y-56142812D01*
X65393000Y-55968741D01*
X65393000Y-55791259D01*
X65427624Y-55617188D01*
X65495544Y-55453216D01*
X65594147Y-55305646D01*
X65719646Y-55180147D01*
X65867216Y-55081544D01*
X66031188Y-55013624D01*
X66180488Y-54983927D01*
X66205258Y-54979000D01*
X66382742Y-54979000D01*
X66407512Y-54983927D01*
G37*
G36*
X85441331Y-35860211D02*
G01*
X85769092Y-35995974D01*
X86064070Y-36193072D01*
X86314928Y-36443930D01*
X86512026Y-36738908D01*
X86647789Y-37066669D01*
X86717000Y-37414616D01*
X86717000Y-37769384D01*
X86647789Y-38117331D01*
X86512026Y-38445092D01*
X86314928Y-38740070D01*
X86064070Y-38990928D01*
X85769092Y-39188026D01*
X85441331Y-39323789D01*
X85093384Y-39393000D01*
X84738616Y-39393000D01*
X84390669Y-39323789D01*
X84062908Y-39188026D01*
X83767930Y-38990928D01*
X83517072Y-38740070D01*
X83319974Y-38445092D01*
X83184211Y-38117331D01*
X83115000Y-37769384D01*
X83115000Y-37414616D01*
X83184211Y-37066669D01*
X83319974Y-36738908D01*
X83517072Y-36443930D01*
X83767930Y-36193072D01*
X84062908Y-35995974D01*
X84390669Y-35860211D01*
X84738616Y-35791000D01*
X85093384Y-35791000D01*
X85441331Y-35860211D01*
G37*
G36*
X91717000Y-39393000D02*
G01*
X88115000Y-39393000D01*
X88115000Y-35791000D01*
X91717000Y-35791000D01*
X91717000Y-39393000D01*
G37*
G36*
X67703000Y-29603000D02*
G01*
X65901000Y-29603000D01*
X65901000Y-27801000D01*
X67703000Y-27801000D01*
X67703000Y-29603000D01*
G37*
G36*
X69455512Y-27805927D02*
G01*
X69604812Y-27835624D01*
X69768784Y-27903544D01*
X69916354Y-28002147D01*
X70041853Y-28127646D01*
X70140456Y-28275216D01*
X70208376Y-28439188D01*
X70243000Y-28613259D01*
X70243000Y-28790741D01*
X70208376Y-28964812D01*
X70140456Y-29128784D01*
X70041853Y-29276354D01*
X69916354Y-29401853D01*
X69768784Y-29500456D01*
X69604812Y-29568376D01*
X69455512Y-29598073D01*
X69430742Y-29603000D01*
X69253258Y-29603000D01*
X69228488Y-29598073D01*
X69079188Y-29568376D01*
X68915216Y-29500456D01*
X68767646Y-29401853D01*
X68642147Y-29276354D01*
X68543544Y-29128784D01*
X68475624Y-28964812D01*
X68441000Y-28790741D01*
X68441000Y-28613259D01*
X68475624Y-28439188D01*
X68543544Y-28275216D01*
X68642147Y-28127646D01*
X68767646Y-28002147D01*
X68915216Y-27903544D01*
X69079188Y-27835624D01*
X69228488Y-27805927D01*
X69253258Y-27801000D01*
X69430742Y-27801000D01*
X69455512Y-27805927D01*
G37*
G36*
X71995512Y-27805927D02*
G01*
X72144812Y-27835624D01*
X72308784Y-27903544D01*
X72456354Y-28002147D01*
X72581853Y-28127646D01*
X72680456Y-28275216D01*
X72748376Y-28439188D01*
X72783000Y-28613259D01*
X72783000Y-28790741D01*
X72748376Y-28964812D01*
X72680456Y-29128784D01*
X72581853Y-29276354D01*
X72456354Y-29401853D01*
X72308784Y-29500456D01*
X72144812Y-29568376D01*
X71995512Y-29598073D01*
X71970742Y-29603000D01*
X71793258Y-29603000D01*
X71768488Y-29598073D01*
X71619188Y-29568376D01*
X71455216Y-29500456D01*
X71307646Y-29401853D01*
X71182147Y-29276354D01*
X71083544Y-29128784D01*
X71015624Y-28964812D01*
X70981000Y-28790741D01*
X70981000Y-28613259D01*
X71015624Y-28439188D01*
X71083544Y-28275216D01*
X71182147Y-28127646D01*
X71307646Y-28002147D01*
X71455216Y-27903544D01*
X71619188Y-27835624D01*
X71768488Y-27805927D01*
X71793258Y-27801000D01*
X71970742Y-27801000D01*
X71995512Y-27805927D01*
G37*
G36*
X93135059Y-26869860D02*
G01*
X93271732Y-26926472D01*
X93394735Y-27008660D01*
X93499340Y-27113265D01*
X93581528Y-27236268D01*
X93638140Y-27372941D01*
X93667000Y-27518033D01*
X93667000Y-27665967D01*
X93638140Y-27811059D01*
X93581528Y-27947732D01*
X93499340Y-28070735D01*
X93394735Y-28175340D01*
X93271732Y-28257528D01*
X93271731Y-28257529D01*
X93271730Y-28257529D01*
X93135059Y-28314140D01*
X92989968Y-28343000D01*
X92842032Y-28343000D01*
X92696941Y-28314140D01*
X92560270Y-28257529D01*
X92560269Y-28257529D01*
X92560268Y-28257528D01*
X92437265Y-28175340D01*
X92332660Y-28070735D01*
X92250472Y-27947732D01*
X92193860Y-27811059D01*
X92165000Y-27665967D01*
X92165000Y-27518033D01*
X92193860Y-27372941D01*
X92250472Y-27236268D01*
X92332660Y-27113265D01*
X92437265Y-27008660D01*
X92560268Y-26926472D01*
X92696941Y-26869860D01*
X92842032Y-26841000D01*
X92989968Y-26841000D01*
X93135059Y-26869860D01*
G37*
G36*
X82135059Y-26869860D02*
G01*
X82271732Y-26926472D01*
X82394735Y-27008660D01*
X82499340Y-27113265D01*
X82581528Y-27236268D01*
X82638140Y-27372941D01*
X82667000Y-27518033D01*
X82667000Y-27665967D01*
X82638140Y-27811059D01*
X82581528Y-27947732D01*
X82499340Y-28070735D01*
X82394735Y-28175340D01*
X82271732Y-28257528D01*
X82271731Y-28257529D01*
X82271730Y-28257529D01*
X82135059Y-28314140D01*
X81989968Y-28343000D01*
X81842032Y-28343000D01*
X81696941Y-28314140D01*
X81560270Y-28257529D01*
X81560269Y-28257529D01*
X81560268Y-28257528D01*
X81437265Y-28175340D01*
X81332660Y-28070735D01*
X81250472Y-27947732D01*
X81193860Y-27811059D01*
X81165000Y-27665967D01*
X81165000Y-27518033D01*
X81193860Y-27372941D01*
X81250472Y-27236268D01*
X81332660Y-27113265D01*
X81437265Y-27008660D01*
X81560268Y-26926472D01*
X81696941Y-26869860D01*
X81842032Y-26841000D01*
X81989968Y-26841000D01*
X82135059Y-26869860D01*
G37*
G36*
X56331000Y-27301000D02*
G01*
X54529000Y-27301000D01*
X54529000Y-25499000D01*
X56331000Y-25499000D01*
X56331000Y-27301000D01*
G37*
G36*
X53003512Y-25503927D02*
G01*
X53152812Y-25533624D01*
X53316784Y-25601544D01*
X53464354Y-25700147D01*
X53589853Y-25825646D01*
X53688456Y-25973216D01*
X53756376Y-26137188D01*
X53791000Y-26311259D01*
X53791000Y-26488741D01*
X53756376Y-26662812D01*
X53688456Y-26826784D01*
X53589853Y-26974354D01*
X53464354Y-27099853D01*
X53316784Y-27198456D01*
X53152812Y-27266376D01*
X53003512Y-27296073D01*
X52978742Y-27301000D01*
X52801258Y-27301000D01*
X52776488Y-27296073D01*
X52627188Y-27266376D01*
X52463216Y-27198456D01*
X52315646Y-27099853D01*
X52190147Y-26974354D01*
X52091544Y-26826784D01*
X52023624Y-26662812D01*
X51989000Y-26488741D01*
X51989000Y-26311259D01*
X52023624Y-26137188D01*
X52091544Y-25973216D01*
X52190147Y-25825646D01*
X52315646Y-25700147D01*
X52463216Y-25601544D01*
X52627188Y-25533624D01*
X52776488Y-25503927D01*
X52801258Y-25499000D01*
X52978742Y-25499000D01*
X53003512Y-25503927D01*
G37*
G36*
X50463512Y-25503927D02*
G01*
X50612812Y-25533624D01*
X50776784Y-25601544D01*
X50924354Y-25700147D01*
X51049853Y-25825646D01*
X51148456Y-25973216D01*
X51216376Y-26137188D01*
X51251000Y-26311259D01*
X51251000Y-26488741D01*
X51216376Y-26662812D01*
X51148456Y-26826784D01*
X51049853Y-26974354D01*
X50924354Y-27099853D01*
X50776784Y-27198456D01*
X50612812Y-27266376D01*
X50463512Y-27296073D01*
X50438742Y-27301000D01*
X50261258Y-27301000D01*
X50236488Y-27296073D01*
X50087188Y-27266376D01*
X49923216Y-27198456D01*
X49775646Y-27099853D01*
X49650147Y-26974354D01*
X49551544Y-26826784D01*
X49483624Y-26662812D01*
X49449000Y-26488741D01*
X49449000Y-26311259D01*
X49483624Y-26137188D01*
X49551544Y-25973216D01*
X49650147Y-25825646D01*
X49775646Y-25700147D01*
X49923216Y-25601544D01*
X50087188Y-25533624D01*
X50236488Y-25503927D01*
X50261258Y-25499000D01*
X50438742Y-25499000D01*
X50463512Y-25503927D01*
G37*
G36*
X47923512Y-25503927D02*
G01*
X48072812Y-25533624D01*
X48236784Y-25601544D01*
X48384354Y-25700147D01*
X48509853Y-25825646D01*
X48608456Y-25973216D01*
X48676376Y-26137188D01*
X48711000Y-26311259D01*
X48711000Y-26488741D01*
X48676376Y-26662812D01*
X48608456Y-26826784D01*
X48509853Y-26974354D01*
X48384354Y-27099853D01*
X48236784Y-27198456D01*
X48072812Y-27266376D01*
X47923512Y-27296073D01*
X47898742Y-27301000D01*
X47721258Y-27301000D01*
X47696488Y-27296073D01*
X47547188Y-27266376D01*
X47383216Y-27198456D01*
X47235646Y-27099853D01*
X47110147Y-26974354D01*
X47011544Y-26826784D01*
X46943624Y-26662812D01*
X46909000Y-26488741D01*
X46909000Y-26311259D01*
X46943624Y-26137188D01*
X47011544Y-25973216D01*
X47110147Y-25825646D01*
X47235646Y-25700147D01*
X47383216Y-25601544D01*
X47547188Y-25533624D01*
X47696488Y-25503927D01*
X47721258Y-25499000D01*
X47898742Y-25499000D01*
X47923512Y-25503927D01*
G37*
G36*
X71995512Y-25265927D02*
G01*
X72144812Y-25295624D01*
X72308784Y-25363544D01*
X72456354Y-25462147D01*
X72581853Y-25587646D01*
X72680456Y-25735216D01*
X72748376Y-25899188D01*
X72783000Y-26073259D01*
X72783000Y-26250741D01*
X72748376Y-26424812D01*
X72680456Y-26588784D01*
X72581853Y-26736354D01*
X72456354Y-26861853D01*
X72308784Y-26960456D01*
X72144812Y-27028376D01*
X71995512Y-27058073D01*
X71970742Y-27063000D01*
X71793258Y-27063000D01*
X71768488Y-27058073D01*
X71619188Y-27028376D01*
X71455216Y-26960456D01*
X71307646Y-26861853D01*
X71182147Y-26736354D01*
X71083544Y-26588784D01*
X71015624Y-26424812D01*
X70981000Y-26250741D01*
X70981000Y-26073259D01*
X71015624Y-25899188D01*
X71083544Y-25735216D01*
X71182147Y-25587646D01*
X71307646Y-25462147D01*
X71455216Y-25363544D01*
X71619188Y-25295624D01*
X71768488Y-25265927D01*
X71793258Y-25261000D01*
X71970742Y-25261000D01*
X71995512Y-25265927D01*
G37*
G36*
X69455512Y-25265927D02*
G01*
X69604812Y-25295624D01*
X69768784Y-25363544D01*
X69916354Y-25462147D01*
X70041853Y-25587646D01*
X70140456Y-25735216D01*
X70208376Y-25899188D01*
X70243000Y-26073259D01*
X70243000Y-26250741D01*
X70208376Y-26424812D01*
X70140456Y-26588784D01*
X70041853Y-26736354D01*
X69916354Y-26861853D01*
X69768784Y-26960456D01*
X69604812Y-27028376D01*
X69455512Y-27058073D01*
X69430742Y-27063000D01*
X69253258Y-27063000D01*
X69228488Y-27058073D01*
X69079188Y-27028376D01*
X68915216Y-26960456D01*
X68767646Y-26861853D01*
X68642147Y-26736354D01*
X68543544Y-26588784D01*
X68475624Y-26424812D01*
X68441000Y-26250741D01*
X68441000Y-26073259D01*
X68475624Y-25899188D01*
X68543544Y-25735216D01*
X68642147Y-25587646D01*
X68767646Y-25462147D01*
X68915216Y-25363544D01*
X69079188Y-25295624D01*
X69228488Y-25265927D01*
X69253258Y-25261000D01*
X69430742Y-25261000D01*
X69455512Y-25265927D01*
G37*
G36*
X66915512Y-25265927D02*
G01*
X67064812Y-25295624D01*
X67228784Y-25363544D01*
X67376354Y-25462147D01*
X67501853Y-25587646D01*
X67600456Y-25735216D01*
X67668376Y-25899188D01*
X67703000Y-26073259D01*
X67703000Y-26250741D01*
X67668376Y-26424812D01*
X67600456Y-26588784D01*
X67501853Y-26736354D01*
X67376354Y-26861853D01*
X67228784Y-26960456D01*
X67064812Y-27028376D01*
X66915512Y-27058073D01*
X66890742Y-27063000D01*
X66713258Y-27063000D01*
X66688488Y-27058073D01*
X66539188Y-27028376D01*
X66375216Y-26960456D01*
X66227646Y-26861853D01*
X66102147Y-26736354D01*
X66003544Y-26588784D01*
X65935624Y-26424812D01*
X65901000Y-26250741D01*
X65901000Y-26073259D01*
X65935624Y-25899188D01*
X66003544Y-25735216D01*
X66102147Y-25587646D01*
X66227646Y-25462147D01*
X66375216Y-25363544D01*
X66539188Y-25295624D01*
X66688488Y-25265927D01*
X66713258Y-25261000D01*
X66890742Y-25261000D01*
X66915512Y-25265927D01*
G37*
M02*
