G04 #@! TF.GenerationSoftware,KiCad,Pcbnew,(5.1.5)-3*
G04 #@! TF.CreationDate,2020-04-11T17:23:27+08:00*
G04 #@! TF.ProjectId,Misaka,4d697361-6b61-42e6-9b69-6361645f7063,rev?*
G04 #@! TF.SameCoordinates,Original*
G04 #@! TF.FileFunction,Legend,Bot*
G04 #@! TF.FilePolarity,Positive*
%FSLAX46Y46*%
G04 Gerber Fmt 4.6, Leading zero omitted, Abs format (unit mm)*
G04 Created by KiCad (PCBNEW (5.1.5)-3) date 2020-04-11 17:23:27*
%MOMM*%
%LPD*%
G04 APERTURE LIST*
%ADD10C,0.120000*%
%ADD11C,0.150000*%
G04 APERTURE END LIST*
D10*
X108230000Y-60330000D02*
X108230000Y-61330000D01*
X108230000Y-60330000D02*
X107230000Y-60330000D01*
X105030000Y-67080000D02*
X105030000Y-64105000D01*
X105880000Y-67080000D02*
X105030000Y-67080000D01*
X105880000Y-67280000D02*
X105880000Y-67080000D01*
X106680000Y-67280000D02*
X105880000Y-67280000D01*
X106680000Y-67080000D02*
X106680000Y-67280000D01*
X107430000Y-67080000D02*
X106680000Y-67080000D01*
X107430000Y-64105000D02*
X107430000Y-67080000D01*
X105030000Y-61130000D02*
X105030000Y-64105000D01*
X105880000Y-61130000D02*
X105030000Y-61130000D01*
X105880000Y-60930000D02*
X105880000Y-61130000D01*
X106680000Y-60930000D02*
X105880000Y-60930000D01*
X106680000Y-61130000D02*
X106680000Y-60930000D01*
X107430000Y-61130000D02*
X106680000Y-61130000D01*
X107430000Y-64105000D02*
X107430000Y-61130000D01*
X104520000Y-67590000D02*
X104520000Y-60620000D01*
X107940000Y-67590000D02*
X104520000Y-67590000D01*
X107940000Y-60620000D02*
X107940000Y-67590000D01*
X104520000Y-60620000D02*
X107940000Y-60620000D01*
X108230000Y-83952000D02*
X108230000Y-84952000D01*
X108230000Y-83952000D02*
X107230000Y-83952000D01*
X105030000Y-90702000D02*
X105030000Y-87727000D01*
X105880000Y-90702000D02*
X105030000Y-90702000D01*
X105880000Y-90902000D02*
X105880000Y-90702000D01*
X106680000Y-90902000D02*
X105880000Y-90902000D01*
X106680000Y-90702000D02*
X106680000Y-90902000D01*
X107430000Y-90702000D02*
X106680000Y-90702000D01*
X107430000Y-87727000D02*
X107430000Y-90702000D01*
X105030000Y-84752000D02*
X105030000Y-87727000D01*
X105880000Y-84752000D02*
X105030000Y-84752000D01*
X105880000Y-84552000D02*
X105880000Y-84752000D01*
X106680000Y-84552000D02*
X105880000Y-84552000D01*
X106680000Y-84752000D02*
X106680000Y-84552000D01*
X107430000Y-84752000D02*
X106680000Y-84752000D01*
X107430000Y-87727000D02*
X107430000Y-84752000D01*
X104520000Y-91212000D02*
X104520000Y-84242000D01*
X107940000Y-91212000D02*
X104520000Y-91212000D01*
X107940000Y-84242000D02*
X107940000Y-91212000D01*
X104520000Y-84242000D02*
X107940000Y-84242000D01*
X108230000Y-107574000D02*
X108230000Y-108574000D01*
X108230000Y-107574000D02*
X107230000Y-107574000D01*
X105030000Y-114324000D02*
X105030000Y-111349000D01*
X105880000Y-114324000D02*
X105030000Y-114324000D01*
X105880000Y-114524000D02*
X105880000Y-114324000D01*
X106680000Y-114524000D02*
X105880000Y-114524000D01*
X106680000Y-114324000D02*
X106680000Y-114524000D01*
X107430000Y-114324000D02*
X106680000Y-114324000D01*
X107430000Y-111349000D02*
X107430000Y-114324000D01*
X105030000Y-108374000D02*
X105030000Y-111349000D01*
X105880000Y-108374000D02*
X105030000Y-108374000D01*
X105880000Y-108174000D02*
X105880000Y-108374000D01*
X106680000Y-108174000D02*
X105880000Y-108174000D01*
X106680000Y-108374000D02*
X106680000Y-108174000D01*
X107430000Y-108374000D02*
X106680000Y-108374000D01*
X107430000Y-111349000D02*
X107430000Y-108374000D01*
X104520000Y-114834000D02*
X104520000Y-107864000D01*
X107940000Y-114834000D02*
X104520000Y-114834000D01*
X107940000Y-107864000D02*
X107940000Y-114834000D01*
X104520000Y-107864000D02*
X107940000Y-107864000D01*
D11*
X102882380Y-63776666D02*
X103596666Y-63776666D01*
X103739523Y-63729047D01*
X103834761Y-63633809D01*
X103882380Y-63490952D01*
X103882380Y-63395714D01*
X103215714Y-64681428D02*
X103882380Y-64681428D01*
X102834761Y-64443333D02*
X103549047Y-64205238D01*
X103549047Y-64824285D01*
X102882380Y-87398666D02*
X103596666Y-87398666D01*
X103739523Y-87351047D01*
X103834761Y-87255809D01*
X103882380Y-87112952D01*
X103882380Y-87017714D01*
X102882380Y-87779619D02*
X102882380Y-88398666D01*
X103263333Y-88065333D01*
X103263333Y-88208190D01*
X103310952Y-88303428D01*
X103358571Y-88351047D01*
X103453809Y-88398666D01*
X103691904Y-88398666D01*
X103787142Y-88351047D01*
X103834761Y-88303428D01*
X103882380Y-88208190D01*
X103882380Y-87922476D01*
X103834761Y-87827238D01*
X103787142Y-87779619D01*
X102882380Y-111020666D02*
X103596666Y-111020666D01*
X103739523Y-110973047D01*
X103834761Y-110877809D01*
X103882380Y-110734952D01*
X103882380Y-110639714D01*
X102977619Y-111449238D02*
X102930000Y-111496857D01*
X102882380Y-111592095D01*
X102882380Y-111830190D01*
X102930000Y-111925428D01*
X102977619Y-111973047D01*
X103072857Y-112020666D01*
X103168095Y-112020666D01*
X103310952Y-111973047D01*
X103882380Y-111401619D01*
X103882380Y-112020666D01*
M02*
