G04 #@! TF.GenerationSoftware,KiCad,Pcbnew,(5.1.5)-3*
G04 #@! TF.CreationDate,2020-04-12T16:42:19+08:00*
G04 #@! TF.ProjectId,Misaka,4d697361-6b61-42e6-9b69-6361645f7063,rev?*
G04 #@! TF.SameCoordinates,Original*
G04 #@! TF.FileFunction,Copper,L2,Bot*
G04 #@! TF.FilePolarity,Positive*
%FSLAX46Y46*%
G04 Gerber Fmt 4.6, Leading zero omitted, Abs format (unit mm)*
G04 Created by KiCad (PCBNEW (5.1.5)-3) date 2020-04-12 16:42:19*
%MOMM*%
%LPD*%
G04 APERTURE LIST*
%ADD10C,0.050000*%
%ADD11C,1.700000*%
%ADD12R,3.400000X9.500000*%
%ADD13C,0.600000*%
%ADD14O,1.700000X1.700000*%
%ADD15R,1.700000X1.700000*%
%ADD16O,1.850000X0.850000*%
%ADD17C,0.840000*%
%ADD18R,0.840000X0.840000*%
%ADD19O,1.300000X0.800000*%
%ADD20C,0.100000*%
%ADD21C,3.500000*%
%ADD22R,3.500000X3.500000*%
%ADD23C,1.400000*%
%ADD24C,0.800000*%
%ADD25C,0.254000*%
%ADD26C,0.508000*%
%ADD27C,0.190000*%
G04 APERTURE END LIST*
D10*
X45000000Y-23038475D02*
X105000000Y-23038475D01*
X14999999Y-74999999D02*
X45000000Y-23038475D01*
X44999999Y-126961524D02*
X14999999Y-74999999D01*
X104999999Y-126961524D02*
X44999999Y-126961524D01*
X135000000Y-75000000D02*
X104999999Y-126961524D01*
X105000000Y-23038475D02*
X135000000Y-75000000D01*
X111141016Y-95000000D02*
G75*
G03X111141016Y-95000000I-1500000J0D01*
G01*
X41858983Y-95000000D02*
G75*
G03X41858983Y-95000000I-1500000J0D01*
G01*
X76500000Y-35000000D02*
G75*
G03X76500000Y-35000000I-1500000J0D01*
G01*
D11*
X62758466Y-59415534D03*
X64526233Y-57647767D03*
X66294000Y-55880000D03*
D12*
X87630000Y-64262000D03*
D13*
X88930000Y-59812000D03*
X87630000Y-59812000D03*
X86330000Y-59812000D03*
X88930000Y-61592000D03*
X87630000Y-61592000D03*
X86330000Y-61592000D03*
X88930000Y-63372000D03*
X87630000Y-63372000D03*
X86330000Y-63372000D03*
X88930000Y-65152000D03*
X87630000Y-65152000D03*
X86330000Y-65152000D03*
X88930000Y-66932000D03*
X87630000Y-66932000D03*
X86330000Y-66932000D03*
X86330000Y-68712000D03*
X87630000Y-68712000D03*
X88930000Y-68712000D03*
D12*
X87630000Y-87757000D03*
D13*
X88930000Y-83307000D03*
X87630000Y-83307000D03*
X86330000Y-83307000D03*
X88930000Y-85087000D03*
X87630000Y-85087000D03*
X86330000Y-85087000D03*
X88930000Y-86867000D03*
X87630000Y-86867000D03*
X86330000Y-86867000D03*
X88930000Y-88647000D03*
X87630000Y-88647000D03*
X86330000Y-88647000D03*
X88930000Y-90427000D03*
X87630000Y-90427000D03*
X86330000Y-90427000D03*
X86330000Y-92207000D03*
X87630000Y-92207000D03*
X88930000Y-92207000D03*
D12*
X87630000Y-111252000D03*
D13*
X88930000Y-106802000D03*
X87630000Y-106802000D03*
X86330000Y-106802000D03*
X88930000Y-108582000D03*
X87630000Y-108582000D03*
X86330000Y-108582000D03*
X88930000Y-110362000D03*
X87630000Y-110362000D03*
X86330000Y-110362000D03*
X88930000Y-112142000D03*
X87630000Y-112142000D03*
X86330000Y-112142000D03*
X88930000Y-113922000D03*
X87630000Y-113922000D03*
X86330000Y-113922000D03*
X86330000Y-115702000D03*
X87630000Y-115702000D03*
X88930000Y-115702000D03*
D11*
X46900000Y-118350000D03*
X46900000Y-116350000D03*
X46900000Y-114350000D03*
X46900000Y-112350000D03*
X46900000Y-110350000D03*
X46900000Y-108350000D03*
X46900000Y-106350000D03*
X46900000Y-104350000D03*
X46900000Y-102350000D03*
X46900000Y-100350000D03*
X68900000Y-100350000D03*
X68900000Y-102350000D03*
X68900000Y-104350000D03*
X68900000Y-106350000D03*
X68900000Y-108350000D03*
X68900000Y-110350000D03*
X68900000Y-112350000D03*
X68900000Y-114350000D03*
X68900000Y-116350000D03*
X68900000Y-118350000D03*
D14*
X47810000Y-26400000D03*
X50350000Y-26400000D03*
X52890000Y-26400000D03*
D15*
X55430000Y-26400000D03*
D16*
X21302000Y-71325000D03*
X21302000Y-78475000D03*
D17*
X21082000Y-73600000D03*
X22082000Y-74250000D03*
X21082000Y-74900000D03*
X22082000Y-75550000D03*
D18*
X21082000Y-76200000D03*
D19*
X106680000Y-65980000D03*
X106680000Y-64730000D03*
X106680000Y-63480000D03*
G04 #@! TA.AperFunction,ComponentPad*
D20*
G36*
X107149603Y-61830963D02*
G01*
X107169018Y-61833843D01*
X107188057Y-61838612D01*
X107206537Y-61845224D01*
X107224279Y-61853616D01*
X107241114Y-61863706D01*
X107256879Y-61875398D01*
X107271421Y-61888579D01*
X107284602Y-61903121D01*
X107296294Y-61918886D01*
X107306384Y-61935721D01*
X107314776Y-61953463D01*
X107321388Y-61971943D01*
X107326157Y-61990982D01*
X107329037Y-62010397D01*
X107330000Y-62030000D01*
X107330000Y-62430000D01*
X107329037Y-62449603D01*
X107326157Y-62469018D01*
X107321388Y-62488057D01*
X107314776Y-62506537D01*
X107306384Y-62524279D01*
X107296294Y-62541114D01*
X107284602Y-62556879D01*
X107271421Y-62571421D01*
X107256879Y-62584602D01*
X107241114Y-62596294D01*
X107224279Y-62606384D01*
X107206537Y-62614776D01*
X107188057Y-62621388D01*
X107169018Y-62626157D01*
X107149603Y-62629037D01*
X107130000Y-62630000D01*
X106230000Y-62630000D01*
X106210397Y-62629037D01*
X106190982Y-62626157D01*
X106171943Y-62621388D01*
X106153463Y-62614776D01*
X106135721Y-62606384D01*
X106118886Y-62596294D01*
X106103121Y-62584602D01*
X106088579Y-62571421D01*
X106075398Y-62556879D01*
X106063706Y-62541114D01*
X106053616Y-62524279D01*
X106045224Y-62506537D01*
X106038612Y-62488057D01*
X106033843Y-62469018D01*
X106030963Y-62449603D01*
X106030000Y-62430000D01*
X106030000Y-62030000D01*
X106030963Y-62010397D01*
X106033843Y-61990982D01*
X106038612Y-61971943D01*
X106045224Y-61953463D01*
X106053616Y-61935721D01*
X106063706Y-61918886D01*
X106075398Y-61903121D01*
X106088579Y-61888579D01*
X106103121Y-61875398D01*
X106118886Y-61863706D01*
X106135721Y-61853616D01*
X106153463Y-61845224D01*
X106171943Y-61838612D01*
X106190982Y-61833843D01*
X106210397Y-61830963D01*
X106230000Y-61830000D01*
X107130000Y-61830000D01*
X107149603Y-61830963D01*
G37*
G04 #@! TD.AperFunction*
D19*
X106680000Y-89602000D03*
X106680000Y-88352000D03*
X106680000Y-87102000D03*
G04 #@! TA.AperFunction,ComponentPad*
D20*
G36*
X107149603Y-85452963D02*
G01*
X107169018Y-85455843D01*
X107188057Y-85460612D01*
X107206537Y-85467224D01*
X107224279Y-85475616D01*
X107241114Y-85485706D01*
X107256879Y-85497398D01*
X107271421Y-85510579D01*
X107284602Y-85525121D01*
X107296294Y-85540886D01*
X107306384Y-85557721D01*
X107314776Y-85575463D01*
X107321388Y-85593943D01*
X107326157Y-85612982D01*
X107329037Y-85632397D01*
X107330000Y-85652000D01*
X107330000Y-86052000D01*
X107329037Y-86071603D01*
X107326157Y-86091018D01*
X107321388Y-86110057D01*
X107314776Y-86128537D01*
X107306384Y-86146279D01*
X107296294Y-86163114D01*
X107284602Y-86178879D01*
X107271421Y-86193421D01*
X107256879Y-86206602D01*
X107241114Y-86218294D01*
X107224279Y-86228384D01*
X107206537Y-86236776D01*
X107188057Y-86243388D01*
X107169018Y-86248157D01*
X107149603Y-86251037D01*
X107130000Y-86252000D01*
X106230000Y-86252000D01*
X106210397Y-86251037D01*
X106190982Y-86248157D01*
X106171943Y-86243388D01*
X106153463Y-86236776D01*
X106135721Y-86228384D01*
X106118886Y-86218294D01*
X106103121Y-86206602D01*
X106088579Y-86193421D01*
X106075398Y-86178879D01*
X106063706Y-86163114D01*
X106053616Y-86146279D01*
X106045224Y-86128537D01*
X106038612Y-86110057D01*
X106033843Y-86091018D01*
X106030963Y-86071603D01*
X106030000Y-86052000D01*
X106030000Y-85652000D01*
X106030963Y-85632397D01*
X106033843Y-85612982D01*
X106038612Y-85593943D01*
X106045224Y-85575463D01*
X106053616Y-85557721D01*
X106063706Y-85540886D01*
X106075398Y-85525121D01*
X106088579Y-85510579D01*
X106103121Y-85497398D01*
X106118886Y-85485706D01*
X106135721Y-85475616D01*
X106153463Y-85467224D01*
X106171943Y-85460612D01*
X106190982Y-85455843D01*
X106210397Y-85452963D01*
X106230000Y-85452000D01*
X107130000Y-85452000D01*
X107149603Y-85452963D01*
G37*
G04 #@! TD.AperFunction*
D19*
X106680000Y-113224000D03*
X106680000Y-111974000D03*
X106680000Y-110724000D03*
G04 #@! TA.AperFunction,ComponentPad*
D20*
G36*
X107149603Y-109074963D02*
G01*
X107169018Y-109077843D01*
X107188057Y-109082612D01*
X107206537Y-109089224D01*
X107224279Y-109097616D01*
X107241114Y-109107706D01*
X107256879Y-109119398D01*
X107271421Y-109132579D01*
X107284602Y-109147121D01*
X107296294Y-109162886D01*
X107306384Y-109179721D01*
X107314776Y-109197463D01*
X107321388Y-109215943D01*
X107326157Y-109234982D01*
X107329037Y-109254397D01*
X107330000Y-109274000D01*
X107330000Y-109674000D01*
X107329037Y-109693603D01*
X107326157Y-109713018D01*
X107321388Y-109732057D01*
X107314776Y-109750537D01*
X107306384Y-109768279D01*
X107296294Y-109785114D01*
X107284602Y-109800879D01*
X107271421Y-109815421D01*
X107256879Y-109828602D01*
X107241114Y-109840294D01*
X107224279Y-109850384D01*
X107206537Y-109858776D01*
X107188057Y-109865388D01*
X107169018Y-109870157D01*
X107149603Y-109873037D01*
X107130000Y-109874000D01*
X106230000Y-109874000D01*
X106210397Y-109873037D01*
X106190982Y-109870157D01*
X106171943Y-109865388D01*
X106153463Y-109858776D01*
X106135721Y-109850384D01*
X106118886Y-109840294D01*
X106103121Y-109828602D01*
X106088579Y-109815421D01*
X106075398Y-109800879D01*
X106063706Y-109785114D01*
X106053616Y-109768279D01*
X106045224Y-109750537D01*
X106038612Y-109732057D01*
X106033843Y-109713018D01*
X106030963Y-109693603D01*
X106030000Y-109674000D01*
X106030000Y-109274000D01*
X106030963Y-109254397D01*
X106033843Y-109234982D01*
X106038612Y-109215943D01*
X106045224Y-109197463D01*
X106053616Y-109179721D01*
X106063706Y-109162886D01*
X106075398Y-109147121D01*
X106088579Y-109132579D01*
X106103121Y-109119398D01*
X106118886Y-109107706D01*
X106135721Y-109097616D01*
X106153463Y-109089224D01*
X106171943Y-109082612D01*
X106190982Y-109077843D01*
X106210397Y-109074963D01*
X106230000Y-109074000D01*
X107130000Y-109074000D01*
X107149603Y-109074963D01*
G37*
G04 #@! TD.AperFunction*
D21*
X84916000Y-37592000D03*
D22*
X89916000Y-37592000D03*
D23*
X81916000Y-27592000D03*
X92916000Y-27592000D03*
D14*
X71882000Y-26162000D03*
X71882000Y-28702000D03*
X69342000Y-26162000D03*
X69342000Y-28702000D03*
X66802000Y-26162000D03*
D15*
X66802000Y-28702000D03*
D24*
X92456000Y-61449000D03*
X92157749Y-66668000D03*
X92202000Y-85071000D03*
X92143568Y-90341080D03*
X91948000Y-108712000D03*
X92202000Y-113792000D03*
X74930000Y-110490000D03*
X75946000Y-107188000D03*
X26517600Y-69090540D03*
X34297620Y-70363080D03*
X82707480Y-80698340D03*
X82948780Y-57002680D03*
X82971640Y-104500680D03*
X63306960Y-53908960D03*
X60119260Y-33764220D03*
X46174660Y-52671980D03*
X58910220Y-54744620D03*
X76454000Y-83820000D03*
X77216000Y-79756000D03*
X78740000Y-66040000D03*
X76955933Y-64509933D03*
X81788000Y-60960000D03*
X81788000Y-84328000D03*
X81788000Y-107950000D03*
X83566000Y-49530000D03*
X96774000Y-42164000D03*
D13*
X55880000Y-50038000D03*
D24*
X52070000Y-84582000D03*
X98806000Y-50546000D03*
D13*
X54356000Y-43180000D03*
X54356000Y-44196000D03*
X54356000Y-42164000D03*
X49276000Y-42672000D03*
X50076003Y-42672000D03*
D24*
X62484000Y-52578000D03*
X63754000Y-49784000D03*
X93726000Y-112522000D03*
X95504000Y-114046000D03*
X93224067Y-109734067D03*
X95504000Y-108204000D03*
X93980000Y-88875000D03*
X96012000Y-90329000D03*
X92964000Y-86614000D03*
X95504000Y-84836000D03*
X93218000Y-65314000D03*
X95758000Y-66802000D03*
X93472000Y-62992000D03*
X96012000Y-61214000D03*
X28194000Y-60960000D03*
X30226000Y-58928000D03*
X55118000Y-51308000D03*
X39878000Y-65532000D03*
D25*
X92056001Y-66566252D02*
X92157749Y-66668000D01*
X92456000Y-61449000D02*
X92056001Y-61848999D01*
X92056001Y-61848999D02*
X92056001Y-66566252D01*
X92182999Y-86239119D02*
X92182999Y-90150999D01*
X92202000Y-85071000D02*
X92202000Y-86220118D01*
X92202000Y-86220118D02*
X92182999Y-86239119D01*
X92182999Y-90150999D02*
X92143568Y-90190430D01*
X92143568Y-90190430D02*
X92143568Y-90341080D01*
X91948000Y-108712000D02*
X91948000Y-113538000D01*
X91948000Y-113538000D02*
X92202000Y-113792000D01*
X74930000Y-110490000D02*
X75946000Y-109474000D01*
X75946000Y-109474000D02*
X75946000Y-107188000D01*
D26*
X27083285Y-69090540D02*
X27469365Y-69476620D01*
X26517600Y-69090540D02*
X27083285Y-69090540D01*
X27469365Y-69476620D02*
X33411160Y-69476620D01*
X33411160Y-69476620D02*
X34297620Y-70363080D01*
D25*
X82707480Y-80698340D02*
X83855560Y-81846420D01*
X87630000Y-82753000D02*
X87630000Y-87757000D01*
X86723420Y-81846420D02*
X87630000Y-82753000D01*
X83855560Y-81846420D02*
X86723420Y-81846420D01*
X82948780Y-57002680D02*
X83736180Y-57790080D01*
X87630000Y-59258000D02*
X87630000Y-64262000D01*
X86162080Y-57790080D02*
X87630000Y-59258000D01*
X83736180Y-57790080D02*
X86162080Y-57790080D01*
X83537325Y-104500680D02*
X83941185Y-104904540D01*
X82971640Y-104500680D02*
X83537325Y-104500680D01*
X87630000Y-106248000D02*
X87630000Y-111252000D01*
X86286540Y-104904540D02*
X87630000Y-106248000D01*
X83941185Y-104904540D02*
X86286540Y-104904540D01*
X64526233Y-57647767D02*
X64526233Y-55128233D01*
X64526233Y-55128233D02*
X63306960Y-53908960D01*
X76454000Y-83820000D02*
X77216000Y-83058000D01*
X77216000Y-83058000D02*
X77216000Y-79756000D01*
X78740000Y-66040000D02*
X78486000Y-66040000D01*
X78486000Y-66040000D02*
X76955933Y-64509933D01*
D26*
X81788000Y-51308000D02*
X81788000Y-107950000D01*
X83566000Y-49530000D02*
X81788000Y-51308000D01*
X68160001Y-24803999D02*
X77889999Y-24803999D01*
X66802000Y-26162000D02*
X68160001Y-24803999D01*
X77889999Y-25353841D02*
X85556158Y-33020000D01*
X77889999Y-24803999D02*
X77889999Y-25353841D01*
X96774000Y-40035598D02*
X96774000Y-42164000D01*
X85556158Y-33020000D02*
X89758402Y-33020000D01*
X89758402Y-33020000D02*
X96774000Y-40035598D01*
D27*
X55880000Y-50038000D02*
X55880000Y-43223556D01*
X55880000Y-43223556D02*
X68601778Y-30501778D01*
X70082222Y-30501778D02*
X71882000Y-28702000D01*
X68601778Y-30501778D02*
X70082222Y-30501778D01*
D25*
X55455736Y-50038000D02*
X44787736Y-39370000D01*
X55880000Y-50038000D02*
X55455736Y-50038000D01*
X44787736Y-39370000D02*
X41402000Y-39370000D01*
X41402000Y-39370000D02*
X38354000Y-42418000D01*
X38354000Y-42418000D02*
X38354000Y-70866000D01*
X38354000Y-70866000D02*
X52070000Y-84582000D01*
D26*
X71628000Y-115622000D02*
X68900000Y-118350000D01*
X71628000Y-54102000D02*
X71628000Y-115622000D01*
X96881999Y-48621999D02*
X85197999Y-48621999D01*
X85197999Y-48621999D02*
X84328000Y-47752000D01*
X98806000Y-50546000D02*
X96881999Y-48621999D01*
X84328000Y-47752000D02*
X77978000Y-47752000D01*
X77978000Y-47752000D02*
X71628000Y-54102000D01*
D27*
X68196999Y-27307001D02*
X68492001Y-27011999D01*
X68196999Y-29763265D02*
X68196999Y-27307001D01*
X68492001Y-27011999D02*
X69342000Y-26162000D01*
X54780264Y-43180000D02*
X68196999Y-29763265D01*
X54356000Y-43180000D02*
X54780264Y-43180000D01*
X69342000Y-29210000D02*
X69342000Y-28702000D01*
X54356000Y-44196000D02*
X69342000Y-29210000D01*
X54356000Y-42164000D02*
X55244708Y-42164000D01*
X66802000Y-30606708D02*
X66802000Y-28702000D01*
X55244708Y-42164000D02*
X66802000Y-30606708D01*
X47810000Y-41206000D02*
X47810000Y-26400000D01*
X49276000Y-42672000D02*
X47810000Y-41206000D01*
X50076003Y-26673997D02*
X50350000Y-26400000D01*
X50076003Y-42672000D02*
X50076003Y-26673997D01*
D25*
X60960000Y-106410000D02*
X61613465Y-107063465D01*
X62484000Y-52578000D02*
X60960000Y-54102000D01*
X60960000Y-54102000D02*
X60960000Y-106410000D01*
X61613465Y-107063465D02*
X68900000Y-114350000D01*
D27*
X63754000Y-49784000D02*
X60198000Y-53340000D01*
X60198000Y-107648000D02*
X68900000Y-116350000D01*
X60198000Y-53340000D02*
X60198000Y-107648000D01*
D25*
X95250000Y-114046000D02*
X93726000Y-112522000D01*
X95504000Y-114046000D02*
X95250000Y-114046000D01*
X93973933Y-109734067D02*
X93224067Y-109734067D01*
X95504000Y-108204000D02*
X93973933Y-109734067D01*
X94558000Y-88875000D02*
X93980000Y-88875000D01*
X96012000Y-90329000D02*
X94558000Y-88875000D01*
X93726000Y-86614000D02*
X92964000Y-86614000D01*
X95504000Y-84836000D02*
X93726000Y-86614000D01*
X94270000Y-65314000D02*
X93218000Y-65314000D01*
X95758000Y-66802000D02*
X94270000Y-65314000D01*
X94234000Y-62992000D02*
X93472000Y-62992000D01*
X96012000Y-61214000D02*
X94234000Y-62992000D01*
X28194000Y-60960000D02*
X30226000Y-58928000D01*
D27*
X55118000Y-51308000D02*
X55118000Y-50297076D01*
X55118000Y-50297076D02*
X44612934Y-39792010D01*
X44612934Y-39792010D02*
X41576802Y-39792010D01*
X41576802Y-39792010D02*
X38776010Y-42592802D01*
X38776010Y-42592802D02*
X38776010Y-64430010D01*
X38776010Y-64430010D02*
X39878000Y-65532000D01*
D25*
G36*
X134237897Y-75000000D02*
G01*
X104618948Y-126301524D01*
X45381050Y-126301524D01*
X30313489Y-100203740D01*
X45415000Y-100203740D01*
X45415000Y-100496260D01*
X45472068Y-100783158D01*
X45584010Y-101053411D01*
X45746525Y-101296632D01*
X45799893Y-101350000D01*
X45746525Y-101403368D01*
X45584010Y-101646589D01*
X45472068Y-101916842D01*
X45415000Y-102203740D01*
X45415000Y-102496260D01*
X45472068Y-102783158D01*
X45584010Y-103053411D01*
X45746525Y-103296632D01*
X45799893Y-103350000D01*
X45746525Y-103403368D01*
X45584010Y-103646589D01*
X45472068Y-103916842D01*
X45415000Y-104203740D01*
X45415000Y-104496260D01*
X45472068Y-104783158D01*
X45584010Y-105053411D01*
X45746525Y-105296632D01*
X45799893Y-105350000D01*
X45746525Y-105403368D01*
X45584010Y-105646589D01*
X45472068Y-105916842D01*
X45415000Y-106203740D01*
X45415000Y-106496260D01*
X45472068Y-106783158D01*
X45584010Y-107053411D01*
X45746525Y-107296632D01*
X45799893Y-107350000D01*
X45746525Y-107403368D01*
X45584010Y-107646589D01*
X45472068Y-107916842D01*
X45415000Y-108203740D01*
X45415000Y-108496260D01*
X45472068Y-108783158D01*
X45584010Y-109053411D01*
X45746525Y-109296632D01*
X45799893Y-109350000D01*
X45746525Y-109403368D01*
X45584010Y-109646589D01*
X45472068Y-109916842D01*
X45415000Y-110203740D01*
X45415000Y-110496260D01*
X45472068Y-110783158D01*
X45584010Y-111053411D01*
X45746525Y-111296632D01*
X45799893Y-111350000D01*
X45746525Y-111403368D01*
X45584010Y-111646589D01*
X45472068Y-111916842D01*
X45415000Y-112203740D01*
X45415000Y-112496260D01*
X45472068Y-112783158D01*
X45584010Y-113053411D01*
X45746525Y-113296632D01*
X45799893Y-113350000D01*
X45746525Y-113403368D01*
X45584010Y-113646589D01*
X45472068Y-113916842D01*
X45415000Y-114203740D01*
X45415000Y-114496260D01*
X45472068Y-114783158D01*
X45584010Y-115053411D01*
X45746525Y-115296632D01*
X45799893Y-115350000D01*
X45746525Y-115403368D01*
X45584010Y-115646589D01*
X45472068Y-115916842D01*
X45415000Y-116203740D01*
X45415000Y-116496260D01*
X45472068Y-116783158D01*
X45584010Y-117053411D01*
X45746525Y-117296632D01*
X45799893Y-117350000D01*
X45746525Y-117403368D01*
X45584010Y-117646589D01*
X45472068Y-117916842D01*
X45415000Y-118203740D01*
X45415000Y-118496260D01*
X45472068Y-118783158D01*
X45584010Y-119053411D01*
X45746525Y-119296632D01*
X45953368Y-119503475D01*
X46196589Y-119665990D01*
X46466842Y-119777932D01*
X46753740Y-119835000D01*
X47046260Y-119835000D01*
X47333158Y-119777932D01*
X47603411Y-119665990D01*
X47846632Y-119503475D01*
X48053475Y-119296632D01*
X48215990Y-119053411D01*
X48327932Y-118783158D01*
X48385000Y-118496260D01*
X48385000Y-118203740D01*
X48327932Y-117916842D01*
X48215990Y-117646589D01*
X48053475Y-117403368D01*
X48000107Y-117350000D01*
X48053475Y-117296632D01*
X48215990Y-117053411D01*
X48327932Y-116783158D01*
X48385000Y-116496260D01*
X48385000Y-116203740D01*
X48327932Y-115916842D01*
X48215990Y-115646589D01*
X48053475Y-115403368D01*
X48000107Y-115350000D01*
X48053475Y-115296632D01*
X48215990Y-115053411D01*
X48327932Y-114783158D01*
X48385000Y-114496260D01*
X48385000Y-114203740D01*
X48327932Y-113916842D01*
X48215990Y-113646589D01*
X48053475Y-113403368D01*
X48000107Y-113350000D01*
X48053475Y-113296632D01*
X48215990Y-113053411D01*
X48327932Y-112783158D01*
X48385000Y-112496260D01*
X48385000Y-112203740D01*
X48327932Y-111916842D01*
X48215990Y-111646589D01*
X48053475Y-111403368D01*
X48000107Y-111350000D01*
X48053475Y-111296632D01*
X48215990Y-111053411D01*
X48327932Y-110783158D01*
X48385000Y-110496260D01*
X48385000Y-110203740D01*
X48327932Y-109916842D01*
X48215990Y-109646589D01*
X48053475Y-109403368D01*
X48000107Y-109350000D01*
X48053475Y-109296632D01*
X48215990Y-109053411D01*
X48327932Y-108783158D01*
X48385000Y-108496260D01*
X48385000Y-108203740D01*
X48327932Y-107916842D01*
X48215990Y-107646589D01*
X48053475Y-107403368D01*
X48000107Y-107350000D01*
X48053475Y-107296632D01*
X48215990Y-107053411D01*
X48327932Y-106783158D01*
X48385000Y-106496260D01*
X48385000Y-106203740D01*
X48327932Y-105916842D01*
X48215990Y-105646589D01*
X48053475Y-105403368D01*
X48000107Y-105350000D01*
X48053475Y-105296632D01*
X48215990Y-105053411D01*
X48327932Y-104783158D01*
X48385000Y-104496260D01*
X48385000Y-104203740D01*
X48327932Y-103916842D01*
X48215990Y-103646589D01*
X48053475Y-103403368D01*
X48000107Y-103350000D01*
X48053475Y-103296632D01*
X48215990Y-103053411D01*
X48327932Y-102783158D01*
X48385000Y-102496260D01*
X48385000Y-102203740D01*
X48327932Y-101916842D01*
X48215990Y-101646589D01*
X48053475Y-101403368D01*
X48000107Y-101350000D01*
X48053475Y-101296632D01*
X48215990Y-101053411D01*
X48327932Y-100783158D01*
X48385000Y-100496260D01*
X48385000Y-100203740D01*
X48327932Y-99916842D01*
X48215990Y-99646589D01*
X48053475Y-99403368D01*
X47846632Y-99196525D01*
X47603411Y-99034010D01*
X47333158Y-98922068D01*
X47046260Y-98865000D01*
X46753740Y-98865000D01*
X46466842Y-98922068D01*
X46196589Y-99034010D01*
X45953368Y-99196525D01*
X45746525Y-99403368D01*
X45584010Y-99646589D01*
X45472068Y-99916842D01*
X45415000Y-100203740D01*
X30313489Y-100203740D01*
X27185741Y-94786323D01*
X38189480Y-94786323D01*
X38189480Y-95213677D01*
X38272853Y-95632821D01*
X38436395Y-96027645D01*
X38673820Y-96382977D01*
X38976006Y-96685163D01*
X39331338Y-96922588D01*
X39726162Y-97086130D01*
X40145306Y-97169503D01*
X40572660Y-97169503D01*
X40991804Y-97086130D01*
X41386628Y-96922588D01*
X41741960Y-96685163D01*
X42044146Y-96382977D01*
X42281571Y-96027645D01*
X42445113Y-95632821D01*
X42528486Y-95213677D01*
X42528486Y-94786323D01*
X42445113Y-94367179D01*
X42281571Y-93972355D01*
X42044146Y-93617023D01*
X41741960Y-93314837D01*
X41386628Y-93077412D01*
X40991804Y-92913870D01*
X40572660Y-92830497D01*
X40145306Y-92830497D01*
X39726162Y-92913870D01*
X39331338Y-93077412D01*
X38976006Y-93314837D01*
X38673820Y-93617023D01*
X38436395Y-93972355D01*
X38272853Y-94367179D01*
X38189480Y-94786323D01*
X27185741Y-94786323D01*
X17768394Y-78475000D01*
X19736872Y-78475000D01*
X19757338Y-78682796D01*
X19817950Y-78882607D01*
X19916378Y-79066753D01*
X20048841Y-79228159D01*
X20210247Y-79360622D01*
X20394393Y-79459050D01*
X20594204Y-79519662D01*
X20749934Y-79535000D01*
X21854066Y-79535000D01*
X22009796Y-79519662D01*
X22209607Y-79459050D01*
X22393753Y-79360622D01*
X22555159Y-79228159D01*
X22687622Y-79066753D01*
X22786050Y-78882607D01*
X22846662Y-78682796D01*
X22867128Y-78475000D01*
X22846662Y-78267204D01*
X22786050Y-78067393D01*
X22687622Y-77883247D01*
X22555159Y-77721841D01*
X22393753Y-77589378D01*
X22209607Y-77490950D01*
X22009796Y-77430338D01*
X21854066Y-77415000D01*
X20749934Y-77415000D01*
X20594204Y-77430338D01*
X20394393Y-77490950D01*
X20210247Y-77589378D01*
X20048841Y-77721841D01*
X19916378Y-77883247D01*
X19817950Y-78067393D01*
X19757338Y-78267204D01*
X19736872Y-78475000D01*
X17768394Y-78475000D01*
X16212435Y-75780000D01*
X20023928Y-75780000D01*
X20023928Y-76620000D01*
X20036188Y-76744482D01*
X20072498Y-76864180D01*
X20131463Y-76974494D01*
X20210815Y-77071185D01*
X20307506Y-77150537D01*
X20417820Y-77209502D01*
X20537518Y-77245812D01*
X20662000Y-77258072D01*
X21502000Y-77258072D01*
X21626482Y-77245812D01*
X21746180Y-77209502D01*
X21856494Y-77150537D01*
X21953185Y-77071185D01*
X22032537Y-76974494D01*
X22091502Y-76864180D01*
X22127812Y-76744482D01*
X22140072Y-76620000D01*
X22140072Y-76605000D01*
X22185908Y-76605000D01*
X22389732Y-76564457D01*
X22581730Y-76484929D01*
X22754523Y-76369472D01*
X22901472Y-76222523D01*
X23016929Y-76049730D01*
X23096457Y-75857732D01*
X23137000Y-75653908D01*
X23137000Y-75446092D01*
X23096457Y-75242268D01*
X23016929Y-75050270D01*
X22916521Y-74900000D01*
X23016929Y-74749730D01*
X23096457Y-74557732D01*
X23137000Y-74353908D01*
X23137000Y-74146092D01*
X23096457Y-73942268D01*
X23016929Y-73750270D01*
X22901472Y-73577477D01*
X22754523Y-73430528D01*
X22581730Y-73315071D01*
X22389732Y-73235543D01*
X22185908Y-73195000D01*
X22056167Y-73195000D01*
X22016929Y-73100270D01*
X21901472Y-72927477D01*
X21754523Y-72780528D01*
X21581730Y-72665071D01*
X21389732Y-72585543D01*
X21185908Y-72545000D01*
X20978092Y-72545000D01*
X20774268Y-72585543D01*
X20582270Y-72665071D01*
X20409477Y-72780528D01*
X20262528Y-72927477D01*
X20147071Y-73100270D01*
X20067543Y-73292268D01*
X20027000Y-73496092D01*
X20027000Y-73703908D01*
X20067543Y-73907732D01*
X20147071Y-74099730D01*
X20247479Y-74250000D01*
X20147071Y-74400270D01*
X20067543Y-74592268D01*
X20027000Y-74796092D01*
X20027000Y-75003908D01*
X20067543Y-75207732D01*
X20147071Y-75399730D01*
X20149560Y-75403455D01*
X20131463Y-75425506D01*
X20072498Y-75535820D01*
X20036188Y-75655518D01*
X20023928Y-75780000D01*
X16212435Y-75780000D01*
X15762101Y-74999999D01*
X17883862Y-71325000D01*
X19736872Y-71325000D01*
X19757338Y-71532796D01*
X19817950Y-71732607D01*
X19916378Y-71916753D01*
X20048841Y-72078159D01*
X20210247Y-72210622D01*
X20394393Y-72309050D01*
X20594204Y-72369662D01*
X20749934Y-72385000D01*
X21854066Y-72385000D01*
X22009796Y-72369662D01*
X22209607Y-72309050D01*
X22393753Y-72210622D01*
X22555159Y-72078159D01*
X22687622Y-71916753D01*
X22786050Y-71732607D01*
X22846662Y-71532796D01*
X22867128Y-71325000D01*
X22846662Y-71117204D01*
X22786050Y-70917393D01*
X22687622Y-70733247D01*
X22555159Y-70571841D01*
X22393753Y-70439378D01*
X22209607Y-70340950D01*
X22009796Y-70280338D01*
X21854066Y-70265000D01*
X20749934Y-70265000D01*
X20594204Y-70280338D01*
X20394393Y-70340950D01*
X20210247Y-70439378D01*
X20048841Y-70571841D01*
X19916378Y-70733247D01*
X19817950Y-70917393D01*
X19757338Y-71117204D01*
X19736872Y-71325000D01*
X17883862Y-71325000D01*
X19232782Y-68988601D01*
X25482600Y-68988601D01*
X25482600Y-69192479D01*
X25522374Y-69392438D01*
X25600395Y-69580796D01*
X25713663Y-69750314D01*
X25857826Y-69894477D01*
X26027344Y-70007745D01*
X26215702Y-70085766D01*
X26415661Y-70125540D01*
X26619539Y-70125540D01*
X26819268Y-70085812D01*
X26837706Y-70108279D01*
X26973074Y-70219373D01*
X27127514Y-70301923D01*
X27244257Y-70337336D01*
X27295090Y-70352756D01*
X27469365Y-70369921D01*
X27513033Y-70365620D01*
X33042925Y-70365620D01*
X33292490Y-70615185D01*
X33302394Y-70664978D01*
X33380415Y-70853336D01*
X33493683Y-71022854D01*
X33637846Y-71167017D01*
X33807364Y-71280285D01*
X33995722Y-71358306D01*
X34195681Y-71398080D01*
X34399559Y-71398080D01*
X34599518Y-71358306D01*
X34787876Y-71280285D01*
X34957394Y-71167017D01*
X35101557Y-71022854D01*
X35214825Y-70853336D01*
X35292846Y-70664978D01*
X35332620Y-70465019D01*
X35332620Y-70261141D01*
X35292846Y-70061182D01*
X35214825Y-69872824D01*
X35101557Y-69703306D01*
X34957394Y-69559143D01*
X34787876Y-69445875D01*
X34599518Y-69367854D01*
X34549725Y-69357950D01*
X34070659Y-68878883D01*
X34042819Y-68844961D01*
X33907451Y-68733867D01*
X33753011Y-68651317D01*
X33585434Y-68600484D01*
X33454827Y-68587620D01*
X33454820Y-68587620D01*
X33411160Y-68583320D01*
X33367500Y-68587620D01*
X27837600Y-68587620D01*
X27742784Y-68492804D01*
X27714944Y-68458881D01*
X27579576Y-68347787D01*
X27425136Y-68265237D01*
X27257559Y-68214404D01*
X27126952Y-68201540D01*
X27126945Y-68201540D01*
X27083285Y-68197240D01*
X27048726Y-68200644D01*
X27007856Y-68173335D01*
X26819498Y-68095314D01*
X26619539Y-68055540D01*
X26415661Y-68055540D01*
X26215702Y-68095314D01*
X26027344Y-68173335D01*
X25857826Y-68286603D01*
X25713663Y-68430766D01*
X25600395Y-68600284D01*
X25522374Y-68788642D01*
X25482600Y-68988601D01*
X19232782Y-68988601D01*
X23926951Y-60858061D01*
X27159000Y-60858061D01*
X27159000Y-61061939D01*
X27198774Y-61261898D01*
X27276795Y-61450256D01*
X27390063Y-61619774D01*
X27534226Y-61763937D01*
X27703744Y-61877205D01*
X27892102Y-61955226D01*
X28092061Y-61995000D01*
X28295939Y-61995000D01*
X28495898Y-61955226D01*
X28684256Y-61877205D01*
X28853774Y-61763937D01*
X28997937Y-61619774D01*
X29111205Y-61450256D01*
X29189226Y-61261898D01*
X29229000Y-61061939D01*
X29229000Y-61002630D01*
X30268631Y-59963000D01*
X30327939Y-59963000D01*
X30527898Y-59923226D01*
X30716256Y-59845205D01*
X30885774Y-59731937D01*
X31029937Y-59587774D01*
X31143205Y-59418256D01*
X31221226Y-59229898D01*
X31261000Y-59029939D01*
X31261000Y-58826061D01*
X31221226Y-58626102D01*
X31143205Y-58437744D01*
X31029937Y-58268226D01*
X30885774Y-58124063D01*
X30716256Y-58010795D01*
X30527898Y-57932774D01*
X30327939Y-57893000D01*
X30124061Y-57893000D01*
X29924102Y-57932774D01*
X29735744Y-58010795D01*
X29566226Y-58124063D01*
X29422063Y-58268226D01*
X29308795Y-58437744D01*
X29230774Y-58626102D01*
X29191000Y-58826061D01*
X29191000Y-58885369D01*
X28151370Y-59925000D01*
X28092061Y-59925000D01*
X27892102Y-59964774D01*
X27703744Y-60042795D01*
X27534226Y-60156063D01*
X27390063Y-60300226D01*
X27276795Y-60469744D01*
X27198774Y-60658102D01*
X27159000Y-60858061D01*
X23926951Y-60858061D01*
X34573326Y-42418000D01*
X37588314Y-42418000D01*
X37592000Y-42455423D01*
X37592001Y-70828567D01*
X37588314Y-70866000D01*
X37603027Y-71015378D01*
X37646599Y-71159015D01*
X37717355Y-71291392D01*
X37788721Y-71378351D01*
X37812579Y-71407422D01*
X37841649Y-71431279D01*
X51035000Y-84624631D01*
X51035000Y-84683939D01*
X51074774Y-84883898D01*
X51152795Y-85072256D01*
X51266063Y-85241774D01*
X51410226Y-85385937D01*
X51579744Y-85499205D01*
X51768102Y-85577226D01*
X51968061Y-85617000D01*
X52171939Y-85617000D01*
X52371898Y-85577226D01*
X52560256Y-85499205D01*
X52729774Y-85385937D01*
X52873937Y-85241774D01*
X52987205Y-85072256D01*
X53065226Y-84883898D01*
X53105000Y-84683939D01*
X53105000Y-84480061D01*
X53065226Y-84280102D01*
X52987205Y-84091744D01*
X52873937Y-83922226D01*
X52729774Y-83778063D01*
X52560256Y-83664795D01*
X52371898Y-83586774D01*
X52171939Y-83547000D01*
X52112631Y-83547000D01*
X39116000Y-70550370D01*
X39116000Y-66233711D01*
X39218226Y-66335937D01*
X39387744Y-66449205D01*
X39576102Y-66527226D01*
X39776061Y-66567000D01*
X39979939Y-66567000D01*
X40179898Y-66527226D01*
X40368256Y-66449205D01*
X40537774Y-66335937D01*
X40681937Y-66191774D01*
X40795205Y-66022256D01*
X40873226Y-65833898D01*
X40913000Y-65633939D01*
X40913000Y-65430061D01*
X40873226Y-65230102D01*
X40795205Y-65041744D01*
X40681937Y-64872226D01*
X40537774Y-64728063D01*
X40368256Y-64614795D01*
X40179898Y-64536774D01*
X39979939Y-64497000D01*
X39875376Y-64497000D01*
X39506010Y-64127635D01*
X39506010Y-54642681D01*
X57875220Y-54642681D01*
X57875220Y-54846559D01*
X57914994Y-55046518D01*
X57993015Y-55234876D01*
X58106283Y-55404394D01*
X58250446Y-55548557D01*
X58419964Y-55661825D01*
X58608322Y-55739846D01*
X58808281Y-55779620D01*
X59012159Y-55779620D01*
X59212118Y-55739846D01*
X59400476Y-55661825D01*
X59468000Y-55616707D01*
X59468001Y-107612135D01*
X59464469Y-107648000D01*
X59478562Y-107791104D01*
X59520305Y-107928710D01*
X59550912Y-107985972D01*
X59588091Y-108055529D01*
X59626280Y-108102061D01*
X59644510Y-108124274D01*
X59679316Y-108166685D01*
X59707168Y-108189543D01*
X67465829Y-115948205D01*
X67415000Y-116203740D01*
X67415000Y-116496260D01*
X67472068Y-116783158D01*
X67584010Y-117053411D01*
X67746525Y-117296632D01*
X67799893Y-117350000D01*
X67746525Y-117403368D01*
X67584010Y-117646589D01*
X67472068Y-117916842D01*
X67415000Y-118203740D01*
X67415000Y-118496260D01*
X67472068Y-118783158D01*
X67584010Y-119053411D01*
X67746525Y-119296632D01*
X67953368Y-119503475D01*
X68196589Y-119665990D01*
X68466842Y-119777932D01*
X68753740Y-119835000D01*
X69046260Y-119835000D01*
X69333158Y-119777932D01*
X69603411Y-119665990D01*
X69846632Y-119503475D01*
X70053475Y-119296632D01*
X70215990Y-119053411D01*
X70327932Y-118783158D01*
X70385000Y-118496260D01*
X70385000Y-118203740D01*
X70371477Y-118135758D01*
X72225742Y-116281494D01*
X72259659Y-116253659D01*
X72370753Y-116118291D01*
X72453303Y-115963851D01*
X72504136Y-115796274D01*
X72517000Y-115665667D01*
X72521301Y-115622000D01*
X72517000Y-115578332D01*
X72517000Y-110388061D01*
X73895000Y-110388061D01*
X73895000Y-110591939D01*
X73934774Y-110791898D01*
X74012795Y-110980256D01*
X74126063Y-111149774D01*
X74270226Y-111293937D01*
X74439744Y-111407205D01*
X74628102Y-111485226D01*
X74828061Y-111525000D01*
X75031939Y-111525000D01*
X75231898Y-111485226D01*
X75420256Y-111407205D01*
X75589774Y-111293937D01*
X75733937Y-111149774D01*
X75847205Y-110980256D01*
X75925226Y-110791898D01*
X75965000Y-110591939D01*
X75965000Y-110532630D01*
X76458353Y-110039278D01*
X76487422Y-110015422D01*
X76518421Y-109977649D01*
X76582645Y-109899393D01*
X76620465Y-109828636D01*
X76653402Y-109767015D01*
X76696974Y-109623378D01*
X76708000Y-109511426D01*
X76708000Y-109511423D01*
X76711686Y-109474000D01*
X76708000Y-109436577D01*
X76708000Y-107889711D01*
X76749937Y-107847774D01*
X76863205Y-107678256D01*
X76941226Y-107489898D01*
X76981000Y-107289939D01*
X76981000Y-107086061D01*
X76941226Y-106886102D01*
X76863205Y-106697744D01*
X76749937Y-106528226D01*
X76605774Y-106384063D01*
X76436256Y-106270795D01*
X76247898Y-106192774D01*
X76047939Y-106153000D01*
X75844061Y-106153000D01*
X75644102Y-106192774D01*
X75455744Y-106270795D01*
X75286226Y-106384063D01*
X75142063Y-106528226D01*
X75028795Y-106697744D01*
X74950774Y-106886102D01*
X74911000Y-107086061D01*
X74911000Y-107289939D01*
X74950774Y-107489898D01*
X75028795Y-107678256D01*
X75142063Y-107847774D01*
X75184001Y-107889712D01*
X75184000Y-109158369D01*
X74887370Y-109455000D01*
X74828061Y-109455000D01*
X74628102Y-109494774D01*
X74439744Y-109572795D01*
X74270226Y-109686063D01*
X74126063Y-109830226D01*
X74012795Y-109999744D01*
X73934774Y-110188102D01*
X73895000Y-110388061D01*
X72517000Y-110388061D01*
X72517000Y-83718061D01*
X75419000Y-83718061D01*
X75419000Y-83921939D01*
X75458774Y-84121898D01*
X75536795Y-84310256D01*
X75650063Y-84479774D01*
X75794226Y-84623937D01*
X75963744Y-84737205D01*
X76152102Y-84815226D01*
X76352061Y-84855000D01*
X76555939Y-84855000D01*
X76755898Y-84815226D01*
X76944256Y-84737205D01*
X77113774Y-84623937D01*
X77257937Y-84479774D01*
X77371205Y-84310256D01*
X77449226Y-84121898D01*
X77489000Y-83921939D01*
X77489000Y-83862631D01*
X77728353Y-83623278D01*
X77757422Y-83599422D01*
X77784772Y-83566096D01*
X77852645Y-83483393D01*
X77923401Y-83351016D01*
X77923402Y-83351015D01*
X77966974Y-83207378D01*
X77978000Y-83095426D01*
X77978000Y-83095423D01*
X77981686Y-83058000D01*
X77978000Y-83020577D01*
X77978000Y-80457711D01*
X78019937Y-80415774D01*
X78133205Y-80246256D01*
X78211226Y-80057898D01*
X78251000Y-79857939D01*
X78251000Y-79654061D01*
X78211226Y-79454102D01*
X78133205Y-79265744D01*
X78019937Y-79096226D01*
X77875774Y-78952063D01*
X77706256Y-78838795D01*
X77517898Y-78760774D01*
X77317939Y-78721000D01*
X77114061Y-78721000D01*
X76914102Y-78760774D01*
X76725744Y-78838795D01*
X76556226Y-78952063D01*
X76412063Y-79096226D01*
X76298795Y-79265744D01*
X76220774Y-79454102D01*
X76181000Y-79654061D01*
X76181000Y-79857939D01*
X76220774Y-80057898D01*
X76298795Y-80246256D01*
X76412063Y-80415774D01*
X76454001Y-80457712D01*
X76454000Y-82742369D01*
X76411369Y-82785000D01*
X76352061Y-82785000D01*
X76152102Y-82824774D01*
X75963744Y-82902795D01*
X75794226Y-83016063D01*
X75650063Y-83160226D01*
X75536795Y-83329744D01*
X75458774Y-83518102D01*
X75419000Y-83718061D01*
X72517000Y-83718061D01*
X72517000Y-64407994D01*
X75920933Y-64407994D01*
X75920933Y-64611872D01*
X75960707Y-64811831D01*
X76038728Y-65000189D01*
X76151996Y-65169707D01*
X76296159Y-65313870D01*
X76465677Y-65427138D01*
X76654035Y-65505159D01*
X76853994Y-65544933D01*
X76913303Y-65544933D01*
X77769174Y-66400804D01*
X77822795Y-66530256D01*
X77936063Y-66699774D01*
X78080226Y-66843937D01*
X78249744Y-66957205D01*
X78438102Y-67035226D01*
X78638061Y-67075000D01*
X78841939Y-67075000D01*
X79041898Y-67035226D01*
X79230256Y-66957205D01*
X79399774Y-66843937D01*
X79543937Y-66699774D01*
X79657205Y-66530256D01*
X79735226Y-66341898D01*
X79775000Y-66141939D01*
X79775000Y-65938061D01*
X79735226Y-65738102D01*
X79657205Y-65549744D01*
X79543937Y-65380226D01*
X79399774Y-65236063D01*
X79230256Y-65122795D01*
X79041898Y-65044774D01*
X78841939Y-65005000D01*
X78638061Y-65005000D01*
X78546786Y-65023156D01*
X77990933Y-64467303D01*
X77990933Y-64407994D01*
X77951159Y-64208035D01*
X77873138Y-64019677D01*
X77759870Y-63850159D01*
X77615707Y-63705996D01*
X77446189Y-63592728D01*
X77257831Y-63514707D01*
X77057872Y-63474933D01*
X76853994Y-63474933D01*
X76654035Y-63514707D01*
X76465677Y-63592728D01*
X76296159Y-63705996D01*
X76151996Y-63850159D01*
X76038728Y-64019677D01*
X75960707Y-64208035D01*
X75920933Y-64407994D01*
X72517000Y-64407994D01*
X72517000Y-54470235D01*
X78346236Y-48641000D01*
X83033532Y-48641000D01*
X82906226Y-48726063D01*
X82762063Y-48870226D01*
X82648795Y-49039744D01*
X82570774Y-49228102D01*
X82560870Y-49277894D01*
X81190264Y-50648501D01*
X81156341Y-50676341D01*
X81045247Y-50811710D01*
X80962697Y-50966150D01*
X80911864Y-51133727D01*
X80899000Y-51264334D01*
X80899000Y-51264340D01*
X80894700Y-51308000D01*
X80899000Y-51351660D01*
X80899000Y-60427532D01*
X80870795Y-60469744D01*
X80792774Y-60658102D01*
X80753000Y-60858061D01*
X80753000Y-61061939D01*
X80792774Y-61261898D01*
X80870795Y-61450256D01*
X80899000Y-61492468D01*
X80899001Y-83795531D01*
X80870795Y-83837744D01*
X80792774Y-84026102D01*
X80753000Y-84226061D01*
X80753000Y-84429939D01*
X80792774Y-84629898D01*
X80870795Y-84818256D01*
X80899001Y-84860469D01*
X80899001Y-107417531D01*
X80870795Y-107459744D01*
X80792774Y-107648102D01*
X80753000Y-107848061D01*
X80753000Y-108051939D01*
X80792774Y-108251898D01*
X80870795Y-108440256D01*
X80984063Y-108609774D01*
X81128226Y-108753937D01*
X81297744Y-108867205D01*
X81486102Y-108945226D01*
X81686061Y-108985000D01*
X81889939Y-108985000D01*
X82089898Y-108945226D01*
X82278256Y-108867205D01*
X82447774Y-108753937D01*
X82591937Y-108609774D01*
X82705205Y-108440256D01*
X82783226Y-108251898D01*
X82823000Y-108051939D01*
X82823000Y-107848061D01*
X82783226Y-107648102D01*
X82705205Y-107459744D01*
X82677000Y-107417532D01*
X82677000Y-105497350D01*
X82869701Y-105535680D01*
X83073579Y-105535680D01*
X83273538Y-105495906D01*
X83398330Y-105444215D01*
X83399763Y-105445962D01*
X83515793Y-105541185D01*
X83648170Y-105611942D01*
X83791807Y-105655514D01*
X83903759Y-105666540D01*
X83903761Y-105666540D01*
X83941184Y-105670226D01*
X83978607Y-105666540D01*
X85970910Y-105666540D01*
X86168298Y-105863928D01*
X85930000Y-105863928D01*
X85805518Y-105876188D01*
X85685820Y-105912498D01*
X85575506Y-105971463D01*
X85478815Y-106050815D01*
X85399463Y-106147506D01*
X85340498Y-106257820D01*
X85304188Y-106377518D01*
X85291928Y-106502000D01*
X85291928Y-116002000D01*
X85304188Y-116126482D01*
X85340498Y-116246180D01*
X85399463Y-116356494D01*
X85478815Y-116453185D01*
X85575506Y-116532537D01*
X85685820Y-116591502D01*
X85805518Y-116627812D01*
X85930000Y-116640072D01*
X89330000Y-116640072D01*
X89454482Y-116627812D01*
X89574180Y-116591502D01*
X89684494Y-116532537D01*
X89781185Y-116453185D01*
X89860537Y-116356494D01*
X89919502Y-116246180D01*
X89955812Y-116126482D01*
X89968072Y-116002000D01*
X89968072Y-108610061D01*
X90913000Y-108610061D01*
X90913000Y-108813939D01*
X90952774Y-109013898D01*
X91030795Y-109202256D01*
X91144063Y-109371774D01*
X91186000Y-109413711D01*
X91186001Y-113500567D01*
X91182314Y-113538000D01*
X91187259Y-113588209D01*
X91167000Y-113690061D01*
X91167000Y-113893939D01*
X91206774Y-114093898D01*
X91284795Y-114282256D01*
X91398063Y-114451774D01*
X91542226Y-114595937D01*
X91711744Y-114709205D01*
X91900102Y-114787226D01*
X92100061Y-114827000D01*
X92303939Y-114827000D01*
X92503898Y-114787226D01*
X92692256Y-114709205D01*
X92861774Y-114595937D01*
X93005937Y-114451774D01*
X93119205Y-114282256D01*
X93197226Y-114093898D01*
X93237000Y-113893939D01*
X93237000Y-113690061D01*
X93197226Y-113490102D01*
X93153335Y-113384141D01*
X93235744Y-113439205D01*
X93424102Y-113517226D01*
X93624061Y-113557000D01*
X93683370Y-113557000D01*
X94533174Y-114406805D01*
X94586795Y-114536256D01*
X94700063Y-114705774D01*
X94844226Y-114849937D01*
X95013744Y-114963205D01*
X95202102Y-115041226D01*
X95402061Y-115081000D01*
X95605939Y-115081000D01*
X95805898Y-115041226D01*
X95994256Y-114963205D01*
X96163774Y-114849937D01*
X96307937Y-114705774D01*
X96421205Y-114536256D01*
X96499226Y-114347898D01*
X96539000Y-114147939D01*
X96539000Y-113944061D01*
X96499226Y-113744102D01*
X96421205Y-113555744D01*
X96307937Y-113386226D01*
X96163774Y-113242063D01*
X95994256Y-113128795D01*
X95805898Y-113050774D01*
X95605939Y-113011000D01*
X95402061Y-113011000D01*
X95310786Y-113029156D01*
X94761000Y-112479370D01*
X94761000Y-112420061D01*
X94721226Y-112220102D01*
X94643205Y-112031744D01*
X94529937Y-111862226D01*
X94385774Y-111718063D01*
X94216256Y-111604795D01*
X94027898Y-111526774D01*
X93827939Y-111487000D01*
X93624061Y-111487000D01*
X93424102Y-111526774D01*
X93235744Y-111604795D01*
X93066226Y-111718063D01*
X92922063Y-111862226D01*
X92808795Y-112031744D01*
X92730774Y-112220102D01*
X92710000Y-112324541D01*
X92710000Y-110635362D01*
X92733811Y-110651272D01*
X92922169Y-110729293D01*
X93122128Y-110769067D01*
X93326006Y-110769067D01*
X93525965Y-110729293D01*
X93538743Y-110724000D01*
X105389993Y-110724000D01*
X105409976Y-110926895D01*
X105469159Y-111121993D01*
X105565266Y-111301797D01*
X105604004Y-111349000D01*
X105565266Y-111396203D01*
X105469159Y-111576007D01*
X105409976Y-111771105D01*
X105389993Y-111974000D01*
X105409976Y-112176895D01*
X105469159Y-112371993D01*
X105565266Y-112551797D01*
X105604004Y-112599000D01*
X105565266Y-112646203D01*
X105469159Y-112826007D01*
X105409976Y-113021105D01*
X105389993Y-113224000D01*
X105409976Y-113426895D01*
X105469159Y-113621993D01*
X105565266Y-113801797D01*
X105694604Y-113959396D01*
X105852203Y-114088734D01*
X106032007Y-114184841D01*
X106227105Y-114244024D01*
X106379162Y-114259000D01*
X106980838Y-114259000D01*
X107132895Y-114244024D01*
X107327993Y-114184841D01*
X107507797Y-114088734D01*
X107665396Y-113959396D01*
X107794734Y-113801797D01*
X107890841Y-113621993D01*
X107950024Y-113426895D01*
X107970007Y-113224000D01*
X107950024Y-113021105D01*
X107890841Y-112826007D01*
X107794734Y-112646203D01*
X107755996Y-112599000D01*
X107794734Y-112551797D01*
X107890841Y-112371993D01*
X107950024Y-112176895D01*
X107970007Y-111974000D01*
X107950024Y-111771105D01*
X107890841Y-111576007D01*
X107794734Y-111396203D01*
X107755996Y-111349000D01*
X107794734Y-111301797D01*
X107890841Y-111121993D01*
X107950024Y-110926895D01*
X107970007Y-110724000D01*
X107950024Y-110521105D01*
X107890841Y-110326007D01*
X107805259Y-110165894D01*
X107826831Y-110139608D01*
X107904278Y-109994716D01*
X107951969Y-109837500D01*
X107968072Y-109674000D01*
X107968072Y-109274000D01*
X107951969Y-109110500D01*
X107904278Y-108953284D01*
X107826831Y-108808392D01*
X107722606Y-108681394D01*
X107595608Y-108577169D01*
X107450716Y-108499722D01*
X107293500Y-108452031D01*
X107130000Y-108435928D01*
X106230000Y-108435928D01*
X106066500Y-108452031D01*
X105909284Y-108499722D01*
X105764392Y-108577169D01*
X105637394Y-108681394D01*
X105533169Y-108808392D01*
X105455722Y-108953284D01*
X105408031Y-109110500D01*
X105391928Y-109274000D01*
X105391928Y-109674000D01*
X105408031Y-109837500D01*
X105455722Y-109994716D01*
X105533169Y-110139608D01*
X105554741Y-110165894D01*
X105469159Y-110326007D01*
X105409976Y-110521105D01*
X105389993Y-110724000D01*
X93538743Y-110724000D01*
X93714323Y-110651272D01*
X93883841Y-110538004D01*
X93925778Y-110496067D01*
X93936510Y-110496067D01*
X93973933Y-110499753D01*
X94011356Y-110496067D01*
X94011359Y-110496067D01*
X94123311Y-110485041D01*
X94266948Y-110441469D01*
X94399325Y-110370712D01*
X94515355Y-110275489D01*
X94539217Y-110246413D01*
X95546630Y-109239000D01*
X95605939Y-109239000D01*
X95805898Y-109199226D01*
X95994256Y-109121205D01*
X96163774Y-109007937D01*
X96307937Y-108863774D01*
X96421205Y-108694256D01*
X96499226Y-108505898D01*
X96539000Y-108305939D01*
X96539000Y-108102061D01*
X96499226Y-107902102D01*
X96421205Y-107713744D01*
X96307937Y-107544226D01*
X96163774Y-107400063D01*
X95994256Y-107286795D01*
X95805898Y-107208774D01*
X95605939Y-107169000D01*
X95402061Y-107169000D01*
X95202102Y-107208774D01*
X95013744Y-107286795D01*
X94844226Y-107400063D01*
X94700063Y-107544226D01*
X94586795Y-107713744D01*
X94508774Y-107902102D01*
X94469000Y-108102061D01*
X94469000Y-108161370D01*
X93773780Y-108856590D01*
X93714323Y-108816862D01*
X93525965Y-108738841D01*
X93326006Y-108699067D01*
X93122128Y-108699067D01*
X92983000Y-108726741D01*
X92983000Y-108610061D01*
X92943226Y-108410102D01*
X92865205Y-108221744D01*
X92751937Y-108052226D01*
X92607774Y-107908063D01*
X92438256Y-107794795D01*
X92249898Y-107716774D01*
X92049939Y-107677000D01*
X91846061Y-107677000D01*
X91646102Y-107716774D01*
X91457744Y-107794795D01*
X91288226Y-107908063D01*
X91144063Y-108052226D01*
X91030795Y-108221744D01*
X90952774Y-108410102D01*
X90913000Y-108610061D01*
X89968072Y-108610061D01*
X89968072Y-106502000D01*
X89955812Y-106377518D01*
X89919502Y-106257820D01*
X89860537Y-106147506D01*
X89781185Y-106050815D01*
X89684494Y-105971463D01*
X89574180Y-105912498D01*
X89454482Y-105876188D01*
X89330000Y-105863928D01*
X88288731Y-105863928D01*
X88266645Y-105822608D01*
X88171422Y-105706578D01*
X88142353Y-105682722D01*
X86851824Y-104392194D01*
X86827962Y-104363118D01*
X86711932Y-104267895D01*
X86579555Y-104197138D01*
X86435918Y-104153566D01*
X86323966Y-104142540D01*
X86323963Y-104142540D01*
X86286540Y-104138854D01*
X86249117Y-104142540D01*
X84256815Y-104142540D01*
X84102609Y-103988334D01*
X84078747Y-103959258D01*
X83962717Y-103864035D01*
X83830340Y-103793278D01*
X83686703Y-103749706D01*
X83684123Y-103749452D01*
X83631414Y-103696743D01*
X83461896Y-103583475D01*
X83273538Y-103505454D01*
X83073579Y-103465680D01*
X82869701Y-103465680D01*
X82677000Y-103504010D01*
X82677000Y-94786323D01*
X107471513Y-94786323D01*
X107471513Y-95213677D01*
X107554886Y-95632821D01*
X107718428Y-96027645D01*
X107955853Y-96382977D01*
X108258039Y-96685163D01*
X108613371Y-96922588D01*
X109008195Y-97086130D01*
X109427339Y-97169503D01*
X109854693Y-97169503D01*
X110273837Y-97086130D01*
X110668661Y-96922588D01*
X111023993Y-96685163D01*
X111326179Y-96382977D01*
X111563604Y-96027645D01*
X111727146Y-95632821D01*
X111810519Y-95213677D01*
X111810519Y-94786323D01*
X111727146Y-94367179D01*
X111563604Y-93972355D01*
X111326179Y-93617023D01*
X111023993Y-93314837D01*
X110668661Y-93077412D01*
X110273837Y-92913870D01*
X109854693Y-92830497D01*
X109427339Y-92830497D01*
X109008195Y-92913870D01*
X108613371Y-93077412D01*
X108258039Y-93314837D01*
X107955853Y-93617023D01*
X107718428Y-93972355D01*
X107554886Y-94367179D01*
X107471513Y-94786323D01*
X82677000Y-94786323D01*
X82677000Y-84860468D01*
X82705205Y-84818256D01*
X82783226Y-84629898D01*
X82823000Y-84429939D01*
X82823000Y-84226061D01*
X82783226Y-84026102D01*
X82705205Y-83837744D01*
X82677000Y-83795532D01*
X82677000Y-81745490D01*
X83290280Y-82358771D01*
X83314138Y-82387842D01*
X83430168Y-82483065D01*
X83562545Y-82553822D01*
X83706182Y-82597394D01*
X83818134Y-82608420D01*
X83818136Y-82608420D01*
X83855559Y-82612106D01*
X83892982Y-82608420D01*
X85435643Y-82608420D01*
X85399463Y-82652506D01*
X85340498Y-82762820D01*
X85304188Y-82882518D01*
X85291928Y-83007000D01*
X85291928Y-92507000D01*
X85304188Y-92631482D01*
X85340498Y-92751180D01*
X85399463Y-92861494D01*
X85478815Y-92958185D01*
X85575506Y-93037537D01*
X85685820Y-93096502D01*
X85805518Y-93132812D01*
X85930000Y-93145072D01*
X89330000Y-93145072D01*
X89454482Y-93132812D01*
X89574180Y-93096502D01*
X89684494Y-93037537D01*
X89781185Y-92958185D01*
X89860537Y-92861494D01*
X89919502Y-92751180D01*
X89955812Y-92631482D01*
X89968072Y-92507000D01*
X89968072Y-90239141D01*
X91108568Y-90239141D01*
X91108568Y-90443019D01*
X91148342Y-90642978D01*
X91226363Y-90831336D01*
X91339631Y-91000854D01*
X91483794Y-91145017D01*
X91653312Y-91258285D01*
X91841670Y-91336306D01*
X92041629Y-91376080D01*
X92245507Y-91376080D01*
X92445466Y-91336306D01*
X92633824Y-91258285D01*
X92803342Y-91145017D01*
X92947505Y-91000854D01*
X93060773Y-90831336D01*
X93138794Y-90642978D01*
X93178568Y-90443019D01*
X93178568Y-90239141D01*
X93138794Y-90039182D01*
X93060773Y-89850824D01*
X92947505Y-89681306D01*
X92944999Y-89678800D01*
X92944999Y-88773061D01*
X92945000Y-88773061D01*
X92945000Y-88976939D01*
X92984774Y-89176898D01*
X93062795Y-89365256D01*
X93176063Y-89534774D01*
X93320226Y-89678937D01*
X93489744Y-89792205D01*
X93678102Y-89870226D01*
X93878061Y-89910000D01*
X94081939Y-89910000D01*
X94281898Y-89870226D01*
X94418863Y-89813493D01*
X94977000Y-90371630D01*
X94977000Y-90430939D01*
X95016774Y-90630898D01*
X95094795Y-90819256D01*
X95208063Y-90988774D01*
X95352226Y-91132937D01*
X95521744Y-91246205D01*
X95710102Y-91324226D01*
X95910061Y-91364000D01*
X96113939Y-91364000D01*
X96313898Y-91324226D01*
X96502256Y-91246205D01*
X96671774Y-91132937D01*
X96815937Y-90988774D01*
X96929205Y-90819256D01*
X97007226Y-90630898D01*
X97047000Y-90430939D01*
X97047000Y-90227061D01*
X97007226Y-90027102D01*
X96929205Y-89838744D01*
X96815937Y-89669226D01*
X96671774Y-89525063D01*
X96502256Y-89411795D01*
X96313898Y-89333774D01*
X96113939Y-89294000D01*
X96054630Y-89294000D01*
X95123284Y-88362654D01*
X95099422Y-88333578D01*
X94983392Y-88238355D01*
X94851015Y-88167598D01*
X94707378Y-88124026D01*
X94691137Y-88122426D01*
X94639774Y-88071063D01*
X94470256Y-87957795D01*
X94281898Y-87879774D01*
X94081939Y-87840000D01*
X93878061Y-87840000D01*
X93678102Y-87879774D01*
X93489744Y-87957795D01*
X93320226Y-88071063D01*
X93176063Y-88215226D01*
X93062795Y-88384744D01*
X92984774Y-88573102D01*
X92945000Y-88773061D01*
X92944999Y-88773061D01*
X92944999Y-87649000D01*
X93065939Y-87649000D01*
X93265898Y-87609226D01*
X93454256Y-87531205D01*
X93623774Y-87417937D01*
X93665711Y-87376000D01*
X93688577Y-87376000D01*
X93726000Y-87379686D01*
X93763423Y-87376000D01*
X93763426Y-87376000D01*
X93875378Y-87364974D01*
X94019015Y-87321402D01*
X94151392Y-87250645D01*
X94267422Y-87155422D01*
X94291284Y-87126346D01*
X94315630Y-87102000D01*
X105389993Y-87102000D01*
X105409976Y-87304895D01*
X105469159Y-87499993D01*
X105565266Y-87679797D01*
X105604004Y-87727000D01*
X105565266Y-87774203D01*
X105469159Y-87954007D01*
X105409976Y-88149105D01*
X105389993Y-88352000D01*
X105409976Y-88554895D01*
X105469159Y-88749993D01*
X105565266Y-88929797D01*
X105604004Y-88977000D01*
X105565266Y-89024203D01*
X105469159Y-89204007D01*
X105409976Y-89399105D01*
X105389993Y-89602000D01*
X105409976Y-89804895D01*
X105469159Y-89999993D01*
X105565266Y-90179797D01*
X105694604Y-90337396D01*
X105852203Y-90466734D01*
X106032007Y-90562841D01*
X106227105Y-90622024D01*
X106379162Y-90637000D01*
X106980838Y-90637000D01*
X107132895Y-90622024D01*
X107327993Y-90562841D01*
X107507797Y-90466734D01*
X107665396Y-90337396D01*
X107794734Y-90179797D01*
X107890841Y-89999993D01*
X107950024Y-89804895D01*
X107970007Y-89602000D01*
X107950024Y-89399105D01*
X107890841Y-89204007D01*
X107794734Y-89024203D01*
X107755996Y-88977000D01*
X107794734Y-88929797D01*
X107890841Y-88749993D01*
X107950024Y-88554895D01*
X107970007Y-88352000D01*
X107950024Y-88149105D01*
X107890841Y-87954007D01*
X107794734Y-87774203D01*
X107755996Y-87727000D01*
X107794734Y-87679797D01*
X107890841Y-87499993D01*
X107950024Y-87304895D01*
X107970007Y-87102000D01*
X107950024Y-86899105D01*
X107890841Y-86704007D01*
X107805259Y-86543894D01*
X107826831Y-86517608D01*
X107904278Y-86372716D01*
X107951969Y-86215500D01*
X107968072Y-86052000D01*
X107968072Y-85652000D01*
X107951969Y-85488500D01*
X107904278Y-85331284D01*
X107826831Y-85186392D01*
X107722606Y-85059394D01*
X107595608Y-84955169D01*
X107450716Y-84877722D01*
X107293500Y-84830031D01*
X107130000Y-84813928D01*
X106230000Y-84813928D01*
X106066500Y-84830031D01*
X105909284Y-84877722D01*
X105764392Y-84955169D01*
X105637394Y-85059394D01*
X105533169Y-85186392D01*
X105455722Y-85331284D01*
X105408031Y-85488500D01*
X105391928Y-85652000D01*
X105391928Y-86052000D01*
X105408031Y-86215500D01*
X105455722Y-86372716D01*
X105533169Y-86517608D01*
X105554741Y-86543894D01*
X105469159Y-86704007D01*
X105409976Y-86899105D01*
X105389993Y-87102000D01*
X94315630Y-87102000D01*
X95546630Y-85871000D01*
X95605939Y-85871000D01*
X95805898Y-85831226D01*
X95994256Y-85753205D01*
X96163774Y-85639937D01*
X96307937Y-85495774D01*
X96421205Y-85326256D01*
X96499226Y-85137898D01*
X96539000Y-84937939D01*
X96539000Y-84734061D01*
X96499226Y-84534102D01*
X96421205Y-84345744D01*
X96307937Y-84176226D01*
X96163774Y-84032063D01*
X95994256Y-83918795D01*
X95805898Y-83840774D01*
X95605939Y-83801000D01*
X95402061Y-83801000D01*
X95202102Y-83840774D01*
X95013744Y-83918795D01*
X94844226Y-84032063D01*
X94700063Y-84176226D01*
X94586795Y-84345744D01*
X94508774Y-84534102D01*
X94469000Y-84734061D01*
X94469000Y-84793370D01*
X93520987Y-85741383D01*
X93454256Y-85696795D01*
X93265898Y-85618774D01*
X93102491Y-85586271D01*
X93119205Y-85561256D01*
X93197226Y-85372898D01*
X93237000Y-85172939D01*
X93237000Y-84969061D01*
X93197226Y-84769102D01*
X93119205Y-84580744D01*
X93005937Y-84411226D01*
X92861774Y-84267063D01*
X92692256Y-84153795D01*
X92503898Y-84075774D01*
X92303939Y-84036000D01*
X92100061Y-84036000D01*
X91900102Y-84075774D01*
X91711744Y-84153795D01*
X91542226Y-84267063D01*
X91398063Y-84411226D01*
X91284795Y-84580744D01*
X91206774Y-84769102D01*
X91167000Y-84969061D01*
X91167000Y-85172939D01*
X91206774Y-85372898D01*
X91284795Y-85561256D01*
X91398063Y-85730774D01*
X91440001Y-85772712D01*
X91440001Y-86063449D01*
X91432025Y-86089742D01*
X91422288Y-86188608D01*
X91417313Y-86239119D01*
X91420999Y-86276542D01*
X91421000Y-89599937D01*
X91339631Y-89681306D01*
X91226363Y-89850824D01*
X91148342Y-90039182D01*
X91108568Y-90239141D01*
X89968072Y-90239141D01*
X89968072Y-83007000D01*
X89955812Y-82882518D01*
X89919502Y-82762820D01*
X89860537Y-82652506D01*
X89781185Y-82555815D01*
X89684494Y-82476463D01*
X89574180Y-82417498D01*
X89454482Y-82381188D01*
X89330000Y-82368928D01*
X88288731Y-82368928D01*
X88266646Y-82327609D01*
X88266645Y-82327607D01*
X88231857Y-82285219D01*
X88171422Y-82211578D01*
X88142347Y-82187717D01*
X87288704Y-81334074D01*
X87264842Y-81304998D01*
X87148812Y-81209775D01*
X87016435Y-81139018D01*
X86872798Y-81095446D01*
X86760846Y-81084420D01*
X86760843Y-81084420D01*
X86723420Y-81080734D01*
X86685997Y-81084420D01*
X84171191Y-81084420D01*
X83742480Y-80655710D01*
X83742480Y-80596401D01*
X83702706Y-80396442D01*
X83624685Y-80208084D01*
X83511417Y-80038566D01*
X83367254Y-79894403D01*
X83197736Y-79781135D01*
X83009378Y-79703114D01*
X82809419Y-79663340D01*
X82677000Y-79663340D01*
X82677000Y-61492468D01*
X82705205Y-61450256D01*
X82783226Y-61261898D01*
X82823000Y-61061939D01*
X82823000Y-60858061D01*
X82783226Y-60658102D01*
X82705205Y-60469744D01*
X82677000Y-60427532D01*
X82677000Y-58003897D01*
X82846841Y-58037680D01*
X82906149Y-58037680D01*
X83170900Y-58302431D01*
X83194758Y-58331502D01*
X83223828Y-58355359D01*
X83310787Y-58426725D01*
X83381544Y-58464545D01*
X83443165Y-58497482D01*
X83586802Y-58541054D01*
X83698754Y-58552080D01*
X83698757Y-58552080D01*
X83736180Y-58555766D01*
X83773603Y-58552080D01*
X85846450Y-58552080D01*
X86168298Y-58873928D01*
X85930000Y-58873928D01*
X85805518Y-58886188D01*
X85685820Y-58922498D01*
X85575506Y-58981463D01*
X85478815Y-59060815D01*
X85399463Y-59157506D01*
X85340498Y-59267820D01*
X85304188Y-59387518D01*
X85291928Y-59512000D01*
X85291928Y-69012000D01*
X85304188Y-69136482D01*
X85340498Y-69256180D01*
X85399463Y-69366494D01*
X85478815Y-69463185D01*
X85575506Y-69542537D01*
X85685820Y-69601502D01*
X85805518Y-69637812D01*
X85930000Y-69650072D01*
X89330000Y-69650072D01*
X89454482Y-69637812D01*
X89574180Y-69601502D01*
X89684494Y-69542537D01*
X89781185Y-69463185D01*
X89860537Y-69366494D01*
X89919502Y-69256180D01*
X89955812Y-69136482D01*
X89968072Y-69012000D01*
X89968072Y-66566061D01*
X91122749Y-66566061D01*
X91122749Y-66769939D01*
X91162523Y-66969898D01*
X91240544Y-67158256D01*
X91353812Y-67327774D01*
X91497975Y-67471937D01*
X91667493Y-67585205D01*
X91855851Y-67663226D01*
X92055810Y-67703000D01*
X92259688Y-67703000D01*
X92459647Y-67663226D01*
X92648005Y-67585205D01*
X92817523Y-67471937D01*
X92961686Y-67327774D01*
X93074954Y-67158256D01*
X93152975Y-66969898D01*
X93192749Y-66769939D01*
X93192749Y-66566061D01*
X93152975Y-66366102D01*
X93145891Y-66349000D01*
X93319939Y-66349000D01*
X93519898Y-66309226D01*
X93708256Y-66231205D01*
X93877774Y-66117937D01*
X93919711Y-66076000D01*
X93954370Y-66076000D01*
X94723000Y-66844631D01*
X94723000Y-66903939D01*
X94762774Y-67103898D01*
X94840795Y-67292256D01*
X94954063Y-67461774D01*
X95098226Y-67605937D01*
X95267744Y-67719205D01*
X95456102Y-67797226D01*
X95656061Y-67837000D01*
X95859939Y-67837000D01*
X96059898Y-67797226D01*
X96248256Y-67719205D01*
X96417774Y-67605937D01*
X96561937Y-67461774D01*
X96675205Y-67292256D01*
X96753226Y-67103898D01*
X96793000Y-66903939D01*
X96793000Y-66700061D01*
X96753226Y-66500102D01*
X96675205Y-66311744D01*
X96561937Y-66142226D01*
X96417774Y-65998063D01*
X96248256Y-65884795D01*
X96059898Y-65806774D01*
X95859939Y-65767000D01*
X95800631Y-65767000D01*
X94835284Y-64801654D01*
X94811422Y-64772578D01*
X94695392Y-64677355D01*
X94563015Y-64606598D01*
X94419378Y-64563026D01*
X94307426Y-64552000D01*
X94307423Y-64552000D01*
X94270000Y-64548314D01*
X94232577Y-64552000D01*
X93919711Y-64552000D01*
X93877774Y-64510063D01*
X93708256Y-64396795D01*
X93519898Y-64318774D01*
X93319939Y-64279000D01*
X93116061Y-64279000D01*
X92916102Y-64318774D01*
X92818001Y-64359409D01*
X92818001Y-63799796D01*
X92981744Y-63909205D01*
X93170102Y-63987226D01*
X93370061Y-64027000D01*
X93573939Y-64027000D01*
X93773898Y-63987226D01*
X93962256Y-63909205D01*
X94131774Y-63795937D01*
X94173711Y-63754000D01*
X94196577Y-63754000D01*
X94234000Y-63757686D01*
X94271423Y-63754000D01*
X94271426Y-63754000D01*
X94383378Y-63742974D01*
X94527015Y-63699402D01*
X94659392Y-63628645D01*
X94775422Y-63533422D01*
X94799284Y-63504346D01*
X94823630Y-63480000D01*
X105389993Y-63480000D01*
X105409976Y-63682895D01*
X105469159Y-63877993D01*
X105565266Y-64057797D01*
X105604004Y-64105000D01*
X105565266Y-64152203D01*
X105469159Y-64332007D01*
X105409976Y-64527105D01*
X105389993Y-64730000D01*
X105409976Y-64932895D01*
X105469159Y-65127993D01*
X105565266Y-65307797D01*
X105604004Y-65355000D01*
X105565266Y-65402203D01*
X105469159Y-65582007D01*
X105409976Y-65777105D01*
X105389993Y-65980000D01*
X105409976Y-66182895D01*
X105469159Y-66377993D01*
X105565266Y-66557797D01*
X105694604Y-66715396D01*
X105852203Y-66844734D01*
X106032007Y-66940841D01*
X106227105Y-67000024D01*
X106379162Y-67015000D01*
X106980838Y-67015000D01*
X107132895Y-67000024D01*
X107327993Y-66940841D01*
X107507797Y-66844734D01*
X107665396Y-66715396D01*
X107794734Y-66557797D01*
X107890841Y-66377993D01*
X107950024Y-66182895D01*
X107970007Y-65980000D01*
X107950024Y-65777105D01*
X107890841Y-65582007D01*
X107794734Y-65402203D01*
X107755996Y-65355000D01*
X107794734Y-65307797D01*
X107890841Y-65127993D01*
X107950024Y-64932895D01*
X107970007Y-64730000D01*
X107950024Y-64527105D01*
X107890841Y-64332007D01*
X107794734Y-64152203D01*
X107755996Y-64105000D01*
X107794734Y-64057797D01*
X107890841Y-63877993D01*
X107950024Y-63682895D01*
X107970007Y-63480000D01*
X107950024Y-63277105D01*
X107890841Y-63082007D01*
X107805259Y-62921894D01*
X107826831Y-62895608D01*
X107904278Y-62750716D01*
X107951969Y-62593500D01*
X107968072Y-62430000D01*
X107968072Y-62030000D01*
X107951969Y-61866500D01*
X107904278Y-61709284D01*
X107826831Y-61564392D01*
X107722606Y-61437394D01*
X107595608Y-61333169D01*
X107450716Y-61255722D01*
X107293500Y-61208031D01*
X107130000Y-61191928D01*
X106230000Y-61191928D01*
X106066500Y-61208031D01*
X105909284Y-61255722D01*
X105764392Y-61333169D01*
X105637394Y-61437394D01*
X105533169Y-61564392D01*
X105455722Y-61709284D01*
X105408031Y-61866500D01*
X105391928Y-62030000D01*
X105391928Y-62430000D01*
X105408031Y-62593500D01*
X105455722Y-62750716D01*
X105533169Y-62895608D01*
X105554741Y-62921894D01*
X105469159Y-63082007D01*
X105409976Y-63277105D01*
X105389993Y-63480000D01*
X94823630Y-63480000D01*
X96054630Y-62249000D01*
X96113939Y-62249000D01*
X96313898Y-62209226D01*
X96502256Y-62131205D01*
X96671774Y-62017937D01*
X96815937Y-61873774D01*
X96929205Y-61704256D01*
X97007226Y-61515898D01*
X97047000Y-61315939D01*
X97047000Y-61112061D01*
X97007226Y-60912102D01*
X96929205Y-60723744D01*
X96815937Y-60554226D01*
X96671774Y-60410063D01*
X96502256Y-60296795D01*
X96313898Y-60218774D01*
X96113939Y-60179000D01*
X95910061Y-60179000D01*
X95710102Y-60218774D01*
X95521744Y-60296795D01*
X95352226Y-60410063D01*
X95208063Y-60554226D01*
X95094795Y-60723744D01*
X95016774Y-60912102D01*
X94977000Y-61112061D01*
X94977000Y-61171370D01*
X94028987Y-62119383D01*
X93962256Y-62074795D01*
X93773898Y-61996774D01*
X93573939Y-61957000D01*
X93370061Y-61957000D01*
X93360013Y-61958999D01*
X93373205Y-61939256D01*
X93451226Y-61750898D01*
X93491000Y-61550939D01*
X93491000Y-61347061D01*
X93451226Y-61147102D01*
X93373205Y-60958744D01*
X93259937Y-60789226D01*
X93115774Y-60645063D01*
X92946256Y-60531795D01*
X92757898Y-60453774D01*
X92557939Y-60414000D01*
X92354061Y-60414000D01*
X92154102Y-60453774D01*
X91965744Y-60531795D01*
X91796226Y-60645063D01*
X91652063Y-60789226D01*
X91538795Y-60958744D01*
X91460774Y-61147102D01*
X91421000Y-61347061D01*
X91421000Y-61421604D01*
X91419356Y-61423607D01*
X91411987Y-61437394D01*
X91348599Y-61555985D01*
X91305027Y-61699622D01*
X91300852Y-61742016D01*
X91290315Y-61848999D01*
X91294001Y-61886422D01*
X91294002Y-66097738D01*
X91240544Y-66177744D01*
X91162523Y-66366102D01*
X91122749Y-66566061D01*
X89968072Y-66566061D01*
X89968072Y-59512000D01*
X89955812Y-59387518D01*
X89919502Y-59267820D01*
X89860537Y-59157506D01*
X89781185Y-59060815D01*
X89684494Y-58981463D01*
X89574180Y-58922498D01*
X89454482Y-58886188D01*
X89330000Y-58873928D01*
X88288731Y-58873928D01*
X88266645Y-58832608D01*
X88171422Y-58716578D01*
X88142353Y-58692722D01*
X86727364Y-57277734D01*
X86703502Y-57248658D01*
X86587472Y-57153435D01*
X86455095Y-57082678D01*
X86311458Y-57039106D01*
X86199506Y-57028080D01*
X86199503Y-57028080D01*
X86162080Y-57024394D01*
X86124657Y-57028080D01*
X84051811Y-57028080D01*
X83983780Y-56960049D01*
X83983780Y-56900741D01*
X83944006Y-56700782D01*
X83865985Y-56512424D01*
X83752717Y-56342906D01*
X83608554Y-56198743D01*
X83439036Y-56085475D01*
X83250678Y-56007454D01*
X83050719Y-55967680D01*
X82846841Y-55967680D01*
X82677000Y-56001463D01*
X82677000Y-51676235D01*
X83818106Y-50535130D01*
X83867898Y-50525226D01*
X84056256Y-50447205D01*
X84225774Y-50333937D01*
X84369937Y-50189774D01*
X84483205Y-50020256D01*
X84561226Y-49831898D01*
X84601000Y-49631939D01*
X84601000Y-49428061D01*
X84566300Y-49253609D01*
X84566340Y-49253658D01*
X84701708Y-49364752D01*
X84856148Y-49447302D01*
X84922057Y-49467295D01*
X85023723Y-49498135D01*
X85056923Y-49501405D01*
X85154332Y-49510999D01*
X85154338Y-49510999D01*
X85197998Y-49515299D01*
X85241658Y-49510999D01*
X96513764Y-49510999D01*
X97800870Y-50798105D01*
X97810774Y-50847898D01*
X97888795Y-51036256D01*
X98002063Y-51205774D01*
X98146226Y-51349937D01*
X98315744Y-51463205D01*
X98504102Y-51541226D01*
X98704061Y-51581000D01*
X98907939Y-51581000D01*
X99107898Y-51541226D01*
X99296256Y-51463205D01*
X99465774Y-51349937D01*
X99609937Y-51205774D01*
X99723205Y-51036256D01*
X99801226Y-50847898D01*
X99841000Y-50647939D01*
X99841000Y-50444061D01*
X99801226Y-50244102D01*
X99723205Y-50055744D01*
X99609937Y-49886226D01*
X99465774Y-49742063D01*
X99296256Y-49628795D01*
X99107898Y-49550774D01*
X99058105Y-49540870D01*
X97541498Y-48024263D01*
X97513658Y-47990340D01*
X97378290Y-47879246D01*
X97223850Y-47796696D01*
X97056273Y-47745863D01*
X96925666Y-47732999D01*
X96925659Y-47732999D01*
X96881999Y-47728699D01*
X96838339Y-47732999D01*
X85566234Y-47732999D01*
X84987499Y-47154264D01*
X84959659Y-47120341D01*
X84824291Y-47009247D01*
X84669851Y-46926697D01*
X84502274Y-46875864D01*
X84371667Y-46863000D01*
X84371660Y-46863000D01*
X84328000Y-46858700D01*
X84284340Y-46863000D01*
X78021659Y-46863000D01*
X77977999Y-46858700D01*
X77934339Y-46863000D01*
X77934333Y-46863000D01*
X77836924Y-46872594D01*
X77803724Y-46875864D01*
X77702058Y-46906704D01*
X77636149Y-46926697D01*
X77481709Y-47009247D01*
X77346341Y-47120341D01*
X77318506Y-47154258D01*
X71030264Y-53442501D01*
X70996341Y-53470341D01*
X70885247Y-53605710D01*
X70802697Y-53760150D01*
X70751864Y-53927727D01*
X70739000Y-54058334D01*
X70739000Y-54058338D01*
X70734700Y-54102000D01*
X70739000Y-54145660D01*
X70739001Y-115253763D01*
X70254120Y-115738644D01*
X70215990Y-115646589D01*
X70053475Y-115403368D01*
X70000107Y-115350000D01*
X70053475Y-115296632D01*
X70215990Y-115053411D01*
X70327932Y-114783158D01*
X70385000Y-114496260D01*
X70385000Y-114203740D01*
X70327932Y-113916842D01*
X70215990Y-113646589D01*
X70053475Y-113403368D01*
X70000107Y-113350000D01*
X70053475Y-113296632D01*
X70215990Y-113053411D01*
X70327932Y-112783158D01*
X70385000Y-112496260D01*
X70385000Y-112203740D01*
X70327932Y-111916842D01*
X70215990Y-111646589D01*
X70053475Y-111403368D01*
X70000107Y-111350000D01*
X70053475Y-111296632D01*
X70215990Y-111053411D01*
X70327932Y-110783158D01*
X70385000Y-110496260D01*
X70385000Y-110203740D01*
X70327932Y-109916842D01*
X70215990Y-109646589D01*
X70053475Y-109403368D01*
X70000107Y-109350000D01*
X70053475Y-109296632D01*
X70215990Y-109053411D01*
X70327932Y-108783158D01*
X70385000Y-108496260D01*
X70385000Y-108203740D01*
X70327932Y-107916842D01*
X70215990Y-107646589D01*
X70053475Y-107403368D01*
X70000107Y-107350000D01*
X70053475Y-107296632D01*
X70215990Y-107053411D01*
X70327932Y-106783158D01*
X70385000Y-106496260D01*
X70385000Y-106203740D01*
X70327932Y-105916842D01*
X70215990Y-105646589D01*
X70053475Y-105403368D01*
X70000107Y-105350000D01*
X70053475Y-105296632D01*
X70215990Y-105053411D01*
X70327932Y-104783158D01*
X70385000Y-104496260D01*
X70385000Y-104203740D01*
X70327932Y-103916842D01*
X70215990Y-103646589D01*
X70053475Y-103403368D01*
X70000107Y-103350000D01*
X70053475Y-103296632D01*
X70215990Y-103053411D01*
X70327932Y-102783158D01*
X70385000Y-102496260D01*
X70385000Y-102203740D01*
X70327932Y-101916842D01*
X70215990Y-101646589D01*
X70053475Y-101403368D01*
X70000107Y-101350000D01*
X70053475Y-101296632D01*
X70215990Y-101053411D01*
X70327932Y-100783158D01*
X70385000Y-100496260D01*
X70385000Y-100203740D01*
X70327932Y-99916842D01*
X70215990Y-99646589D01*
X70053475Y-99403368D01*
X69846632Y-99196525D01*
X69603411Y-99034010D01*
X69333158Y-98922068D01*
X69046260Y-98865000D01*
X68753740Y-98865000D01*
X68466842Y-98922068D01*
X68196589Y-99034010D01*
X67953368Y-99196525D01*
X67746525Y-99403368D01*
X67584010Y-99646589D01*
X67472068Y-99916842D01*
X67415000Y-100203740D01*
X67415000Y-100496260D01*
X67472068Y-100783158D01*
X67584010Y-101053411D01*
X67746525Y-101296632D01*
X67799893Y-101350000D01*
X67746525Y-101403368D01*
X67584010Y-101646589D01*
X67472068Y-101916842D01*
X67415000Y-102203740D01*
X67415000Y-102496260D01*
X67472068Y-102783158D01*
X67584010Y-103053411D01*
X67746525Y-103296632D01*
X67799893Y-103350000D01*
X67746525Y-103403368D01*
X67584010Y-103646589D01*
X67472068Y-103916842D01*
X67415000Y-104203740D01*
X67415000Y-104496260D01*
X67472068Y-104783158D01*
X67584010Y-105053411D01*
X67746525Y-105296632D01*
X67799893Y-105350000D01*
X67746525Y-105403368D01*
X67584010Y-105646589D01*
X67472068Y-105916842D01*
X67415000Y-106203740D01*
X67415000Y-106496260D01*
X67472068Y-106783158D01*
X67584010Y-107053411D01*
X67746525Y-107296632D01*
X67799893Y-107350000D01*
X67746525Y-107403368D01*
X67584010Y-107646589D01*
X67472068Y-107916842D01*
X67415000Y-108203740D01*
X67415000Y-108496260D01*
X67472068Y-108783158D01*
X67584010Y-109053411D01*
X67746525Y-109296632D01*
X67799893Y-109350000D01*
X67746525Y-109403368D01*
X67584010Y-109646589D01*
X67472068Y-109916842D01*
X67415000Y-110203740D01*
X67415000Y-110496260D01*
X67472068Y-110783158D01*
X67584010Y-111053411D01*
X67746525Y-111296632D01*
X67799893Y-111350000D01*
X67746525Y-111403368D01*
X67584010Y-111646589D01*
X67493275Y-111865645D01*
X62178749Y-106551119D01*
X62178744Y-106551113D01*
X61722000Y-106094370D01*
X61722000Y-60479175D01*
X61811834Y-60569009D01*
X62055055Y-60731524D01*
X62325308Y-60843466D01*
X62612206Y-60900534D01*
X62904726Y-60900534D01*
X63191624Y-60843466D01*
X63461877Y-60731524D01*
X63705098Y-60569009D01*
X63911941Y-60362166D01*
X64074456Y-60118945D01*
X64186398Y-59848692D01*
X64243466Y-59561794D01*
X64243466Y-59269274D01*
X64209571Y-59098872D01*
X64379973Y-59132767D01*
X64672493Y-59132767D01*
X64959391Y-59075699D01*
X65229644Y-58963757D01*
X65472865Y-58801242D01*
X65679708Y-58594399D01*
X65842223Y-58351178D01*
X65954165Y-58080925D01*
X66011233Y-57794027D01*
X66011233Y-57501507D01*
X65977338Y-57331105D01*
X66147740Y-57365000D01*
X66440260Y-57365000D01*
X66727158Y-57307932D01*
X66997411Y-57195990D01*
X67240632Y-57033475D01*
X67447475Y-56826632D01*
X67609990Y-56583411D01*
X67721932Y-56313158D01*
X67779000Y-56026260D01*
X67779000Y-55733740D01*
X67721932Y-55446842D01*
X67609990Y-55176589D01*
X67447475Y-54933368D01*
X67240632Y-54726525D01*
X66997411Y-54564010D01*
X66727158Y-54452068D01*
X66440260Y-54395000D01*
X66147740Y-54395000D01*
X65860842Y-54452068D01*
X65590589Y-54564010D01*
X65347368Y-54726525D01*
X65234808Y-54839085D01*
X65233635Y-54835218D01*
X65162878Y-54702841D01*
X65067655Y-54586811D01*
X65038585Y-54562954D01*
X64341960Y-53866330D01*
X64341960Y-53807021D01*
X64302186Y-53607062D01*
X64224165Y-53418704D01*
X64110897Y-53249186D01*
X63966734Y-53105023D01*
X63797216Y-52991755D01*
X63608858Y-52913734D01*
X63476145Y-52887336D01*
X63479226Y-52879898D01*
X63519000Y-52679939D01*
X63519000Y-52476061D01*
X63479226Y-52276102D01*
X63401205Y-52087744D01*
X63287937Y-51918226D01*
X63143774Y-51774063D01*
X62974256Y-51660795D01*
X62928524Y-51641852D01*
X63751376Y-50819000D01*
X63855939Y-50819000D01*
X64055898Y-50779226D01*
X64244256Y-50701205D01*
X64413774Y-50587937D01*
X64557937Y-50443774D01*
X64671205Y-50274256D01*
X64749226Y-50085898D01*
X64789000Y-49885939D01*
X64789000Y-49682061D01*
X64749226Y-49482102D01*
X64671205Y-49293744D01*
X64557937Y-49124226D01*
X64413774Y-48980063D01*
X64244256Y-48866795D01*
X64055898Y-48788774D01*
X63855939Y-48749000D01*
X63652061Y-48749000D01*
X63452102Y-48788774D01*
X63263744Y-48866795D01*
X63094226Y-48980063D01*
X62950063Y-49124226D01*
X62836795Y-49293744D01*
X62758774Y-49482102D01*
X62719000Y-49682061D01*
X62719000Y-49786624D01*
X59707168Y-52798457D01*
X59679315Y-52821316D01*
X59588090Y-52932472D01*
X59520306Y-53059289D01*
X59520305Y-53059290D01*
X59478562Y-53196896D01*
X59471145Y-53272213D01*
X59468001Y-53304140D01*
X59464469Y-53340000D01*
X59468000Y-53375855D01*
X59468000Y-53872533D01*
X59400476Y-53827415D01*
X59212118Y-53749394D01*
X59012159Y-53709620D01*
X58808281Y-53709620D01*
X58608322Y-53749394D01*
X58419964Y-53827415D01*
X58250446Y-53940683D01*
X58106283Y-54084846D01*
X57993015Y-54254364D01*
X57914994Y-54442722D01*
X57875220Y-54642681D01*
X39506010Y-54642681D01*
X39506010Y-52570041D01*
X45139660Y-52570041D01*
X45139660Y-52773919D01*
X45179434Y-52973878D01*
X45257455Y-53162236D01*
X45370723Y-53331754D01*
X45514886Y-53475917D01*
X45684404Y-53589185D01*
X45872762Y-53667206D01*
X46072721Y-53706980D01*
X46276599Y-53706980D01*
X46476558Y-53667206D01*
X46664916Y-53589185D01*
X46834434Y-53475917D01*
X46978597Y-53331754D01*
X47091865Y-53162236D01*
X47169886Y-52973878D01*
X47209660Y-52773919D01*
X47209660Y-52570041D01*
X47169886Y-52370082D01*
X47091865Y-52181724D01*
X46978597Y-52012206D01*
X46834434Y-51868043D01*
X46664916Y-51754775D01*
X46476558Y-51676754D01*
X46276599Y-51636980D01*
X46072721Y-51636980D01*
X45872762Y-51676754D01*
X45684404Y-51754775D01*
X45514886Y-51868043D01*
X45370723Y-52012206D01*
X45257455Y-52181724D01*
X45179434Y-52370082D01*
X45139660Y-52570041D01*
X39506010Y-52570041D01*
X39506010Y-42895177D01*
X41879178Y-40522010D01*
X44310559Y-40522010D01*
X54375419Y-50586870D01*
X54314063Y-50648226D01*
X54200795Y-50817744D01*
X54122774Y-51006102D01*
X54083000Y-51206061D01*
X54083000Y-51409939D01*
X54122774Y-51609898D01*
X54200795Y-51798256D01*
X54314063Y-51967774D01*
X54458226Y-52111937D01*
X54627744Y-52225205D01*
X54816102Y-52303226D01*
X55016061Y-52343000D01*
X55219939Y-52343000D01*
X55419898Y-52303226D01*
X55608256Y-52225205D01*
X55777774Y-52111937D01*
X55921937Y-51967774D01*
X56035205Y-51798256D01*
X56113226Y-51609898D01*
X56153000Y-51409939D01*
X56153000Y-51206061D01*
X56113226Y-51006102D01*
X56089815Y-50949583D01*
X56152729Y-50937068D01*
X56322889Y-50866586D01*
X56476028Y-50764262D01*
X56606262Y-50634028D01*
X56708586Y-50480889D01*
X56779068Y-50310729D01*
X56815000Y-50130089D01*
X56815000Y-49945911D01*
X56779068Y-49765271D01*
X56708586Y-49595111D01*
X56610000Y-49447566D01*
X56610000Y-43525931D01*
X62778833Y-37357098D01*
X82531000Y-37357098D01*
X82531000Y-37826902D01*
X82622654Y-38287679D01*
X82802440Y-38721721D01*
X83063450Y-39112349D01*
X83395651Y-39444550D01*
X83786279Y-39705560D01*
X84220321Y-39885346D01*
X84681098Y-39977000D01*
X85150902Y-39977000D01*
X85611679Y-39885346D01*
X86045721Y-39705560D01*
X86436349Y-39444550D01*
X86768550Y-39112349D01*
X87029560Y-38721721D01*
X87209346Y-38287679D01*
X87301000Y-37826902D01*
X87301000Y-37357098D01*
X87209346Y-36896321D01*
X87029560Y-36462279D01*
X86768550Y-36071651D01*
X86436349Y-35739450D01*
X86045721Y-35478440D01*
X85611679Y-35298654D01*
X85150902Y-35207000D01*
X84681098Y-35207000D01*
X84220321Y-35298654D01*
X83786279Y-35478440D01*
X83395651Y-35739450D01*
X83063450Y-36071651D01*
X82802440Y-36462279D01*
X82622654Y-36896321D01*
X82531000Y-37357098D01*
X62778833Y-37357098D01*
X65349608Y-34786323D01*
X72830497Y-34786323D01*
X72830497Y-35213677D01*
X72913870Y-35632821D01*
X73077412Y-36027645D01*
X73314837Y-36382977D01*
X73617023Y-36685163D01*
X73972355Y-36922588D01*
X74367179Y-37086130D01*
X74786323Y-37169503D01*
X75213677Y-37169503D01*
X75632821Y-37086130D01*
X76027645Y-36922588D01*
X76382977Y-36685163D01*
X76685163Y-36382977D01*
X76922588Y-36027645D01*
X77086130Y-35632821D01*
X77169503Y-35213677D01*
X77169503Y-34786323D01*
X77086130Y-34367179D01*
X76922588Y-33972355D01*
X76685163Y-33617023D01*
X76382977Y-33314837D01*
X76027645Y-33077412D01*
X75632821Y-32913870D01*
X75213677Y-32830497D01*
X74786323Y-32830497D01*
X74367179Y-32913870D01*
X73972355Y-33077412D01*
X73617023Y-33314837D01*
X73314837Y-33617023D01*
X73077412Y-33972355D01*
X72913870Y-34367179D01*
X72830497Y-34786323D01*
X65349608Y-34786323D01*
X68904154Y-31231778D01*
X70046367Y-31231778D01*
X70082222Y-31235309D01*
X70118077Y-31231778D01*
X70118082Y-31231778D01*
X70157427Y-31227903D01*
X70225326Y-31221216D01*
X70321190Y-31192136D01*
X70362933Y-31179473D01*
X70489751Y-31111688D01*
X70600907Y-31020463D01*
X70623769Y-30992606D01*
X71480205Y-30136171D01*
X71735740Y-30187000D01*
X72028260Y-30187000D01*
X72315158Y-30129932D01*
X72585411Y-30017990D01*
X72828632Y-29855475D01*
X73035475Y-29648632D01*
X73197990Y-29405411D01*
X73309932Y-29135158D01*
X73367000Y-28848260D01*
X73367000Y-28555740D01*
X73309932Y-28268842D01*
X73197990Y-27998589D01*
X73035475Y-27755368D01*
X72828632Y-27548525D01*
X72654240Y-27432000D01*
X72828632Y-27315475D01*
X73035475Y-27108632D01*
X73197990Y-26865411D01*
X73309932Y-26595158D01*
X73367000Y-26308260D01*
X73367000Y-26015740D01*
X73309932Y-25728842D01*
X73295085Y-25692999D01*
X77063879Y-25692999D01*
X77064696Y-25695692D01*
X77115154Y-25790091D01*
X77147247Y-25850132D01*
X77221382Y-25940465D01*
X77258341Y-25985500D01*
X77292258Y-26013335D01*
X84896662Y-33617740D01*
X84924499Y-33651659D01*
X85059867Y-33762753D01*
X85214307Y-33845303D01*
X85308916Y-33874002D01*
X85381883Y-33896136D01*
X85400231Y-33897943D01*
X85512491Y-33909000D01*
X85512497Y-33909000D01*
X85556157Y-33913300D01*
X85599817Y-33909000D01*
X89390167Y-33909000D01*
X90685095Y-35203928D01*
X88166000Y-35203928D01*
X88041518Y-35216188D01*
X87921820Y-35252498D01*
X87811506Y-35311463D01*
X87714815Y-35390815D01*
X87635463Y-35487506D01*
X87576498Y-35597820D01*
X87540188Y-35717518D01*
X87527928Y-35842000D01*
X87527928Y-39342000D01*
X87540188Y-39466482D01*
X87576498Y-39586180D01*
X87635463Y-39696494D01*
X87714815Y-39793185D01*
X87811506Y-39872537D01*
X87921820Y-39931502D01*
X88041518Y-39967812D01*
X88166000Y-39980072D01*
X91666000Y-39980072D01*
X91790482Y-39967812D01*
X91910180Y-39931502D01*
X92020494Y-39872537D01*
X92117185Y-39793185D01*
X92196537Y-39696494D01*
X92255502Y-39586180D01*
X92291812Y-39466482D01*
X92304072Y-39342000D01*
X92304072Y-36822905D01*
X95885000Y-40403834D01*
X95885001Y-41631531D01*
X95856795Y-41673744D01*
X95778774Y-41862102D01*
X95739000Y-42062061D01*
X95739000Y-42265939D01*
X95778774Y-42465898D01*
X95856795Y-42654256D01*
X95970063Y-42823774D01*
X96114226Y-42967937D01*
X96283744Y-43081205D01*
X96472102Y-43159226D01*
X96672061Y-43199000D01*
X96875939Y-43199000D01*
X97075898Y-43159226D01*
X97264256Y-43081205D01*
X97433774Y-42967937D01*
X97577937Y-42823774D01*
X97691205Y-42654256D01*
X97769226Y-42465898D01*
X97809000Y-42265939D01*
X97809000Y-42062061D01*
X97769226Y-41862102D01*
X97691205Y-41673744D01*
X97663000Y-41631532D01*
X97663000Y-40079258D01*
X97667300Y-40035598D01*
X97663000Y-39991938D01*
X97663000Y-39991931D01*
X97650136Y-39861324D01*
X97599303Y-39693747D01*
X97516753Y-39539307D01*
X97405659Y-39403939D01*
X97371743Y-39376105D01*
X90417901Y-32422264D01*
X90390061Y-32388341D01*
X90254693Y-32277247D01*
X90100253Y-32194697D01*
X89932676Y-32143864D01*
X89802069Y-32131000D01*
X89802062Y-32131000D01*
X89758402Y-32126700D01*
X89714742Y-32131000D01*
X85924394Y-32131000D01*
X82560405Y-28767012D01*
X82767013Y-28628962D01*
X82952962Y-28443013D01*
X83099061Y-28224359D01*
X83199696Y-27981405D01*
X83251000Y-27723486D01*
X83251000Y-27460514D01*
X91581000Y-27460514D01*
X91581000Y-27723486D01*
X91632304Y-27981405D01*
X91732939Y-28224359D01*
X91879038Y-28443013D01*
X92064987Y-28628962D01*
X92283641Y-28775061D01*
X92526595Y-28875696D01*
X92784514Y-28927000D01*
X93047486Y-28927000D01*
X93305405Y-28875696D01*
X93548359Y-28775061D01*
X93767013Y-28628962D01*
X93952962Y-28443013D01*
X94099061Y-28224359D01*
X94199696Y-27981405D01*
X94251000Y-27723486D01*
X94251000Y-27460514D01*
X94199696Y-27202595D01*
X94099061Y-26959641D01*
X93952962Y-26740987D01*
X93767013Y-26555038D01*
X93548359Y-26408939D01*
X93305405Y-26308304D01*
X93047486Y-26257000D01*
X92784514Y-26257000D01*
X92526595Y-26308304D01*
X92283641Y-26408939D01*
X92064987Y-26555038D01*
X91879038Y-26740987D01*
X91732939Y-26959641D01*
X91632304Y-27202595D01*
X91581000Y-27460514D01*
X83251000Y-27460514D01*
X83199696Y-27202595D01*
X83099061Y-26959641D01*
X82952962Y-26740987D01*
X82767013Y-26555038D01*
X82548359Y-26408939D01*
X82305405Y-26308304D01*
X82047486Y-26257000D01*
X81784514Y-26257000D01*
X81526595Y-26308304D01*
X81283641Y-26408939D01*
X81064987Y-26555038D01*
X80879038Y-26740987D01*
X80740988Y-26947595D01*
X78778999Y-24985606D01*
X78778999Y-24847666D01*
X78783300Y-24803999D01*
X78766135Y-24629725D01*
X78715302Y-24462148D01*
X78632752Y-24307708D01*
X78521658Y-24172340D01*
X78386290Y-24061246D01*
X78231850Y-23978696D01*
X78064273Y-23927863D01*
X77933666Y-23914999D01*
X77889999Y-23910698D01*
X77846332Y-23914999D01*
X68203660Y-23914999D01*
X68160000Y-23910699D01*
X68116340Y-23914999D01*
X68116334Y-23914999D01*
X68018925Y-23924593D01*
X67985725Y-23927863D01*
X67884059Y-23958703D01*
X67818150Y-23978696D01*
X67663710Y-24061246D01*
X67528342Y-24172340D01*
X67500507Y-24206258D01*
X67016242Y-24690523D01*
X66948260Y-24677000D01*
X66655740Y-24677000D01*
X66368842Y-24734068D01*
X66098589Y-24846010D01*
X65855368Y-25008525D01*
X65648525Y-25215368D01*
X65486010Y-25458589D01*
X65374068Y-25728842D01*
X65317000Y-26015740D01*
X65317000Y-26308260D01*
X65374068Y-26595158D01*
X65486010Y-26865411D01*
X65648525Y-27108632D01*
X65780380Y-27240487D01*
X65707820Y-27262498D01*
X65597506Y-27321463D01*
X65500815Y-27400815D01*
X65421463Y-27497506D01*
X65362498Y-27607820D01*
X65326188Y-27727518D01*
X65313928Y-27852000D01*
X65313928Y-29552000D01*
X65326188Y-29676482D01*
X65362498Y-29796180D01*
X65421463Y-29906494D01*
X65500815Y-30003185D01*
X65597506Y-30082537D01*
X65707820Y-30141502D01*
X65827518Y-30177812D01*
X65952000Y-30190072D01*
X66072000Y-30190072D01*
X66072000Y-30304332D01*
X54943975Y-41432357D01*
X54798889Y-41335414D01*
X54628729Y-41264932D01*
X54448089Y-41229000D01*
X54263911Y-41229000D01*
X54083271Y-41264932D01*
X53913111Y-41335414D01*
X53759972Y-41437738D01*
X53629738Y-41567972D01*
X53527414Y-41721111D01*
X53456932Y-41891271D01*
X53421000Y-42071911D01*
X53421000Y-42256089D01*
X53456932Y-42436729D01*
X53527414Y-42606889D01*
X53570920Y-42672000D01*
X53527414Y-42737111D01*
X53456932Y-42907271D01*
X53421000Y-43087911D01*
X53421000Y-43272089D01*
X53456932Y-43452729D01*
X53527414Y-43622889D01*
X53570920Y-43688000D01*
X53527414Y-43753111D01*
X53456932Y-43923271D01*
X53421000Y-44103911D01*
X53421000Y-44288089D01*
X53456932Y-44468729D01*
X53527414Y-44638889D01*
X53629738Y-44792028D01*
X53759972Y-44922262D01*
X53913111Y-45024586D01*
X54083271Y-45095068D01*
X54263911Y-45131000D01*
X54448089Y-45131000D01*
X54628729Y-45095068D01*
X54798889Y-45024586D01*
X54952028Y-44922262D01*
X55082262Y-44792028D01*
X55150001Y-44690650D01*
X55150000Y-48654633D01*
X50102366Y-43607000D01*
X50168092Y-43607000D01*
X50348732Y-43571068D01*
X50518892Y-43500586D01*
X50672031Y-43398262D01*
X50802265Y-43268028D01*
X50904589Y-43114889D01*
X50975071Y-42944729D01*
X51011003Y-42764089D01*
X51011003Y-42579911D01*
X50975071Y-42399271D01*
X50904589Y-42229111D01*
X50806003Y-42081566D01*
X50806003Y-33662281D01*
X59084260Y-33662281D01*
X59084260Y-33866159D01*
X59124034Y-34066118D01*
X59202055Y-34254476D01*
X59315323Y-34423994D01*
X59459486Y-34568157D01*
X59629004Y-34681425D01*
X59817362Y-34759446D01*
X60017321Y-34799220D01*
X60221199Y-34799220D01*
X60421158Y-34759446D01*
X60609516Y-34681425D01*
X60779034Y-34568157D01*
X60923197Y-34423994D01*
X61036465Y-34254476D01*
X61114486Y-34066118D01*
X61154260Y-33866159D01*
X61154260Y-33662281D01*
X61114486Y-33462322D01*
X61036465Y-33273964D01*
X60923197Y-33104446D01*
X60779034Y-32960283D01*
X60609516Y-32847015D01*
X60421158Y-32768994D01*
X60221199Y-32729220D01*
X60017321Y-32729220D01*
X59817362Y-32768994D01*
X59629004Y-32847015D01*
X59459486Y-32960283D01*
X59315323Y-33104446D01*
X59202055Y-33273964D01*
X59124034Y-33462322D01*
X59084260Y-33662281D01*
X50806003Y-33662281D01*
X50806003Y-27818469D01*
X51053411Y-27715990D01*
X51296632Y-27553475D01*
X51503475Y-27346632D01*
X51620000Y-27172240D01*
X51736525Y-27346632D01*
X51943368Y-27553475D01*
X52186589Y-27715990D01*
X52456842Y-27827932D01*
X52743740Y-27885000D01*
X53036260Y-27885000D01*
X53323158Y-27827932D01*
X53593411Y-27715990D01*
X53836632Y-27553475D01*
X53968487Y-27421620D01*
X53990498Y-27494180D01*
X54049463Y-27604494D01*
X54128815Y-27701185D01*
X54225506Y-27780537D01*
X54335820Y-27839502D01*
X54455518Y-27875812D01*
X54580000Y-27888072D01*
X56280000Y-27888072D01*
X56404482Y-27875812D01*
X56524180Y-27839502D01*
X56634494Y-27780537D01*
X56731185Y-27701185D01*
X56810537Y-27604494D01*
X56869502Y-27494180D01*
X56905812Y-27374482D01*
X56918072Y-27250000D01*
X56918072Y-25550000D01*
X56905812Y-25425518D01*
X56869502Y-25305820D01*
X56810537Y-25195506D01*
X56731185Y-25098815D01*
X56634494Y-25019463D01*
X56524180Y-24960498D01*
X56404482Y-24924188D01*
X56280000Y-24911928D01*
X54580000Y-24911928D01*
X54455518Y-24924188D01*
X54335820Y-24960498D01*
X54225506Y-25019463D01*
X54128815Y-25098815D01*
X54049463Y-25195506D01*
X53990498Y-25305820D01*
X53968487Y-25378380D01*
X53836632Y-25246525D01*
X53593411Y-25084010D01*
X53323158Y-24972068D01*
X53036260Y-24915000D01*
X52743740Y-24915000D01*
X52456842Y-24972068D01*
X52186589Y-25084010D01*
X51943368Y-25246525D01*
X51736525Y-25453368D01*
X51620000Y-25627760D01*
X51503475Y-25453368D01*
X51296632Y-25246525D01*
X51053411Y-25084010D01*
X50783158Y-24972068D01*
X50496260Y-24915000D01*
X50203740Y-24915000D01*
X49916842Y-24972068D01*
X49646589Y-25084010D01*
X49403368Y-25246525D01*
X49196525Y-25453368D01*
X49080000Y-25627760D01*
X48963475Y-25453368D01*
X48756632Y-25246525D01*
X48513411Y-25084010D01*
X48243158Y-24972068D01*
X47956260Y-24915000D01*
X47663740Y-24915000D01*
X47376842Y-24972068D01*
X47106589Y-25084010D01*
X46863368Y-25246525D01*
X46656525Y-25453368D01*
X46494010Y-25696589D01*
X46382068Y-25966842D01*
X46325000Y-26253740D01*
X46325000Y-26546260D01*
X46382068Y-26833158D01*
X46494010Y-27103411D01*
X46656525Y-27346632D01*
X46863368Y-27553475D01*
X47080001Y-27698224D01*
X47080000Y-40584634D01*
X45353020Y-38857654D01*
X45329158Y-38828578D01*
X45213128Y-38733355D01*
X45080751Y-38662598D01*
X44937114Y-38619026D01*
X44825162Y-38608000D01*
X44825159Y-38608000D01*
X44787736Y-38604314D01*
X44750313Y-38608000D01*
X41439423Y-38608000D01*
X41402000Y-38604314D01*
X41364577Y-38608000D01*
X41364574Y-38608000D01*
X41252622Y-38619026D01*
X41108985Y-38662598D01*
X41047364Y-38695535D01*
X40976607Y-38733355D01*
X40893904Y-38801228D01*
X40860578Y-38828578D01*
X40836721Y-38857648D01*
X37841654Y-41852716D01*
X37812578Y-41876578D01*
X37772481Y-41925437D01*
X37717355Y-41992608D01*
X37702235Y-42020896D01*
X37646598Y-42124986D01*
X37603026Y-42268623D01*
X37594872Y-42351414D01*
X37588314Y-42418000D01*
X34573326Y-42418000D01*
X45381051Y-23698475D01*
X104618949Y-23698475D01*
X134237897Y-75000000D01*
G37*
X134237897Y-75000000D02*
X104618948Y-126301524D01*
X45381050Y-126301524D01*
X30313489Y-100203740D01*
X45415000Y-100203740D01*
X45415000Y-100496260D01*
X45472068Y-100783158D01*
X45584010Y-101053411D01*
X45746525Y-101296632D01*
X45799893Y-101350000D01*
X45746525Y-101403368D01*
X45584010Y-101646589D01*
X45472068Y-101916842D01*
X45415000Y-102203740D01*
X45415000Y-102496260D01*
X45472068Y-102783158D01*
X45584010Y-103053411D01*
X45746525Y-103296632D01*
X45799893Y-103350000D01*
X45746525Y-103403368D01*
X45584010Y-103646589D01*
X45472068Y-103916842D01*
X45415000Y-104203740D01*
X45415000Y-104496260D01*
X45472068Y-104783158D01*
X45584010Y-105053411D01*
X45746525Y-105296632D01*
X45799893Y-105350000D01*
X45746525Y-105403368D01*
X45584010Y-105646589D01*
X45472068Y-105916842D01*
X45415000Y-106203740D01*
X45415000Y-106496260D01*
X45472068Y-106783158D01*
X45584010Y-107053411D01*
X45746525Y-107296632D01*
X45799893Y-107350000D01*
X45746525Y-107403368D01*
X45584010Y-107646589D01*
X45472068Y-107916842D01*
X45415000Y-108203740D01*
X45415000Y-108496260D01*
X45472068Y-108783158D01*
X45584010Y-109053411D01*
X45746525Y-109296632D01*
X45799893Y-109350000D01*
X45746525Y-109403368D01*
X45584010Y-109646589D01*
X45472068Y-109916842D01*
X45415000Y-110203740D01*
X45415000Y-110496260D01*
X45472068Y-110783158D01*
X45584010Y-111053411D01*
X45746525Y-111296632D01*
X45799893Y-111350000D01*
X45746525Y-111403368D01*
X45584010Y-111646589D01*
X45472068Y-111916842D01*
X45415000Y-112203740D01*
X45415000Y-112496260D01*
X45472068Y-112783158D01*
X45584010Y-113053411D01*
X45746525Y-113296632D01*
X45799893Y-113350000D01*
X45746525Y-113403368D01*
X45584010Y-113646589D01*
X45472068Y-113916842D01*
X45415000Y-114203740D01*
X45415000Y-114496260D01*
X45472068Y-114783158D01*
X45584010Y-115053411D01*
X45746525Y-115296632D01*
X45799893Y-115350000D01*
X45746525Y-115403368D01*
X45584010Y-115646589D01*
X45472068Y-115916842D01*
X45415000Y-116203740D01*
X45415000Y-116496260D01*
X45472068Y-116783158D01*
X45584010Y-117053411D01*
X45746525Y-117296632D01*
X45799893Y-117350000D01*
X45746525Y-117403368D01*
X45584010Y-117646589D01*
X45472068Y-117916842D01*
X45415000Y-118203740D01*
X45415000Y-118496260D01*
X45472068Y-118783158D01*
X45584010Y-119053411D01*
X45746525Y-119296632D01*
X45953368Y-119503475D01*
X46196589Y-119665990D01*
X46466842Y-119777932D01*
X46753740Y-119835000D01*
X47046260Y-119835000D01*
X47333158Y-119777932D01*
X47603411Y-119665990D01*
X47846632Y-119503475D01*
X48053475Y-119296632D01*
X48215990Y-119053411D01*
X48327932Y-118783158D01*
X48385000Y-118496260D01*
X48385000Y-118203740D01*
X48327932Y-117916842D01*
X48215990Y-117646589D01*
X48053475Y-117403368D01*
X48000107Y-117350000D01*
X48053475Y-117296632D01*
X48215990Y-117053411D01*
X48327932Y-116783158D01*
X48385000Y-116496260D01*
X48385000Y-116203740D01*
X48327932Y-115916842D01*
X48215990Y-115646589D01*
X48053475Y-115403368D01*
X48000107Y-115350000D01*
X48053475Y-115296632D01*
X48215990Y-115053411D01*
X48327932Y-114783158D01*
X48385000Y-114496260D01*
X48385000Y-114203740D01*
X48327932Y-113916842D01*
X48215990Y-113646589D01*
X48053475Y-113403368D01*
X48000107Y-113350000D01*
X48053475Y-113296632D01*
X48215990Y-113053411D01*
X48327932Y-112783158D01*
X48385000Y-112496260D01*
X48385000Y-112203740D01*
X48327932Y-111916842D01*
X48215990Y-111646589D01*
X48053475Y-111403368D01*
X48000107Y-111350000D01*
X48053475Y-111296632D01*
X48215990Y-111053411D01*
X48327932Y-110783158D01*
X48385000Y-110496260D01*
X48385000Y-110203740D01*
X48327932Y-109916842D01*
X48215990Y-109646589D01*
X48053475Y-109403368D01*
X48000107Y-109350000D01*
X48053475Y-109296632D01*
X48215990Y-109053411D01*
X48327932Y-108783158D01*
X48385000Y-108496260D01*
X48385000Y-108203740D01*
X48327932Y-107916842D01*
X48215990Y-107646589D01*
X48053475Y-107403368D01*
X48000107Y-107350000D01*
X48053475Y-107296632D01*
X48215990Y-107053411D01*
X48327932Y-106783158D01*
X48385000Y-106496260D01*
X48385000Y-106203740D01*
X48327932Y-105916842D01*
X48215990Y-105646589D01*
X48053475Y-105403368D01*
X48000107Y-105350000D01*
X48053475Y-105296632D01*
X48215990Y-105053411D01*
X48327932Y-104783158D01*
X48385000Y-104496260D01*
X48385000Y-104203740D01*
X48327932Y-103916842D01*
X48215990Y-103646589D01*
X48053475Y-103403368D01*
X48000107Y-103350000D01*
X48053475Y-103296632D01*
X48215990Y-103053411D01*
X48327932Y-102783158D01*
X48385000Y-102496260D01*
X48385000Y-102203740D01*
X48327932Y-101916842D01*
X48215990Y-101646589D01*
X48053475Y-101403368D01*
X48000107Y-101350000D01*
X48053475Y-101296632D01*
X48215990Y-101053411D01*
X48327932Y-100783158D01*
X48385000Y-100496260D01*
X48385000Y-100203740D01*
X48327932Y-99916842D01*
X48215990Y-99646589D01*
X48053475Y-99403368D01*
X47846632Y-99196525D01*
X47603411Y-99034010D01*
X47333158Y-98922068D01*
X47046260Y-98865000D01*
X46753740Y-98865000D01*
X46466842Y-98922068D01*
X46196589Y-99034010D01*
X45953368Y-99196525D01*
X45746525Y-99403368D01*
X45584010Y-99646589D01*
X45472068Y-99916842D01*
X45415000Y-100203740D01*
X30313489Y-100203740D01*
X27185741Y-94786323D01*
X38189480Y-94786323D01*
X38189480Y-95213677D01*
X38272853Y-95632821D01*
X38436395Y-96027645D01*
X38673820Y-96382977D01*
X38976006Y-96685163D01*
X39331338Y-96922588D01*
X39726162Y-97086130D01*
X40145306Y-97169503D01*
X40572660Y-97169503D01*
X40991804Y-97086130D01*
X41386628Y-96922588D01*
X41741960Y-96685163D01*
X42044146Y-96382977D01*
X42281571Y-96027645D01*
X42445113Y-95632821D01*
X42528486Y-95213677D01*
X42528486Y-94786323D01*
X42445113Y-94367179D01*
X42281571Y-93972355D01*
X42044146Y-93617023D01*
X41741960Y-93314837D01*
X41386628Y-93077412D01*
X40991804Y-92913870D01*
X40572660Y-92830497D01*
X40145306Y-92830497D01*
X39726162Y-92913870D01*
X39331338Y-93077412D01*
X38976006Y-93314837D01*
X38673820Y-93617023D01*
X38436395Y-93972355D01*
X38272853Y-94367179D01*
X38189480Y-94786323D01*
X27185741Y-94786323D01*
X17768394Y-78475000D01*
X19736872Y-78475000D01*
X19757338Y-78682796D01*
X19817950Y-78882607D01*
X19916378Y-79066753D01*
X20048841Y-79228159D01*
X20210247Y-79360622D01*
X20394393Y-79459050D01*
X20594204Y-79519662D01*
X20749934Y-79535000D01*
X21854066Y-79535000D01*
X22009796Y-79519662D01*
X22209607Y-79459050D01*
X22393753Y-79360622D01*
X22555159Y-79228159D01*
X22687622Y-79066753D01*
X22786050Y-78882607D01*
X22846662Y-78682796D01*
X22867128Y-78475000D01*
X22846662Y-78267204D01*
X22786050Y-78067393D01*
X22687622Y-77883247D01*
X22555159Y-77721841D01*
X22393753Y-77589378D01*
X22209607Y-77490950D01*
X22009796Y-77430338D01*
X21854066Y-77415000D01*
X20749934Y-77415000D01*
X20594204Y-77430338D01*
X20394393Y-77490950D01*
X20210247Y-77589378D01*
X20048841Y-77721841D01*
X19916378Y-77883247D01*
X19817950Y-78067393D01*
X19757338Y-78267204D01*
X19736872Y-78475000D01*
X17768394Y-78475000D01*
X16212435Y-75780000D01*
X20023928Y-75780000D01*
X20023928Y-76620000D01*
X20036188Y-76744482D01*
X20072498Y-76864180D01*
X20131463Y-76974494D01*
X20210815Y-77071185D01*
X20307506Y-77150537D01*
X20417820Y-77209502D01*
X20537518Y-77245812D01*
X20662000Y-77258072D01*
X21502000Y-77258072D01*
X21626482Y-77245812D01*
X21746180Y-77209502D01*
X21856494Y-77150537D01*
X21953185Y-77071185D01*
X22032537Y-76974494D01*
X22091502Y-76864180D01*
X22127812Y-76744482D01*
X22140072Y-76620000D01*
X22140072Y-76605000D01*
X22185908Y-76605000D01*
X22389732Y-76564457D01*
X22581730Y-76484929D01*
X22754523Y-76369472D01*
X22901472Y-76222523D01*
X23016929Y-76049730D01*
X23096457Y-75857732D01*
X23137000Y-75653908D01*
X23137000Y-75446092D01*
X23096457Y-75242268D01*
X23016929Y-75050270D01*
X22916521Y-74900000D01*
X23016929Y-74749730D01*
X23096457Y-74557732D01*
X23137000Y-74353908D01*
X23137000Y-74146092D01*
X23096457Y-73942268D01*
X23016929Y-73750270D01*
X22901472Y-73577477D01*
X22754523Y-73430528D01*
X22581730Y-73315071D01*
X22389732Y-73235543D01*
X22185908Y-73195000D01*
X22056167Y-73195000D01*
X22016929Y-73100270D01*
X21901472Y-72927477D01*
X21754523Y-72780528D01*
X21581730Y-72665071D01*
X21389732Y-72585543D01*
X21185908Y-72545000D01*
X20978092Y-72545000D01*
X20774268Y-72585543D01*
X20582270Y-72665071D01*
X20409477Y-72780528D01*
X20262528Y-72927477D01*
X20147071Y-73100270D01*
X20067543Y-73292268D01*
X20027000Y-73496092D01*
X20027000Y-73703908D01*
X20067543Y-73907732D01*
X20147071Y-74099730D01*
X20247479Y-74250000D01*
X20147071Y-74400270D01*
X20067543Y-74592268D01*
X20027000Y-74796092D01*
X20027000Y-75003908D01*
X20067543Y-75207732D01*
X20147071Y-75399730D01*
X20149560Y-75403455D01*
X20131463Y-75425506D01*
X20072498Y-75535820D01*
X20036188Y-75655518D01*
X20023928Y-75780000D01*
X16212435Y-75780000D01*
X15762101Y-74999999D01*
X17883862Y-71325000D01*
X19736872Y-71325000D01*
X19757338Y-71532796D01*
X19817950Y-71732607D01*
X19916378Y-71916753D01*
X20048841Y-72078159D01*
X20210247Y-72210622D01*
X20394393Y-72309050D01*
X20594204Y-72369662D01*
X20749934Y-72385000D01*
X21854066Y-72385000D01*
X22009796Y-72369662D01*
X22209607Y-72309050D01*
X22393753Y-72210622D01*
X22555159Y-72078159D01*
X22687622Y-71916753D01*
X22786050Y-71732607D01*
X22846662Y-71532796D01*
X22867128Y-71325000D01*
X22846662Y-71117204D01*
X22786050Y-70917393D01*
X22687622Y-70733247D01*
X22555159Y-70571841D01*
X22393753Y-70439378D01*
X22209607Y-70340950D01*
X22009796Y-70280338D01*
X21854066Y-70265000D01*
X20749934Y-70265000D01*
X20594204Y-70280338D01*
X20394393Y-70340950D01*
X20210247Y-70439378D01*
X20048841Y-70571841D01*
X19916378Y-70733247D01*
X19817950Y-70917393D01*
X19757338Y-71117204D01*
X19736872Y-71325000D01*
X17883862Y-71325000D01*
X19232782Y-68988601D01*
X25482600Y-68988601D01*
X25482600Y-69192479D01*
X25522374Y-69392438D01*
X25600395Y-69580796D01*
X25713663Y-69750314D01*
X25857826Y-69894477D01*
X26027344Y-70007745D01*
X26215702Y-70085766D01*
X26415661Y-70125540D01*
X26619539Y-70125540D01*
X26819268Y-70085812D01*
X26837706Y-70108279D01*
X26973074Y-70219373D01*
X27127514Y-70301923D01*
X27244257Y-70337336D01*
X27295090Y-70352756D01*
X27469365Y-70369921D01*
X27513033Y-70365620D01*
X33042925Y-70365620D01*
X33292490Y-70615185D01*
X33302394Y-70664978D01*
X33380415Y-70853336D01*
X33493683Y-71022854D01*
X33637846Y-71167017D01*
X33807364Y-71280285D01*
X33995722Y-71358306D01*
X34195681Y-71398080D01*
X34399559Y-71398080D01*
X34599518Y-71358306D01*
X34787876Y-71280285D01*
X34957394Y-71167017D01*
X35101557Y-71022854D01*
X35214825Y-70853336D01*
X35292846Y-70664978D01*
X35332620Y-70465019D01*
X35332620Y-70261141D01*
X35292846Y-70061182D01*
X35214825Y-69872824D01*
X35101557Y-69703306D01*
X34957394Y-69559143D01*
X34787876Y-69445875D01*
X34599518Y-69367854D01*
X34549725Y-69357950D01*
X34070659Y-68878883D01*
X34042819Y-68844961D01*
X33907451Y-68733867D01*
X33753011Y-68651317D01*
X33585434Y-68600484D01*
X33454827Y-68587620D01*
X33454820Y-68587620D01*
X33411160Y-68583320D01*
X33367500Y-68587620D01*
X27837600Y-68587620D01*
X27742784Y-68492804D01*
X27714944Y-68458881D01*
X27579576Y-68347787D01*
X27425136Y-68265237D01*
X27257559Y-68214404D01*
X27126952Y-68201540D01*
X27126945Y-68201540D01*
X27083285Y-68197240D01*
X27048726Y-68200644D01*
X27007856Y-68173335D01*
X26819498Y-68095314D01*
X26619539Y-68055540D01*
X26415661Y-68055540D01*
X26215702Y-68095314D01*
X26027344Y-68173335D01*
X25857826Y-68286603D01*
X25713663Y-68430766D01*
X25600395Y-68600284D01*
X25522374Y-68788642D01*
X25482600Y-68988601D01*
X19232782Y-68988601D01*
X23926951Y-60858061D01*
X27159000Y-60858061D01*
X27159000Y-61061939D01*
X27198774Y-61261898D01*
X27276795Y-61450256D01*
X27390063Y-61619774D01*
X27534226Y-61763937D01*
X27703744Y-61877205D01*
X27892102Y-61955226D01*
X28092061Y-61995000D01*
X28295939Y-61995000D01*
X28495898Y-61955226D01*
X28684256Y-61877205D01*
X28853774Y-61763937D01*
X28997937Y-61619774D01*
X29111205Y-61450256D01*
X29189226Y-61261898D01*
X29229000Y-61061939D01*
X29229000Y-61002630D01*
X30268631Y-59963000D01*
X30327939Y-59963000D01*
X30527898Y-59923226D01*
X30716256Y-59845205D01*
X30885774Y-59731937D01*
X31029937Y-59587774D01*
X31143205Y-59418256D01*
X31221226Y-59229898D01*
X31261000Y-59029939D01*
X31261000Y-58826061D01*
X31221226Y-58626102D01*
X31143205Y-58437744D01*
X31029937Y-58268226D01*
X30885774Y-58124063D01*
X30716256Y-58010795D01*
X30527898Y-57932774D01*
X30327939Y-57893000D01*
X30124061Y-57893000D01*
X29924102Y-57932774D01*
X29735744Y-58010795D01*
X29566226Y-58124063D01*
X29422063Y-58268226D01*
X29308795Y-58437744D01*
X29230774Y-58626102D01*
X29191000Y-58826061D01*
X29191000Y-58885369D01*
X28151370Y-59925000D01*
X28092061Y-59925000D01*
X27892102Y-59964774D01*
X27703744Y-60042795D01*
X27534226Y-60156063D01*
X27390063Y-60300226D01*
X27276795Y-60469744D01*
X27198774Y-60658102D01*
X27159000Y-60858061D01*
X23926951Y-60858061D01*
X34573326Y-42418000D01*
X37588314Y-42418000D01*
X37592000Y-42455423D01*
X37592001Y-70828567D01*
X37588314Y-70866000D01*
X37603027Y-71015378D01*
X37646599Y-71159015D01*
X37717355Y-71291392D01*
X37788721Y-71378351D01*
X37812579Y-71407422D01*
X37841649Y-71431279D01*
X51035000Y-84624631D01*
X51035000Y-84683939D01*
X51074774Y-84883898D01*
X51152795Y-85072256D01*
X51266063Y-85241774D01*
X51410226Y-85385937D01*
X51579744Y-85499205D01*
X51768102Y-85577226D01*
X51968061Y-85617000D01*
X52171939Y-85617000D01*
X52371898Y-85577226D01*
X52560256Y-85499205D01*
X52729774Y-85385937D01*
X52873937Y-85241774D01*
X52987205Y-85072256D01*
X53065226Y-84883898D01*
X53105000Y-84683939D01*
X53105000Y-84480061D01*
X53065226Y-84280102D01*
X52987205Y-84091744D01*
X52873937Y-83922226D01*
X52729774Y-83778063D01*
X52560256Y-83664795D01*
X52371898Y-83586774D01*
X52171939Y-83547000D01*
X52112631Y-83547000D01*
X39116000Y-70550370D01*
X39116000Y-66233711D01*
X39218226Y-66335937D01*
X39387744Y-66449205D01*
X39576102Y-66527226D01*
X39776061Y-66567000D01*
X39979939Y-66567000D01*
X40179898Y-66527226D01*
X40368256Y-66449205D01*
X40537774Y-66335937D01*
X40681937Y-66191774D01*
X40795205Y-66022256D01*
X40873226Y-65833898D01*
X40913000Y-65633939D01*
X40913000Y-65430061D01*
X40873226Y-65230102D01*
X40795205Y-65041744D01*
X40681937Y-64872226D01*
X40537774Y-64728063D01*
X40368256Y-64614795D01*
X40179898Y-64536774D01*
X39979939Y-64497000D01*
X39875376Y-64497000D01*
X39506010Y-64127635D01*
X39506010Y-54642681D01*
X57875220Y-54642681D01*
X57875220Y-54846559D01*
X57914994Y-55046518D01*
X57993015Y-55234876D01*
X58106283Y-55404394D01*
X58250446Y-55548557D01*
X58419964Y-55661825D01*
X58608322Y-55739846D01*
X58808281Y-55779620D01*
X59012159Y-55779620D01*
X59212118Y-55739846D01*
X59400476Y-55661825D01*
X59468000Y-55616707D01*
X59468001Y-107612135D01*
X59464469Y-107648000D01*
X59478562Y-107791104D01*
X59520305Y-107928710D01*
X59550912Y-107985972D01*
X59588091Y-108055529D01*
X59626280Y-108102061D01*
X59644510Y-108124274D01*
X59679316Y-108166685D01*
X59707168Y-108189543D01*
X67465829Y-115948205D01*
X67415000Y-116203740D01*
X67415000Y-116496260D01*
X67472068Y-116783158D01*
X67584010Y-117053411D01*
X67746525Y-117296632D01*
X67799893Y-117350000D01*
X67746525Y-117403368D01*
X67584010Y-117646589D01*
X67472068Y-117916842D01*
X67415000Y-118203740D01*
X67415000Y-118496260D01*
X67472068Y-118783158D01*
X67584010Y-119053411D01*
X67746525Y-119296632D01*
X67953368Y-119503475D01*
X68196589Y-119665990D01*
X68466842Y-119777932D01*
X68753740Y-119835000D01*
X69046260Y-119835000D01*
X69333158Y-119777932D01*
X69603411Y-119665990D01*
X69846632Y-119503475D01*
X70053475Y-119296632D01*
X70215990Y-119053411D01*
X70327932Y-118783158D01*
X70385000Y-118496260D01*
X70385000Y-118203740D01*
X70371477Y-118135758D01*
X72225742Y-116281494D01*
X72259659Y-116253659D01*
X72370753Y-116118291D01*
X72453303Y-115963851D01*
X72504136Y-115796274D01*
X72517000Y-115665667D01*
X72521301Y-115622000D01*
X72517000Y-115578332D01*
X72517000Y-110388061D01*
X73895000Y-110388061D01*
X73895000Y-110591939D01*
X73934774Y-110791898D01*
X74012795Y-110980256D01*
X74126063Y-111149774D01*
X74270226Y-111293937D01*
X74439744Y-111407205D01*
X74628102Y-111485226D01*
X74828061Y-111525000D01*
X75031939Y-111525000D01*
X75231898Y-111485226D01*
X75420256Y-111407205D01*
X75589774Y-111293937D01*
X75733937Y-111149774D01*
X75847205Y-110980256D01*
X75925226Y-110791898D01*
X75965000Y-110591939D01*
X75965000Y-110532630D01*
X76458353Y-110039278D01*
X76487422Y-110015422D01*
X76518421Y-109977649D01*
X76582645Y-109899393D01*
X76620465Y-109828636D01*
X76653402Y-109767015D01*
X76696974Y-109623378D01*
X76708000Y-109511426D01*
X76708000Y-109511423D01*
X76711686Y-109474000D01*
X76708000Y-109436577D01*
X76708000Y-107889711D01*
X76749937Y-107847774D01*
X76863205Y-107678256D01*
X76941226Y-107489898D01*
X76981000Y-107289939D01*
X76981000Y-107086061D01*
X76941226Y-106886102D01*
X76863205Y-106697744D01*
X76749937Y-106528226D01*
X76605774Y-106384063D01*
X76436256Y-106270795D01*
X76247898Y-106192774D01*
X76047939Y-106153000D01*
X75844061Y-106153000D01*
X75644102Y-106192774D01*
X75455744Y-106270795D01*
X75286226Y-106384063D01*
X75142063Y-106528226D01*
X75028795Y-106697744D01*
X74950774Y-106886102D01*
X74911000Y-107086061D01*
X74911000Y-107289939D01*
X74950774Y-107489898D01*
X75028795Y-107678256D01*
X75142063Y-107847774D01*
X75184001Y-107889712D01*
X75184000Y-109158369D01*
X74887370Y-109455000D01*
X74828061Y-109455000D01*
X74628102Y-109494774D01*
X74439744Y-109572795D01*
X74270226Y-109686063D01*
X74126063Y-109830226D01*
X74012795Y-109999744D01*
X73934774Y-110188102D01*
X73895000Y-110388061D01*
X72517000Y-110388061D01*
X72517000Y-83718061D01*
X75419000Y-83718061D01*
X75419000Y-83921939D01*
X75458774Y-84121898D01*
X75536795Y-84310256D01*
X75650063Y-84479774D01*
X75794226Y-84623937D01*
X75963744Y-84737205D01*
X76152102Y-84815226D01*
X76352061Y-84855000D01*
X76555939Y-84855000D01*
X76755898Y-84815226D01*
X76944256Y-84737205D01*
X77113774Y-84623937D01*
X77257937Y-84479774D01*
X77371205Y-84310256D01*
X77449226Y-84121898D01*
X77489000Y-83921939D01*
X77489000Y-83862631D01*
X77728353Y-83623278D01*
X77757422Y-83599422D01*
X77784772Y-83566096D01*
X77852645Y-83483393D01*
X77923401Y-83351016D01*
X77923402Y-83351015D01*
X77966974Y-83207378D01*
X77978000Y-83095426D01*
X77978000Y-83095423D01*
X77981686Y-83058000D01*
X77978000Y-83020577D01*
X77978000Y-80457711D01*
X78019937Y-80415774D01*
X78133205Y-80246256D01*
X78211226Y-80057898D01*
X78251000Y-79857939D01*
X78251000Y-79654061D01*
X78211226Y-79454102D01*
X78133205Y-79265744D01*
X78019937Y-79096226D01*
X77875774Y-78952063D01*
X77706256Y-78838795D01*
X77517898Y-78760774D01*
X77317939Y-78721000D01*
X77114061Y-78721000D01*
X76914102Y-78760774D01*
X76725744Y-78838795D01*
X76556226Y-78952063D01*
X76412063Y-79096226D01*
X76298795Y-79265744D01*
X76220774Y-79454102D01*
X76181000Y-79654061D01*
X76181000Y-79857939D01*
X76220774Y-80057898D01*
X76298795Y-80246256D01*
X76412063Y-80415774D01*
X76454001Y-80457712D01*
X76454000Y-82742369D01*
X76411369Y-82785000D01*
X76352061Y-82785000D01*
X76152102Y-82824774D01*
X75963744Y-82902795D01*
X75794226Y-83016063D01*
X75650063Y-83160226D01*
X75536795Y-83329744D01*
X75458774Y-83518102D01*
X75419000Y-83718061D01*
X72517000Y-83718061D01*
X72517000Y-64407994D01*
X75920933Y-64407994D01*
X75920933Y-64611872D01*
X75960707Y-64811831D01*
X76038728Y-65000189D01*
X76151996Y-65169707D01*
X76296159Y-65313870D01*
X76465677Y-65427138D01*
X76654035Y-65505159D01*
X76853994Y-65544933D01*
X76913303Y-65544933D01*
X77769174Y-66400804D01*
X77822795Y-66530256D01*
X77936063Y-66699774D01*
X78080226Y-66843937D01*
X78249744Y-66957205D01*
X78438102Y-67035226D01*
X78638061Y-67075000D01*
X78841939Y-67075000D01*
X79041898Y-67035226D01*
X79230256Y-66957205D01*
X79399774Y-66843937D01*
X79543937Y-66699774D01*
X79657205Y-66530256D01*
X79735226Y-66341898D01*
X79775000Y-66141939D01*
X79775000Y-65938061D01*
X79735226Y-65738102D01*
X79657205Y-65549744D01*
X79543937Y-65380226D01*
X79399774Y-65236063D01*
X79230256Y-65122795D01*
X79041898Y-65044774D01*
X78841939Y-65005000D01*
X78638061Y-65005000D01*
X78546786Y-65023156D01*
X77990933Y-64467303D01*
X77990933Y-64407994D01*
X77951159Y-64208035D01*
X77873138Y-64019677D01*
X77759870Y-63850159D01*
X77615707Y-63705996D01*
X77446189Y-63592728D01*
X77257831Y-63514707D01*
X77057872Y-63474933D01*
X76853994Y-63474933D01*
X76654035Y-63514707D01*
X76465677Y-63592728D01*
X76296159Y-63705996D01*
X76151996Y-63850159D01*
X76038728Y-64019677D01*
X75960707Y-64208035D01*
X75920933Y-64407994D01*
X72517000Y-64407994D01*
X72517000Y-54470235D01*
X78346236Y-48641000D01*
X83033532Y-48641000D01*
X82906226Y-48726063D01*
X82762063Y-48870226D01*
X82648795Y-49039744D01*
X82570774Y-49228102D01*
X82560870Y-49277894D01*
X81190264Y-50648501D01*
X81156341Y-50676341D01*
X81045247Y-50811710D01*
X80962697Y-50966150D01*
X80911864Y-51133727D01*
X80899000Y-51264334D01*
X80899000Y-51264340D01*
X80894700Y-51308000D01*
X80899000Y-51351660D01*
X80899000Y-60427532D01*
X80870795Y-60469744D01*
X80792774Y-60658102D01*
X80753000Y-60858061D01*
X80753000Y-61061939D01*
X80792774Y-61261898D01*
X80870795Y-61450256D01*
X80899000Y-61492468D01*
X80899001Y-83795531D01*
X80870795Y-83837744D01*
X80792774Y-84026102D01*
X80753000Y-84226061D01*
X80753000Y-84429939D01*
X80792774Y-84629898D01*
X80870795Y-84818256D01*
X80899001Y-84860469D01*
X80899001Y-107417531D01*
X80870795Y-107459744D01*
X80792774Y-107648102D01*
X80753000Y-107848061D01*
X80753000Y-108051939D01*
X80792774Y-108251898D01*
X80870795Y-108440256D01*
X80984063Y-108609774D01*
X81128226Y-108753937D01*
X81297744Y-108867205D01*
X81486102Y-108945226D01*
X81686061Y-108985000D01*
X81889939Y-108985000D01*
X82089898Y-108945226D01*
X82278256Y-108867205D01*
X82447774Y-108753937D01*
X82591937Y-108609774D01*
X82705205Y-108440256D01*
X82783226Y-108251898D01*
X82823000Y-108051939D01*
X82823000Y-107848061D01*
X82783226Y-107648102D01*
X82705205Y-107459744D01*
X82677000Y-107417532D01*
X82677000Y-105497350D01*
X82869701Y-105535680D01*
X83073579Y-105535680D01*
X83273538Y-105495906D01*
X83398330Y-105444215D01*
X83399763Y-105445962D01*
X83515793Y-105541185D01*
X83648170Y-105611942D01*
X83791807Y-105655514D01*
X83903759Y-105666540D01*
X83903761Y-105666540D01*
X83941184Y-105670226D01*
X83978607Y-105666540D01*
X85970910Y-105666540D01*
X86168298Y-105863928D01*
X85930000Y-105863928D01*
X85805518Y-105876188D01*
X85685820Y-105912498D01*
X85575506Y-105971463D01*
X85478815Y-106050815D01*
X85399463Y-106147506D01*
X85340498Y-106257820D01*
X85304188Y-106377518D01*
X85291928Y-106502000D01*
X85291928Y-116002000D01*
X85304188Y-116126482D01*
X85340498Y-116246180D01*
X85399463Y-116356494D01*
X85478815Y-116453185D01*
X85575506Y-116532537D01*
X85685820Y-116591502D01*
X85805518Y-116627812D01*
X85930000Y-116640072D01*
X89330000Y-116640072D01*
X89454482Y-116627812D01*
X89574180Y-116591502D01*
X89684494Y-116532537D01*
X89781185Y-116453185D01*
X89860537Y-116356494D01*
X89919502Y-116246180D01*
X89955812Y-116126482D01*
X89968072Y-116002000D01*
X89968072Y-108610061D01*
X90913000Y-108610061D01*
X90913000Y-108813939D01*
X90952774Y-109013898D01*
X91030795Y-109202256D01*
X91144063Y-109371774D01*
X91186000Y-109413711D01*
X91186001Y-113500567D01*
X91182314Y-113538000D01*
X91187259Y-113588209D01*
X91167000Y-113690061D01*
X91167000Y-113893939D01*
X91206774Y-114093898D01*
X91284795Y-114282256D01*
X91398063Y-114451774D01*
X91542226Y-114595937D01*
X91711744Y-114709205D01*
X91900102Y-114787226D01*
X92100061Y-114827000D01*
X92303939Y-114827000D01*
X92503898Y-114787226D01*
X92692256Y-114709205D01*
X92861774Y-114595937D01*
X93005937Y-114451774D01*
X93119205Y-114282256D01*
X93197226Y-114093898D01*
X93237000Y-113893939D01*
X93237000Y-113690061D01*
X93197226Y-113490102D01*
X93153335Y-113384141D01*
X93235744Y-113439205D01*
X93424102Y-113517226D01*
X93624061Y-113557000D01*
X93683370Y-113557000D01*
X94533174Y-114406805D01*
X94586795Y-114536256D01*
X94700063Y-114705774D01*
X94844226Y-114849937D01*
X95013744Y-114963205D01*
X95202102Y-115041226D01*
X95402061Y-115081000D01*
X95605939Y-115081000D01*
X95805898Y-115041226D01*
X95994256Y-114963205D01*
X96163774Y-114849937D01*
X96307937Y-114705774D01*
X96421205Y-114536256D01*
X96499226Y-114347898D01*
X96539000Y-114147939D01*
X96539000Y-113944061D01*
X96499226Y-113744102D01*
X96421205Y-113555744D01*
X96307937Y-113386226D01*
X96163774Y-113242063D01*
X95994256Y-113128795D01*
X95805898Y-113050774D01*
X95605939Y-113011000D01*
X95402061Y-113011000D01*
X95310786Y-113029156D01*
X94761000Y-112479370D01*
X94761000Y-112420061D01*
X94721226Y-112220102D01*
X94643205Y-112031744D01*
X94529937Y-111862226D01*
X94385774Y-111718063D01*
X94216256Y-111604795D01*
X94027898Y-111526774D01*
X93827939Y-111487000D01*
X93624061Y-111487000D01*
X93424102Y-111526774D01*
X93235744Y-111604795D01*
X93066226Y-111718063D01*
X92922063Y-111862226D01*
X92808795Y-112031744D01*
X92730774Y-112220102D01*
X92710000Y-112324541D01*
X92710000Y-110635362D01*
X92733811Y-110651272D01*
X92922169Y-110729293D01*
X93122128Y-110769067D01*
X93326006Y-110769067D01*
X93525965Y-110729293D01*
X93538743Y-110724000D01*
X105389993Y-110724000D01*
X105409976Y-110926895D01*
X105469159Y-111121993D01*
X105565266Y-111301797D01*
X105604004Y-111349000D01*
X105565266Y-111396203D01*
X105469159Y-111576007D01*
X105409976Y-111771105D01*
X105389993Y-111974000D01*
X105409976Y-112176895D01*
X105469159Y-112371993D01*
X105565266Y-112551797D01*
X105604004Y-112599000D01*
X105565266Y-112646203D01*
X105469159Y-112826007D01*
X105409976Y-113021105D01*
X105389993Y-113224000D01*
X105409976Y-113426895D01*
X105469159Y-113621993D01*
X105565266Y-113801797D01*
X105694604Y-113959396D01*
X105852203Y-114088734D01*
X106032007Y-114184841D01*
X106227105Y-114244024D01*
X106379162Y-114259000D01*
X106980838Y-114259000D01*
X107132895Y-114244024D01*
X107327993Y-114184841D01*
X107507797Y-114088734D01*
X107665396Y-113959396D01*
X107794734Y-113801797D01*
X107890841Y-113621993D01*
X107950024Y-113426895D01*
X107970007Y-113224000D01*
X107950024Y-113021105D01*
X107890841Y-112826007D01*
X107794734Y-112646203D01*
X107755996Y-112599000D01*
X107794734Y-112551797D01*
X107890841Y-112371993D01*
X107950024Y-112176895D01*
X107970007Y-111974000D01*
X107950024Y-111771105D01*
X107890841Y-111576007D01*
X107794734Y-111396203D01*
X107755996Y-111349000D01*
X107794734Y-111301797D01*
X107890841Y-111121993D01*
X107950024Y-110926895D01*
X107970007Y-110724000D01*
X107950024Y-110521105D01*
X107890841Y-110326007D01*
X107805259Y-110165894D01*
X107826831Y-110139608D01*
X107904278Y-109994716D01*
X107951969Y-109837500D01*
X107968072Y-109674000D01*
X107968072Y-109274000D01*
X107951969Y-109110500D01*
X107904278Y-108953284D01*
X107826831Y-108808392D01*
X107722606Y-108681394D01*
X107595608Y-108577169D01*
X107450716Y-108499722D01*
X107293500Y-108452031D01*
X107130000Y-108435928D01*
X106230000Y-108435928D01*
X106066500Y-108452031D01*
X105909284Y-108499722D01*
X105764392Y-108577169D01*
X105637394Y-108681394D01*
X105533169Y-108808392D01*
X105455722Y-108953284D01*
X105408031Y-109110500D01*
X105391928Y-109274000D01*
X105391928Y-109674000D01*
X105408031Y-109837500D01*
X105455722Y-109994716D01*
X105533169Y-110139608D01*
X105554741Y-110165894D01*
X105469159Y-110326007D01*
X105409976Y-110521105D01*
X105389993Y-110724000D01*
X93538743Y-110724000D01*
X93714323Y-110651272D01*
X93883841Y-110538004D01*
X93925778Y-110496067D01*
X93936510Y-110496067D01*
X93973933Y-110499753D01*
X94011356Y-110496067D01*
X94011359Y-110496067D01*
X94123311Y-110485041D01*
X94266948Y-110441469D01*
X94399325Y-110370712D01*
X94515355Y-110275489D01*
X94539217Y-110246413D01*
X95546630Y-109239000D01*
X95605939Y-109239000D01*
X95805898Y-109199226D01*
X95994256Y-109121205D01*
X96163774Y-109007937D01*
X96307937Y-108863774D01*
X96421205Y-108694256D01*
X96499226Y-108505898D01*
X96539000Y-108305939D01*
X96539000Y-108102061D01*
X96499226Y-107902102D01*
X96421205Y-107713744D01*
X96307937Y-107544226D01*
X96163774Y-107400063D01*
X95994256Y-107286795D01*
X95805898Y-107208774D01*
X95605939Y-107169000D01*
X95402061Y-107169000D01*
X95202102Y-107208774D01*
X95013744Y-107286795D01*
X94844226Y-107400063D01*
X94700063Y-107544226D01*
X94586795Y-107713744D01*
X94508774Y-107902102D01*
X94469000Y-108102061D01*
X94469000Y-108161370D01*
X93773780Y-108856590D01*
X93714323Y-108816862D01*
X93525965Y-108738841D01*
X93326006Y-108699067D01*
X93122128Y-108699067D01*
X92983000Y-108726741D01*
X92983000Y-108610061D01*
X92943226Y-108410102D01*
X92865205Y-108221744D01*
X92751937Y-108052226D01*
X92607774Y-107908063D01*
X92438256Y-107794795D01*
X92249898Y-107716774D01*
X92049939Y-107677000D01*
X91846061Y-107677000D01*
X91646102Y-107716774D01*
X91457744Y-107794795D01*
X91288226Y-107908063D01*
X91144063Y-108052226D01*
X91030795Y-108221744D01*
X90952774Y-108410102D01*
X90913000Y-108610061D01*
X89968072Y-108610061D01*
X89968072Y-106502000D01*
X89955812Y-106377518D01*
X89919502Y-106257820D01*
X89860537Y-106147506D01*
X89781185Y-106050815D01*
X89684494Y-105971463D01*
X89574180Y-105912498D01*
X89454482Y-105876188D01*
X89330000Y-105863928D01*
X88288731Y-105863928D01*
X88266645Y-105822608D01*
X88171422Y-105706578D01*
X88142353Y-105682722D01*
X86851824Y-104392194D01*
X86827962Y-104363118D01*
X86711932Y-104267895D01*
X86579555Y-104197138D01*
X86435918Y-104153566D01*
X86323966Y-104142540D01*
X86323963Y-104142540D01*
X86286540Y-104138854D01*
X86249117Y-104142540D01*
X84256815Y-104142540D01*
X84102609Y-103988334D01*
X84078747Y-103959258D01*
X83962717Y-103864035D01*
X83830340Y-103793278D01*
X83686703Y-103749706D01*
X83684123Y-103749452D01*
X83631414Y-103696743D01*
X83461896Y-103583475D01*
X83273538Y-103505454D01*
X83073579Y-103465680D01*
X82869701Y-103465680D01*
X82677000Y-103504010D01*
X82677000Y-94786323D01*
X107471513Y-94786323D01*
X107471513Y-95213677D01*
X107554886Y-95632821D01*
X107718428Y-96027645D01*
X107955853Y-96382977D01*
X108258039Y-96685163D01*
X108613371Y-96922588D01*
X109008195Y-97086130D01*
X109427339Y-97169503D01*
X109854693Y-97169503D01*
X110273837Y-97086130D01*
X110668661Y-96922588D01*
X111023993Y-96685163D01*
X111326179Y-96382977D01*
X111563604Y-96027645D01*
X111727146Y-95632821D01*
X111810519Y-95213677D01*
X111810519Y-94786323D01*
X111727146Y-94367179D01*
X111563604Y-93972355D01*
X111326179Y-93617023D01*
X111023993Y-93314837D01*
X110668661Y-93077412D01*
X110273837Y-92913870D01*
X109854693Y-92830497D01*
X109427339Y-92830497D01*
X109008195Y-92913870D01*
X108613371Y-93077412D01*
X108258039Y-93314837D01*
X107955853Y-93617023D01*
X107718428Y-93972355D01*
X107554886Y-94367179D01*
X107471513Y-94786323D01*
X82677000Y-94786323D01*
X82677000Y-84860468D01*
X82705205Y-84818256D01*
X82783226Y-84629898D01*
X82823000Y-84429939D01*
X82823000Y-84226061D01*
X82783226Y-84026102D01*
X82705205Y-83837744D01*
X82677000Y-83795532D01*
X82677000Y-81745490D01*
X83290280Y-82358771D01*
X83314138Y-82387842D01*
X83430168Y-82483065D01*
X83562545Y-82553822D01*
X83706182Y-82597394D01*
X83818134Y-82608420D01*
X83818136Y-82608420D01*
X83855559Y-82612106D01*
X83892982Y-82608420D01*
X85435643Y-82608420D01*
X85399463Y-82652506D01*
X85340498Y-82762820D01*
X85304188Y-82882518D01*
X85291928Y-83007000D01*
X85291928Y-92507000D01*
X85304188Y-92631482D01*
X85340498Y-92751180D01*
X85399463Y-92861494D01*
X85478815Y-92958185D01*
X85575506Y-93037537D01*
X85685820Y-93096502D01*
X85805518Y-93132812D01*
X85930000Y-93145072D01*
X89330000Y-93145072D01*
X89454482Y-93132812D01*
X89574180Y-93096502D01*
X89684494Y-93037537D01*
X89781185Y-92958185D01*
X89860537Y-92861494D01*
X89919502Y-92751180D01*
X89955812Y-92631482D01*
X89968072Y-92507000D01*
X89968072Y-90239141D01*
X91108568Y-90239141D01*
X91108568Y-90443019D01*
X91148342Y-90642978D01*
X91226363Y-90831336D01*
X91339631Y-91000854D01*
X91483794Y-91145017D01*
X91653312Y-91258285D01*
X91841670Y-91336306D01*
X92041629Y-91376080D01*
X92245507Y-91376080D01*
X92445466Y-91336306D01*
X92633824Y-91258285D01*
X92803342Y-91145017D01*
X92947505Y-91000854D01*
X93060773Y-90831336D01*
X93138794Y-90642978D01*
X93178568Y-90443019D01*
X93178568Y-90239141D01*
X93138794Y-90039182D01*
X93060773Y-89850824D01*
X92947505Y-89681306D01*
X92944999Y-89678800D01*
X92944999Y-88773061D01*
X92945000Y-88773061D01*
X92945000Y-88976939D01*
X92984774Y-89176898D01*
X93062795Y-89365256D01*
X93176063Y-89534774D01*
X93320226Y-89678937D01*
X93489744Y-89792205D01*
X93678102Y-89870226D01*
X93878061Y-89910000D01*
X94081939Y-89910000D01*
X94281898Y-89870226D01*
X94418863Y-89813493D01*
X94977000Y-90371630D01*
X94977000Y-90430939D01*
X95016774Y-90630898D01*
X95094795Y-90819256D01*
X95208063Y-90988774D01*
X95352226Y-91132937D01*
X95521744Y-91246205D01*
X95710102Y-91324226D01*
X95910061Y-91364000D01*
X96113939Y-91364000D01*
X96313898Y-91324226D01*
X96502256Y-91246205D01*
X96671774Y-91132937D01*
X96815937Y-90988774D01*
X96929205Y-90819256D01*
X97007226Y-90630898D01*
X97047000Y-90430939D01*
X97047000Y-90227061D01*
X97007226Y-90027102D01*
X96929205Y-89838744D01*
X96815937Y-89669226D01*
X96671774Y-89525063D01*
X96502256Y-89411795D01*
X96313898Y-89333774D01*
X96113939Y-89294000D01*
X96054630Y-89294000D01*
X95123284Y-88362654D01*
X95099422Y-88333578D01*
X94983392Y-88238355D01*
X94851015Y-88167598D01*
X94707378Y-88124026D01*
X94691137Y-88122426D01*
X94639774Y-88071063D01*
X94470256Y-87957795D01*
X94281898Y-87879774D01*
X94081939Y-87840000D01*
X93878061Y-87840000D01*
X93678102Y-87879774D01*
X93489744Y-87957795D01*
X93320226Y-88071063D01*
X93176063Y-88215226D01*
X93062795Y-88384744D01*
X92984774Y-88573102D01*
X92945000Y-88773061D01*
X92944999Y-88773061D01*
X92944999Y-87649000D01*
X93065939Y-87649000D01*
X93265898Y-87609226D01*
X93454256Y-87531205D01*
X93623774Y-87417937D01*
X93665711Y-87376000D01*
X93688577Y-87376000D01*
X93726000Y-87379686D01*
X93763423Y-87376000D01*
X93763426Y-87376000D01*
X93875378Y-87364974D01*
X94019015Y-87321402D01*
X94151392Y-87250645D01*
X94267422Y-87155422D01*
X94291284Y-87126346D01*
X94315630Y-87102000D01*
X105389993Y-87102000D01*
X105409976Y-87304895D01*
X105469159Y-87499993D01*
X105565266Y-87679797D01*
X105604004Y-87727000D01*
X105565266Y-87774203D01*
X105469159Y-87954007D01*
X105409976Y-88149105D01*
X105389993Y-88352000D01*
X105409976Y-88554895D01*
X105469159Y-88749993D01*
X105565266Y-88929797D01*
X105604004Y-88977000D01*
X105565266Y-89024203D01*
X105469159Y-89204007D01*
X105409976Y-89399105D01*
X105389993Y-89602000D01*
X105409976Y-89804895D01*
X105469159Y-89999993D01*
X105565266Y-90179797D01*
X105694604Y-90337396D01*
X105852203Y-90466734D01*
X106032007Y-90562841D01*
X106227105Y-90622024D01*
X106379162Y-90637000D01*
X106980838Y-90637000D01*
X107132895Y-90622024D01*
X107327993Y-90562841D01*
X107507797Y-90466734D01*
X107665396Y-90337396D01*
X107794734Y-90179797D01*
X107890841Y-89999993D01*
X107950024Y-89804895D01*
X107970007Y-89602000D01*
X107950024Y-89399105D01*
X107890841Y-89204007D01*
X107794734Y-89024203D01*
X107755996Y-88977000D01*
X107794734Y-88929797D01*
X107890841Y-88749993D01*
X107950024Y-88554895D01*
X107970007Y-88352000D01*
X107950024Y-88149105D01*
X107890841Y-87954007D01*
X107794734Y-87774203D01*
X107755996Y-87727000D01*
X107794734Y-87679797D01*
X107890841Y-87499993D01*
X107950024Y-87304895D01*
X107970007Y-87102000D01*
X107950024Y-86899105D01*
X107890841Y-86704007D01*
X107805259Y-86543894D01*
X107826831Y-86517608D01*
X107904278Y-86372716D01*
X107951969Y-86215500D01*
X107968072Y-86052000D01*
X107968072Y-85652000D01*
X107951969Y-85488500D01*
X107904278Y-85331284D01*
X107826831Y-85186392D01*
X107722606Y-85059394D01*
X107595608Y-84955169D01*
X107450716Y-84877722D01*
X107293500Y-84830031D01*
X107130000Y-84813928D01*
X106230000Y-84813928D01*
X106066500Y-84830031D01*
X105909284Y-84877722D01*
X105764392Y-84955169D01*
X105637394Y-85059394D01*
X105533169Y-85186392D01*
X105455722Y-85331284D01*
X105408031Y-85488500D01*
X105391928Y-85652000D01*
X105391928Y-86052000D01*
X105408031Y-86215500D01*
X105455722Y-86372716D01*
X105533169Y-86517608D01*
X105554741Y-86543894D01*
X105469159Y-86704007D01*
X105409976Y-86899105D01*
X105389993Y-87102000D01*
X94315630Y-87102000D01*
X95546630Y-85871000D01*
X95605939Y-85871000D01*
X95805898Y-85831226D01*
X95994256Y-85753205D01*
X96163774Y-85639937D01*
X96307937Y-85495774D01*
X96421205Y-85326256D01*
X96499226Y-85137898D01*
X96539000Y-84937939D01*
X96539000Y-84734061D01*
X96499226Y-84534102D01*
X96421205Y-84345744D01*
X96307937Y-84176226D01*
X96163774Y-84032063D01*
X95994256Y-83918795D01*
X95805898Y-83840774D01*
X95605939Y-83801000D01*
X95402061Y-83801000D01*
X95202102Y-83840774D01*
X95013744Y-83918795D01*
X94844226Y-84032063D01*
X94700063Y-84176226D01*
X94586795Y-84345744D01*
X94508774Y-84534102D01*
X94469000Y-84734061D01*
X94469000Y-84793370D01*
X93520987Y-85741383D01*
X93454256Y-85696795D01*
X93265898Y-85618774D01*
X93102491Y-85586271D01*
X93119205Y-85561256D01*
X93197226Y-85372898D01*
X93237000Y-85172939D01*
X93237000Y-84969061D01*
X93197226Y-84769102D01*
X93119205Y-84580744D01*
X93005937Y-84411226D01*
X92861774Y-84267063D01*
X92692256Y-84153795D01*
X92503898Y-84075774D01*
X92303939Y-84036000D01*
X92100061Y-84036000D01*
X91900102Y-84075774D01*
X91711744Y-84153795D01*
X91542226Y-84267063D01*
X91398063Y-84411226D01*
X91284795Y-84580744D01*
X91206774Y-84769102D01*
X91167000Y-84969061D01*
X91167000Y-85172939D01*
X91206774Y-85372898D01*
X91284795Y-85561256D01*
X91398063Y-85730774D01*
X91440001Y-85772712D01*
X91440001Y-86063449D01*
X91432025Y-86089742D01*
X91422288Y-86188608D01*
X91417313Y-86239119D01*
X91420999Y-86276542D01*
X91421000Y-89599937D01*
X91339631Y-89681306D01*
X91226363Y-89850824D01*
X91148342Y-90039182D01*
X91108568Y-90239141D01*
X89968072Y-90239141D01*
X89968072Y-83007000D01*
X89955812Y-82882518D01*
X89919502Y-82762820D01*
X89860537Y-82652506D01*
X89781185Y-82555815D01*
X89684494Y-82476463D01*
X89574180Y-82417498D01*
X89454482Y-82381188D01*
X89330000Y-82368928D01*
X88288731Y-82368928D01*
X88266646Y-82327609D01*
X88266645Y-82327607D01*
X88231857Y-82285219D01*
X88171422Y-82211578D01*
X88142347Y-82187717D01*
X87288704Y-81334074D01*
X87264842Y-81304998D01*
X87148812Y-81209775D01*
X87016435Y-81139018D01*
X86872798Y-81095446D01*
X86760846Y-81084420D01*
X86760843Y-81084420D01*
X86723420Y-81080734D01*
X86685997Y-81084420D01*
X84171191Y-81084420D01*
X83742480Y-80655710D01*
X83742480Y-80596401D01*
X83702706Y-80396442D01*
X83624685Y-80208084D01*
X83511417Y-80038566D01*
X83367254Y-79894403D01*
X83197736Y-79781135D01*
X83009378Y-79703114D01*
X82809419Y-79663340D01*
X82677000Y-79663340D01*
X82677000Y-61492468D01*
X82705205Y-61450256D01*
X82783226Y-61261898D01*
X82823000Y-61061939D01*
X82823000Y-60858061D01*
X82783226Y-60658102D01*
X82705205Y-60469744D01*
X82677000Y-60427532D01*
X82677000Y-58003897D01*
X82846841Y-58037680D01*
X82906149Y-58037680D01*
X83170900Y-58302431D01*
X83194758Y-58331502D01*
X83223828Y-58355359D01*
X83310787Y-58426725D01*
X83381544Y-58464545D01*
X83443165Y-58497482D01*
X83586802Y-58541054D01*
X83698754Y-58552080D01*
X83698757Y-58552080D01*
X83736180Y-58555766D01*
X83773603Y-58552080D01*
X85846450Y-58552080D01*
X86168298Y-58873928D01*
X85930000Y-58873928D01*
X85805518Y-58886188D01*
X85685820Y-58922498D01*
X85575506Y-58981463D01*
X85478815Y-59060815D01*
X85399463Y-59157506D01*
X85340498Y-59267820D01*
X85304188Y-59387518D01*
X85291928Y-59512000D01*
X85291928Y-69012000D01*
X85304188Y-69136482D01*
X85340498Y-69256180D01*
X85399463Y-69366494D01*
X85478815Y-69463185D01*
X85575506Y-69542537D01*
X85685820Y-69601502D01*
X85805518Y-69637812D01*
X85930000Y-69650072D01*
X89330000Y-69650072D01*
X89454482Y-69637812D01*
X89574180Y-69601502D01*
X89684494Y-69542537D01*
X89781185Y-69463185D01*
X89860537Y-69366494D01*
X89919502Y-69256180D01*
X89955812Y-69136482D01*
X89968072Y-69012000D01*
X89968072Y-66566061D01*
X91122749Y-66566061D01*
X91122749Y-66769939D01*
X91162523Y-66969898D01*
X91240544Y-67158256D01*
X91353812Y-67327774D01*
X91497975Y-67471937D01*
X91667493Y-67585205D01*
X91855851Y-67663226D01*
X92055810Y-67703000D01*
X92259688Y-67703000D01*
X92459647Y-67663226D01*
X92648005Y-67585205D01*
X92817523Y-67471937D01*
X92961686Y-67327774D01*
X93074954Y-67158256D01*
X93152975Y-66969898D01*
X93192749Y-66769939D01*
X93192749Y-66566061D01*
X93152975Y-66366102D01*
X93145891Y-66349000D01*
X93319939Y-66349000D01*
X93519898Y-66309226D01*
X93708256Y-66231205D01*
X93877774Y-66117937D01*
X93919711Y-66076000D01*
X93954370Y-66076000D01*
X94723000Y-66844631D01*
X94723000Y-66903939D01*
X94762774Y-67103898D01*
X94840795Y-67292256D01*
X94954063Y-67461774D01*
X95098226Y-67605937D01*
X95267744Y-67719205D01*
X95456102Y-67797226D01*
X95656061Y-67837000D01*
X95859939Y-67837000D01*
X96059898Y-67797226D01*
X96248256Y-67719205D01*
X96417774Y-67605937D01*
X96561937Y-67461774D01*
X96675205Y-67292256D01*
X96753226Y-67103898D01*
X96793000Y-66903939D01*
X96793000Y-66700061D01*
X96753226Y-66500102D01*
X96675205Y-66311744D01*
X96561937Y-66142226D01*
X96417774Y-65998063D01*
X96248256Y-65884795D01*
X96059898Y-65806774D01*
X95859939Y-65767000D01*
X95800631Y-65767000D01*
X94835284Y-64801654D01*
X94811422Y-64772578D01*
X94695392Y-64677355D01*
X94563015Y-64606598D01*
X94419378Y-64563026D01*
X94307426Y-64552000D01*
X94307423Y-64552000D01*
X94270000Y-64548314D01*
X94232577Y-64552000D01*
X93919711Y-64552000D01*
X93877774Y-64510063D01*
X93708256Y-64396795D01*
X93519898Y-64318774D01*
X93319939Y-64279000D01*
X93116061Y-64279000D01*
X92916102Y-64318774D01*
X92818001Y-64359409D01*
X92818001Y-63799796D01*
X92981744Y-63909205D01*
X93170102Y-63987226D01*
X93370061Y-64027000D01*
X93573939Y-64027000D01*
X93773898Y-63987226D01*
X93962256Y-63909205D01*
X94131774Y-63795937D01*
X94173711Y-63754000D01*
X94196577Y-63754000D01*
X94234000Y-63757686D01*
X94271423Y-63754000D01*
X94271426Y-63754000D01*
X94383378Y-63742974D01*
X94527015Y-63699402D01*
X94659392Y-63628645D01*
X94775422Y-63533422D01*
X94799284Y-63504346D01*
X94823630Y-63480000D01*
X105389993Y-63480000D01*
X105409976Y-63682895D01*
X105469159Y-63877993D01*
X105565266Y-64057797D01*
X105604004Y-64105000D01*
X105565266Y-64152203D01*
X105469159Y-64332007D01*
X105409976Y-64527105D01*
X105389993Y-64730000D01*
X105409976Y-64932895D01*
X105469159Y-65127993D01*
X105565266Y-65307797D01*
X105604004Y-65355000D01*
X105565266Y-65402203D01*
X105469159Y-65582007D01*
X105409976Y-65777105D01*
X105389993Y-65980000D01*
X105409976Y-66182895D01*
X105469159Y-66377993D01*
X105565266Y-66557797D01*
X105694604Y-66715396D01*
X105852203Y-66844734D01*
X106032007Y-66940841D01*
X106227105Y-67000024D01*
X106379162Y-67015000D01*
X106980838Y-67015000D01*
X107132895Y-67000024D01*
X107327993Y-66940841D01*
X107507797Y-66844734D01*
X107665396Y-66715396D01*
X107794734Y-66557797D01*
X107890841Y-66377993D01*
X107950024Y-66182895D01*
X107970007Y-65980000D01*
X107950024Y-65777105D01*
X107890841Y-65582007D01*
X107794734Y-65402203D01*
X107755996Y-65355000D01*
X107794734Y-65307797D01*
X107890841Y-65127993D01*
X107950024Y-64932895D01*
X107970007Y-64730000D01*
X107950024Y-64527105D01*
X107890841Y-64332007D01*
X107794734Y-64152203D01*
X107755996Y-64105000D01*
X107794734Y-64057797D01*
X107890841Y-63877993D01*
X107950024Y-63682895D01*
X107970007Y-63480000D01*
X107950024Y-63277105D01*
X107890841Y-63082007D01*
X107805259Y-62921894D01*
X107826831Y-62895608D01*
X107904278Y-62750716D01*
X107951969Y-62593500D01*
X107968072Y-62430000D01*
X107968072Y-62030000D01*
X107951969Y-61866500D01*
X107904278Y-61709284D01*
X107826831Y-61564392D01*
X107722606Y-61437394D01*
X107595608Y-61333169D01*
X107450716Y-61255722D01*
X107293500Y-61208031D01*
X107130000Y-61191928D01*
X106230000Y-61191928D01*
X106066500Y-61208031D01*
X105909284Y-61255722D01*
X105764392Y-61333169D01*
X105637394Y-61437394D01*
X105533169Y-61564392D01*
X105455722Y-61709284D01*
X105408031Y-61866500D01*
X105391928Y-62030000D01*
X105391928Y-62430000D01*
X105408031Y-62593500D01*
X105455722Y-62750716D01*
X105533169Y-62895608D01*
X105554741Y-62921894D01*
X105469159Y-63082007D01*
X105409976Y-63277105D01*
X105389993Y-63480000D01*
X94823630Y-63480000D01*
X96054630Y-62249000D01*
X96113939Y-62249000D01*
X96313898Y-62209226D01*
X96502256Y-62131205D01*
X96671774Y-62017937D01*
X96815937Y-61873774D01*
X96929205Y-61704256D01*
X97007226Y-61515898D01*
X97047000Y-61315939D01*
X97047000Y-61112061D01*
X97007226Y-60912102D01*
X96929205Y-60723744D01*
X96815937Y-60554226D01*
X96671774Y-60410063D01*
X96502256Y-60296795D01*
X96313898Y-60218774D01*
X96113939Y-60179000D01*
X95910061Y-60179000D01*
X95710102Y-60218774D01*
X95521744Y-60296795D01*
X95352226Y-60410063D01*
X95208063Y-60554226D01*
X95094795Y-60723744D01*
X95016774Y-60912102D01*
X94977000Y-61112061D01*
X94977000Y-61171370D01*
X94028987Y-62119383D01*
X93962256Y-62074795D01*
X93773898Y-61996774D01*
X93573939Y-61957000D01*
X93370061Y-61957000D01*
X93360013Y-61958999D01*
X93373205Y-61939256D01*
X93451226Y-61750898D01*
X93491000Y-61550939D01*
X93491000Y-61347061D01*
X93451226Y-61147102D01*
X93373205Y-60958744D01*
X93259937Y-60789226D01*
X93115774Y-60645063D01*
X92946256Y-60531795D01*
X92757898Y-60453774D01*
X92557939Y-60414000D01*
X92354061Y-60414000D01*
X92154102Y-60453774D01*
X91965744Y-60531795D01*
X91796226Y-60645063D01*
X91652063Y-60789226D01*
X91538795Y-60958744D01*
X91460774Y-61147102D01*
X91421000Y-61347061D01*
X91421000Y-61421604D01*
X91419356Y-61423607D01*
X91411987Y-61437394D01*
X91348599Y-61555985D01*
X91305027Y-61699622D01*
X91300852Y-61742016D01*
X91290315Y-61848999D01*
X91294001Y-61886422D01*
X91294002Y-66097738D01*
X91240544Y-66177744D01*
X91162523Y-66366102D01*
X91122749Y-66566061D01*
X89968072Y-66566061D01*
X89968072Y-59512000D01*
X89955812Y-59387518D01*
X89919502Y-59267820D01*
X89860537Y-59157506D01*
X89781185Y-59060815D01*
X89684494Y-58981463D01*
X89574180Y-58922498D01*
X89454482Y-58886188D01*
X89330000Y-58873928D01*
X88288731Y-58873928D01*
X88266645Y-58832608D01*
X88171422Y-58716578D01*
X88142353Y-58692722D01*
X86727364Y-57277734D01*
X86703502Y-57248658D01*
X86587472Y-57153435D01*
X86455095Y-57082678D01*
X86311458Y-57039106D01*
X86199506Y-57028080D01*
X86199503Y-57028080D01*
X86162080Y-57024394D01*
X86124657Y-57028080D01*
X84051811Y-57028080D01*
X83983780Y-56960049D01*
X83983780Y-56900741D01*
X83944006Y-56700782D01*
X83865985Y-56512424D01*
X83752717Y-56342906D01*
X83608554Y-56198743D01*
X83439036Y-56085475D01*
X83250678Y-56007454D01*
X83050719Y-55967680D01*
X82846841Y-55967680D01*
X82677000Y-56001463D01*
X82677000Y-51676235D01*
X83818106Y-50535130D01*
X83867898Y-50525226D01*
X84056256Y-50447205D01*
X84225774Y-50333937D01*
X84369937Y-50189774D01*
X84483205Y-50020256D01*
X84561226Y-49831898D01*
X84601000Y-49631939D01*
X84601000Y-49428061D01*
X84566300Y-49253609D01*
X84566340Y-49253658D01*
X84701708Y-49364752D01*
X84856148Y-49447302D01*
X84922057Y-49467295D01*
X85023723Y-49498135D01*
X85056923Y-49501405D01*
X85154332Y-49510999D01*
X85154338Y-49510999D01*
X85197998Y-49515299D01*
X85241658Y-49510999D01*
X96513764Y-49510999D01*
X97800870Y-50798105D01*
X97810774Y-50847898D01*
X97888795Y-51036256D01*
X98002063Y-51205774D01*
X98146226Y-51349937D01*
X98315744Y-51463205D01*
X98504102Y-51541226D01*
X98704061Y-51581000D01*
X98907939Y-51581000D01*
X99107898Y-51541226D01*
X99296256Y-51463205D01*
X99465774Y-51349937D01*
X99609937Y-51205774D01*
X99723205Y-51036256D01*
X99801226Y-50847898D01*
X99841000Y-50647939D01*
X99841000Y-50444061D01*
X99801226Y-50244102D01*
X99723205Y-50055744D01*
X99609937Y-49886226D01*
X99465774Y-49742063D01*
X99296256Y-49628795D01*
X99107898Y-49550774D01*
X99058105Y-49540870D01*
X97541498Y-48024263D01*
X97513658Y-47990340D01*
X97378290Y-47879246D01*
X97223850Y-47796696D01*
X97056273Y-47745863D01*
X96925666Y-47732999D01*
X96925659Y-47732999D01*
X96881999Y-47728699D01*
X96838339Y-47732999D01*
X85566234Y-47732999D01*
X84987499Y-47154264D01*
X84959659Y-47120341D01*
X84824291Y-47009247D01*
X84669851Y-46926697D01*
X84502274Y-46875864D01*
X84371667Y-46863000D01*
X84371660Y-46863000D01*
X84328000Y-46858700D01*
X84284340Y-46863000D01*
X78021659Y-46863000D01*
X77977999Y-46858700D01*
X77934339Y-46863000D01*
X77934333Y-46863000D01*
X77836924Y-46872594D01*
X77803724Y-46875864D01*
X77702058Y-46906704D01*
X77636149Y-46926697D01*
X77481709Y-47009247D01*
X77346341Y-47120341D01*
X77318506Y-47154258D01*
X71030264Y-53442501D01*
X70996341Y-53470341D01*
X70885247Y-53605710D01*
X70802697Y-53760150D01*
X70751864Y-53927727D01*
X70739000Y-54058334D01*
X70739000Y-54058338D01*
X70734700Y-54102000D01*
X70739000Y-54145660D01*
X70739001Y-115253763D01*
X70254120Y-115738644D01*
X70215990Y-115646589D01*
X70053475Y-115403368D01*
X70000107Y-115350000D01*
X70053475Y-115296632D01*
X70215990Y-115053411D01*
X70327932Y-114783158D01*
X70385000Y-114496260D01*
X70385000Y-114203740D01*
X70327932Y-113916842D01*
X70215990Y-113646589D01*
X70053475Y-113403368D01*
X70000107Y-113350000D01*
X70053475Y-113296632D01*
X70215990Y-113053411D01*
X70327932Y-112783158D01*
X70385000Y-112496260D01*
X70385000Y-112203740D01*
X70327932Y-111916842D01*
X70215990Y-111646589D01*
X70053475Y-111403368D01*
X70000107Y-111350000D01*
X70053475Y-111296632D01*
X70215990Y-111053411D01*
X70327932Y-110783158D01*
X70385000Y-110496260D01*
X70385000Y-110203740D01*
X70327932Y-109916842D01*
X70215990Y-109646589D01*
X70053475Y-109403368D01*
X70000107Y-109350000D01*
X70053475Y-109296632D01*
X70215990Y-109053411D01*
X70327932Y-108783158D01*
X70385000Y-108496260D01*
X70385000Y-108203740D01*
X70327932Y-107916842D01*
X70215990Y-107646589D01*
X70053475Y-107403368D01*
X70000107Y-107350000D01*
X70053475Y-107296632D01*
X70215990Y-107053411D01*
X70327932Y-106783158D01*
X70385000Y-106496260D01*
X70385000Y-106203740D01*
X70327932Y-105916842D01*
X70215990Y-105646589D01*
X70053475Y-105403368D01*
X70000107Y-105350000D01*
X70053475Y-105296632D01*
X70215990Y-105053411D01*
X70327932Y-104783158D01*
X70385000Y-104496260D01*
X70385000Y-104203740D01*
X70327932Y-103916842D01*
X70215990Y-103646589D01*
X70053475Y-103403368D01*
X70000107Y-103350000D01*
X70053475Y-103296632D01*
X70215990Y-103053411D01*
X70327932Y-102783158D01*
X70385000Y-102496260D01*
X70385000Y-102203740D01*
X70327932Y-101916842D01*
X70215990Y-101646589D01*
X70053475Y-101403368D01*
X70000107Y-101350000D01*
X70053475Y-101296632D01*
X70215990Y-101053411D01*
X70327932Y-100783158D01*
X70385000Y-100496260D01*
X70385000Y-100203740D01*
X70327932Y-99916842D01*
X70215990Y-99646589D01*
X70053475Y-99403368D01*
X69846632Y-99196525D01*
X69603411Y-99034010D01*
X69333158Y-98922068D01*
X69046260Y-98865000D01*
X68753740Y-98865000D01*
X68466842Y-98922068D01*
X68196589Y-99034010D01*
X67953368Y-99196525D01*
X67746525Y-99403368D01*
X67584010Y-99646589D01*
X67472068Y-99916842D01*
X67415000Y-100203740D01*
X67415000Y-100496260D01*
X67472068Y-100783158D01*
X67584010Y-101053411D01*
X67746525Y-101296632D01*
X67799893Y-101350000D01*
X67746525Y-101403368D01*
X67584010Y-101646589D01*
X67472068Y-101916842D01*
X67415000Y-102203740D01*
X67415000Y-102496260D01*
X67472068Y-102783158D01*
X67584010Y-103053411D01*
X67746525Y-103296632D01*
X67799893Y-103350000D01*
X67746525Y-103403368D01*
X67584010Y-103646589D01*
X67472068Y-103916842D01*
X67415000Y-104203740D01*
X67415000Y-104496260D01*
X67472068Y-104783158D01*
X67584010Y-105053411D01*
X67746525Y-105296632D01*
X67799893Y-105350000D01*
X67746525Y-105403368D01*
X67584010Y-105646589D01*
X67472068Y-105916842D01*
X67415000Y-106203740D01*
X67415000Y-106496260D01*
X67472068Y-106783158D01*
X67584010Y-107053411D01*
X67746525Y-107296632D01*
X67799893Y-107350000D01*
X67746525Y-107403368D01*
X67584010Y-107646589D01*
X67472068Y-107916842D01*
X67415000Y-108203740D01*
X67415000Y-108496260D01*
X67472068Y-108783158D01*
X67584010Y-109053411D01*
X67746525Y-109296632D01*
X67799893Y-109350000D01*
X67746525Y-109403368D01*
X67584010Y-109646589D01*
X67472068Y-109916842D01*
X67415000Y-110203740D01*
X67415000Y-110496260D01*
X67472068Y-110783158D01*
X67584010Y-111053411D01*
X67746525Y-111296632D01*
X67799893Y-111350000D01*
X67746525Y-111403368D01*
X67584010Y-111646589D01*
X67493275Y-111865645D01*
X62178749Y-106551119D01*
X62178744Y-106551113D01*
X61722000Y-106094370D01*
X61722000Y-60479175D01*
X61811834Y-60569009D01*
X62055055Y-60731524D01*
X62325308Y-60843466D01*
X62612206Y-60900534D01*
X62904726Y-60900534D01*
X63191624Y-60843466D01*
X63461877Y-60731524D01*
X63705098Y-60569009D01*
X63911941Y-60362166D01*
X64074456Y-60118945D01*
X64186398Y-59848692D01*
X64243466Y-59561794D01*
X64243466Y-59269274D01*
X64209571Y-59098872D01*
X64379973Y-59132767D01*
X64672493Y-59132767D01*
X64959391Y-59075699D01*
X65229644Y-58963757D01*
X65472865Y-58801242D01*
X65679708Y-58594399D01*
X65842223Y-58351178D01*
X65954165Y-58080925D01*
X66011233Y-57794027D01*
X66011233Y-57501507D01*
X65977338Y-57331105D01*
X66147740Y-57365000D01*
X66440260Y-57365000D01*
X66727158Y-57307932D01*
X66997411Y-57195990D01*
X67240632Y-57033475D01*
X67447475Y-56826632D01*
X67609990Y-56583411D01*
X67721932Y-56313158D01*
X67779000Y-56026260D01*
X67779000Y-55733740D01*
X67721932Y-55446842D01*
X67609990Y-55176589D01*
X67447475Y-54933368D01*
X67240632Y-54726525D01*
X66997411Y-54564010D01*
X66727158Y-54452068D01*
X66440260Y-54395000D01*
X66147740Y-54395000D01*
X65860842Y-54452068D01*
X65590589Y-54564010D01*
X65347368Y-54726525D01*
X65234808Y-54839085D01*
X65233635Y-54835218D01*
X65162878Y-54702841D01*
X65067655Y-54586811D01*
X65038585Y-54562954D01*
X64341960Y-53866330D01*
X64341960Y-53807021D01*
X64302186Y-53607062D01*
X64224165Y-53418704D01*
X64110897Y-53249186D01*
X63966734Y-53105023D01*
X63797216Y-52991755D01*
X63608858Y-52913734D01*
X63476145Y-52887336D01*
X63479226Y-52879898D01*
X63519000Y-52679939D01*
X63519000Y-52476061D01*
X63479226Y-52276102D01*
X63401205Y-52087744D01*
X63287937Y-51918226D01*
X63143774Y-51774063D01*
X62974256Y-51660795D01*
X62928524Y-51641852D01*
X63751376Y-50819000D01*
X63855939Y-50819000D01*
X64055898Y-50779226D01*
X64244256Y-50701205D01*
X64413774Y-50587937D01*
X64557937Y-50443774D01*
X64671205Y-50274256D01*
X64749226Y-50085898D01*
X64789000Y-49885939D01*
X64789000Y-49682061D01*
X64749226Y-49482102D01*
X64671205Y-49293744D01*
X64557937Y-49124226D01*
X64413774Y-48980063D01*
X64244256Y-48866795D01*
X64055898Y-48788774D01*
X63855939Y-48749000D01*
X63652061Y-48749000D01*
X63452102Y-48788774D01*
X63263744Y-48866795D01*
X63094226Y-48980063D01*
X62950063Y-49124226D01*
X62836795Y-49293744D01*
X62758774Y-49482102D01*
X62719000Y-49682061D01*
X62719000Y-49786624D01*
X59707168Y-52798457D01*
X59679315Y-52821316D01*
X59588090Y-52932472D01*
X59520306Y-53059289D01*
X59520305Y-53059290D01*
X59478562Y-53196896D01*
X59471145Y-53272213D01*
X59468001Y-53304140D01*
X59464469Y-53340000D01*
X59468000Y-53375855D01*
X59468000Y-53872533D01*
X59400476Y-53827415D01*
X59212118Y-53749394D01*
X59012159Y-53709620D01*
X58808281Y-53709620D01*
X58608322Y-53749394D01*
X58419964Y-53827415D01*
X58250446Y-53940683D01*
X58106283Y-54084846D01*
X57993015Y-54254364D01*
X57914994Y-54442722D01*
X57875220Y-54642681D01*
X39506010Y-54642681D01*
X39506010Y-52570041D01*
X45139660Y-52570041D01*
X45139660Y-52773919D01*
X45179434Y-52973878D01*
X45257455Y-53162236D01*
X45370723Y-53331754D01*
X45514886Y-53475917D01*
X45684404Y-53589185D01*
X45872762Y-53667206D01*
X46072721Y-53706980D01*
X46276599Y-53706980D01*
X46476558Y-53667206D01*
X46664916Y-53589185D01*
X46834434Y-53475917D01*
X46978597Y-53331754D01*
X47091865Y-53162236D01*
X47169886Y-52973878D01*
X47209660Y-52773919D01*
X47209660Y-52570041D01*
X47169886Y-52370082D01*
X47091865Y-52181724D01*
X46978597Y-52012206D01*
X46834434Y-51868043D01*
X46664916Y-51754775D01*
X46476558Y-51676754D01*
X46276599Y-51636980D01*
X46072721Y-51636980D01*
X45872762Y-51676754D01*
X45684404Y-51754775D01*
X45514886Y-51868043D01*
X45370723Y-52012206D01*
X45257455Y-52181724D01*
X45179434Y-52370082D01*
X45139660Y-52570041D01*
X39506010Y-52570041D01*
X39506010Y-42895177D01*
X41879178Y-40522010D01*
X44310559Y-40522010D01*
X54375419Y-50586870D01*
X54314063Y-50648226D01*
X54200795Y-50817744D01*
X54122774Y-51006102D01*
X54083000Y-51206061D01*
X54083000Y-51409939D01*
X54122774Y-51609898D01*
X54200795Y-51798256D01*
X54314063Y-51967774D01*
X54458226Y-52111937D01*
X54627744Y-52225205D01*
X54816102Y-52303226D01*
X55016061Y-52343000D01*
X55219939Y-52343000D01*
X55419898Y-52303226D01*
X55608256Y-52225205D01*
X55777774Y-52111937D01*
X55921937Y-51967774D01*
X56035205Y-51798256D01*
X56113226Y-51609898D01*
X56153000Y-51409939D01*
X56153000Y-51206061D01*
X56113226Y-51006102D01*
X56089815Y-50949583D01*
X56152729Y-50937068D01*
X56322889Y-50866586D01*
X56476028Y-50764262D01*
X56606262Y-50634028D01*
X56708586Y-50480889D01*
X56779068Y-50310729D01*
X56815000Y-50130089D01*
X56815000Y-49945911D01*
X56779068Y-49765271D01*
X56708586Y-49595111D01*
X56610000Y-49447566D01*
X56610000Y-43525931D01*
X62778833Y-37357098D01*
X82531000Y-37357098D01*
X82531000Y-37826902D01*
X82622654Y-38287679D01*
X82802440Y-38721721D01*
X83063450Y-39112349D01*
X83395651Y-39444550D01*
X83786279Y-39705560D01*
X84220321Y-39885346D01*
X84681098Y-39977000D01*
X85150902Y-39977000D01*
X85611679Y-39885346D01*
X86045721Y-39705560D01*
X86436349Y-39444550D01*
X86768550Y-39112349D01*
X87029560Y-38721721D01*
X87209346Y-38287679D01*
X87301000Y-37826902D01*
X87301000Y-37357098D01*
X87209346Y-36896321D01*
X87029560Y-36462279D01*
X86768550Y-36071651D01*
X86436349Y-35739450D01*
X86045721Y-35478440D01*
X85611679Y-35298654D01*
X85150902Y-35207000D01*
X84681098Y-35207000D01*
X84220321Y-35298654D01*
X83786279Y-35478440D01*
X83395651Y-35739450D01*
X83063450Y-36071651D01*
X82802440Y-36462279D01*
X82622654Y-36896321D01*
X82531000Y-37357098D01*
X62778833Y-37357098D01*
X65349608Y-34786323D01*
X72830497Y-34786323D01*
X72830497Y-35213677D01*
X72913870Y-35632821D01*
X73077412Y-36027645D01*
X73314837Y-36382977D01*
X73617023Y-36685163D01*
X73972355Y-36922588D01*
X74367179Y-37086130D01*
X74786323Y-37169503D01*
X75213677Y-37169503D01*
X75632821Y-37086130D01*
X76027645Y-36922588D01*
X76382977Y-36685163D01*
X76685163Y-36382977D01*
X76922588Y-36027645D01*
X77086130Y-35632821D01*
X77169503Y-35213677D01*
X77169503Y-34786323D01*
X77086130Y-34367179D01*
X76922588Y-33972355D01*
X76685163Y-33617023D01*
X76382977Y-33314837D01*
X76027645Y-33077412D01*
X75632821Y-32913870D01*
X75213677Y-32830497D01*
X74786323Y-32830497D01*
X74367179Y-32913870D01*
X73972355Y-33077412D01*
X73617023Y-33314837D01*
X73314837Y-33617023D01*
X73077412Y-33972355D01*
X72913870Y-34367179D01*
X72830497Y-34786323D01*
X65349608Y-34786323D01*
X68904154Y-31231778D01*
X70046367Y-31231778D01*
X70082222Y-31235309D01*
X70118077Y-31231778D01*
X70118082Y-31231778D01*
X70157427Y-31227903D01*
X70225326Y-31221216D01*
X70321190Y-31192136D01*
X70362933Y-31179473D01*
X70489751Y-31111688D01*
X70600907Y-31020463D01*
X70623769Y-30992606D01*
X71480205Y-30136171D01*
X71735740Y-30187000D01*
X72028260Y-30187000D01*
X72315158Y-30129932D01*
X72585411Y-30017990D01*
X72828632Y-29855475D01*
X73035475Y-29648632D01*
X73197990Y-29405411D01*
X73309932Y-29135158D01*
X73367000Y-28848260D01*
X73367000Y-28555740D01*
X73309932Y-28268842D01*
X73197990Y-27998589D01*
X73035475Y-27755368D01*
X72828632Y-27548525D01*
X72654240Y-27432000D01*
X72828632Y-27315475D01*
X73035475Y-27108632D01*
X73197990Y-26865411D01*
X73309932Y-26595158D01*
X73367000Y-26308260D01*
X73367000Y-26015740D01*
X73309932Y-25728842D01*
X73295085Y-25692999D01*
X77063879Y-25692999D01*
X77064696Y-25695692D01*
X77115154Y-25790091D01*
X77147247Y-25850132D01*
X77221382Y-25940465D01*
X77258341Y-25985500D01*
X77292258Y-26013335D01*
X84896662Y-33617740D01*
X84924499Y-33651659D01*
X85059867Y-33762753D01*
X85214307Y-33845303D01*
X85308916Y-33874002D01*
X85381883Y-33896136D01*
X85400231Y-33897943D01*
X85512491Y-33909000D01*
X85512497Y-33909000D01*
X85556157Y-33913300D01*
X85599817Y-33909000D01*
X89390167Y-33909000D01*
X90685095Y-35203928D01*
X88166000Y-35203928D01*
X88041518Y-35216188D01*
X87921820Y-35252498D01*
X87811506Y-35311463D01*
X87714815Y-35390815D01*
X87635463Y-35487506D01*
X87576498Y-35597820D01*
X87540188Y-35717518D01*
X87527928Y-35842000D01*
X87527928Y-39342000D01*
X87540188Y-39466482D01*
X87576498Y-39586180D01*
X87635463Y-39696494D01*
X87714815Y-39793185D01*
X87811506Y-39872537D01*
X87921820Y-39931502D01*
X88041518Y-39967812D01*
X88166000Y-39980072D01*
X91666000Y-39980072D01*
X91790482Y-39967812D01*
X91910180Y-39931502D01*
X92020494Y-39872537D01*
X92117185Y-39793185D01*
X92196537Y-39696494D01*
X92255502Y-39586180D01*
X92291812Y-39466482D01*
X92304072Y-39342000D01*
X92304072Y-36822905D01*
X95885000Y-40403834D01*
X95885001Y-41631531D01*
X95856795Y-41673744D01*
X95778774Y-41862102D01*
X95739000Y-42062061D01*
X95739000Y-42265939D01*
X95778774Y-42465898D01*
X95856795Y-42654256D01*
X95970063Y-42823774D01*
X96114226Y-42967937D01*
X96283744Y-43081205D01*
X96472102Y-43159226D01*
X96672061Y-43199000D01*
X96875939Y-43199000D01*
X97075898Y-43159226D01*
X97264256Y-43081205D01*
X97433774Y-42967937D01*
X97577937Y-42823774D01*
X97691205Y-42654256D01*
X97769226Y-42465898D01*
X97809000Y-42265939D01*
X97809000Y-42062061D01*
X97769226Y-41862102D01*
X97691205Y-41673744D01*
X97663000Y-41631532D01*
X97663000Y-40079258D01*
X97667300Y-40035598D01*
X97663000Y-39991938D01*
X97663000Y-39991931D01*
X97650136Y-39861324D01*
X97599303Y-39693747D01*
X97516753Y-39539307D01*
X97405659Y-39403939D01*
X97371743Y-39376105D01*
X90417901Y-32422264D01*
X90390061Y-32388341D01*
X90254693Y-32277247D01*
X90100253Y-32194697D01*
X89932676Y-32143864D01*
X89802069Y-32131000D01*
X89802062Y-32131000D01*
X89758402Y-32126700D01*
X89714742Y-32131000D01*
X85924394Y-32131000D01*
X82560405Y-28767012D01*
X82767013Y-28628962D01*
X82952962Y-28443013D01*
X83099061Y-28224359D01*
X83199696Y-27981405D01*
X83251000Y-27723486D01*
X83251000Y-27460514D01*
X91581000Y-27460514D01*
X91581000Y-27723486D01*
X91632304Y-27981405D01*
X91732939Y-28224359D01*
X91879038Y-28443013D01*
X92064987Y-28628962D01*
X92283641Y-28775061D01*
X92526595Y-28875696D01*
X92784514Y-28927000D01*
X93047486Y-28927000D01*
X93305405Y-28875696D01*
X93548359Y-28775061D01*
X93767013Y-28628962D01*
X93952962Y-28443013D01*
X94099061Y-28224359D01*
X94199696Y-27981405D01*
X94251000Y-27723486D01*
X94251000Y-27460514D01*
X94199696Y-27202595D01*
X94099061Y-26959641D01*
X93952962Y-26740987D01*
X93767013Y-26555038D01*
X93548359Y-26408939D01*
X93305405Y-26308304D01*
X93047486Y-26257000D01*
X92784514Y-26257000D01*
X92526595Y-26308304D01*
X92283641Y-26408939D01*
X92064987Y-26555038D01*
X91879038Y-26740987D01*
X91732939Y-26959641D01*
X91632304Y-27202595D01*
X91581000Y-27460514D01*
X83251000Y-27460514D01*
X83199696Y-27202595D01*
X83099061Y-26959641D01*
X82952962Y-26740987D01*
X82767013Y-26555038D01*
X82548359Y-26408939D01*
X82305405Y-26308304D01*
X82047486Y-26257000D01*
X81784514Y-26257000D01*
X81526595Y-26308304D01*
X81283641Y-26408939D01*
X81064987Y-26555038D01*
X80879038Y-26740987D01*
X80740988Y-26947595D01*
X78778999Y-24985606D01*
X78778999Y-24847666D01*
X78783300Y-24803999D01*
X78766135Y-24629725D01*
X78715302Y-24462148D01*
X78632752Y-24307708D01*
X78521658Y-24172340D01*
X78386290Y-24061246D01*
X78231850Y-23978696D01*
X78064273Y-23927863D01*
X77933666Y-23914999D01*
X77889999Y-23910698D01*
X77846332Y-23914999D01*
X68203660Y-23914999D01*
X68160000Y-23910699D01*
X68116340Y-23914999D01*
X68116334Y-23914999D01*
X68018925Y-23924593D01*
X67985725Y-23927863D01*
X67884059Y-23958703D01*
X67818150Y-23978696D01*
X67663710Y-24061246D01*
X67528342Y-24172340D01*
X67500507Y-24206258D01*
X67016242Y-24690523D01*
X66948260Y-24677000D01*
X66655740Y-24677000D01*
X66368842Y-24734068D01*
X66098589Y-24846010D01*
X65855368Y-25008525D01*
X65648525Y-25215368D01*
X65486010Y-25458589D01*
X65374068Y-25728842D01*
X65317000Y-26015740D01*
X65317000Y-26308260D01*
X65374068Y-26595158D01*
X65486010Y-26865411D01*
X65648525Y-27108632D01*
X65780380Y-27240487D01*
X65707820Y-27262498D01*
X65597506Y-27321463D01*
X65500815Y-27400815D01*
X65421463Y-27497506D01*
X65362498Y-27607820D01*
X65326188Y-27727518D01*
X65313928Y-27852000D01*
X65313928Y-29552000D01*
X65326188Y-29676482D01*
X65362498Y-29796180D01*
X65421463Y-29906494D01*
X65500815Y-30003185D01*
X65597506Y-30082537D01*
X65707820Y-30141502D01*
X65827518Y-30177812D01*
X65952000Y-30190072D01*
X66072000Y-30190072D01*
X66072000Y-30304332D01*
X54943975Y-41432357D01*
X54798889Y-41335414D01*
X54628729Y-41264932D01*
X54448089Y-41229000D01*
X54263911Y-41229000D01*
X54083271Y-41264932D01*
X53913111Y-41335414D01*
X53759972Y-41437738D01*
X53629738Y-41567972D01*
X53527414Y-41721111D01*
X53456932Y-41891271D01*
X53421000Y-42071911D01*
X53421000Y-42256089D01*
X53456932Y-42436729D01*
X53527414Y-42606889D01*
X53570920Y-42672000D01*
X53527414Y-42737111D01*
X53456932Y-42907271D01*
X53421000Y-43087911D01*
X53421000Y-43272089D01*
X53456932Y-43452729D01*
X53527414Y-43622889D01*
X53570920Y-43688000D01*
X53527414Y-43753111D01*
X53456932Y-43923271D01*
X53421000Y-44103911D01*
X53421000Y-44288089D01*
X53456932Y-44468729D01*
X53527414Y-44638889D01*
X53629738Y-44792028D01*
X53759972Y-44922262D01*
X53913111Y-45024586D01*
X54083271Y-45095068D01*
X54263911Y-45131000D01*
X54448089Y-45131000D01*
X54628729Y-45095068D01*
X54798889Y-45024586D01*
X54952028Y-44922262D01*
X55082262Y-44792028D01*
X55150001Y-44690650D01*
X55150000Y-48654633D01*
X50102366Y-43607000D01*
X50168092Y-43607000D01*
X50348732Y-43571068D01*
X50518892Y-43500586D01*
X50672031Y-43398262D01*
X50802265Y-43268028D01*
X50904589Y-43114889D01*
X50975071Y-42944729D01*
X51011003Y-42764089D01*
X51011003Y-42579911D01*
X50975071Y-42399271D01*
X50904589Y-42229111D01*
X50806003Y-42081566D01*
X50806003Y-33662281D01*
X59084260Y-33662281D01*
X59084260Y-33866159D01*
X59124034Y-34066118D01*
X59202055Y-34254476D01*
X59315323Y-34423994D01*
X59459486Y-34568157D01*
X59629004Y-34681425D01*
X59817362Y-34759446D01*
X60017321Y-34799220D01*
X60221199Y-34799220D01*
X60421158Y-34759446D01*
X60609516Y-34681425D01*
X60779034Y-34568157D01*
X60923197Y-34423994D01*
X61036465Y-34254476D01*
X61114486Y-34066118D01*
X61154260Y-33866159D01*
X61154260Y-33662281D01*
X61114486Y-33462322D01*
X61036465Y-33273964D01*
X60923197Y-33104446D01*
X60779034Y-32960283D01*
X60609516Y-32847015D01*
X60421158Y-32768994D01*
X60221199Y-32729220D01*
X60017321Y-32729220D01*
X59817362Y-32768994D01*
X59629004Y-32847015D01*
X59459486Y-32960283D01*
X59315323Y-33104446D01*
X59202055Y-33273964D01*
X59124034Y-33462322D01*
X59084260Y-33662281D01*
X50806003Y-33662281D01*
X50806003Y-27818469D01*
X51053411Y-27715990D01*
X51296632Y-27553475D01*
X51503475Y-27346632D01*
X51620000Y-27172240D01*
X51736525Y-27346632D01*
X51943368Y-27553475D01*
X52186589Y-27715990D01*
X52456842Y-27827932D01*
X52743740Y-27885000D01*
X53036260Y-27885000D01*
X53323158Y-27827932D01*
X53593411Y-27715990D01*
X53836632Y-27553475D01*
X53968487Y-27421620D01*
X53990498Y-27494180D01*
X54049463Y-27604494D01*
X54128815Y-27701185D01*
X54225506Y-27780537D01*
X54335820Y-27839502D01*
X54455518Y-27875812D01*
X54580000Y-27888072D01*
X56280000Y-27888072D01*
X56404482Y-27875812D01*
X56524180Y-27839502D01*
X56634494Y-27780537D01*
X56731185Y-27701185D01*
X56810537Y-27604494D01*
X56869502Y-27494180D01*
X56905812Y-27374482D01*
X56918072Y-27250000D01*
X56918072Y-25550000D01*
X56905812Y-25425518D01*
X56869502Y-25305820D01*
X56810537Y-25195506D01*
X56731185Y-25098815D01*
X56634494Y-25019463D01*
X56524180Y-24960498D01*
X56404482Y-24924188D01*
X56280000Y-24911928D01*
X54580000Y-24911928D01*
X54455518Y-24924188D01*
X54335820Y-24960498D01*
X54225506Y-25019463D01*
X54128815Y-25098815D01*
X54049463Y-25195506D01*
X53990498Y-25305820D01*
X53968487Y-25378380D01*
X53836632Y-25246525D01*
X53593411Y-25084010D01*
X53323158Y-24972068D01*
X53036260Y-24915000D01*
X52743740Y-24915000D01*
X52456842Y-24972068D01*
X52186589Y-25084010D01*
X51943368Y-25246525D01*
X51736525Y-25453368D01*
X51620000Y-25627760D01*
X51503475Y-25453368D01*
X51296632Y-25246525D01*
X51053411Y-25084010D01*
X50783158Y-24972068D01*
X50496260Y-24915000D01*
X50203740Y-24915000D01*
X49916842Y-24972068D01*
X49646589Y-25084010D01*
X49403368Y-25246525D01*
X49196525Y-25453368D01*
X49080000Y-25627760D01*
X48963475Y-25453368D01*
X48756632Y-25246525D01*
X48513411Y-25084010D01*
X48243158Y-24972068D01*
X47956260Y-24915000D01*
X47663740Y-24915000D01*
X47376842Y-24972068D01*
X47106589Y-25084010D01*
X46863368Y-25246525D01*
X46656525Y-25453368D01*
X46494010Y-25696589D01*
X46382068Y-25966842D01*
X46325000Y-26253740D01*
X46325000Y-26546260D01*
X46382068Y-26833158D01*
X46494010Y-27103411D01*
X46656525Y-27346632D01*
X46863368Y-27553475D01*
X47080001Y-27698224D01*
X47080000Y-40584634D01*
X45353020Y-38857654D01*
X45329158Y-38828578D01*
X45213128Y-38733355D01*
X45080751Y-38662598D01*
X44937114Y-38619026D01*
X44825162Y-38608000D01*
X44825159Y-38608000D01*
X44787736Y-38604314D01*
X44750313Y-38608000D01*
X41439423Y-38608000D01*
X41402000Y-38604314D01*
X41364577Y-38608000D01*
X41364574Y-38608000D01*
X41252622Y-38619026D01*
X41108985Y-38662598D01*
X41047364Y-38695535D01*
X40976607Y-38733355D01*
X40893904Y-38801228D01*
X40860578Y-38828578D01*
X40836721Y-38857648D01*
X37841654Y-41852716D01*
X37812578Y-41876578D01*
X37772481Y-41925437D01*
X37717355Y-41992608D01*
X37702235Y-42020896D01*
X37646598Y-42124986D01*
X37603026Y-42268623D01*
X37594872Y-42351414D01*
X37588314Y-42418000D01*
X34573326Y-42418000D01*
X45381051Y-23698475D01*
X104618949Y-23698475D01*
X134237897Y-75000000D01*
G36*
X62271960Y-54010899D02*
G01*
X62311734Y-54210858D01*
X62389755Y-54399216D01*
X62503023Y-54568734D01*
X62647186Y-54712897D01*
X62816704Y-54826165D01*
X63005062Y-54904186D01*
X63205021Y-54943960D01*
X63264330Y-54943960D01*
X63764234Y-55443865D01*
X63764234Y-56370925D01*
X63579601Y-56494292D01*
X63372758Y-56701135D01*
X63210243Y-56944356D01*
X63098301Y-57214609D01*
X63041233Y-57501507D01*
X63041233Y-57794027D01*
X63075128Y-57964429D01*
X62904726Y-57930534D01*
X62612206Y-57930534D01*
X62325308Y-57987602D01*
X62055055Y-58099544D01*
X61811834Y-58262059D01*
X61722000Y-58351893D01*
X61722000Y-54417630D01*
X62271960Y-53867671D01*
X62271960Y-54010899D01*
G37*
X62271960Y-54010899D02*
X62311734Y-54210858D01*
X62389755Y-54399216D01*
X62503023Y-54568734D01*
X62647186Y-54712897D01*
X62816704Y-54826165D01*
X63005062Y-54904186D01*
X63205021Y-54943960D01*
X63264330Y-54943960D01*
X63764234Y-55443865D01*
X63764234Y-56370925D01*
X63579601Y-56494292D01*
X63372758Y-56701135D01*
X63210243Y-56944356D01*
X63098301Y-57214609D01*
X63041233Y-57501507D01*
X63041233Y-57794027D01*
X63075128Y-57964429D01*
X62904726Y-57930534D01*
X62612206Y-57930534D01*
X62325308Y-57987602D01*
X62055055Y-58099544D01*
X61811834Y-58262059D01*
X61722000Y-58351893D01*
X61722000Y-54417630D01*
X62271960Y-53867671D01*
X62271960Y-54010899D01*
G36*
X92730774Y-112823898D02*
G01*
X92774665Y-112929859D01*
X92710000Y-112886651D01*
X92710000Y-112719459D01*
X92730774Y-112823898D01*
G37*
X92730774Y-112823898D02*
X92774665Y-112929859D01*
X92710000Y-112886651D01*
X92710000Y-112719459D01*
X92730774Y-112823898D01*
G36*
X49196525Y-27346632D02*
G01*
X49346004Y-27496111D01*
X49346003Y-41709627D01*
X48540000Y-40903625D01*
X48540000Y-27698224D01*
X48756632Y-27553475D01*
X48963475Y-27346632D01*
X49080000Y-27172240D01*
X49196525Y-27346632D01*
G37*
X49196525Y-27346632D02*
X49346004Y-27496111D01*
X49346003Y-41709627D01*
X48540000Y-40903625D01*
X48540000Y-27698224D01*
X48756632Y-27553475D01*
X48963475Y-27346632D01*
X49080000Y-27172240D01*
X49196525Y-27346632D01*
G36*
X70728525Y-27108632D02*
G01*
X70935368Y-27315475D01*
X71109760Y-27432000D01*
X70935368Y-27548525D01*
X70728525Y-27755368D01*
X70612000Y-27929760D01*
X70495475Y-27755368D01*
X70288632Y-27548525D01*
X70114240Y-27432000D01*
X70288632Y-27315475D01*
X70495475Y-27108632D01*
X70612000Y-26934240D01*
X70728525Y-27108632D01*
G37*
X70728525Y-27108632D02*
X70935368Y-27315475D01*
X71109760Y-27432000D01*
X70935368Y-27548525D01*
X70728525Y-27755368D01*
X70612000Y-27929760D01*
X70495475Y-27755368D01*
X70288632Y-27548525D01*
X70114240Y-27432000D01*
X70288632Y-27315475D01*
X70495475Y-27108632D01*
X70612000Y-26934240D01*
X70728525Y-27108632D01*
M02*
