M48
; DRILL file {KiCad (5.1.5)-3} date 12/04/2020 16:42:01
; FORMAT={-:-/ absolute / inch / decimal}
; #@! TF.CreationDate,2020-04-12T16:42:01+08:00
; #@! TF.GenerationSoftware,Kicad,Pcbnew,(5.1.5)-3
; #@! TF.FileFunction,Plated,1,2,PTH
FMAT,2
INCH
T1C0.0118
T2C0.0138
T3C0.0157
T4C0.0173
T5C0.0197
T6C0.0276
T7C0.0394
T8C0.0748
%
G90
G05
T1
X1.94Y-1.68
X1.9715Y-1.68
X2.14Y-1.66
X2.14Y-1.7
X2.14Y-1.74
X2.2Y-1.97
X3.3988Y-4.2048
X3.3988Y-4.2749
X3.3988Y-4.345
X3.3988Y-4.415
X3.3988Y-4.4851
X3.3988Y-4.5552
X3.45Y-4.2048
X3.45Y-4.2749
X3.45Y-4.345
X3.45Y-4.415
X3.45Y-4.4851
X3.45Y-4.5552
X3.5012Y-4.2048
X3.5012Y-4.2749
X3.5012Y-4.345
X3.5012Y-4.415
X3.5012Y-4.4851
X3.5012Y-4.5552
X3.3988Y-3.2798
X3.3988Y-3.3499
X3.3988Y-3.42
X3.3988Y-3.49
X3.3988Y-3.5601
X3.3988Y-3.6302
X3.45Y-3.2798
X3.45Y-3.3499
X3.45Y-3.42
X3.45Y-3.49
X3.45Y-3.5601
X3.45Y-3.6302
X3.5012Y-3.2798
X3.5012Y-3.3499
X3.5012Y-3.42
X3.5012Y-3.49
X3.5012Y-3.5601
X3.5012Y-3.6302
X3.3988Y-2.3548
X3.3988Y-2.4249
X3.3988Y-2.495
X3.3988Y-2.565
X3.3988Y-2.6351
X3.3988Y-2.7052
X3.45Y-2.3548
X3.45Y-2.4249
X3.45Y-2.495
X3.45Y-2.565
X3.45Y-2.6351
X3.45Y-2.7052
X3.5012Y-2.3548
X3.5012Y-2.4249
X3.5012Y-2.495
X3.5012Y-2.565
X3.5012Y-2.6351
X3.5012Y-2.7052
T3
X1.044Y-2.7201
X1.11Y-2.4
X1.19Y-2.32
X1.3503Y-2.7702
X1.57Y-2.58
X1.8179Y-2.0737
X2.05Y-3.33
X2.17Y-2.02
X2.3193Y-2.1553
X2.3669Y-1.3293
X2.46Y-2.07
X2.4924Y-2.1224
X2.51Y-1.96
X2.95Y-4.35
X2.99Y-4.22
X3.01Y-3.3
X3.0298Y-2.5398
X3.04Y-3.14
X3.1Y-2.6
X3.22Y-2.4
X3.22Y-3.32
X3.22Y-4.25
X3.2562Y-3.1771
X3.2657Y-2.2442
X3.2666Y-4.1142
X3.29Y-1.95
X3.62Y-4.28
X3.6277Y-3.5567
X3.6283Y-2.6247
X3.63Y-3.3493
X3.63Y-4.48
X3.64Y-2.4193
X3.66Y-3.41
X3.67Y-2.5714
X3.6702Y-4.3202
X3.68Y-2.48
X3.69Y-4.43
X3.7Y-3.499
X3.76Y-3.34
X3.76Y-4.26
X3.76Y-4.49
X3.77Y-2.63
X3.78Y-2.41
X3.78Y-3.5563
X3.81Y-1.66
X3.89Y-1.99
T4
X0.83Y-2.8976
X0.83Y-2.9488
X0.83Y-3.0
X0.8694Y-2.9232
X0.8694Y-2.9744
T5
X4.2Y-2.45
X4.2Y-2.4992
X4.2Y-2.5484
X4.2Y-2.5976
X4.2Y-4.31
X4.2Y-4.3592
X4.2Y-4.4084
X4.2Y-4.4576
X4.2Y-3.38
X4.2Y-3.4292
X4.2Y-3.4784
X4.2Y-3.5276
T6
X1.8465Y-3.9508
X1.8465Y-4.0295
X1.8465Y-4.1083
X1.8465Y-4.187
X1.8465Y-4.2657
X1.8465Y-4.3445
X1.8465Y-4.4232
X1.8465Y-4.502
X1.8465Y-4.5807
X1.8465Y-4.6594
X2.7126Y-3.9508
X2.7126Y-4.0295
X2.7126Y-4.1083
X2.7126Y-4.187
X2.7126Y-4.2657
X2.7126Y-4.3445
X2.7126Y-4.4232
X2.7126Y-4.502
X2.7126Y-4.5807
X2.7126Y-4.6594
T7
X3.225Y-1.0863
X3.6581Y-1.0863
X2.63Y-1.03
X2.63Y-1.13
X2.73Y-1.03
X2.73Y-1.13
X2.83Y-1.03
X2.83Y-1.13
X2.4708Y-2.3392
X2.5404Y-2.2696
X2.61Y-2.2
X1.8823Y-1.0394
X1.9823Y-1.0394
X2.0823Y-1.0394
X2.1823Y-1.0394
T8
X3.3431Y-1.48
X3.54Y-1.48
T2
G00X0.819Y-2.8081
M15
G01X0.8583Y-2.8081
M16
G05
G00X0.819Y-3.0896
M15
G01X0.8583Y-3.0896
M16
G05
T0
M30
