G04 #@! TF.GenerationSoftware,KiCad,Pcbnew,(5.1.5)-3*
G04 #@! TF.CreationDate,2020-04-12T16:42:19+08:00*
G04 #@! TF.ProjectId,Misaka,4d697361-6b61-42e6-9b69-6361645f7063,rev?*
G04 #@! TF.SameCoordinates,Original*
G04 #@! TF.FileFunction,Legend,Top*
G04 #@! TF.FilePolarity,Positive*
%FSLAX46Y46*%
G04 Gerber Fmt 4.6, Leading zero omitted, Abs format (unit mm)*
G04 Created by KiCad (PCBNEW (5.1.5)-3) date 2020-04-12 16:42:19*
%MOMM*%
%LPD*%
G04 APERTURE LIST*
%ADD10C,0.050000*%
%ADD11C,0.120000*%
%ADD12C,0.150000*%
%ADD13C,0.100000*%
G04 APERTURE END LIST*
D10*
X45000000Y-23038475D02*
X105000000Y-23038475D01*
X14999999Y-74999999D02*
X45000000Y-23038475D01*
X44999999Y-126961524D02*
X14999999Y-74999999D01*
X104999999Y-126961524D02*
X44999999Y-126961524D01*
X135000000Y-75000000D02*
X104999999Y-126961524D01*
X105000000Y-23038475D02*
X135000000Y-75000000D01*
X111141016Y-95000000D02*
G75*
G03X111141016Y-95000000I-1500000J0D01*
G01*
X41858983Y-95000000D02*
G75*
G03X41858983Y-95000000I-1500000J0D01*
G01*
X76500000Y-35000000D02*
G75*
G03X76500000Y-35000000I-1500000J0D01*
G01*
D11*
X61670000Y-77530000D02*
X63730000Y-77530000D01*
X61670000Y-82270000D02*
X63730000Y-82270000D01*
X60330000Y-82270000D02*
X60730000Y-82270000D01*
X60330000Y-77530000D02*
X60330000Y-82270000D01*
X60330000Y-77530000D02*
X60730000Y-77530000D01*
X65070000Y-82270000D02*
X64670000Y-82270000D01*
X65070000Y-77530000D02*
X64670000Y-77530000D01*
X65070000Y-77530000D02*
X65070000Y-82270000D01*
X32053733Y-88710000D02*
X32396267Y-88710000D01*
X32053733Y-87690000D02*
X32396267Y-87690000D01*
X25065000Y-88935000D02*
X27525000Y-88935000D01*
X25065000Y-87465000D02*
X25065000Y-88935000D01*
X27525000Y-87465000D02*
X25065000Y-87465000D01*
X62528733Y-91310000D02*
X62871267Y-91310000D01*
X62528733Y-90290000D02*
X62871267Y-90290000D01*
X61954663Y-58735883D02*
G75*
G02X62440268Y-57329569I1687687J204233D01*
G01*
X65614349Y-55076195D02*
G75*
G03X64208035Y-55561802I-204232J-1687688D01*
G01*
X63438117Y-60219337D02*
G75*
G03X64844431Y-59733732I204233J1687687D01*
G01*
X67097805Y-56559651D02*
G75*
G02X66612198Y-57965965I-1687688J-204232D01*
G01*
X64208035Y-55561802D02*
X62440268Y-57329569D01*
X66612198Y-57965965D02*
X64844431Y-59733732D01*
X106534000Y-43144000D02*
X106534000Y-49154000D01*
X99714000Y-45394000D02*
X99714000Y-49154000D01*
X106534000Y-49154000D02*
X105274000Y-49154000D01*
X99714000Y-49154000D02*
X100974000Y-49154000D01*
X94342000Y-43144000D02*
X94342000Y-49154000D01*
X87522000Y-45394000D02*
X87522000Y-49154000D01*
X94342000Y-49154000D02*
X93082000Y-49154000D01*
X87522000Y-49154000D02*
X88782000Y-49154000D01*
X36830000Y-72664000D02*
X33380000Y-72664000D01*
X36830000Y-72664000D02*
X38780000Y-72664000D01*
X36830000Y-82784000D02*
X34880000Y-82784000D01*
X36830000Y-82784000D02*
X38780000Y-82784000D01*
D12*
X89955000Y-69012000D02*
X91030000Y-69012000D01*
X89955000Y-59236200D02*
X85305000Y-59236200D01*
X89955000Y-69237000D02*
X85305000Y-69237000D01*
X89955000Y-59236200D02*
X89955000Y-59561200D01*
X85305000Y-59236200D02*
X85305000Y-59561200D01*
X85305000Y-69237000D02*
X85305000Y-68912000D01*
X89955000Y-69237000D02*
X89955000Y-69012000D01*
X89955000Y-92507000D02*
X91030000Y-92507000D01*
X89955000Y-82731200D02*
X85305000Y-82731200D01*
X89955000Y-92732000D02*
X85305000Y-92732000D01*
X89955000Y-82731200D02*
X89955000Y-83056200D01*
X85305000Y-82731200D02*
X85305000Y-83056200D01*
X85305000Y-92732000D02*
X85305000Y-92407000D01*
X89955000Y-92732000D02*
X89955000Y-92507000D01*
D11*
X44939916Y-44694975D02*
X44027749Y-45607142D01*
X44444942Y-44200000D02*
X44939916Y-44694975D01*
X44939916Y-43705025D02*
X44444942Y-44200000D01*
X54500000Y-34144942D02*
X54994975Y-34639916D01*
X54005025Y-34639916D02*
X54500000Y-34144942D01*
X54500000Y-54255058D02*
X54005025Y-53760084D01*
X54994975Y-53760084D02*
X54500000Y-54255058D01*
X64555058Y-44200000D02*
X64060084Y-43705025D01*
X64060084Y-44694975D02*
X64555058Y-44200000D01*
D12*
X89955000Y-116002000D02*
X91030000Y-116002000D01*
X89955000Y-106226200D02*
X85305000Y-106226200D01*
X89955000Y-116227000D02*
X85305000Y-116227000D01*
X89955000Y-106226200D02*
X89955000Y-106551200D01*
X85305000Y-106226200D02*
X85305000Y-106551200D01*
X85305000Y-116227000D02*
X85305000Y-115902000D01*
X89955000Y-116227000D02*
X89955000Y-116002000D01*
D11*
X32743000Y-59917000D02*
X35203000Y-59917000D01*
X32743000Y-58447000D02*
X32743000Y-59917000D01*
X35203000Y-58447000D02*
X32743000Y-58447000D01*
X32743000Y-56361000D02*
X35203000Y-56361000D01*
X32743000Y-54891000D02*
X32743000Y-56361000D01*
X35203000Y-54891000D02*
X32743000Y-54891000D01*
X40214733Y-63248000D02*
X40557267Y-63248000D01*
X40214733Y-62228000D02*
X40557267Y-62228000D01*
X40214733Y-56136000D02*
X40557267Y-56136000D01*
X40214733Y-55116000D02*
X40557267Y-55116000D01*
X40214733Y-59692000D02*
X40557267Y-59692000D01*
X40214733Y-58672000D02*
X40557267Y-58672000D01*
X70529267Y-61466000D02*
X70186733Y-61466000D01*
X70529267Y-62486000D02*
X70186733Y-62486000D01*
X25364000Y-65574733D02*
X25364000Y-65917267D01*
X26384000Y-65574733D02*
X26384000Y-65917267D01*
X28954000Y-65574733D02*
X28954000Y-65917267D01*
X29974000Y-65574733D02*
X29974000Y-65917267D01*
X52749267Y-80262000D02*
X52406733Y-80262000D01*
X52749267Y-81282000D02*
X52406733Y-81282000D01*
X52406733Y-72053333D02*
X52749267Y-72053333D01*
X52406733Y-71033333D02*
X52749267Y-71033333D01*
X78290267Y-67308000D02*
X77947733Y-67308000D01*
X78290267Y-68328000D02*
X77947733Y-68328000D01*
X77439733Y-60962000D02*
X77782267Y-60962000D01*
X77439733Y-59942000D02*
X77782267Y-59942000D01*
X98634733Y-61724000D02*
X98977267Y-61724000D01*
X98634733Y-60704000D02*
X98977267Y-60704000D01*
X98888733Y-67820000D02*
X99231267Y-67820000D01*
X98888733Y-66800000D02*
X99231267Y-66800000D01*
X96324267Y-69594000D02*
X95981733Y-69594000D01*
X96324267Y-70614000D02*
X95981733Y-70614000D01*
X95981733Y-56136000D02*
X96324267Y-56136000D01*
X95981733Y-55116000D02*
X96324267Y-55116000D01*
X89885733Y-56136000D02*
X90228267Y-56136000D01*
X89885733Y-55116000D02*
X90228267Y-55116000D01*
X77528267Y-90930000D02*
X77185733Y-90930000D01*
X77528267Y-91950000D02*
X77185733Y-91950000D01*
X79471733Y-82298000D02*
X79814267Y-82298000D01*
X79471733Y-81278000D02*
X79814267Y-81278000D01*
X98239733Y-85092000D02*
X98582267Y-85092000D01*
X98239733Y-84072000D02*
X98582267Y-84072000D01*
X98267733Y-91442000D02*
X98610267Y-91442000D01*
X98267733Y-90422000D02*
X98610267Y-90422000D01*
X95280267Y-92708000D02*
X94937733Y-92708000D01*
X95280267Y-93728000D02*
X94937733Y-93728000D01*
X96235733Y-79758000D02*
X96578267Y-79758000D01*
X96235733Y-78738000D02*
X96578267Y-78738000D01*
X90252733Y-79758000D02*
X90595267Y-79758000D01*
X90252733Y-78738000D02*
X90595267Y-78738000D01*
X76004267Y-114298000D02*
X75661733Y-114298000D01*
X76004267Y-115318000D02*
X75661733Y-115318000D01*
X78455733Y-108206000D02*
X78798267Y-108206000D01*
X78455733Y-107186000D02*
X78798267Y-107186000D01*
X98380733Y-107952000D02*
X98723267Y-107952000D01*
X98380733Y-106932000D02*
X98723267Y-106932000D01*
X98380733Y-115064000D02*
X98723267Y-115064000D01*
X98380733Y-114044000D02*
X98723267Y-114044000D01*
X96235733Y-103634000D02*
X96578267Y-103634000D01*
X96235733Y-102614000D02*
X96578267Y-102614000D01*
X90139733Y-103634000D02*
X90482267Y-103634000D01*
X90139733Y-102614000D02*
X90482267Y-102614000D01*
X95534267Y-116584000D02*
X95191733Y-116584000D01*
X95534267Y-117604000D02*
X95191733Y-117604000D01*
D13*
X45500000Y-93250000D02*
X46000000Y-93250000D01*
X45500000Y-93250000D02*
X45500000Y-93750000D01*
X70300000Y-93250000D02*
X69800000Y-93250000D01*
X70300000Y-93250000D02*
X70300000Y-93750000D01*
X70300000Y-118850000D02*
X70300000Y-118350000D01*
X70300000Y-118850000D02*
X69900000Y-119250000D01*
X45500000Y-118850000D02*
X45900000Y-119250000D01*
X45500000Y-118850000D02*
X45500000Y-118350000D01*
X62700000Y-126450000D02*
X63100000Y-126050000D01*
X62700000Y-126450000D02*
X62200000Y-126450000D01*
X53100000Y-126450000D02*
X53600000Y-126450000D01*
X53100000Y-126450000D02*
X52700000Y-126050000D01*
X70300000Y-109350000D02*
X70300000Y-105550000D01*
X45500000Y-109350000D02*
X45500000Y-105550000D01*
D11*
X32771000Y-63473000D02*
X35231000Y-63473000D01*
X32771000Y-62003000D02*
X32771000Y-63473000D01*
X35231000Y-62003000D02*
X32771000Y-62003000D01*
X56760000Y-25070000D02*
X56760000Y-26400000D01*
X55430000Y-25070000D02*
X56760000Y-25070000D01*
X54160000Y-25070000D02*
X54160000Y-27730000D01*
X54160000Y-27730000D02*
X46480000Y-27730000D01*
X54160000Y-25070000D02*
X46480000Y-25070000D01*
X46480000Y-25070000D02*
X46480000Y-27730000D01*
D12*
X19402000Y-77200000D02*
X19402000Y-75200000D01*
X22902000Y-70750000D02*
X22427000Y-70750000D01*
X22902000Y-79050000D02*
X22902000Y-70750000D01*
X22427000Y-79050000D02*
X22902000Y-79050000D01*
X19702000Y-70750000D02*
X20177000Y-70750000D01*
X19702000Y-79050000D02*
X19702000Y-70750000D01*
X20177000Y-79050000D02*
X19702000Y-79050000D01*
D11*
X93066000Y-26482000D02*
G75*
G02X93066000Y-28702000I0J-1110000D01*
G01*
X81766000Y-28702000D02*
G75*
G02X81766000Y-26482000I0J1110000D01*
G01*
X92476000Y-24382000D02*
X92476000Y-26482000D01*
X81766000Y-28702000D02*
X82356000Y-28702000D01*
X81766000Y-26482000D02*
X82356000Y-26482000D01*
X92476000Y-26482000D02*
X93066000Y-26482000D01*
X92476000Y-28702000D02*
X93066000Y-28702000D01*
X92476000Y-28702000D02*
X92476000Y-33602000D01*
X82356000Y-24382000D02*
X82356000Y-26482000D01*
X82356000Y-28702000D02*
X82356000Y-33602000D01*
X82356000Y-33602000D02*
X92476000Y-33602000D01*
X82356000Y-24382000D02*
X92476000Y-24382000D01*
X65472000Y-30032000D02*
X65472000Y-28702000D01*
X66802000Y-30032000D02*
X65472000Y-30032000D01*
X65472000Y-27432000D02*
X65472000Y-24832000D01*
X68072000Y-27432000D02*
X65472000Y-27432000D01*
X68072000Y-30032000D02*
X68072000Y-27432000D01*
X65472000Y-24832000D02*
X73212000Y-24832000D01*
X68072000Y-30032000D02*
X73212000Y-30032000D01*
X73212000Y-30032000D02*
X73212000Y-24832000D01*
X82886000Y-45592000D02*
X75986000Y-45592000D01*
X82886000Y-42292000D02*
X75986000Y-42292000D01*
X82886000Y-45592000D02*
X82886000Y-42292000D01*
X97810250Y-35096750D02*
X97810250Y-35884250D01*
X97416500Y-35490500D02*
X98204000Y-35490500D01*
X98444000Y-39683563D02*
X99508437Y-40748000D01*
X98444000Y-34992437D02*
X99508437Y-33928000D01*
X98444000Y-34992437D02*
X98444000Y-36278000D01*
X98444000Y-39683563D02*
X98444000Y-38398000D01*
X99508437Y-40748000D02*
X105264000Y-40748000D01*
X99508437Y-33928000D02*
X105264000Y-33928000D01*
X105264000Y-33928000D02*
X105264000Y-36278000D01*
X105264000Y-40748000D02*
X105264000Y-38398000D01*
X97810250Y-26206750D02*
X97810250Y-26994250D01*
X97416500Y-26600500D02*
X98204000Y-26600500D01*
X98444000Y-30793563D02*
X99508437Y-31858000D01*
X98444000Y-26102437D02*
X99508437Y-25038000D01*
X98444000Y-26102437D02*
X98444000Y-27388000D01*
X98444000Y-30793563D02*
X98444000Y-29508000D01*
X99508437Y-31858000D02*
X105264000Y-31858000D01*
X99508437Y-25038000D02*
X105264000Y-25038000D01*
X105264000Y-25038000D02*
X105264000Y-27388000D01*
X105264000Y-31858000D02*
X105264000Y-29508000D01*
X87377000Y-71130000D02*
X82992000Y-71130000D01*
X87377000Y-74150000D02*
X87377000Y-71130000D01*
X82992000Y-74150000D02*
X87377000Y-74150000D01*
X87979000Y-94756000D02*
X83594000Y-94756000D01*
X87979000Y-97776000D02*
X87979000Y-94756000D01*
X83594000Y-97776000D02*
X87979000Y-97776000D01*
X86709000Y-118632000D02*
X82324000Y-118632000D01*
X86709000Y-121652000D02*
X86709000Y-118632000D01*
X82324000Y-121652000D02*
X86709000Y-121652000D01*
X77693733Y-73154000D02*
X78036267Y-73154000D01*
X77693733Y-72134000D02*
X78036267Y-72134000D01*
X78568733Y-96522000D02*
X78911267Y-96522000D01*
X78568733Y-95502000D02*
X78911267Y-95502000D01*
X76028733Y-123192000D02*
X76371267Y-123192000D01*
X76028733Y-122172000D02*
X76371267Y-122172000D01*
X77693733Y-76456000D02*
X78036267Y-76456000D01*
X77693733Y-75436000D02*
X78036267Y-75436000D01*
X78455733Y-99570000D02*
X78798267Y-99570000D01*
X78455733Y-98550000D02*
X78798267Y-98550000D01*
X76028733Y-119890000D02*
X76371267Y-119890000D01*
X76028733Y-118870000D02*
X76371267Y-118870000D01*
X107440000Y-32989733D02*
X107440000Y-33332267D01*
X108460000Y-32989733D02*
X108460000Y-33332267D01*
X52749267Y-75266666D02*
X52406733Y-75266666D01*
X52749267Y-76286666D02*
X52406733Y-76286666D01*
X46794267Y-65784000D02*
X46451733Y-65784000D01*
X46794267Y-66804000D02*
X46451733Y-66804000D01*
X27490267Y-70610000D02*
X27147733Y-70610000D01*
X27490267Y-71630000D02*
X27147733Y-71630000D01*
X84043733Y-56136000D02*
X84386267Y-56136000D01*
X84043733Y-55116000D02*
X84386267Y-55116000D01*
X96324267Y-73150000D02*
X95981733Y-73150000D01*
X96324267Y-74170000D02*
X95981733Y-74170000D01*
X90393733Y-74170000D02*
X90736267Y-74170000D01*
X90393733Y-73150000D02*
X90736267Y-73150000D01*
X84156733Y-79758000D02*
X84499267Y-79758000D01*
X84156733Y-78738000D02*
X84499267Y-78738000D01*
X95280267Y-96010000D02*
X94937733Y-96010000D01*
X95280267Y-97030000D02*
X94937733Y-97030000D01*
X90393733Y-97030000D02*
X90736267Y-97030000D01*
X90393733Y-96010000D02*
X90736267Y-96010000D01*
X84043733Y-103634000D02*
X84386267Y-103634000D01*
X84043733Y-102614000D02*
X84386267Y-102614000D01*
X95562267Y-119886000D02*
X95219733Y-119886000D01*
X95562267Y-120906000D02*
X95219733Y-120906000D01*
X90139733Y-120906000D02*
X90482267Y-120906000D01*
X90139733Y-119886000D02*
X90482267Y-119886000D01*
D12*
X66352380Y-81828571D02*
X65876190Y-82161904D01*
X66352380Y-82400000D02*
X65352380Y-82400000D01*
X65352380Y-82019047D01*
X65400000Y-81923809D01*
X65447619Y-81876190D01*
X65542857Y-81828571D01*
X65685714Y-81828571D01*
X65780952Y-81876190D01*
X65828571Y-81923809D01*
X65876190Y-82019047D01*
X65876190Y-82400000D01*
X65828571Y-81400000D02*
X65828571Y-81066666D01*
X66352380Y-80923809D02*
X66352380Y-81400000D01*
X65352380Y-81400000D01*
X65352380Y-80923809D01*
X66304761Y-80542857D02*
X66352380Y-80400000D01*
X66352380Y-80161904D01*
X66304761Y-80066666D01*
X66257142Y-80019047D01*
X66161904Y-79971428D01*
X66066666Y-79971428D01*
X65971428Y-80019047D01*
X65923809Y-80066666D01*
X65876190Y-80161904D01*
X65828571Y-80352380D01*
X65780952Y-80447619D01*
X65733333Y-80495238D01*
X65638095Y-80542857D01*
X65542857Y-80542857D01*
X65447619Y-80495238D01*
X65400000Y-80447619D01*
X65352380Y-80352380D01*
X65352380Y-80114285D01*
X65400000Y-79971428D01*
X65828571Y-79542857D02*
X65828571Y-79209523D01*
X66352380Y-79066666D02*
X66352380Y-79542857D01*
X65352380Y-79542857D01*
X65352380Y-79066666D01*
X65352380Y-78780952D02*
X65352380Y-78209523D01*
X66352380Y-78495238D02*
X65352380Y-78495238D01*
X66352380Y-77352380D02*
X66352380Y-77923809D01*
X66352380Y-77638095D02*
X65352380Y-77638095D01*
X65495238Y-77733333D01*
X65590476Y-77828571D01*
X65638095Y-77923809D01*
X31582142Y-87222380D02*
X31248809Y-86746190D01*
X31010714Y-87222380D02*
X31010714Y-86222380D01*
X31391666Y-86222380D01*
X31486904Y-86270000D01*
X31534523Y-86317619D01*
X31582142Y-86412857D01*
X31582142Y-86555714D01*
X31534523Y-86650952D01*
X31486904Y-86698571D01*
X31391666Y-86746190D01*
X31010714Y-86746190D01*
X31963095Y-86317619D02*
X32010714Y-86270000D01*
X32105952Y-86222380D01*
X32344047Y-86222380D01*
X32439285Y-86270000D01*
X32486904Y-86317619D01*
X32534523Y-86412857D01*
X32534523Y-86508095D01*
X32486904Y-86650952D01*
X31915476Y-87222380D01*
X32534523Y-87222380D01*
X32867857Y-86222380D02*
X33534523Y-86222380D01*
X33105952Y-87222380D01*
X26558333Y-87222380D02*
X26082142Y-87222380D01*
X26082142Y-86222380D01*
X26844047Y-86317619D02*
X26891666Y-86270000D01*
X26986904Y-86222380D01*
X27225000Y-86222380D01*
X27320238Y-86270000D01*
X27367857Y-86317619D01*
X27415476Y-86412857D01*
X27415476Y-86508095D01*
X27367857Y-86650952D01*
X26796428Y-87222380D01*
X27415476Y-87222380D01*
X62057142Y-89727142D02*
X62009523Y-89774761D01*
X61866666Y-89822380D01*
X61771428Y-89822380D01*
X61628571Y-89774761D01*
X61533333Y-89679523D01*
X61485714Y-89584285D01*
X61438095Y-89393809D01*
X61438095Y-89250952D01*
X61485714Y-89060476D01*
X61533333Y-88965238D01*
X61628571Y-88870000D01*
X61771428Y-88822380D01*
X61866666Y-88822380D01*
X62009523Y-88870000D01*
X62057142Y-88917619D01*
X63009523Y-89822380D02*
X62438095Y-89822380D01*
X62723809Y-89822380D02*
X62723809Y-88822380D01*
X62628571Y-88965238D01*
X62533333Y-89060476D01*
X62438095Y-89108095D01*
X63342857Y-88822380D02*
X63961904Y-88822380D01*
X63628571Y-89203333D01*
X63771428Y-89203333D01*
X63866666Y-89250952D01*
X63914285Y-89298571D01*
X63961904Y-89393809D01*
X63961904Y-89631904D01*
X63914285Y-89727142D01*
X63866666Y-89774761D01*
X63771428Y-89822380D01*
X63485714Y-89822380D01*
X63390476Y-89774761D01*
X63342857Y-89727142D01*
X66081867Y-59876836D02*
X66418585Y-60213554D01*
X65475776Y-59742149D02*
X66081867Y-59876836D01*
X65947180Y-59270745D01*
X67260378Y-59371760D02*
X66856317Y-59775821D01*
X67058348Y-59573790D02*
X66351241Y-58866684D01*
X66384913Y-59035042D01*
X66384913Y-59169729D01*
X66351241Y-59270745D01*
X107076380Y-48005904D02*
X107885904Y-48005904D01*
X107981142Y-47958285D01*
X108028761Y-47910666D01*
X108076380Y-47815428D01*
X108076380Y-47624952D01*
X108028761Y-47529714D01*
X107981142Y-47482095D01*
X107885904Y-47434476D01*
X107076380Y-47434476D01*
X107076380Y-47053523D02*
X107076380Y-46386857D01*
X108076380Y-46815428D01*
X94884380Y-48005904D02*
X95693904Y-48005904D01*
X95789142Y-47958285D01*
X95836761Y-47910666D01*
X95884380Y-47815428D01*
X95884380Y-47624952D01*
X95836761Y-47529714D01*
X95789142Y-47482095D01*
X95693904Y-47434476D01*
X94884380Y-47434476D01*
X94884380Y-46529714D02*
X94884380Y-46720190D01*
X94932000Y-46815428D01*
X94979619Y-46863047D01*
X95122476Y-46958285D01*
X95312952Y-47005904D01*
X95693904Y-47005904D01*
X95789142Y-46958285D01*
X95836761Y-46910666D01*
X95884380Y-46815428D01*
X95884380Y-46624952D01*
X95836761Y-46529714D01*
X95789142Y-46482095D01*
X95693904Y-46434476D01*
X95455809Y-46434476D01*
X95360571Y-46482095D01*
X95312952Y-46529714D01*
X95265333Y-46624952D01*
X95265333Y-46815428D01*
X95312952Y-46910666D01*
X95360571Y-46958285D01*
X95455809Y-47005904D01*
X36068095Y-71276380D02*
X36068095Y-72085904D01*
X36115714Y-72181142D01*
X36163333Y-72228761D01*
X36258571Y-72276380D01*
X36449047Y-72276380D01*
X36544285Y-72228761D01*
X36591904Y-72181142D01*
X36639523Y-72085904D01*
X36639523Y-71276380D01*
X37591904Y-71276380D02*
X37115714Y-71276380D01*
X37068095Y-71752571D01*
X37115714Y-71704952D01*
X37210952Y-71657333D01*
X37449047Y-71657333D01*
X37544285Y-71704952D01*
X37591904Y-71752571D01*
X37639523Y-71847809D01*
X37639523Y-72085904D01*
X37591904Y-72181142D01*
X37544285Y-72228761D01*
X37449047Y-72276380D01*
X37210952Y-72276380D01*
X37115714Y-72228761D01*
X37068095Y-72181142D01*
X86868095Y-69614380D02*
X86868095Y-70423904D01*
X86915714Y-70519142D01*
X86963333Y-70566761D01*
X87058571Y-70614380D01*
X87249047Y-70614380D01*
X87344285Y-70566761D01*
X87391904Y-70519142D01*
X87439523Y-70423904D01*
X87439523Y-69614380D01*
X88344285Y-69947714D02*
X88344285Y-70614380D01*
X88106190Y-69566761D02*
X87868095Y-70281047D01*
X88487142Y-70281047D01*
X86868095Y-93109380D02*
X86868095Y-93918904D01*
X86915714Y-94014142D01*
X86963333Y-94061761D01*
X87058571Y-94109380D01*
X87249047Y-94109380D01*
X87344285Y-94061761D01*
X87391904Y-94014142D01*
X87439523Y-93918904D01*
X87439523Y-93109380D01*
X87820476Y-93109380D02*
X88439523Y-93109380D01*
X88106190Y-93490333D01*
X88249047Y-93490333D01*
X88344285Y-93537952D01*
X88391904Y-93585571D01*
X88439523Y-93680809D01*
X88439523Y-93918904D01*
X88391904Y-94014142D01*
X88344285Y-94061761D01*
X88249047Y-94109380D01*
X87963333Y-94109380D01*
X87868095Y-94061761D01*
X87820476Y-94014142D01*
X46962578Y-37740074D02*
X47534998Y-38312494D01*
X47636013Y-38346166D01*
X47703357Y-38346166D01*
X47804372Y-38312494D01*
X47939059Y-38177807D01*
X47972731Y-38076792D01*
X47972731Y-38009448D01*
X47939059Y-37908433D01*
X47366639Y-37336013D01*
X47737029Y-37100311D02*
X47737029Y-37032968D01*
X47770700Y-36931952D01*
X47939059Y-36763594D01*
X48040074Y-36729922D01*
X48107418Y-36729922D01*
X48208433Y-36763594D01*
X48275777Y-36830937D01*
X48343120Y-36965624D01*
X48343120Y-37773746D01*
X48780853Y-37336013D01*
X86868095Y-116604380D02*
X86868095Y-117413904D01*
X86915714Y-117509142D01*
X86963333Y-117556761D01*
X87058571Y-117604380D01*
X87249047Y-117604380D01*
X87344285Y-117556761D01*
X87391904Y-117509142D01*
X87439523Y-117413904D01*
X87439523Y-116604380D01*
X88439523Y-117604380D02*
X87868095Y-117604380D01*
X88153809Y-117604380D02*
X88153809Y-116604380D01*
X88058571Y-116747238D01*
X87963333Y-116842476D01*
X87868095Y-116890095D01*
X33164904Y-57204380D02*
X33736333Y-57204380D01*
X33450619Y-58204380D02*
X33450619Y-57204380D01*
X33974428Y-57204380D02*
X34641095Y-58204380D01*
X34641095Y-57204380D02*
X33974428Y-58204380D01*
X35545857Y-58204380D02*
X34974428Y-58204380D01*
X35260142Y-58204380D02*
X35260142Y-57204380D01*
X35164904Y-57347238D01*
X35069666Y-57442476D01*
X34974428Y-57490095D01*
X33760142Y-54648380D02*
X33426809Y-54172190D01*
X33188714Y-54648380D02*
X33188714Y-53648380D01*
X33569666Y-53648380D01*
X33664904Y-53696000D01*
X33712523Y-53743619D01*
X33760142Y-53838857D01*
X33760142Y-53981714D01*
X33712523Y-54076952D01*
X33664904Y-54124571D01*
X33569666Y-54172190D01*
X33188714Y-54172190D01*
X34093476Y-53648380D02*
X34760142Y-54648380D01*
X34760142Y-53648380D02*
X34093476Y-54648380D01*
X35664904Y-54648380D02*
X35093476Y-54648380D01*
X35379190Y-54648380D02*
X35379190Y-53648380D01*
X35283952Y-53791238D01*
X35188714Y-53886476D01*
X35093476Y-53934095D01*
X39743142Y-61760380D02*
X39409809Y-61284190D01*
X39171714Y-61760380D02*
X39171714Y-60760380D01*
X39552666Y-60760380D01*
X39647904Y-60808000D01*
X39695523Y-60855619D01*
X39743142Y-60950857D01*
X39743142Y-61093714D01*
X39695523Y-61188952D01*
X39647904Y-61236571D01*
X39552666Y-61284190D01*
X39171714Y-61284190D01*
X40076476Y-60760380D02*
X40695523Y-60760380D01*
X40362190Y-61141333D01*
X40505047Y-61141333D01*
X40600285Y-61188952D01*
X40647904Y-61236571D01*
X40695523Y-61331809D01*
X40695523Y-61569904D01*
X40647904Y-61665142D01*
X40600285Y-61712761D01*
X40505047Y-61760380D01*
X40219333Y-61760380D01*
X40124095Y-61712761D01*
X40076476Y-61665142D01*
X41600285Y-60760380D02*
X41124095Y-60760380D01*
X41076476Y-61236571D01*
X41124095Y-61188952D01*
X41219333Y-61141333D01*
X41457428Y-61141333D01*
X41552666Y-61188952D01*
X41600285Y-61236571D01*
X41647904Y-61331809D01*
X41647904Y-61569904D01*
X41600285Y-61665142D01*
X41552666Y-61712761D01*
X41457428Y-61760380D01*
X41219333Y-61760380D01*
X41124095Y-61712761D01*
X41076476Y-61665142D01*
X39743142Y-54648380D02*
X39409809Y-54172190D01*
X39171714Y-54648380D02*
X39171714Y-53648380D01*
X39552666Y-53648380D01*
X39647904Y-53696000D01*
X39695523Y-53743619D01*
X39743142Y-53838857D01*
X39743142Y-53981714D01*
X39695523Y-54076952D01*
X39647904Y-54124571D01*
X39552666Y-54172190D01*
X39171714Y-54172190D01*
X40076476Y-53648380D02*
X40695523Y-53648380D01*
X40362190Y-54029333D01*
X40505047Y-54029333D01*
X40600285Y-54076952D01*
X40647904Y-54124571D01*
X40695523Y-54219809D01*
X40695523Y-54457904D01*
X40647904Y-54553142D01*
X40600285Y-54600761D01*
X40505047Y-54648380D01*
X40219333Y-54648380D01*
X40124095Y-54600761D01*
X40076476Y-54553142D01*
X41552666Y-53981714D02*
X41552666Y-54648380D01*
X41314571Y-53600761D02*
X41076476Y-54315047D01*
X41695523Y-54315047D01*
X39743142Y-58204380D02*
X39409809Y-57728190D01*
X39171714Y-58204380D02*
X39171714Y-57204380D01*
X39552666Y-57204380D01*
X39647904Y-57252000D01*
X39695523Y-57299619D01*
X39743142Y-57394857D01*
X39743142Y-57537714D01*
X39695523Y-57632952D01*
X39647904Y-57680571D01*
X39552666Y-57728190D01*
X39171714Y-57728190D01*
X40076476Y-57204380D02*
X40695523Y-57204380D01*
X40362190Y-57585333D01*
X40505047Y-57585333D01*
X40600285Y-57632952D01*
X40647904Y-57680571D01*
X40695523Y-57775809D01*
X40695523Y-58013904D01*
X40647904Y-58109142D01*
X40600285Y-58156761D01*
X40505047Y-58204380D01*
X40219333Y-58204380D01*
X40124095Y-58156761D01*
X40076476Y-58109142D01*
X41028857Y-57204380D02*
X41647904Y-57204380D01*
X41314571Y-57585333D01*
X41457428Y-57585333D01*
X41552666Y-57632952D01*
X41600285Y-57680571D01*
X41647904Y-57775809D01*
X41647904Y-58013904D01*
X41600285Y-58109142D01*
X41552666Y-58156761D01*
X41457428Y-58204380D01*
X41171714Y-58204380D01*
X41076476Y-58156761D01*
X41028857Y-58109142D01*
X69715142Y-63858380D02*
X69381809Y-63382190D01*
X69143714Y-63858380D02*
X69143714Y-62858380D01*
X69524666Y-62858380D01*
X69619904Y-62906000D01*
X69667523Y-62953619D01*
X69715142Y-63048857D01*
X69715142Y-63191714D01*
X69667523Y-63286952D01*
X69619904Y-63334571D01*
X69524666Y-63382190D01*
X69143714Y-63382190D01*
X70096095Y-62953619D02*
X70143714Y-62906000D01*
X70238952Y-62858380D01*
X70477047Y-62858380D01*
X70572285Y-62906000D01*
X70619904Y-62953619D01*
X70667523Y-63048857D01*
X70667523Y-63144095D01*
X70619904Y-63286952D01*
X70048476Y-63858380D01*
X70667523Y-63858380D01*
X71524666Y-62858380D02*
X71334190Y-62858380D01*
X71238952Y-62906000D01*
X71191333Y-62953619D01*
X71096095Y-63096476D01*
X71048476Y-63286952D01*
X71048476Y-63667904D01*
X71096095Y-63763142D01*
X71143714Y-63810761D01*
X71238952Y-63858380D01*
X71429428Y-63858380D01*
X71524666Y-63810761D01*
X71572285Y-63763142D01*
X71619904Y-63667904D01*
X71619904Y-63429809D01*
X71572285Y-63334571D01*
X71524666Y-63286952D01*
X71429428Y-63239333D01*
X71238952Y-63239333D01*
X71143714Y-63286952D01*
X71096095Y-63334571D01*
X71048476Y-63429809D01*
X27756380Y-66388857D02*
X27280190Y-66722190D01*
X27756380Y-66960285D02*
X26756380Y-66960285D01*
X26756380Y-66579333D01*
X26804000Y-66484095D01*
X26851619Y-66436476D01*
X26946857Y-66388857D01*
X27089714Y-66388857D01*
X27184952Y-66436476D01*
X27232571Y-66484095D01*
X27280190Y-66579333D01*
X27280190Y-66960285D01*
X26851619Y-66007904D02*
X26804000Y-65960285D01*
X26756380Y-65865047D01*
X26756380Y-65626952D01*
X26804000Y-65531714D01*
X26851619Y-65484095D01*
X26946857Y-65436476D01*
X27042095Y-65436476D01*
X27184952Y-65484095D01*
X27756380Y-66055523D01*
X27756380Y-65436476D01*
X26756380Y-64531714D02*
X26756380Y-65007904D01*
X27232571Y-65055523D01*
X27184952Y-65007904D01*
X27137333Y-64912666D01*
X27137333Y-64674571D01*
X27184952Y-64579333D01*
X27232571Y-64531714D01*
X27327809Y-64484095D01*
X27565904Y-64484095D01*
X27661142Y-64531714D01*
X27708761Y-64579333D01*
X27756380Y-64674571D01*
X27756380Y-64912666D01*
X27708761Y-65007904D01*
X27661142Y-65055523D01*
X31346380Y-66388857D02*
X30870190Y-66722190D01*
X31346380Y-66960285D02*
X30346380Y-66960285D01*
X30346380Y-66579333D01*
X30394000Y-66484095D01*
X30441619Y-66436476D01*
X30536857Y-66388857D01*
X30679714Y-66388857D01*
X30774952Y-66436476D01*
X30822571Y-66484095D01*
X30870190Y-66579333D01*
X30870190Y-66960285D01*
X30441619Y-66007904D02*
X30394000Y-65960285D01*
X30346380Y-65865047D01*
X30346380Y-65626952D01*
X30394000Y-65531714D01*
X30441619Y-65484095D01*
X30536857Y-65436476D01*
X30632095Y-65436476D01*
X30774952Y-65484095D01*
X31346380Y-66055523D01*
X31346380Y-65436476D01*
X30679714Y-64579333D02*
X31346380Y-64579333D01*
X30298761Y-64817428D02*
X31013047Y-65055523D01*
X31013047Y-64436476D01*
X51935142Y-82654380D02*
X51601809Y-82178190D01*
X51363714Y-82654380D02*
X51363714Y-81654380D01*
X51744666Y-81654380D01*
X51839904Y-81702000D01*
X51887523Y-81749619D01*
X51935142Y-81844857D01*
X51935142Y-81987714D01*
X51887523Y-82082952D01*
X51839904Y-82130571D01*
X51744666Y-82178190D01*
X51363714Y-82178190D01*
X52316095Y-81749619D02*
X52363714Y-81702000D01*
X52458952Y-81654380D01*
X52697047Y-81654380D01*
X52792285Y-81702000D01*
X52839904Y-81749619D01*
X52887523Y-81844857D01*
X52887523Y-81940095D01*
X52839904Y-82082952D01*
X52268476Y-82654380D01*
X52887523Y-82654380D01*
X53220857Y-81654380D02*
X53839904Y-81654380D01*
X53506571Y-82035333D01*
X53649428Y-82035333D01*
X53744666Y-82082952D01*
X53792285Y-82130571D01*
X53839904Y-82225809D01*
X53839904Y-82463904D01*
X53792285Y-82559142D01*
X53744666Y-82606761D01*
X53649428Y-82654380D01*
X53363714Y-82654380D01*
X53268476Y-82606761D01*
X53220857Y-82559142D01*
X51935142Y-70565713D02*
X51601809Y-70089523D01*
X51363714Y-70565713D02*
X51363714Y-69565713D01*
X51744666Y-69565713D01*
X51839904Y-69613333D01*
X51887523Y-69660952D01*
X51935142Y-69756190D01*
X51935142Y-69899047D01*
X51887523Y-69994285D01*
X51839904Y-70041904D01*
X51744666Y-70089523D01*
X51363714Y-70089523D01*
X52316095Y-69660952D02*
X52363714Y-69613333D01*
X52458952Y-69565713D01*
X52697047Y-69565713D01*
X52792285Y-69613333D01*
X52839904Y-69660952D01*
X52887523Y-69756190D01*
X52887523Y-69851428D01*
X52839904Y-69994285D01*
X52268476Y-70565713D01*
X52887523Y-70565713D01*
X53268476Y-69660952D02*
X53316095Y-69613333D01*
X53411333Y-69565713D01*
X53649428Y-69565713D01*
X53744666Y-69613333D01*
X53792285Y-69660952D01*
X53839904Y-69756190D01*
X53839904Y-69851428D01*
X53792285Y-69994285D01*
X53220857Y-70565713D01*
X53839904Y-70565713D01*
X77476142Y-69700380D02*
X77142809Y-69224190D01*
X76904714Y-69700380D02*
X76904714Y-68700380D01*
X77285666Y-68700380D01*
X77380904Y-68748000D01*
X77428523Y-68795619D01*
X77476142Y-68890857D01*
X77476142Y-69033714D01*
X77428523Y-69128952D01*
X77380904Y-69176571D01*
X77285666Y-69224190D01*
X76904714Y-69224190D01*
X77857095Y-68795619D02*
X77904714Y-68748000D01*
X77999952Y-68700380D01*
X78238047Y-68700380D01*
X78333285Y-68748000D01*
X78380904Y-68795619D01*
X78428523Y-68890857D01*
X78428523Y-68986095D01*
X78380904Y-69128952D01*
X77809476Y-69700380D01*
X78428523Y-69700380D01*
X79380904Y-69700380D02*
X78809476Y-69700380D01*
X79095190Y-69700380D02*
X79095190Y-68700380D01*
X78999952Y-68843238D01*
X78904714Y-68938476D01*
X78809476Y-68986095D01*
X76968142Y-59474380D02*
X76634809Y-58998190D01*
X76396714Y-59474380D02*
X76396714Y-58474380D01*
X76777666Y-58474380D01*
X76872904Y-58522000D01*
X76920523Y-58569619D01*
X76968142Y-58664857D01*
X76968142Y-58807714D01*
X76920523Y-58902952D01*
X76872904Y-58950571D01*
X76777666Y-58998190D01*
X76396714Y-58998190D01*
X77349095Y-58569619D02*
X77396714Y-58522000D01*
X77491952Y-58474380D01*
X77730047Y-58474380D01*
X77825285Y-58522000D01*
X77872904Y-58569619D01*
X77920523Y-58664857D01*
X77920523Y-58760095D01*
X77872904Y-58902952D01*
X77301476Y-59474380D01*
X77920523Y-59474380D01*
X78539571Y-58474380D02*
X78634809Y-58474380D01*
X78730047Y-58522000D01*
X78777666Y-58569619D01*
X78825285Y-58664857D01*
X78872904Y-58855333D01*
X78872904Y-59093428D01*
X78825285Y-59283904D01*
X78777666Y-59379142D01*
X78730047Y-59426761D01*
X78634809Y-59474380D01*
X78539571Y-59474380D01*
X78444333Y-59426761D01*
X78396714Y-59379142D01*
X78349095Y-59283904D01*
X78301476Y-59093428D01*
X78301476Y-58855333D01*
X78349095Y-58664857D01*
X78396714Y-58569619D01*
X78444333Y-58522000D01*
X78539571Y-58474380D01*
X98163142Y-60236380D02*
X97829809Y-59760190D01*
X97591714Y-60236380D02*
X97591714Y-59236380D01*
X97972666Y-59236380D01*
X98067904Y-59284000D01*
X98115523Y-59331619D01*
X98163142Y-59426857D01*
X98163142Y-59569714D01*
X98115523Y-59664952D01*
X98067904Y-59712571D01*
X97972666Y-59760190D01*
X97591714Y-59760190D01*
X99115523Y-60236380D02*
X98544095Y-60236380D01*
X98829809Y-60236380D02*
X98829809Y-59236380D01*
X98734571Y-59379238D01*
X98639333Y-59474476D01*
X98544095Y-59522095D01*
X99591714Y-60236380D02*
X99782190Y-60236380D01*
X99877428Y-60188761D01*
X99925047Y-60141142D01*
X100020285Y-59998285D01*
X100067904Y-59807809D01*
X100067904Y-59426857D01*
X100020285Y-59331619D01*
X99972666Y-59284000D01*
X99877428Y-59236380D01*
X99686952Y-59236380D01*
X99591714Y-59284000D01*
X99544095Y-59331619D01*
X99496476Y-59426857D01*
X99496476Y-59664952D01*
X99544095Y-59760190D01*
X99591714Y-59807809D01*
X99686952Y-59855428D01*
X99877428Y-59855428D01*
X99972666Y-59807809D01*
X100020285Y-59760190D01*
X100067904Y-59664952D01*
X98417142Y-66332380D02*
X98083809Y-65856190D01*
X97845714Y-66332380D02*
X97845714Y-65332380D01*
X98226666Y-65332380D01*
X98321904Y-65380000D01*
X98369523Y-65427619D01*
X98417142Y-65522857D01*
X98417142Y-65665714D01*
X98369523Y-65760952D01*
X98321904Y-65808571D01*
X98226666Y-65856190D01*
X97845714Y-65856190D01*
X99369523Y-66332380D02*
X98798095Y-66332380D01*
X99083809Y-66332380D02*
X99083809Y-65332380D01*
X98988571Y-65475238D01*
X98893333Y-65570476D01*
X98798095Y-65618095D01*
X99940952Y-65760952D02*
X99845714Y-65713333D01*
X99798095Y-65665714D01*
X99750476Y-65570476D01*
X99750476Y-65522857D01*
X99798095Y-65427619D01*
X99845714Y-65380000D01*
X99940952Y-65332380D01*
X100131428Y-65332380D01*
X100226666Y-65380000D01*
X100274285Y-65427619D01*
X100321904Y-65522857D01*
X100321904Y-65570476D01*
X100274285Y-65665714D01*
X100226666Y-65713333D01*
X100131428Y-65760952D01*
X99940952Y-65760952D01*
X99845714Y-65808571D01*
X99798095Y-65856190D01*
X99750476Y-65951428D01*
X99750476Y-66141904D01*
X99798095Y-66237142D01*
X99845714Y-66284761D01*
X99940952Y-66332380D01*
X100131428Y-66332380D01*
X100226666Y-66284761D01*
X100274285Y-66237142D01*
X100321904Y-66141904D01*
X100321904Y-65951428D01*
X100274285Y-65856190D01*
X100226666Y-65808571D01*
X100131428Y-65760952D01*
X95510142Y-71986380D02*
X95176809Y-71510190D01*
X94938714Y-71986380D02*
X94938714Y-70986380D01*
X95319666Y-70986380D01*
X95414904Y-71034000D01*
X95462523Y-71081619D01*
X95510142Y-71176857D01*
X95510142Y-71319714D01*
X95462523Y-71414952D01*
X95414904Y-71462571D01*
X95319666Y-71510190D01*
X94938714Y-71510190D01*
X96462523Y-71986380D02*
X95891095Y-71986380D01*
X96176809Y-71986380D02*
X96176809Y-70986380D01*
X96081571Y-71129238D01*
X95986333Y-71224476D01*
X95891095Y-71272095D01*
X96795857Y-70986380D02*
X97462523Y-70986380D01*
X97033952Y-71986380D01*
X95510142Y-54648380D02*
X95176809Y-54172190D01*
X94938714Y-54648380D02*
X94938714Y-53648380D01*
X95319666Y-53648380D01*
X95414904Y-53696000D01*
X95462523Y-53743619D01*
X95510142Y-53838857D01*
X95510142Y-53981714D01*
X95462523Y-54076952D01*
X95414904Y-54124571D01*
X95319666Y-54172190D01*
X94938714Y-54172190D01*
X96462523Y-54648380D02*
X95891095Y-54648380D01*
X96176809Y-54648380D02*
X96176809Y-53648380D01*
X96081571Y-53791238D01*
X95986333Y-53886476D01*
X95891095Y-53934095D01*
X97319666Y-53648380D02*
X97129190Y-53648380D01*
X97033952Y-53696000D01*
X96986333Y-53743619D01*
X96891095Y-53886476D01*
X96843476Y-54076952D01*
X96843476Y-54457904D01*
X96891095Y-54553142D01*
X96938714Y-54600761D01*
X97033952Y-54648380D01*
X97224428Y-54648380D01*
X97319666Y-54600761D01*
X97367285Y-54553142D01*
X97414904Y-54457904D01*
X97414904Y-54219809D01*
X97367285Y-54124571D01*
X97319666Y-54076952D01*
X97224428Y-54029333D01*
X97033952Y-54029333D01*
X96938714Y-54076952D01*
X96891095Y-54124571D01*
X96843476Y-54219809D01*
X89414142Y-54648380D02*
X89080809Y-54172190D01*
X88842714Y-54648380D02*
X88842714Y-53648380D01*
X89223666Y-53648380D01*
X89318904Y-53696000D01*
X89366523Y-53743619D01*
X89414142Y-53838857D01*
X89414142Y-53981714D01*
X89366523Y-54076952D01*
X89318904Y-54124571D01*
X89223666Y-54172190D01*
X88842714Y-54172190D01*
X90366523Y-54648380D02*
X89795095Y-54648380D01*
X90080809Y-54648380D02*
X90080809Y-53648380D01*
X89985571Y-53791238D01*
X89890333Y-53886476D01*
X89795095Y-53934095D01*
X91271285Y-53648380D02*
X90795095Y-53648380D01*
X90747476Y-54124571D01*
X90795095Y-54076952D01*
X90890333Y-54029333D01*
X91128428Y-54029333D01*
X91223666Y-54076952D01*
X91271285Y-54124571D01*
X91318904Y-54219809D01*
X91318904Y-54457904D01*
X91271285Y-54553142D01*
X91223666Y-54600761D01*
X91128428Y-54648380D01*
X90890333Y-54648380D01*
X90795095Y-54600761D01*
X90747476Y-54553142D01*
X76714142Y-93322380D02*
X76380809Y-92846190D01*
X76142714Y-93322380D02*
X76142714Y-92322380D01*
X76523666Y-92322380D01*
X76618904Y-92370000D01*
X76666523Y-92417619D01*
X76714142Y-92512857D01*
X76714142Y-92655714D01*
X76666523Y-92750952D01*
X76618904Y-92798571D01*
X76523666Y-92846190D01*
X76142714Y-92846190D01*
X77666523Y-93322380D02*
X77095095Y-93322380D01*
X77380809Y-93322380D02*
X77380809Y-92322380D01*
X77285571Y-92465238D01*
X77190333Y-92560476D01*
X77095095Y-92608095D01*
X78523666Y-92655714D02*
X78523666Y-93322380D01*
X78285571Y-92274761D02*
X78047476Y-92989047D01*
X78666523Y-92989047D01*
X79000142Y-80810380D02*
X78666809Y-80334190D01*
X78428714Y-80810380D02*
X78428714Y-79810380D01*
X78809666Y-79810380D01*
X78904904Y-79858000D01*
X78952523Y-79905619D01*
X79000142Y-80000857D01*
X79000142Y-80143714D01*
X78952523Y-80238952D01*
X78904904Y-80286571D01*
X78809666Y-80334190D01*
X78428714Y-80334190D01*
X79952523Y-80810380D02*
X79381095Y-80810380D01*
X79666809Y-80810380D02*
X79666809Y-79810380D01*
X79571571Y-79953238D01*
X79476333Y-80048476D01*
X79381095Y-80096095D01*
X80285857Y-79810380D02*
X80904904Y-79810380D01*
X80571571Y-80191333D01*
X80714428Y-80191333D01*
X80809666Y-80238952D01*
X80857285Y-80286571D01*
X80904904Y-80381809D01*
X80904904Y-80619904D01*
X80857285Y-80715142D01*
X80809666Y-80762761D01*
X80714428Y-80810380D01*
X80428714Y-80810380D01*
X80333476Y-80762761D01*
X80285857Y-80715142D01*
X97768142Y-83604380D02*
X97434809Y-83128190D01*
X97196714Y-83604380D02*
X97196714Y-82604380D01*
X97577666Y-82604380D01*
X97672904Y-82652000D01*
X97720523Y-82699619D01*
X97768142Y-82794857D01*
X97768142Y-82937714D01*
X97720523Y-83032952D01*
X97672904Y-83080571D01*
X97577666Y-83128190D01*
X97196714Y-83128190D01*
X98720523Y-83604380D02*
X98149095Y-83604380D01*
X98434809Y-83604380D02*
X98434809Y-82604380D01*
X98339571Y-82747238D01*
X98244333Y-82842476D01*
X98149095Y-82890095D01*
X99101476Y-82699619D02*
X99149095Y-82652000D01*
X99244333Y-82604380D01*
X99482428Y-82604380D01*
X99577666Y-82652000D01*
X99625285Y-82699619D01*
X99672904Y-82794857D01*
X99672904Y-82890095D01*
X99625285Y-83032952D01*
X99053857Y-83604380D01*
X99672904Y-83604380D01*
X97796142Y-89954380D02*
X97462809Y-89478190D01*
X97224714Y-89954380D02*
X97224714Y-88954380D01*
X97605666Y-88954380D01*
X97700904Y-89002000D01*
X97748523Y-89049619D01*
X97796142Y-89144857D01*
X97796142Y-89287714D01*
X97748523Y-89382952D01*
X97700904Y-89430571D01*
X97605666Y-89478190D01*
X97224714Y-89478190D01*
X98748523Y-89954380D02*
X98177095Y-89954380D01*
X98462809Y-89954380D02*
X98462809Y-88954380D01*
X98367571Y-89097238D01*
X98272333Y-89192476D01*
X98177095Y-89240095D01*
X99700904Y-89954380D02*
X99129476Y-89954380D01*
X99415190Y-89954380D02*
X99415190Y-88954380D01*
X99319952Y-89097238D01*
X99224714Y-89192476D01*
X99129476Y-89240095D01*
X94466142Y-95100380D02*
X94132809Y-94624190D01*
X93894714Y-95100380D02*
X93894714Y-94100380D01*
X94275666Y-94100380D01*
X94370904Y-94148000D01*
X94418523Y-94195619D01*
X94466142Y-94290857D01*
X94466142Y-94433714D01*
X94418523Y-94528952D01*
X94370904Y-94576571D01*
X94275666Y-94624190D01*
X93894714Y-94624190D01*
X95418523Y-95100380D02*
X94847095Y-95100380D01*
X95132809Y-95100380D02*
X95132809Y-94100380D01*
X95037571Y-94243238D01*
X94942333Y-94338476D01*
X94847095Y-94386095D01*
X96037571Y-94100380D02*
X96132809Y-94100380D01*
X96228047Y-94148000D01*
X96275666Y-94195619D01*
X96323285Y-94290857D01*
X96370904Y-94481333D01*
X96370904Y-94719428D01*
X96323285Y-94909904D01*
X96275666Y-95005142D01*
X96228047Y-95052761D01*
X96132809Y-95100380D01*
X96037571Y-95100380D01*
X95942333Y-95052761D01*
X95894714Y-95005142D01*
X95847095Y-94909904D01*
X95799476Y-94719428D01*
X95799476Y-94481333D01*
X95847095Y-94290857D01*
X95894714Y-94195619D01*
X95942333Y-94148000D01*
X96037571Y-94100380D01*
X96240333Y-78270380D02*
X95907000Y-77794190D01*
X95668904Y-78270380D02*
X95668904Y-77270380D01*
X96049857Y-77270380D01*
X96145095Y-77318000D01*
X96192714Y-77365619D01*
X96240333Y-77460857D01*
X96240333Y-77603714D01*
X96192714Y-77698952D01*
X96145095Y-77746571D01*
X96049857Y-77794190D01*
X95668904Y-77794190D01*
X96716523Y-78270380D02*
X96907000Y-78270380D01*
X97002238Y-78222761D01*
X97049857Y-78175142D01*
X97145095Y-78032285D01*
X97192714Y-77841809D01*
X97192714Y-77460857D01*
X97145095Y-77365619D01*
X97097476Y-77318000D01*
X97002238Y-77270380D01*
X96811761Y-77270380D01*
X96716523Y-77318000D01*
X96668904Y-77365619D01*
X96621285Y-77460857D01*
X96621285Y-77698952D01*
X96668904Y-77794190D01*
X96716523Y-77841809D01*
X96811761Y-77889428D01*
X97002238Y-77889428D01*
X97097476Y-77841809D01*
X97145095Y-77794190D01*
X97192714Y-77698952D01*
X90257333Y-78270380D02*
X89924000Y-77794190D01*
X89685904Y-78270380D02*
X89685904Y-77270380D01*
X90066857Y-77270380D01*
X90162095Y-77318000D01*
X90209714Y-77365619D01*
X90257333Y-77460857D01*
X90257333Y-77603714D01*
X90209714Y-77698952D01*
X90162095Y-77746571D01*
X90066857Y-77794190D01*
X89685904Y-77794190D01*
X90828761Y-77698952D02*
X90733523Y-77651333D01*
X90685904Y-77603714D01*
X90638285Y-77508476D01*
X90638285Y-77460857D01*
X90685904Y-77365619D01*
X90733523Y-77318000D01*
X90828761Y-77270380D01*
X91019238Y-77270380D01*
X91114476Y-77318000D01*
X91162095Y-77365619D01*
X91209714Y-77460857D01*
X91209714Y-77508476D01*
X91162095Y-77603714D01*
X91114476Y-77651333D01*
X91019238Y-77698952D01*
X90828761Y-77698952D01*
X90733523Y-77746571D01*
X90685904Y-77794190D01*
X90638285Y-77889428D01*
X90638285Y-78079904D01*
X90685904Y-78175142D01*
X90733523Y-78222761D01*
X90828761Y-78270380D01*
X91019238Y-78270380D01*
X91114476Y-78222761D01*
X91162095Y-78175142D01*
X91209714Y-78079904D01*
X91209714Y-77889428D01*
X91162095Y-77794190D01*
X91114476Y-77746571D01*
X91019238Y-77698952D01*
X75666333Y-116690380D02*
X75333000Y-116214190D01*
X75094904Y-116690380D02*
X75094904Y-115690380D01*
X75475857Y-115690380D01*
X75571095Y-115738000D01*
X75618714Y-115785619D01*
X75666333Y-115880857D01*
X75666333Y-116023714D01*
X75618714Y-116118952D01*
X75571095Y-116166571D01*
X75475857Y-116214190D01*
X75094904Y-116214190D01*
X75999666Y-115690380D02*
X76666333Y-115690380D01*
X76237761Y-116690380D01*
X78460333Y-106718380D02*
X78127000Y-106242190D01*
X77888904Y-106718380D02*
X77888904Y-105718380D01*
X78269857Y-105718380D01*
X78365095Y-105766000D01*
X78412714Y-105813619D01*
X78460333Y-105908857D01*
X78460333Y-106051714D01*
X78412714Y-106146952D01*
X78365095Y-106194571D01*
X78269857Y-106242190D01*
X77888904Y-106242190D01*
X79317476Y-105718380D02*
X79127000Y-105718380D01*
X79031761Y-105766000D01*
X78984142Y-105813619D01*
X78888904Y-105956476D01*
X78841285Y-106146952D01*
X78841285Y-106527904D01*
X78888904Y-106623142D01*
X78936523Y-106670761D01*
X79031761Y-106718380D01*
X79222238Y-106718380D01*
X79317476Y-106670761D01*
X79365095Y-106623142D01*
X79412714Y-106527904D01*
X79412714Y-106289809D01*
X79365095Y-106194571D01*
X79317476Y-106146952D01*
X79222238Y-106099333D01*
X79031761Y-106099333D01*
X78936523Y-106146952D01*
X78888904Y-106194571D01*
X78841285Y-106289809D01*
X98385333Y-106464380D02*
X98052000Y-105988190D01*
X97813904Y-106464380D02*
X97813904Y-105464380D01*
X98194857Y-105464380D01*
X98290095Y-105512000D01*
X98337714Y-105559619D01*
X98385333Y-105654857D01*
X98385333Y-105797714D01*
X98337714Y-105892952D01*
X98290095Y-105940571D01*
X98194857Y-105988190D01*
X97813904Y-105988190D01*
X99290095Y-105464380D02*
X98813904Y-105464380D01*
X98766285Y-105940571D01*
X98813904Y-105892952D01*
X98909142Y-105845333D01*
X99147238Y-105845333D01*
X99242476Y-105892952D01*
X99290095Y-105940571D01*
X99337714Y-106035809D01*
X99337714Y-106273904D01*
X99290095Y-106369142D01*
X99242476Y-106416761D01*
X99147238Y-106464380D01*
X98909142Y-106464380D01*
X98813904Y-106416761D01*
X98766285Y-106369142D01*
X98385333Y-113576380D02*
X98052000Y-113100190D01*
X97813904Y-113576380D02*
X97813904Y-112576380D01*
X98194857Y-112576380D01*
X98290095Y-112624000D01*
X98337714Y-112671619D01*
X98385333Y-112766857D01*
X98385333Y-112909714D01*
X98337714Y-113004952D01*
X98290095Y-113052571D01*
X98194857Y-113100190D01*
X97813904Y-113100190D01*
X99242476Y-112909714D02*
X99242476Y-113576380D01*
X99004380Y-112528761D02*
X98766285Y-113243047D01*
X99385333Y-113243047D01*
X96240333Y-102146380D02*
X95907000Y-101670190D01*
X95668904Y-102146380D02*
X95668904Y-101146380D01*
X96049857Y-101146380D01*
X96145095Y-101194000D01*
X96192714Y-101241619D01*
X96240333Y-101336857D01*
X96240333Y-101479714D01*
X96192714Y-101574952D01*
X96145095Y-101622571D01*
X96049857Y-101670190D01*
X95668904Y-101670190D01*
X96573666Y-101146380D02*
X97192714Y-101146380D01*
X96859380Y-101527333D01*
X97002238Y-101527333D01*
X97097476Y-101574952D01*
X97145095Y-101622571D01*
X97192714Y-101717809D01*
X97192714Y-101955904D01*
X97145095Y-102051142D01*
X97097476Y-102098761D01*
X97002238Y-102146380D01*
X96716523Y-102146380D01*
X96621285Y-102098761D01*
X96573666Y-102051142D01*
X90144333Y-102146380D02*
X89811000Y-101670190D01*
X89572904Y-102146380D02*
X89572904Y-101146380D01*
X89953857Y-101146380D01*
X90049095Y-101194000D01*
X90096714Y-101241619D01*
X90144333Y-101336857D01*
X90144333Y-101479714D01*
X90096714Y-101574952D01*
X90049095Y-101622571D01*
X89953857Y-101670190D01*
X89572904Y-101670190D01*
X90525285Y-101241619D02*
X90572904Y-101194000D01*
X90668142Y-101146380D01*
X90906238Y-101146380D01*
X91001476Y-101194000D01*
X91049095Y-101241619D01*
X91096714Y-101336857D01*
X91096714Y-101432095D01*
X91049095Y-101574952D01*
X90477666Y-102146380D01*
X91096714Y-102146380D01*
X95196333Y-118976380D02*
X94863000Y-118500190D01*
X94624904Y-118976380D02*
X94624904Y-117976380D01*
X95005857Y-117976380D01*
X95101095Y-118024000D01*
X95148714Y-118071619D01*
X95196333Y-118166857D01*
X95196333Y-118309714D01*
X95148714Y-118404952D01*
X95101095Y-118452571D01*
X95005857Y-118500190D01*
X94624904Y-118500190D01*
X96148714Y-118976380D02*
X95577285Y-118976380D01*
X95863000Y-118976380D02*
X95863000Y-117976380D01*
X95767761Y-118119238D01*
X95672523Y-118214476D01*
X95577285Y-118262095D01*
X56066666Y-128292380D02*
X56066666Y-127292380D01*
X56400000Y-128006666D01*
X56733333Y-127292380D01*
X56733333Y-128292380D01*
X57400000Y-127292380D02*
X57590476Y-127292380D01*
X57685714Y-127340000D01*
X57780952Y-127435238D01*
X57828571Y-127625714D01*
X57828571Y-127959047D01*
X57780952Y-128149523D01*
X57685714Y-128244761D01*
X57590476Y-128292380D01*
X57400000Y-128292380D01*
X57304761Y-128244761D01*
X57209523Y-128149523D01*
X57161904Y-127959047D01*
X57161904Y-127625714D01*
X57209523Y-127435238D01*
X57304761Y-127340000D01*
X57400000Y-127292380D01*
X58257142Y-128292380D02*
X58257142Y-127292380D01*
X58495238Y-127292380D01*
X58638095Y-127340000D01*
X58733333Y-127435238D01*
X58780952Y-127530476D01*
X58828571Y-127720952D01*
X58828571Y-127863809D01*
X58780952Y-128054285D01*
X58733333Y-128149523D01*
X58638095Y-128244761D01*
X58495238Y-128292380D01*
X58257142Y-128292380D01*
X59780952Y-128292380D02*
X59209523Y-128292380D01*
X59495238Y-128292380D02*
X59495238Y-127292380D01*
X59400000Y-127435238D01*
X59304761Y-127530476D01*
X59209523Y-127578095D01*
X34264333Y-61760380D02*
X33788142Y-61760380D01*
X33788142Y-60760380D01*
X35121476Y-61760380D02*
X34550047Y-61760380D01*
X34835761Y-61760380D02*
X34835761Y-60760380D01*
X34740523Y-60903238D01*
X34645285Y-60998476D01*
X34550047Y-61046095D01*
X57212380Y-26733333D02*
X57926666Y-26733333D01*
X58069523Y-26780952D01*
X58164761Y-26876190D01*
X58212380Y-27019047D01*
X58212380Y-27114285D01*
X57212380Y-25828571D02*
X57212380Y-26019047D01*
X57260000Y-26114285D01*
X57307619Y-26161904D01*
X57450476Y-26257142D01*
X57640952Y-26304761D01*
X58021904Y-26304761D01*
X58117142Y-26257142D01*
X58164761Y-26209523D01*
X58212380Y-26114285D01*
X58212380Y-25923809D01*
X58164761Y-25828571D01*
X58117142Y-25780952D01*
X58021904Y-25733333D01*
X57783809Y-25733333D01*
X57688571Y-25780952D01*
X57640952Y-25828571D01*
X57593333Y-25923809D01*
X57593333Y-26114285D01*
X57640952Y-26209523D01*
X57688571Y-26257142D01*
X57783809Y-26304761D01*
X18054380Y-75233333D02*
X18768666Y-75233333D01*
X18911523Y-75280952D01*
X19006761Y-75376190D01*
X19054380Y-75519047D01*
X19054380Y-75614285D01*
X18054380Y-74280952D02*
X18054380Y-74757142D01*
X18530571Y-74804761D01*
X18482952Y-74757142D01*
X18435333Y-74661904D01*
X18435333Y-74423809D01*
X18482952Y-74328571D01*
X18530571Y-74280952D01*
X18625809Y-74233333D01*
X18863904Y-74233333D01*
X18959142Y-74280952D01*
X19006761Y-74328571D01*
X19054380Y-74423809D01*
X19054380Y-74661904D01*
X19006761Y-74757142D01*
X18959142Y-74804761D01*
X87082666Y-22544380D02*
X87082666Y-23258666D01*
X87035047Y-23401523D01*
X86939809Y-23496761D01*
X86796952Y-23544380D01*
X86701714Y-23544380D01*
X88082666Y-23544380D02*
X87511238Y-23544380D01*
X87796952Y-23544380D02*
X87796952Y-22544380D01*
X87701714Y-22687238D01*
X87606476Y-22782476D01*
X87511238Y-22830095D01*
X81344571Y-37699142D02*
X82487428Y-37699142D01*
X81916000Y-38270571D02*
X81916000Y-37127714D01*
X92344571Y-37699142D02*
X93487428Y-37699142D01*
X64924380Y-29384380D02*
X63924380Y-29384380D01*
X64829142Y-28336761D02*
X64876761Y-28384380D01*
X64924380Y-28527238D01*
X64924380Y-28622476D01*
X64876761Y-28765333D01*
X64781523Y-28860571D01*
X64686285Y-28908190D01*
X64495809Y-28955809D01*
X64352952Y-28955809D01*
X64162476Y-28908190D01*
X64067238Y-28860571D01*
X63972000Y-28765333D01*
X63924380Y-28622476D01*
X63924380Y-28527238D01*
X63972000Y-28384380D01*
X64019619Y-28336761D01*
X64876761Y-27955809D02*
X64924380Y-27812952D01*
X64924380Y-27574857D01*
X64876761Y-27479619D01*
X64829142Y-27432000D01*
X64733904Y-27384380D01*
X64638666Y-27384380D01*
X64543428Y-27432000D01*
X64495809Y-27479619D01*
X64448190Y-27574857D01*
X64400571Y-27765333D01*
X64352952Y-27860571D01*
X64305333Y-27908190D01*
X64210095Y-27955809D01*
X64114857Y-27955809D01*
X64019619Y-27908190D01*
X63972000Y-27860571D01*
X63924380Y-27765333D01*
X63924380Y-27527238D01*
X63972000Y-27384380D01*
X64924380Y-26955809D02*
X63924380Y-26955809D01*
X63924380Y-26574857D01*
X63972000Y-26479619D01*
X64019619Y-26432000D01*
X64114857Y-26384380D01*
X64257714Y-26384380D01*
X64352952Y-26432000D01*
X64400571Y-26479619D01*
X64448190Y-26574857D01*
X64448190Y-26955809D01*
X64924380Y-25432000D02*
X64924380Y-26003428D01*
X64924380Y-25717714D02*
X63924380Y-25717714D01*
X64067238Y-25812952D01*
X64162476Y-25908190D01*
X64210095Y-26003428D01*
X77747904Y-46894380D02*
X77747904Y-45894380D01*
X77986000Y-45894380D01*
X78128857Y-45942000D01*
X78224095Y-46037238D01*
X78271714Y-46132476D01*
X78319333Y-46322952D01*
X78319333Y-46465809D01*
X78271714Y-46656285D01*
X78224095Y-46751523D01*
X78128857Y-46846761D01*
X77986000Y-46894380D01*
X77747904Y-46894380D01*
X78700285Y-45989619D02*
X78747904Y-45942000D01*
X78843142Y-45894380D01*
X79081238Y-45894380D01*
X79176476Y-45942000D01*
X79224095Y-45989619D01*
X79271714Y-46084857D01*
X79271714Y-46180095D01*
X79224095Y-46322952D01*
X78652666Y-46894380D01*
X79271714Y-46894380D01*
X101187333Y-33345142D02*
X101139714Y-33392761D01*
X100996857Y-33440380D01*
X100901619Y-33440380D01*
X100758761Y-33392761D01*
X100663523Y-33297523D01*
X100615904Y-33202285D01*
X100568285Y-33011809D01*
X100568285Y-32868952D01*
X100615904Y-32678476D01*
X100663523Y-32583238D01*
X100758761Y-32488000D01*
X100901619Y-32440380D01*
X100996857Y-32440380D01*
X101139714Y-32488000D01*
X101187333Y-32535619D01*
X101615904Y-33440380D02*
X101615904Y-32440380D01*
X101996857Y-32440380D01*
X102092095Y-32488000D01*
X102139714Y-32535619D01*
X102187333Y-32630857D01*
X102187333Y-32773714D01*
X102139714Y-32868952D01*
X102092095Y-32916571D01*
X101996857Y-32964190D01*
X101615904Y-32964190D01*
X103092095Y-32440380D02*
X102615904Y-32440380D01*
X102568285Y-32916571D01*
X102615904Y-32868952D01*
X102711142Y-32821333D01*
X102949238Y-32821333D01*
X103044476Y-32868952D01*
X103092095Y-32916571D01*
X103139714Y-33011809D01*
X103139714Y-33249904D01*
X103092095Y-33345142D01*
X103044476Y-33392761D01*
X102949238Y-33440380D01*
X102711142Y-33440380D01*
X102615904Y-33392761D01*
X102568285Y-33345142D01*
X101187333Y-24455142D02*
X101139714Y-24502761D01*
X100996857Y-24550380D01*
X100901619Y-24550380D01*
X100758761Y-24502761D01*
X100663523Y-24407523D01*
X100615904Y-24312285D01*
X100568285Y-24121809D01*
X100568285Y-23978952D01*
X100615904Y-23788476D01*
X100663523Y-23693238D01*
X100758761Y-23598000D01*
X100901619Y-23550380D01*
X100996857Y-23550380D01*
X101139714Y-23598000D01*
X101187333Y-23645619D01*
X101615904Y-24550380D02*
X101615904Y-23550380D01*
X101996857Y-23550380D01*
X102092095Y-23598000D01*
X102139714Y-23645619D01*
X102187333Y-23740857D01*
X102187333Y-23883714D01*
X102139714Y-23978952D01*
X102092095Y-24026571D01*
X101996857Y-24074190D01*
X101615904Y-24074190D01*
X103044476Y-23883714D02*
X103044476Y-24550380D01*
X102806380Y-23502761D02*
X102568285Y-24217047D01*
X103187333Y-24217047D01*
X84075333Y-75347142D02*
X84027714Y-75394761D01*
X83884857Y-75442380D01*
X83789619Y-75442380D01*
X83646761Y-75394761D01*
X83551523Y-75299523D01*
X83503904Y-75204285D01*
X83456285Y-75013809D01*
X83456285Y-74870952D01*
X83503904Y-74680476D01*
X83551523Y-74585238D01*
X83646761Y-74490000D01*
X83789619Y-74442380D01*
X83884857Y-74442380D01*
X84027714Y-74490000D01*
X84075333Y-74537619D01*
X84503904Y-75442380D02*
X84503904Y-74442380D01*
X84884857Y-74442380D01*
X84980095Y-74490000D01*
X85027714Y-74537619D01*
X85075333Y-74632857D01*
X85075333Y-74775714D01*
X85027714Y-74870952D01*
X84980095Y-74918571D01*
X84884857Y-74966190D01*
X84503904Y-74966190D01*
X85408666Y-74442380D02*
X86027714Y-74442380D01*
X85694380Y-74823333D01*
X85837238Y-74823333D01*
X85932476Y-74870952D01*
X85980095Y-74918571D01*
X86027714Y-75013809D01*
X86027714Y-75251904D01*
X85980095Y-75347142D01*
X85932476Y-75394761D01*
X85837238Y-75442380D01*
X85551523Y-75442380D01*
X85456285Y-75394761D01*
X85408666Y-75347142D01*
X84677333Y-98973142D02*
X84629714Y-99020761D01*
X84486857Y-99068380D01*
X84391619Y-99068380D01*
X84248761Y-99020761D01*
X84153523Y-98925523D01*
X84105904Y-98830285D01*
X84058285Y-98639809D01*
X84058285Y-98496952D01*
X84105904Y-98306476D01*
X84153523Y-98211238D01*
X84248761Y-98116000D01*
X84391619Y-98068380D01*
X84486857Y-98068380D01*
X84629714Y-98116000D01*
X84677333Y-98163619D01*
X85105904Y-99068380D02*
X85105904Y-98068380D01*
X85486857Y-98068380D01*
X85582095Y-98116000D01*
X85629714Y-98163619D01*
X85677333Y-98258857D01*
X85677333Y-98401714D01*
X85629714Y-98496952D01*
X85582095Y-98544571D01*
X85486857Y-98592190D01*
X85105904Y-98592190D01*
X86058285Y-98163619D02*
X86105904Y-98116000D01*
X86201142Y-98068380D01*
X86439238Y-98068380D01*
X86534476Y-98116000D01*
X86582095Y-98163619D01*
X86629714Y-98258857D01*
X86629714Y-98354095D01*
X86582095Y-98496952D01*
X86010666Y-99068380D01*
X86629714Y-99068380D01*
X83407333Y-122849142D02*
X83359714Y-122896761D01*
X83216857Y-122944380D01*
X83121619Y-122944380D01*
X82978761Y-122896761D01*
X82883523Y-122801523D01*
X82835904Y-122706285D01*
X82788285Y-122515809D01*
X82788285Y-122372952D01*
X82835904Y-122182476D01*
X82883523Y-122087238D01*
X82978761Y-121992000D01*
X83121619Y-121944380D01*
X83216857Y-121944380D01*
X83359714Y-121992000D01*
X83407333Y-122039619D01*
X83835904Y-122944380D02*
X83835904Y-121944380D01*
X84216857Y-121944380D01*
X84312095Y-121992000D01*
X84359714Y-122039619D01*
X84407333Y-122134857D01*
X84407333Y-122277714D01*
X84359714Y-122372952D01*
X84312095Y-122420571D01*
X84216857Y-122468190D01*
X83835904Y-122468190D01*
X85359714Y-122944380D02*
X84788285Y-122944380D01*
X85074000Y-122944380D02*
X85074000Y-121944380D01*
X84978761Y-122087238D01*
X84883523Y-122182476D01*
X84788285Y-122230095D01*
X75579285Y-71571142D02*
X75531666Y-71618761D01*
X75388809Y-71666380D01*
X75293571Y-71666380D01*
X75150714Y-71618761D01*
X75055476Y-71523523D01*
X75007857Y-71428285D01*
X74960238Y-71237809D01*
X74960238Y-71094952D01*
X75007857Y-70904476D01*
X75055476Y-70809238D01*
X75150714Y-70714000D01*
X75293571Y-70666380D01*
X75388809Y-70666380D01*
X75531666Y-70714000D01*
X75579285Y-70761619D01*
X76007857Y-71285428D02*
X76769761Y-71285428D01*
X77103095Y-70666380D02*
X77436428Y-71666380D01*
X77769761Y-70666380D01*
X78103095Y-71666380D02*
X78103095Y-70666380D01*
X78436428Y-71380666D01*
X78769761Y-70666380D01*
X78769761Y-71666380D01*
X79579285Y-71142571D02*
X79722142Y-71190190D01*
X79769761Y-71237809D01*
X79817380Y-71333047D01*
X79817380Y-71475904D01*
X79769761Y-71571142D01*
X79722142Y-71618761D01*
X79626904Y-71666380D01*
X79245952Y-71666380D01*
X79245952Y-70666380D01*
X79579285Y-70666380D01*
X79674523Y-70714000D01*
X79722142Y-70761619D01*
X79769761Y-70856857D01*
X79769761Y-70952095D01*
X79722142Y-71047333D01*
X79674523Y-71094952D01*
X79579285Y-71142571D01*
X79245952Y-71142571D01*
X80150714Y-70666380D02*
X80769761Y-70666380D01*
X80436428Y-71047333D01*
X80579285Y-71047333D01*
X80674523Y-71094952D01*
X80722142Y-71142571D01*
X80769761Y-71237809D01*
X80769761Y-71475904D01*
X80722142Y-71571142D01*
X80674523Y-71618761D01*
X80579285Y-71666380D01*
X80293571Y-71666380D01*
X80198333Y-71618761D01*
X80150714Y-71571142D01*
X76454285Y-94939142D02*
X76406666Y-94986761D01*
X76263809Y-95034380D01*
X76168571Y-95034380D01*
X76025714Y-94986761D01*
X75930476Y-94891523D01*
X75882857Y-94796285D01*
X75835238Y-94605809D01*
X75835238Y-94462952D01*
X75882857Y-94272476D01*
X75930476Y-94177238D01*
X76025714Y-94082000D01*
X76168571Y-94034380D01*
X76263809Y-94034380D01*
X76406666Y-94082000D01*
X76454285Y-94129619D01*
X76882857Y-94653428D02*
X77644761Y-94653428D01*
X77978095Y-94034380D02*
X78311428Y-95034380D01*
X78644761Y-94034380D01*
X78978095Y-95034380D02*
X78978095Y-94034380D01*
X79311428Y-94748666D01*
X79644761Y-94034380D01*
X79644761Y-95034380D01*
X80454285Y-94510571D02*
X80597142Y-94558190D01*
X80644761Y-94605809D01*
X80692380Y-94701047D01*
X80692380Y-94843904D01*
X80644761Y-94939142D01*
X80597142Y-94986761D01*
X80501904Y-95034380D01*
X80120952Y-95034380D01*
X80120952Y-94034380D01*
X80454285Y-94034380D01*
X80549523Y-94082000D01*
X80597142Y-94129619D01*
X80644761Y-94224857D01*
X80644761Y-94320095D01*
X80597142Y-94415333D01*
X80549523Y-94462952D01*
X80454285Y-94510571D01*
X80120952Y-94510571D01*
X81073333Y-94129619D02*
X81120952Y-94082000D01*
X81216190Y-94034380D01*
X81454285Y-94034380D01*
X81549523Y-94082000D01*
X81597142Y-94129619D01*
X81644761Y-94224857D01*
X81644761Y-94320095D01*
X81597142Y-94462952D01*
X81025714Y-95034380D01*
X81644761Y-95034380D01*
X73914285Y-121609142D02*
X73866666Y-121656761D01*
X73723809Y-121704380D01*
X73628571Y-121704380D01*
X73485714Y-121656761D01*
X73390476Y-121561523D01*
X73342857Y-121466285D01*
X73295238Y-121275809D01*
X73295238Y-121132952D01*
X73342857Y-120942476D01*
X73390476Y-120847238D01*
X73485714Y-120752000D01*
X73628571Y-120704380D01*
X73723809Y-120704380D01*
X73866666Y-120752000D01*
X73914285Y-120799619D01*
X74342857Y-121323428D02*
X75104761Y-121323428D01*
X75438095Y-120704380D02*
X75771428Y-121704380D01*
X76104761Y-120704380D01*
X76438095Y-121704380D02*
X76438095Y-120704380D01*
X76771428Y-121418666D01*
X77104761Y-120704380D01*
X77104761Y-121704380D01*
X77914285Y-121180571D02*
X78057142Y-121228190D01*
X78104761Y-121275809D01*
X78152380Y-121371047D01*
X78152380Y-121513904D01*
X78104761Y-121609142D01*
X78057142Y-121656761D01*
X77961904Y-121704380D01*
X77580952Y-121704380D01*
X77580952Y-120704380D01*
X77914285Y-120704380D01*
X78009523Y-120752000D01*
X78057142Y-120799619D01*
X78104761Y-120894857D01*
X78104761Y-120990095D01*
X78057142Y-121085333D01*
X78009523Y-121132952D01*
X77914285Y-121180571D01*
X77580952Y-121180571D01*
X79104761Y-121704380D02*
X78533333Y-121704380D01*
X78819047Y-121704380D02*
X78819047Y-120704380D01*
X78723809Y-120847238D01*
X78628571Y-120942476D01*
X78533333Y-120990095D01*
X75650714Y-74873142D02*
X75603095Y-74920761D01*
X75460238Y-74968380D01*
X75365000Y-74968380D01*
X75222142Y-74920761D01*
X75126904Y-74825523D01*
X75079285Y-74730285D01*
X75031666Y-74539809D01*
X75031666Y-74396952D01*
X75079285Y-74206476D01*
X75126904Y-74111238D01*
X75222142Y-74016000D01*
X75365000Y-73968380D01*
X75460238Y-73968380D01*
X75603095Y-74016000D01*
X75650714Y-74063619D01*
X76079285Y-74587428D02*
X76841190Y-74587428D01*
X77174523Y-73968380D02*
X77507857Y-74968380D01*
X77841190Y-73968380D01*
X78174523Y-74968380D02*
X78174523Y-73968380D01*
X78507857Y-74682666D01*
X78841190Y-73968380D01*
X78841190Y-74968380D01*
X79269761Y-74682666D02*
X79745952Y-74682666D01*
X79174523Y-74968380D02*
X79507857Y-73968380D01*
X79841190Y-74968380D01*
X80079285Y-73968380D02*
X80698333Y-73968380D01*
X80365000Y-74349333D01*
X80507857Y-74349333D01*
X80603095Y-74396952D01*
X80650714Y-74444571D01*
X80698333Y-74539809D01*
X80698333Y-74777904D01*
X80650714Y-74873142D01*
X80603095Y-74920761D01*
X80507857Y-74968380D01*
X80222142Y-74968380D01*
X80126904Y-74920761D01*
X80079285Y-74873142D01*
X76412714Y-97987142D02*
X76365095Y-98034761D01*
X76222238Y-98082380D01*
X76127000Y-98082380D01*
X75984142Y-98034761D01*
X75888904Y-97939523D01*
X75841285Y-97844285D01*
X75793666Y-97653809D01*
X75793666Y-97510952D01*
X75841285Y-97320476D01*
X75888904Y-97225238D01*
X75984142Y-97130000D01*
X76127000Y-97082380D01*
X76222238Y-97082380D01*
X76365095Y-97130000D01*
X76412714Y-97177619D01*
X76841285Y-97701428D02*
X77603190Y-97701428D01*
X77936523Y-97082380D02*
X78269857Y-98082380D01*
X78603190Y-97082380D01*
X78936523Y-98082380D02*
X78936523Y-97082380D01*
X79269857Y-97796666D01*
X79603190Y-97082380D01*
X79603190Y-98082380D01*
X80031761Y-97796666D02*
X80507952Y-97796666D01*
X79936523Y-98082380D02*
X80269857Y-97082380D01*
X80603190Y-98082380D01*
X80888904Y-97177619D02*
X80936523Y-97130000D01*
X81031761Y-97082380D01*
X81269857Y-97082380D01*
X81365095Y-97130000D01*
X81412714Y-97177619D01*
X81460333Y-97272857D01*
X81460333Y-97368095D01*
X81412714Y-97510952D01*
X80841285Y-98082380D01*
X81460333Y-98082380D01*
X73985714Y-118307142D02*
X73938095Y-118354761D01*
X73795238Y-118402380D01*
X73700000Y-118402380D01*
X73557142Y-118354761D01*
X73461904Y-118259523D01*
X73414285Y-118164285D01*
X73366666Y-117973809D01*
X73366666Y-117830952D01*
X73414285Y-117640476D01*
X73461904Y-117545238D01*
X73557142Y-117450000D01*
X73700000Y-117402380D01*
X73795238Y-117402380D01*
X73938095Y-117450000D01*
X73985714Y-117497619D01*
X74414285Y-118021428D02*
X75176190Y-118021428D01*
X75509523Y-117402380D02*
X75842857Y-118402380D01*
X76176190Y-117402380D01*
X76509523Y-118402380D02*
X76509523Y-117402380D01*
X76842857Y-118116666D01*
X77176190Y-117402380D01*
X77176190Y-118402380D01*
X77604761Y-118116666D02*
X78080952Y-118116666D01*
X77509523Y-118402380D02*
X77842857Y-117402380D01*
X78176190Y-118402380D01*
X79033333Y-118402380D02*
X78461904Y-118402380D01*
X78747619Y-118402380D02*
X78747619Y-117402380D01*
X78652380Y-117545238D01*
X78557142Y-117640476D01*
X78461904Y-117688095D01*
X109737142Y-33803857D02*
X109784761Y-33851476D01*
X109832380Y-33994333D01*
X109832380Y-34089571D01*
X109784761Y-34232428D01*
X109689523Y-34327666D01*
X109594285Y-34375285D01*
X109403809Y-34422904D01*
X109260952Y-34422904D01*
X109070476Y-34375285D01*
X108975238Y-34327666D01*
X108880000Y-34232428D01*
X108832380Y-34089571D01*
X108832380Y-33994333D01*
X108880000Y-33851476D01*
X108927619Y-33803857D01*
X109832380Y-32851476D02*
X109832380Y-33422904D01*
X109832380Y-33137190D02*
X108832380Y-33137190D01*
X108975238Y-33232428D01*
X109070476Y-33327666D01*
X109118095Y-33422904D01*
X109165714Y-31994333D02*
X109832380Y-31994333D01*
X108784761Y-32232428D02*
X109499047Y-32470523D01*
X109499047Y-31851476D01*
X51935142Y-77563808D02*
X51887523Y-77611427D01*
X51744666Y-77659046D01*
X51649428Y-77659046D01*
X51506571Y-77611427D01*
X51411333Y-77516189D01*
X51363714Y-77420951D01*
X51316095Y-77230475D01*
X51316095Y-77087618D01*
X51363714Y-76897142D01*
X51411333Y-76801904D01*
X51506571Y-76706666D01*
X51649428Y-76659046D01*
X51744666Y-76659046D01*
X51887523Y-76706666D01*
X51935142Y-76754285D01*
X52887523Y-77659046D02*
X52316095Y-77659046D01*
X52601809Y-77659046D02*
X52601809Y-76659046D01*
X52506571Y-76801904D01*
X52411333Y-76897142D01*
X52316095Y-76944761D01*
X53268476Y-76754285D02*
X53316095Y-76706666D01*
X53411333Y-76659046D01*
X53649428Y-76659046D01*
X53744666Y-76706666D01*
X53792285Y-76754285D01*
X53839904Y-76849523D01*
X53839904Y-76944761D01*
X53792285Y-77087618D01*
X53220857Y-77659046D01*
X53839904Y-77659046D01*
X45980142Y-68081142D02*
X45932523Y-68128761D01*
X45789666Y-68176380D01*
X45694428Y-68176380D01*
X45551571Y-68128761D01*
X45456333Y-68033523D01*
X45408714Y-67938285D01*
X45361095Y-67747809D01*
X45361095Y-67604952D01*
X45408714Y-67414476D01*
X45456333Y-67319238D01*
X45551571Y-67224000D01*
X45694428Y-67176380D01*
X45789666Y-67176380D01*
X45932523Y-67224000D01*
X45980142Y-67271619D01*
X46932523Y-68176380D02*
X46361095Y-68176380D01*
X46646809Y-68176380D02*
X46646809Y-67176380D01*
X46551571Y-67319238D01*
X46456333Y-67414476D01*
X46361095Y-67462095D01*
X47884904Y-68176380D02*
X47313476Y-68176380D01*
X47599190Y-68176380D02*
X47599190Y-67176380D01*
X47503952Y-67319238D01*
X47408714Y-67414476D01*
X47313476Y-67462095D01*
X26676142Y-72907142D02*
X26628523Y-72954761D01*
X26485666Y-73002380D01*
X26390428Y-73002380D01*
X26247571Y-72954761D01*
X26152333Y-72859523D01*
X26104714Y-72764285D01*
X26057095Y-72573809D01*
X26057095Y-72430952D01*
X26104714Y-72240476D01*
X26152333Y-72145238D01*
X26247571Y-72050000D01*
X26390428Y-72002380D01*
X26485666Y-72002380D01*
X26628523Y-72050000D01*
X26676142Y-72097619D01*
X27628523Y-73002380D02*
X27057095Y-73002380D01*
X27342809Y-73002380D02*
X27342809Y-72002380D01*
X27247571Y-72145238D01*
X27152333Y-72240476D01*
X27057095Y-72288095D01*
X28247571Y-72002380D02*
X28342809Y-72002380D01*
X28438047Y-72050000D01*
X28485666Y-72097619D01*
X28533285Y-72192857D01*
X28580904Y-72383333D01*
X28580904Y-72621428D01*
X28533285Y-72811904D01*
X28485666Y-72907142D01*
X28438047Y-72954761D01*
X28342809Y-73002380D01*
X28247571Y-73002380D01*
X28152333Y-72954761D01*
X28104714Y-72907142D01*
X28057095Y-72811904D01*
X28009476Y-72621428D01*
X28009476Y-72383333D01*
X28057095Y-72192857D01*
X28104714Y-72097619D01*
X28152333Y-72050000D01*
X28247571Y-72002380D01*
X84048333Y-54553142D02*
X84000714Y-54600761D01*
X83857857Y-54648380D01*
X83762619Y-54648380D01*
X83619761Y-54600761D01*
X83524523Y-54505523D01*
X83476904Y-54410285D01*
X83429285Y-54219809D01*
X83429285Y-54076952D01*
X83476904Y-53886476D01*
X83524523Y-53791238D01*
X83619761Y-53696000D01*
X83762619Y-53648380D01*
X83857857Y-53648380D01*
X84000714Y-53696000D01*
X84048333Y-53743619D01*
X84524523Y-54648380D02*
X84715000Y-54648380D01*
X84810238Y-54600761D01*
X84857857Y-54553142D01*
X84953095Y-54410285D01*
X85000714Y-54219809D01*
X85000714Y-53838857D01*
X84953095Y-53743619D01*
X84905476Y-53696000D01*
X84810238Y-53648380D01*
X84619761Y-53648380D01*
X84524523Y-53696000D01*
X84476904Y-53743619D01*
X84429285Y-53838857D01*
X84429285Y-54076952D01*
X84476904Y-54172190D01*
X84524523Y-54219809D01*
X84619761Y-54267428D01*
X84810238Y-54267428D01*
X84905476Y-54219809D01*
X84953095Y-54172190D01*
X85000714Y-54076952D01*
X95986333Y-75447142D02*
X95938714Y-75494761D01*
X95795857Y-75542380D01*
X95700619Y-75542380D01*
X95557761Y-75494761D01*
X95462523Y-75399523D01*
X95414904Y-75304285D01*
X95367285Y-75113809D01*
X95367285Y-74970952D01*
X95414904Y-74780476D01*
X95462523Y-74685238D01*
X95557761Y-74590000D01*
X95700619Y-74542380D01*
X95795857Y-74542380D01*
X95938714Y-74590000D01*
X95986333Y-74637619D01*
X96557761Y-74970952D02*
X96462523Y-74923333D01*
X96414904Y-74875714D01*
X96367285Y-74780476D01*
X96367285Y-74732857D01*
X96414904Y-74637619D01*
X96462523Y-74590000D01*
X96557761Y-74542380D01*
X96748238Y-74542380D01*
X96843476Y-74590000D01*
X96891095Y-74637619D01*
X96938714Y-74732857D01*
X96938714Y-74780476D01*
X96891095Y-74875714D01*
X96843476Y-74923333D01*
X96748238Y-74970952D01*
X96557761Y-74970952D01*
X96462523Y-75018571D01*
X96414904Y-75066190D01*
X96367285Y-75161428D01*
X96367285Y-75351904D01*
X96414904Y-75447142D01*
X96462523Y-75494761D01*
X96557761Y-75542380D01*
X96748238Y-75542380D01*
X96843476Y-75494761D01*
X96891095Y-75447142D01*
X96938714Y-75351904D01*
X96938714Y-75161428D01*
X96891095Y-75066190D01*
X96843476Y-75018571D01*
X96748238Y-74970952D01*
X90398333Y-72587142D02*
X90350714Y-72634761D01*
X90207857Y-72682380D01*
X90112619Y-72682380D01*
X89969761Y-72634761D01*
X89874523Y-72539523D01*
X89826904Y-72444285D01*
X89779285Y-72253809D01*
X89779285Y-72110952D01*
X89826904Y-71920476D01*
X89874523Y-71825238D01*
X89969761Y-71730000D01*
X90112619Y-71682380D01*
X90207857Y-71682380D01*
X90350714Y-71730000D01*
X90398333Y-71777619D01*
X90731666Y-71682380D02*
X91398333Y-71682380D01*
X90969761Y-72682380D01*
X84161333Y-78175142D02*
X84113714Y-78222761D01*
X83970857Y-78270380D01*
X83875619Y-78270380D01*
X83732761Y-78222761D01*
X83637523Y-78127523D01*
X83589904Y-78032285D01*
X83542285Y-77841809D01*
X83542285Y-77698952D01*
X83589904Y-77508476D01*
X83637523Y-77413238D01*
X83732761Y-77318000D01*
X83875619Y-77270380D01*
X83970857Y-77270380D01*
X84113714Y-77318000D01*
X84161333Y-77365619D01*
X85018476Y-77270380D02*
X84828000Y-77270380D01*
X84732761Y-77318000D01*
X84685142Y-77365619D01*
X84589904Y-77508476D01*
X84542285Y-77698952D01*
X84542285Y-78079904D01*
X84589904Y-78175142D01*
X84637523Y-78222761D01*
X84732761Y-78270380D01*
X84923238Y-78270380D01*
X85018476Y-78222761D01*
X85066095Y-78175142D01*
X85113714Y-78079904D01*
X85113714Y-77841809D01*
X85066095Y-77746571D01*
X85018476Y-77698952D01*
X84923238Y-77651333D01*
X84732761Y-77651333D01*
X84637523Y-77698952D01*
X84589904Y-77746571D01*
X84542285Y-77841809D01*
X94942333Y-98307142D02*
X94894714Y-98354761D01*
X94751857Y-98402380D01*
X94656619Y-98402380D01*
X94513761Y-98354761D01*
X94418523Y-98259523D01*
X94370904Y-98164285D01*
X94323285Y-97973809D01*
X94323285Y-97830952D01*
X94370904Y-97640476D01*
X94418523Y-97545238D01*
X94513761Y-97450000D01*
X94656619Y-97402380D01*
X94751857Y-97402380D01*
X94894714Y-97450000D01*
X94942333Y-97497619D01*
X95847095Y-97402380D02*
X95370904Y-97402380D01*
X95323285Y-97878571D01*
X95370904Y-97830952D01*
X95466142Y-97783333D01*
X95704238Y-97783333D01*
X95799476Y-97830952D01*
X95847095Y-97878571D01*
X95894714Y-97973809D01*
X95894714Y-98211904D01*
X95847095Y-98307142D01*
X95799476Y-98354761D01*
X95704238Y-98402380D01*
X95466142Y-98402380D01*
X95370904Y-98354761D01*
X95323285Y-98307142D01*
X90398333Y-95447142D02*
X90350714Y-95494761D01*
X90207857Y-95542380D01*
X90112619Y-95542380D01*
X89969761Y-95494761D01*
X89874523Y-95399523D01*
X89826904Y-95304285D01*
X89779285Y-95113809D01*
X89779285Y-94970952D01*
X89826904Y-94780476D01*
X89874523Y-94685238D01*
X89969761Y-94590000D01*
X90112619Y-94542380D01*
X90207857Y-94542380D01*
X90350714Y-94590000D01*
X90398333Y-94637619D01*
X91255476Y-94875714D02*
X91255476Y-95542380D01*
X91017380Y-94494761D02*
X90779285Y-95209047D01*
X91398333Y-95209047D01*
X84048333Y-102051142D02*
X84000714Y-102098761D01*
X83857857Y-102146380D01*
X83762619Y-102146380D01*
X83619761Y-102098761D01*
X83524523Y-102003523D01*
X83476904Y-101908285D01*
X83429285Y-101717809D01*
X83429285Y-101574952D01*
X83476904Y-101384476D01*
X83524523Y-101289238D01*
X83619761Y-101194000D01*
X83762619Y-101146380D01*
X83857857Y-101146380D01*
X84000714Y-101194000D01*
X84048333Y-101241619D01*
X84381666Y-101146380D02*
X85000714Y-101146380D01*
X84667380Y-101527333D01*
X84810238Y-101527333D01*
X84905476Y-101574952D01*
X84953095Y-101622571D01*
X85000714Y-101717809D01*
X85000714Y-101955904D01*
X84953095Y-102051142D01*
X84905476Y-102098761D01*
X84810238Y-102146380D01*
X84524523Y-102146380D01*
X84429285Y-102098761D01*
X84381666Y-102051142D01*
X95224333Y-122183142D02*
X95176714Y-122230761D01*
X95033857Y-122278380D01*
X94938619Y-122278380D01*
X94795761Y-122230761D01*
X94700523Y-122135523D01*
X94652904Y-122040285D01*
X94605285Y-121849809D01*
X94605285Y-121706952D01*
X94652904Y-121516476D01*
X94700523Y-121421238D01*
X94795761Y-121326000D01*
X94938619Y-121278380D01*
X95033857Y-121278380D01*
X95176714Y-121326000D01*
X95224333Y-121373619D01*
X95605285Y-121373619D02*
X95652904Y-121326000D01*
X95748142Y-121278380D01*
X95986238Y-121278380D01*
X96081476Y-121326000D01*
X96129095Y-121373619D01*
X96176714Y-121468857D01*
X96176714Y-121564095D01*
X96129095Y-121706952D01*
X95557666Y-122278380D01*
X96176714Y-122278380D01*
X90144333Y-119323142D02*
X90096714Y-119370761D01*
X89953857Y-119418380D01*
X89858619Y-119418380D01*
X89715761Y-119370761D01*
X89620523Y-119275523D01*
X89572904Y-119180285D01*
X89525285Y-118989809D01*
X89525285Y-118846952D01*
X89572904Y-118656476D01*
X89620523Y-118561238D01*
X89715761Y-118466000D01*
X89858619Y-118418380D01*
X89953857Y-118418380D01*
X90096714Y-118466000D01*
X90144333Y-118513619D01*
X91096714Y-119418380D02*
X90525285Y-119418380D01*
X90811000Y-119418380D02*
X90811000Y-118418380D01*
X90715761Y-118561238D01*
X90620523Y-118656476D01*
X90525285Y-118704095D01*
M02*
